G04 #@! TF.FileFunction,Legend,Bot*
%FSLAX46Y46*%
G04 Gerber Fmt 4.6, Leading zero omitted, Abs format (unit mm)*
G04 Created by KiCad (PCBNEW 4.0.7-e2-6376~58~ubuntu16.04.1) date Tue Apr 16 15:45:19 2019*
%MOMM*%
%LPD*%
G01*
G04 APERTURE LIST*
%ADD10C,0.100000*%
%ADD11C,0.120000*%
%ADD12C,0.150000*%
G04 APERTURE END LIST*
D10*
D11*
X103001767Y-101247891D02*
X104001767Y-101247891D01*
X104001767Y-102947891D02*
X103001767Y-102947891D01*
X103001767Y-98464000D02*
X104001767Y-98464000D01*
X104001767Y-100164000D02*
X103001767Y-100164000D01*
X115070000Y-101258000D02*
X116070000Y-101258000D01*
X116070000Y-102958000D02*
X115070000Y-102958000D01*
X100901438Y-113628208D02*
X100901438Y-114628208D01*
X99201438Y-114628208D02*
X99201438Y-113628208D01*
X98276326Y-113628208D02*
X98276326Y-114628208D01*
X96576326Y-114628208D02*
X96576326Y-113628208D01*
X95821438Y-113608208D02*
X95821438Y-114608208D01*
X94121438Y-114608208D02*
X94121438Y-113608208D01*
X96608000Y-105438000D02*
X96608000Y-106438000D01*
X94908000Y-106438000D02*
X94908000Y-105438000D01*
X104033002Y-121771001D02*
X103033002Y-121771001D01*
X103033002Y-120071001D02*
X104033002Y-120071001D01*
X113800000Y-121324000D02*
X114800000Y-121324000D01*
X114800000Y-123024000D02*
X113800000Y-123024000D01*
X99148000Y-105418000D02*
X99148000Y-106418000D01*
X97448000Y-106418000D02*
X97448000Y-105418000D01*
X104132000Y-124294000D02*
X103132000Y-124294000D01*
X103132000Y-122594000D02*
X104132000Y-122594000D01*
X113800000Y-124626000D02*
X114800000Y-124626000D01*
X114800000Y-126326000D02*
X113800000Y-126326000D01*
D12*
X103913940Y-97828100D02*
X102862380Y-97828100D01*
X102811580Y-96227900D02*
X103863140Y-96227900D01*
D11*
X162442000Y-91865974D02*
X162442000Y-93065974D01*
X164202000Y-93065974D02*
X164202000Y-91865974D01*
X157616000Y-91865974D02*
X157616000Y-93065974D01*
X159376000Y-93065974D02*
X159376000Y-91865974D01*
X152790000Y-91785974D02*
X152790000Y-92985974D01*
X154550000Y-92985974D02*
X154550000Y-91785974D01*
D12*
X99988666Y-102465143D02*
X100036285Y-102512762D01*
X100179142Y-102560381D01*
X100274380Y-102560381D01*
X100417238Y-102512762D01*
X100512476Y-102417524D01*
X100560095Y-102322286D01*
X100607714Y-102131810D01*
X100607714Y-101988952D01*
X100560095Y-101798476D01*
X100512476Y-101703238D01*
X100417238Y-101608000D01*
X100274380Y-101560381D01*
X100179142Y-101560381D01*
X100036285Y-101608000D01*
X99988666Y-101655619D01*
X99131523Y-101560381D02*
X99322000Y-101560381D01*
X99417238Y-101608000D01*
X99464857Y-101655619D01*
X99560095Y-101798476D01*
X99607714Y-101988952D01*
X99607714Y-102369905D01*
X99560095Y-102465143D01*
X99512476Y-102512762D01*
X99417238Y-102560381D01*
X99226761Y-102560381D01*
X99131523Y-102512762D01*
X99083904Y-102465143D01*
X99036285Y-102369905D01*
X99036285Y-102131810D01*
X99083904Y-102036571D01*
X99131523Y-101988952D01*
X99226761Y-101941333D01*
X99417238Y-101941333D01*
X99512476Y-101988952D01*
X99560095Y-102036571D01*
X99607714Y-102131810D01*
X99734666Y-99925143D02*
X99782285Y-99972762D01*
X99925142Y-100020381D01*
X100020380Y-100020381D01*
X100163238Y-99972762D01*
X100258476Y-99877524D01*
X100306095Y-99782286D01*
X100353714Y-99591810D01*
X100353714Y-99448952D01*
X100306095Y-99258476D01*
X100258476Y-99163238D01*
X100163238Y-99068000D01*
X100020380Y-99020381D01*
X99925142Y-99020381D01*
X99782285Y-99068000D01*
X99734666Y-99115619D01*
X99401333Y-99020381D02*
X98734666Y-99020381D01*
X99163238Y-100020381D01*
X115736666Y-100715143D02*
X115784285Y-100762762D01*
X115927142Y-100810381D01*
X116022380Y-100810381D01*
X116165238Y-100762762D01*
X116260476Y-100667524D01*
X116308095Y-100572286D01*
X116355714Y-100381810D01*
X116355714Y-100238952D01*
X116308095Y-100048476D01*
X116260476Y-99953238D01*
X116165238Y-99858000D01*
X116022380Y-99810381D01*
X115927142Y-99810381D01*
X115784285Y-99858000D01*
X115736666Y-99905619D01*
X115260476Y-100810381D02*
X115070000Y-100810381D01*
X114974761Y-100762762D01*
X114927142Y-100715143D01*
X114831904Y-100572286D01*
X114784285Y-100381810D01*
X114784285Y-100000857D01*
X114831904Y-99905619D01*
X114879523Y-99858000D01*
X114974761Y-99810381D01*
X115165238Y-99810381D01*
X115260476Y-99858000D01*
X115308095Y-99905619D01*
X115355714Y-100000857D01*
X115355714Y-100238952D01*
X115308095Y-100334190D01*
X115260476Y-100381810D01*
X115165238Y-100429429D01*
X114974761Y-100429429D01*
X114879523Y-100381810D01*
X114831904Y-100334190D01*
X114784285Y-100238952D01*
X100493693Y-117803351D02*
X100541312Y-117755732D01*
X100588931Y-117612875D01*
X100588931Y-117517637D01*
X100541312Y-117374779D01*
X100446074Y-117279541D01*
X100350836Y-117231922D01*
X100160360Y-117184303D01*
X100017502Y-117184303D01*
X99827026Y-117231922D01*
X99731788Y-117279541D01*
X99636550Y-117374779D01*
X99588931Y-117517637D01*
X99588931Y-117612875D01*
X99636550Y-117755732D01*
X99684169Y-117803351D01*
X100588931Y-118755732D02*
X100588931Y-118184303D01*
X100588931Y-118470017D02*
X99588931Y-118470017D01*
X99731788Y-118374779D01*
X99827026Y-118279541D01*
X99874645Y-118184303D01*
X100588931Y-119708113D02*
X100588931Y-119136684D01*
X100588931Y-119422398D02*
X99588931Y-119422398D01*
X99731788Y-119327160D01*
X99827026Y-119231922D01*
X99874645Y-119136684D01*
X97868581Y-117803351D02*
X97916200Y-117755732D01*
X97963819Y-117612875D01*
X97963819Y-117517637D01*
X97916200Y-117374779D01*
X97820962Y-117279541D01*
X97725724Y-117231922D01*
X97535248Y-117184303D01*
X97392390Y-117184303D01*
X97201914Y-117231922D01*
X97106676Y-117279541D01*
X97011438Y-117374779D01*
X96963819Y-117517637D01*
X96963819Y-117612875D01*
X97011438Y-117755732D01*
X97059057Y-117803351D01*
X97963819Y-118755732D02*
X97963819Y-118184303D01*
X97963819Y-118470017D02*
X96963819Y-118470017D01*
X97106676Y-118374779D01*
X97201914Y-118279541D01*
X97249533Y-118184303D01*
X96963819Y-119089065D02*
X96963819Y-119708113D01*
X97344771Y-119374779D01*
X97344771Y-119517637D01*
X97392390Y-119612875D01*
X97440009Y-119660494D01*
X97535248Y-119708113D01*
X97773343Y-119708113D01*
X97868581Y-119660494D01*
X97916200Y-119612875D01*
X97963819Y-119517637D01*
X97963819Y-119231922D01*
X97916200Y-119136684D01*
X97868581Y-119089065D01*
X95582581Y-117803351D02*
X95630200Y-117755732D01*
X95677819Y-117612875D01*
X95677819Y-117517637D01*
X95630200Y-117374779D01*
X95534962Y-117279541D01*
X95439724Y-117231922D01*
X95249248Y-117184303D01*
X95106390Y-117184303D01*
X94915914Y-117231922D01*
X94820676Y-117279541D01*
X94725438Y-117374779D01*
X94677819Y-117517637D01*
X94677819Y-117612875D01*
X94725438Y-117755732D01*
X94773057Y-117803351D01*
X95677819Y-118755732D02*
X95677819Y-118184303D01*
X95677819Y-118470017D02*
X94677819Y-118470017D01*
X94820676Y-118374779D01*
X94915914Y-118279541D01*
X94963533Y-118184303D01*
X94677819Y-119660494D02*
X94677819Y-119184303D01*
X95154009Y-119136684D01*
X95106390Y-119184303D01*
X95058771Y-119279541D01*
X95058771Y-119517637D01*
X95106390Y-119612875D01*
X95154009Y-119660494D01*
X95249248Y-119708113D01*
X95487343Y-119708113D01*
X95582581Y-119660494D01*
X95630200Y-119612875D01*
X95677819Y-119517637D01*
X95677819Y-119279541D01*
X95630200Y-119184303D01*
X95582581Y-119136684D01*
X96115143Y-101322145D02*
X96162762Y-101274526D01*
X96210381Y-101131669D01*
X96210381Y-101036431D01*
X96162762Y-100893573D01*
X96067524Y-100798335D01*
X95972286Y-100750716D01*
X95781810Y-100703097D01*
X95638952Y-100703097D01*
X95448476Y-100750716D01*
X95353238Y-100798335D01*
X95258000Y-100893573D01*
X95210381Y-101036431D01*
X95210381Y-101131669D01*
X95258000Y-101274526D01*
X95305619Y-101322145D01*
X96210381Y-102274526D02*
X96210381Y-101703097D01*
X96210381Y-101988811D02*
X95210381Y-101988811D01*
X95353238Y-101893573D01*
X95448476Y-101798335D01*
X95496095Y-101703097D01*
X95210381Y-103131669D02*
X95210381Y-102941192D01*
X95258000Y-102845954D01*
X95305619Y-102798335D01*
X95448476Y-102703097D01*
X95638952Y-102655478D01*
X96019905Y-102655478D01*
X96115143Y-102703097D01*
X96162762Y-102750716D01*
X96210381Y-102845954D01*
X96210381Y-103036431D01*
X96162762Y-103131669D01*
X96115143Y-103179288D01*
X96019905Y-103226907D01*
X95781810Y-103226907D01*
X95686571Y-103179288D01*
X95638952Y-103131669D01*
X95591333Y-103036431D01*
X95591333Y-102845954D01*
X95638952Y-102750716D01*
X95686571Y-102703097D01*
X95781810Y-102655478D01*
X108338857Y-121515143D02*
X108386476Y-121562762D01*
X108529333Y-121610381D01*
X108624571Y-121610381D01*
X108767429Y-121562762D01*
X108862667Y-121467524D01*
X108910286Y-121372286D01*
X108957905Y-121181810D01*
X108957905Y-121038952D01*
X108910286Y-120848476D01*
X108862667Y-120753238D01*
X108767429Y-120658000D01*
X108624571Y-120610381D01*
X108529333Y-120610381D01*
X108386476Y-120658000D01*
X108338857Y-120705619D01*
X107386476Y-121610381D02*
X107957905Y-121610381D01*
X107672191Y-121610381D02*
X107672191Y-120610381D01*
X107767429Y-120753238D01*
X107862667Y-120848476D01*
X107957905Y-120896095D01*
X107053143Y-120610381D02*
X106386476Y-120610381D01*
X106815048Y-121610381D01*
X114942857Y-120781143D02*
X114990476Y-120828762D01*
X115133333Y-120876381D01*
X115228571Y-120876381D01*
X115371429Y-120828762D01*
X115466667Y-120733524D01*
X115514286Y-120638286D01*
X115561905Y-120447810D01*
X115561905Y-120304952D01*
X115514286Y-120114476D01*
X115466667Y-120019238D01*
X115371429Y-119924000D01*
X115228571Y-119876381D01*
X115133333Y-119876381D01*
X114990476Y-119924000D01*
X114942857Y-119971619D01*
X113990476Y-120876381D02*
X114561905Y-120876381D01*
X114276191Y-120876381D02*
X114276191Y-119876381D01*
X114371429Y-120019238D01*
X114466667Y-120114476D01*
X114561905Y-120162095D01*
X113419048Y-120304952D02*
X113514286Y-120257333D01*
X113561905Y-120209714D01*
X113609524Y-120114476D01*
X113609524Y-120066857D01*
X113561905Y-119971619D01*
X113514286Y-119924000D01*
X113419048Y-119876381D01*
X113228571Y-119876381D01*
X113133333Y-119924000D01*
X113085714Y-119971619D01*
X113038095Y-120066857D01*
X113038095Y-120114476D01*
X113085714Y-120209714D01*
X113133333Y-120257333D01*
X113228571Y-120304952D01*
X113419048Y-120304952D01*
X113514286Y-120352571D01*
X113561905Y-120400190D01*
X113609524Y-120495429D01*
X113609524Y-120685905D01*
X113561905Y-120781143D01*
X113514286Y-120828762D01*
X113419048Y-120876381D01*
X113228571Y-120876381D01*
X113133333Y-120828762D01*
X113085714Y-120781143D01*
X113038095Y-120685905D01*
X113038095Y-120495429D01*
X113085714Y-120400190D01*
X113133333Y-120352571D01*
X113228571Y-120304952D01*
X98655143Y-101211143D02*
X98702762Y-101163524D01*
X98750381Y-101020667D01*
X98750381Y-100925429D01*
X98702762Y-100782571D01*
X98607524Y-100687333D01*
X98512286Y-100639714D01*
X98321810Y-100592095D01*
X98178952Y-100592095D01*
X97988476Y-100639714D01*
X97893238Y-100687333D01*
X97798000Y-100782571D01*
X97750381Y-100925429D01*
X97750381Y-101020667D01*
X97798000Y-101163524D01*
X97845619Y-101211143D01*
X98750381Y-102163524D02*
X98750381Y-101592095D01*
X98750381Y-101877809D02*
X97750381Y-101877809D01*
X97893238Y-101782571D01*
X97988476Y-101687333D01*
X98036095Y-101592095D01*
X98750381Y-102639714D02*
X98750381Y-102830190D01*
X98702762Y-102925429D01*
X98655143Y-102973048D01*
X98512286Y-103068286D01*
X98321810Y-103115905D01*
X97940857Y-103115905D01*
X97845619Y-103068286D01*
X97798000Y-103020667D01*
X97750381Y-102925429D01*
X97750381Y-102734952D01*
X97798000Y-102639714D01*
X97845619Y-102592095D01*
X97940857Y-102544476D01*
X98178952Y-102544476D01*
X98274190Y-102592095D01*
X98321810Y-102639714D01*
X98369429Y-102734952D01*
X98369429Y-102925429D01*
X98321810Y-103020667D01*
X98274190Y-103068286D01*
X98178952Y-103115905D01*
X108338857Y-123801143D02*
X108386476Y-123848762D01*
X108529333Y-123896381D01*
X108624571Y-123896381D01*
X108767429Y-123848762D01*
X108862667Y-123753524D01*
X108910286Y-123658286D01*
X108957905Y-123467810D01*
X108957905Y-123324952D01*
X108910286Y-123134476D01*
X108862667Y-123039238D01*
X108767429Y-122944000D01*
X108624571Y-122896381D01*
X108529333Y-122896381D01*
X108386476Y-122944000D01*
X108338857Y-122991619D01*
X107957905Y-122991619D02*
X107910286Y-122944000D01*
X107815048Y-122896381D01*
X107576952Y-122896381D01*
X107481714Y-122944000D01*
X107434095Y-122991619D01*
X107386476Y-123086857D01*
X107386476Y-123182095D01*
X107434095Y-123324952D01*
X108005524Y-123896381D01*
X107386476Y-123896381D01*
X106767429Y-122896381D02*
X106672190Y-122896381D01*
X106576952Y-122944000D01*
X106529333Y-122991619D01*
X106481714Y-123086857D01*
X106434095Y-123277333D01*
X106434095Y-123515429D01*
X106481714Y-123705905D01*
X106529333Y-123801143D01*
X106576952Y-123848762D01*
X106672190Y-123896381D01*
X106767429Y-123896381D01*
X106862667Y-123848762D01*
X106910286Y-123801143D01*
X106957905Y-123705905D01*
X107005524Y-123515429D01*
X107005524Y-123277333D01*
X106957905Y-123086857D01*
X106910286Y-122991619D01*
X106862667Y-122944000D01*
X106767429Y-122896381D01*
X114942857Y-124083143D02*
X114990476Y-124130762D01*
X115133333Y-124178381D01*
X115228571Y-124178381D01*
X115371429Y-124130762D01*
X115466667Y-124035524D01*
X115514286Y-123940286D01*
X115561905Y-123749810D01*
X115561905Y-123606952D01*
X115514286Y-123416476D01*
X115466667Y-123321238D01*
X115371429Y-123226000D01*
X115228571Y-123178381D01*
X115133333Y-123178381D01*
X114990476Y-123226000D01*
X114942857Y-123273619D01*
X114561905Y-123273619D02*
X114514286Y-123226000D01*
X114419048Y-123178381D01*
X114180952Y-123178381D01*
X114085714Y-123226000D01*
X114038095Y-123273619D01*
X113990476Y-123368857D01*
X113990476Y-123464095D01*
X114038095Y-123606952D01*
X114609524Y-124178381D01*
X113990476Y-124178381D01*
X113038095Y-124178381D02*
X113609524Y-124178381D01*
X113323810Y-124178381D02*
X113323810Y-123178381D01*
X113419048Y-123321238D01*
X113514286Y-123416476D01*
X113609524Y-123464095D01*
X108355426Y-97480381D02*
X108831617Y-97480381D01*
X108831617Y-96480381D01*
X107498283Y-97480381D02*
X108069712Y-97480381D01*
X107783998Y-97480381D02*
X107783998Y-96480381D01*
X107879236Y-96623238D01*
X107974474Y-96718476D01*
X108069712Y-96766095D01*
X165474381Y-91823117D02*
X164998190Y-91489783D01*
X165474381Y-91251688D02*
X164474381Y-91251688D01*
X164474381Y-91632641D01*
X164522000Y-91727879D01*
X164569619Y-91775498D01*
X164664857Y-91823117D01*
X164807714Y-91823117D01*
X164902952Y-91775498D01*
X164950571Y-91727879D01*
X164998190Y-91632641D01*
X164998190Y-91251688D01*
X165474381Y-92775498D02*
X165474381Y-92204069D01*
X165474381Y-92489783D02*
X164474381Y-92489783D01*
X164617238Y-92394545D01*
X164712476Y-92299307D01*
X164760095Y-92204069D01*
X164474381Y-93394545D02*
X164474381Y-93489784D01*
X164522000Y-93585022D01*
X164569619Y-93632641D01*
X164664857Y-93680260D01*
X164855333Y-93727879D01*
X165093429Y-93727879D01*
X165283905Y-93680260D01*
X165379143Y-93632641D01*
X165426762Y-93585022D01*
X165474381Y-93489784D01*
X165474381Y-93394545D01*
X165426762Y-93299307D01*
X165379143Y-93251688D01*
X165283905Y-93204069D01*
X165093429Y-93156450D01*
X164855333Y-93156450D01*
X164664857Y-93204069D01*
X164569619Y-93251688D01*
X164522000Y-93299307D01*
X164474381Y-93394545D01*
X160648381Y-91823117D02*
X160172190Y-91489783D01*
X160648381Y-91251688D02*
X159648381Y-91251688D01*
X159648381Y-91632641D01*
X159696000Y-91727879D01*
X159743619Y-91775498D01*
X159838857Y-91823117D01*
X159981714Y-91823117D01*
X160076952Y-91775498D01*
X160124571Y-91727879D01*
X160172190Y-91632641D01*
X160172190Y-91251688D01*
X160648381Y-92775498D02*
X160648381Y-92204069D01*
X160648381Y-92489783D02*
X159648381Y-92489783D01*
X159791238Y-92394545D01*
X159886476Y-92299307D01*
X159934095Y-92204069D01*
X160648381Y-93727879D02*
X160648381Y-93156450D01*
X160648381Y-93442164D02*
X159648381Y-93442164D01*
X159791238Y-93346926D01*
X159886476Y-93251688D01*
X159934095Y-93156450D01*
X155822381Y-91743117D02*
X155346190Y-91409783D01*
X155822381Y-91171688D02*
X154822381Y-91171688D01*
X154822381Y-91552641D01*
X154870000Y-91647879D01*
X154917619Y-91695498D01*
X155012857Y-91743117D01*
X155155714Y-91743117D01*
X155250952Y-91695498D01*
X155298571Y-91647879D01*
X155346190Y-91552641D01*
X155346190Y-91171688D01*
X155822381Y-92695498D02*
X155822381Y-92124069D01*
X155822381Y-92409783D02*
X154822381Y-92409783D01*
X154965238Y-92314545D01*
X155060476Y-92219307D01*
X155108095Y-92124069D01*
X154917619Y-93076450D02*
X154870000Y-93124069D01*
X154822381Y-93219307D01*
X154822381Y-93457403D01*
X154870000Y-93552641D01*
X154917619Y-93600260D01*
X155012857Y-93647879D01*
X155108095Y-93647879D01*
X155250952Y-93600260D01*
X155822381Y-93028831D01*
X155822381Y-93647879D01*
M02*
