G04 #@! TF.FileFunction,Copper,L1,Top,Signal*
%FSLAX46Y46*%
G04 Gerber Fmt 4.6, Leading zero omitted, Abs format (unit mm)*
G04 Created by KiCad (PCBNEW 4.0.7-e2-6376~58~ubuntu16.04.1) date Tue Apr 16 15:45:19 2019*
%MOMM*%
%LPD*%
G01*
G04 APERTURE LIST*
%ADD10C,0.100000*%
%ADD11R,1.700000X1.700000*%
%ADD12O,1.700000X1.700000*%
%ADD13R,1.200000X2.200000*%
%ADD14R,5.800000X6.400000*%
%ADD15R,2.750000X3.050000*%
%ADD16R,2.000000X2.000000*%
%ADD17C,2.000000*%
%ADD18R,1.250000X1.500000*%
%ADD19R,2.700000X3.750000*%
%ADD20R,1.500000X1.250000*%
%ADD21R,1.500000X2.400000*%
%ADD22R,1.500000X1.050000*%
%ADD23R,1.980000X3.960000*%
%ADD24O,1.980000X3.960000*%
%ADD25R,1.727200X1.727200*%
%ADD26O,1.727200X1.727200*%
%ADD27R,1.500000X1.300000*%
%ADD28R,0.900000X0.800000*%
%ADD29R,1.300000X1.500000*%
%ADD30C,2.340000*%
%ADD31C,1.500000*%
%ADD32R,3.200000X2.000000*%
%ADD33O,3.048000X1.727200*%
%ADD34R,1.600000X2.000000*%
%ADD35R,0.250000X1.000000*%
%ADD36R,1.000000X0.250000*%
%ADD37R,1.060000X0.650000*%
%ADD38R,1.550000X0.600000*%
%ADD39R,7.875000X2.000000*%
%ADD40R,2.850000X1.430000*%
%ADD41C,1.000000*%
%ADD42C,3.000000*%
%ADD43C,1.400000*%
%ADD44R,1.400000X1.400000*%
%ADD45R,2.400000X1.500000*%
%ADD46R,1.050000X1.500000*%
%ADD47C,0.600000*%
%ADD48C,0.250000*%
%ADD49C,0.254000*%
G04 APERTURE END LIST*
D10*
D11*
X109474000Y-56134000D03*
D12*
X112014000Y-56134000D03*
X114554000Y-56134000D03*
X117094000Y-56134000D03*
X119634000Y-56134000D03*
X122174000Y-56134000D03*
X124714000Y-56134000D03*
X127254000Y-56134000D03*
X129794000Y-56134000D03*
X132334000Y-56134000D03*
X134874000Y-56134000D03*
X137414000Y-56134000D03*
X139954000Y-56134000D03*
X142494000Y-56134000D03*
X145034000Y-56134000D03*
X147574000Y-56134000D03*
D13*
X141484000Y-104530000D03*
X146044000Y-104530000D03*
D14*
X143764000Y-98230000D03*
D15*
X145289000Y-96555000D03*
X142239000Y-99905000D03*
X142239000Y-96555000D03*
X145289000Y-99905000D03*
D16*
X150622000Y-122194000D03*
D17*
X150622000Y-129794000D03*
D18*
X137922000Y-99334000D03*
X137922000Y-101834000D03*
X134366000Y-99334000D03*
X134366000Y-101834000D03*
X183134000Y-147300000D03*
X183134000Y-144800000D03*
D19*
X177292000Y-148555000D03*
X177292000Y-141005000D03*
D20*
X159278000Y-121412000D03*
X161778000Y-121412000D03*
X118003046Y-84229194D03*
X120503046Y-84229194D03*
X106319046Y-84229194D03*
X108819046Y-84229194D03*
D18*
X128524000Y-100056000D03*
X128524000Y-97556000D03*
X116840000Y-100056000D03*
X116840000Y-97556000D03*
X173482000Y-64790000D03*
X173482000Y-67290000D03*
X86106000Y-94508000D03*
X86106000Y-97008000D03*
X227076000Y-71100000D03*
X227076000Y-68600000D03*
X227076000Y-90404000D03*
X227076000Y-87904000D03*
X173482000Y-74890000D03*
X173482000Y-72390000D03*
D20*
X206502000Y-96266000D03*
X204002000Y-96266000D03*
X203962000Y-102870000D03*
X206462000Y-102870000D03*
D18*
X204978000Y-87122000D03*
X204978000Y-84622000D03*
X215138000Y-122154000D03*
X215138000Y-119654000D03*
D20*
X223286000Y-116332000D03*
X225786000Y-116332000D03*
D18*
X219368999Y-122320998D03*
X219368999Y-119820998D03*
D20*
X223560000Y-123444000D03*
X226060000Y-123444000D03*
X189698000Y-96266000D03*
X187198000Y-96266000D03*
X186984000Y-102870000D03*
X189484000Y-102870000D03*
D18*
X191262000Y-119654000D03*
X191262000Y-122154000D03*
D20*
X200172000Y-116332000D03*
X202672000Y-116332000D03*
D18*
X194564000Y-119654000D03*
X194564000Y-122154000D03*
D20*
X200172000Y-123444000D03*
X202672000Y-123444000D03*
D21*
X158496000Y-141136000D03*
D22*
X158496000Y-143511000D03*
D11*
X135588859Y-113792000D03*
D12*
X135588859Y-116332000D03*
X135588859Y-118872000D03*
D11*
X143256000Y-113792000D03*
D12*
X143256000Y-116332000D03*
X143256000Y-118872000D03*
D23*
X145114000Y-143510000D03*
D24*
X150114000Y-143510000D03*
D23*
X129112000Y-143510000D03*
D24*
X134112000Y-143510000D03*
D25*
X94234000Y-146304000D03*
D26*
X94234000Y-143764000D03*
X96774000Y-146304000D03*
X96774000Y-143764000D03*
X99314000Y-146304000D03*
X99314000Y-143764000D03*
X101854000Y-146304000D03*
X101854000Y-143764000D03*
X104394000Y-146304000D03*
X104394000Y-143764000D03*
X106934000Y-146304000D03*
X106934000Y-143764000D03*
X109474000Y-146304000D03*
X109474000Y-143764000D03*
X112014000Y-146304000D03*
X112014000Y-143764000D03*
X114554000Y-146304000D03*
X114554000Y-143764000D03*
X117094000Y-146304000D03*
X117094000Y-143764000D03*
D25*
X178054000Y-99568000D03*
D26*
X178054000Y-102108000D03*
X175514000Y-99568000D03*
X175514000Y-102108000D03*
X172974000Y-99568000D03*
X172974000Y-102108000D03*
X170434000Y-99568000D03*
X170434000Y-102108000D03*
X167894000Y-99568000D03*
X167894000Y-102108000D03*
X165354000Y-99568000D03*
X165354000Y-102108000D03*
X162814000Y-99568000D03*
X162814000Y-102108000D03*
X160274000Y-99568000D03*
X160274000Y-102108000D03*
X157734000Y-99568000D03*
X157734000Y-102108000D03*
X155194000Y-99568000D03*
X155194000Y-102108000D03*
D23*
X206074000Y-143510000D03*
D24*
X211074000Y-143510000D03*
D23*
X191008000Y-143510000D03*
D24*
X196008000Y-143510000D03*
D11*
X87630000Y-111506000D03*
D12*
X87630000Y-108966000D03*
X87630000Y-106426000D03*
D27*
X203882000Y-99568000D03*
X206582000Y-99568000D03*
X223440000Y-119634000D03*
X226140000Y-119634000D03*
X186864000Y-99568000D03*
X189564000Y-99568000D03*
X200072000Y-119634000D03*
X202772000Y-119634000D03*
X79930000Y-119634000D03*
X82630000Y-119634000D03*
D28*
X127016000Y-132146000D03*
X127016000Y-134046000D03*
X129016000Y-133096000D03*
X161798000Y-127508000D03*
X161798000Y-125608000D03*
X159798000Y-126558000D03*
D29*
X123444000Y-132080000D03*
X123444000Y-129380000D03*
X134366000Y-134700000D03*
X134366000Y-132000000D03*
D27*
X133350000Y-116078000D03*
X130650000Y-116078000D03*
D29*
X139954000Y-118778000D03*
X139954000Y-116078000D03*
X123444000Y-137066000D03*
X123444000Y-134366000D03*
D27*
X154004000Y-117348000D03*
X151304000Y-117348000D03*
D29*
X167132000Y-130730000D03*
X167132000Y-133430000D03*
X167132000Y-125062000D03*
X167132000Y-127762000D03*
D27*
X79930000Y-116332000D03*
X82630000Y-116332000D03*
D29*
X177038000Y-67390000D03*
X177038000Y-64690000D03*
D27*
X96106000Y-126746000D03*
X98806000Y-126746000D03*
X98806000Y-129286000D03*
X96106000Y-129286000D03*
D29*
X177038000Y-72310000D03*
X177038000Y-75010000D03*
X204216000Y-129286000D03*
X204216000Y-126586000D03*
D27*
X211488000Y-119634000D03*
X208788000Y-119634000D03*
X219630000Y-128016000D03*
X222330000Y-128016000D03*
D29*
X180594000Y-129366000D03*
X180594000Y-126666000D03*
D27*
X188040000Y-119634000D03*
X185340000Y-119634000D03*
X193976000Y-128016000D03*
X196676000Y-128016000D03*
D30*
X78740000Y-71628000D03*
X88740000Y-74128000D03*
X78740000Y-76628000D03*
D31*
X196342000Y-72390000D03*
X196342000Y-67390000D03*
D32*
X189342000Y-75490000D03*
X189342000Y-64290000D03*
D17*
X181842000Y-72390000D03*
X181842000Y-69890000D03*
D16*
X181842000Y-67390000D03*
D33*
X223520000Y-67390000D03*
X223520000Y-72390000D03*
X211020000Y-67390000D03*
X211020000Y-72390000D03*
X223774000Y-86868000D03*
X223774000Y-91868000D03*
X211274000Y-86868000D03*
X211274000Y-91868000D03*
D34*
X80986999Y-92367332D03*
X80986999Y-97767332D03*
D13*
X168396000Y-141020000D03*
X163836000Y-141020000D03*
D14*
X166116000Y-147320000D03*
D15*
X164591000Y-148995000D03*
X167641000Y-145645000D03*
X167641000Y-148995000D03*
X164591000Y-145645000D03*
D35*
X115510000Y-105806000D03*
X115010000Y-105806000D03*
X114510000Y-105806000D03*
X114010000Y-105806000D03*
X113510000Y-105806000D03*
X113010000Y-105806000D03*
X112510000Y-105806000D03*
X112010000Y-105806000D03*
X111510000Y-105806000D03*
X111010000Y-105806000D03*
X110510000Y-105806000D03*
X110010000Y-105806000D03*
X109510000Y-105806000D03*
X109010000Y-105806000D03*
X108510000Y-105806000D03*
X108010000Y-105806000D03*
D36*
X106060000Y-107756000D03*
X106060000Y-108256000D03*
X106060000Y-108756000D03*
X106060000Y-109256000D03*
X106060000Y-109756000D03*
X106060000Y-110256000D03*
X106060000Y-110756000D03*
X106060000Y-111256000D03*
X106060000Y-111756000D03*
X106060000Y-112256000D03*
X106060000Y-112756000D03*
X106060000Y-113256000D03*
X106060000Y-113756000D03*
X106060000Y-114256000D03*
X106060000Y-114756000D03*
X106060000Y-115256000D03*
D35*
X108010000Y-117206000D03*
X108510000Y-117206000D03*
X109010000Y-117206000D03*
X109510000Y-117206000D03*
X110010000Y-117206000D03*
X110510000Y-117206000D03*
X111010000Y-117206000D03*
X111510000Y-117206000D03*
X112010000Y-117206000D03*
X112510000Y-117206000D03*
X113010000Y-117206000D03*
X113510000Y-117206000D03*
X114010000Y-117206000D03*
X114510000Y-117206000D03*
X115010000Y-117206000D03*
X115510000Y-117206000D03*
D36*
X117460000Y-115256000D03*
X117460000Y-114756000D03*
X117460000Y-114256000D03*
X117460000Y-113756000D03*
X117460000Y-113256000D03*
X117460000Y-112756000D03*
X117460000Y-112256000D03*
X117460000Y-111756000D03*
X117460000Y-111256000D03*
X117460000Y-110756000D03*
X117460000Y-110256000D03*
X117460000Y-109756000D03*
X117460000Y-109256000D03*
X117460000Y-108756000D03*
X117460000Y-108256000D03*
X117460000Y-107756000D03*
D37*
X98552000Y-135382000D03*
X98552000Y-134432000D03*
X98552000Y-133482000D03*
X96352000Y-133482000D03*
X96352000Y-135382000D03*
X96352000Y-134432000D03*
D13*
X199637000Y-82703000D03*
X195077000Y-82703000D03*
D14*
X197357000Y-89003000D03*
D15*
X195832000Y-90678000D03*
X198882000Y-87328000D03*
X198882000Y-90678000D03*
X195832000Y-87328000D03*
D38*
X209390000Y-126619000D03*
X209390000Y-127889000D03*
X209390000Y-129159000D03*
X209390000Y-130429000D03*
X214790000Y-130429000D03*
X214790000Y-129159000D03*
X214790000Y-127889000D03*
X214790000Y-126619000D03*
X185354000Y-126619000D03*
X185354000Y-127889000D03*
X185354000Y-129159000D03*
X185354000Y-130429000D03*
X190754000Y-130429000D03*
X190754000Y-129159000D03*
X190754000Y-127889000D03*
X190754000Y-126619000D03*
D39*
X118078546Y-89563194D03*
X106203546Y-89563194D03*
D40*
X125519000Y-99843000D03*
X125519000Y-94213000D03*
X121369000Y-94213000D03*
X121369000Y-99843000D03*
D41*
X124182000Y-97536000D03*
X122682000Y-97536000D03*
D42*
X85598000Y-124104000D03*
D43*
X85108000Y-128874000D03*
X85108000Y-131374000D03*
D44*
X82358000Y-128874000D03*
D42*
X85598000Y-136144000D03*
D43*
X82358000Y-131374000D03*
D38*
X210754000Y-108712000D03*
X210754000Y-109982000D03*
X210754000Y-111252000D03*
X210754000Y-112522000D03*
X216154000Y-112522000D03*
X216154000Y-111252000D03*
X216154000Y-109982000D03*
X216154000Y-108712000D03*
X186022000Y-108839000D03*
X186022000Y-110109000D03*
X186022000Y-111379000D03*
X186022000Y-112649000D03*
X191422000Y-112649000D03*
X191422000Y-111379000D03*
X191422000Y-110109000D03*
X191422000Y-108839000D03*
D45*
X132080000Y-128524000D03*
D46*
X129705000Y-128524000D03*
D45*
X162022000Y-133350000D03*
D46*
X159647000Y-133350000D03*
D47*
X152908000Y-148995000D03*
X147828000Y-106172000D03*
X171450000Y-127508000D03*
X174244000Y-124714000D03*
X102616000Y-125476000D03*
X116820000Y-105156000D03*
X139700000Y-96774000D03*
X123698000Y-105664000D03*
X110998000Y-126746000D03*
X113538000Y-123952000D03*
X107696000Y-126746000D03*
X117094000Y-118618000D03*
X178816000Y-75184000D03*
X179070000Y-64770000D03*
X115002979Y-115839447D03*
X115452990Y-120904000D03*
X122936000Y-118872000D03*
X106934000Y-104902000D03*
X223774000Y-128524000D03*
X198374000Y-128016000D03*
X178054000Y-93231998D03*
X99060000Y-97282000D03*
X103124000Y-108458014D03*
X115570000Y-107950000D03*
X147320000Y-94742000D03*
X103378000Y-116078000D03*
X99822000Y-134366000D03*
X122174000Y-137414000D03*
X116078000Y-137160000D03*
X114554000Y-127254000D03*
X96012000Y-130556000D03*
X163830000Y-130048000D03*
X164592000Y-134874000D03*
X207518000Y-130048000D03*
X183388000Y-130692999D03*
X189230000Y-127254000D03*
X227330000Y-116840000D03*
X220472000Y-118872000D03*
X96012000Y-111506000D03*
X105918000Y-119634000D03*
X107442000Y-112268000D03*
X97790000Y-110490000D03*
X101346000Y-112268000D03*
X92710000Y-112776000D03*
X105410000Y-82550000D03*
X139954000Y-104648000D03*
X131826000Y-97536000D03*
X115824000Y-97790000D03*
X95758000Y-103124000D03*
X87376000Y-98552000D03*
X175514000Y-138430000D03*
X168656000Y-138684000D03*
X111760000Y-122174000D03*
X202184000Y-88646000D03*
X209296000Y-93980000D03*
X108765249Y-103513135D03*
X104140000Y-114300000D03*
X115570000Y-104394008D03*
X113147010Y-114300000D03*
X81280000Y-83058000D03*
X155448000Y-78232000D03*
X78740000Y-68834000D03*
X80518000Y-64262000D03*
X108458008Y-107950000D03*
X78486000Y-105918000D03*
X97790000Y-109220000D03*
X76707986Y-110236000D03*
X113597021Y-113030000D03*
X116117609Y-106436729D03*
X156718000Y-141986000D03*
X121920000Y-129286000D03*
X118110000Y-129286000D03*
X110998000Y-118872000D03*
X112011556Y-115450546D03*
X115824000Y-58928000D03*
X121412000Y-115316000D03*
X113147010Y-107541604D03*
X116586000Y-61214000D03*
X116586000Y-57912000D03*
X111760000Y-103886000D03*
X110998000Y-107442000D03*
X109220000Y-101600000D03*
X109922979Y-104140000D03*
X110372990Y-63136411D03*
X132588000Y-53594000D03*
X79284573Y-80554223D03*
X109220000Y-115316000D03*
X110236000Y-115316000D03*
X107519977Y-101846325D03*
X108204000Y-77470000D03*
X115824000Y-113792000D03*
X118830396Y-115052697D03*
X118644951Y-120274361D03*
X119942883Y-113083470D03*
X114367336Y-119975445D03*
X119126000Y-116840006D03*
X123698000Y-118110000D03*
X123190000Y-112385010D03*
X119217622Y-112592521D03*
X95504000Y-118364000D03*
X99060000Y-118364000D03*
X107696000Y-115824000D03*
X108458000Y-112522000D03*
X119888000Y-109881010D03*
X122682000Y-109728000D03*
X120849774Y-114123658D03*
X124909606Y-114028591D03*
X100644949Y-129600949D03*
X110236000Y-120142000D03*
X101092000Y-130556000D03*
X113538000Y-118618000D03*
X100582149Y-131573841D03*
X113879236Y-119341586D03*
X218694000Y-131318000D03*
X99314000Y-108966000D03*
X99568002Y-109728000D03*
X123190000Y-121920000D03*
X120823537Y-110724012D03*
X182626000Y-127508000D03*
X188976000Y-128778000D03*
X153670000Y-106934000D03*
X188722000Y-129794000D03*
X120904000Y-109474000D03*
X182141003Y-129803999D03*
X152146000Y-106934000D03*
D48*
X78740000Y-76628000D02*
X81868000Y-76628000D01*
X81868000Y-76628000D02*
X106033978Y-52462022D01*
X106033978Y-52462022D02*
X141362022Y-52462022D01*
X141362022Y-52462022D02*
X145034000Y-56134000D01*
X112014000Y-56134000D02*
X115960999Y-60080999D01*
X115960999Y-60080999D02*
X115960999Y-61514001D01*
X143858999Y-57309001D02*
X144184001Y-56983999D01*
X115960999Y-61514001D02*
X116285999Y-61839001D01*
X128618999Y-56672591D02*
X128618999Y-55569999D01*
X134309999Y-57309001D02*
X143858999Y-57309001D01*
X116285999Y-61839001D02*
X123452589Y-61839001D01*
X144184001Y-56983999D02*
X145034000Y-56134000D01*
X123452589Y-61839001D02*
X128618999Y-56672591D01*
X128618999Y-55569999D02*
X129229999Y-54958999D01*
X129229999Y-54958999D02*
X132898001Y-54958999D01*
X132898001Y-54958999D02*
X133565002Y-55626000D01*
X133565002Y-55626000D02*
X133565002Y-56564004D01*
X133565002Y-56564004D02*
X134309999Y-57309001D01*
X164591000Y-148995000D02*
X152908000Y-148995000D01*
X152908000Y-148995000D02*
X152749296Y-148995000D01*
X147828000Y-104530000D02*
X148585002Y-104530000D01*
X146044000Y-104530000D02*
X147828000Y-104530000D01*
X147828000Y-104530000D02*
X147828000Y-106172000D01*
X171450000Y-127394998D02*
X171450000Y-127508000D01*
X171450000Y-127508000D02*
X171450000Y-143411000D01*
X181102000Y-117856000D02*
X174244000Y-124714000D01*
X181102000Y-95828000D02*
X181102000Y-117856000D01*
X195077000Y-82703000D02*
X194227000Y-82703000D01*
X194227000Y-82703000D02*
X181102000Y-95828000D01*
X148585002Y-104530000D02*
X171309002Y-127254000D01*
X171309002Y-127254000D02*
X171450000Y-127394998D01*
X167132000Y-130730000D02*
X168032000Y-130730000D01*
X168032000Y-130730000D02*
X171309002Y-127452998D01*
X171309002Y-127452998D02*
X171309002Y-127254000D01*
X150622000Y-122194000D02*
X158496000Y-122194000D01*
X158496000Y-122194000D02*
X159278000Y-121412000D01*
X152749296Y-148995000D02*
X148798990Y-145044694D01*
X148798990Y-145044694D02*
X148798990Y-125267010D01*
X148798990Y-125267010D02*
X150622000Y-123444000D01*
X150622000Y-123444000D02*
X150622000Y-122194000D01*
X177292000Y-148555000D02*
X182004000Y-148555000D01*
X182004000Y-148555000D02*
X183134000Y-147425000D01*
X183134000Y-147425000D02*
X183134000Y-147300000D01*
X166116000Y-147320000D02*
X176057000Y-147320000D01*
X176057000Y-147320000D02*
X177292000Y-148555000D01*
X171450000Y-143411000D02*
X167641000Y-147220000D01*
X167641000Y-147220000D02*
X167641000Y-148995000D01*
X159647000Y-126659000D02*
X159647000Y-129286000D01*
X159647000Y-129286000D02*
X159647000Y-132350000D01*
X151621999Y-130793999D02*
X158139001Y-130793999D01*
X158139001Y-130793999D02*
X159647000Y-129286000D01*
X150622000Y-129794000D02*
X151621999Y-130793999D01*
X159798000Y-126558000D02*
X159748000Y-126558000D01*
X159748000Y-126558000D02*
X159647000Y-126659000D01*
X159647000Y-132350000D02*
X159647000Y-133350000D01*
X137922000Y-99334000D02*
X134366000Y-99334000D01*
X102616000Y-125476000D02*
X103632000Y-126492000D01*
X103632000Y-126492000D02*
X103632000Y-126746000D01*
X123190000Y-105156000D02*
X123698000Y-105664000D01*
X115510000Y-105806000D02*
X116170000Y-105806000D01*
X116170000Y-105806000D02*
X116820000Y-105156000D01*
X116820000Y-105156000D02*
X123190000Y-105156000D01*
X139700000Y-96774000D02*
X142020000Y-96774000D01*
X142020000Y-96774000D02*
X142239000Y-96555000D01*
X110998000Y-126492000D02*
X110998000Y-126746000D01*
X113538000Y-123952000D02*
X110998000Y-126492000D01*
X103632000Y-126746000D02*
X107696000Y-126746000D01*
X117094000Y-119042264D02*
X117094000Y-118618000D01*
X115452990Y-120904000D02*
X117094000Y-119262990D01*
X117094000Y-119262990D02*
X117094000Y-119042264D01*
X178816000Y-75184000D02*
X177212000Y-75184000D01*
X177212000Y-75184000D02*
X177038000Y-75010000D01*
X177038000Y-64690000D02*
X178990000Y-64690000D01*
X178990000Y-64690000D02*
X179070000Y-64770000D01*
X115302978Y-116139446D02*
X115002979Y-115839447D01*
X115510000Y-116346468D02*
X115302978Y-116139446D01*
X115510000Y-117206000D02*
X115510000Y-116346468D01*
X115510000Y-118618000D02*
X115510000Y-120846990D01*
X115510000Y-117206000D02*
X115510000Y-118618000D01*
X115510000Y-120846990D02*
X115452990Y-120904000D01*
X135588859Y-118872000D02*
X122936000Y-118872000D01*
X106680000Y-104902000D02*
X106934000Y-104902000D01*
X99060000Y-97282000D02*
X106680000Y-104902000D01*
X223774000Y-128524000D02*
X222838000Y-128524000D01*
X222838000Y-128524000D02*
X222330000Y-128016000D01*
X197676000Y-128016000D02*
X198374000Y-128016000D01*
X177038000Y-75010000D02*
X177038000Y-92215998D01*
X177038000Y-92215998D02*
X178054000Y-93231998D01*
X103421986Y-108756000D02*
X103124000Y-108458014D01*
X106060000Y-108756000D02*
X103421986Y-108756000D01*
X115570000Y-107950000D02*
X115764000Y-107756000D01*
X115764000Y-107756000D02*
X117460000Y-107756000D01*
X147320000Y-94742000D02*
X145507000Y-96555000D01*
X145507000Y-96555000D02*
X145289000Y-96555000D01*
X137668000Y-99334000D02*
X141668000Y-99334000D01*
X141668000Y-99334000D02*
X142239000Y-99905000D01*
X104394000Y-116078000D02*
X105216000Y-115256000D01*
X105216000Y-115256000D02*
X106060000Y-115256000D01*
X103378000Y-116078000D02*
X104394000Y-116078000D01*
X196676000Y-128016000D02*
X197676000Y-128016000D01*
X203782001Y-120609001D02*
X206789002Y-117602000D01*
X206789002Y-117602000D02*
X211854001Y-112537001D01*
X202672000Y-116332000D02*
X205519002Y-116332000D01*
X205519002Y-116332000D02*
X206789002Y-117602000D01*
X163830000Y-130048000D02*
X164223001Y-129654999D01*
X164223001Y-129654999D02*
X167224003Y-129654999D01*
X168107001Y-128772001D02*
X168107001Y-126751999D01*
X167224003Y-129654999D02*
X168107001Y-128772001D01*
X168107001Y-126751999D02*
X166963002Y-125608000D01*
X166963002Y-125608000D02*
X161798000Y-125608000D01*
X164592000Y-134874000D02*
X168402000Y-138684000D01*
X168402000Y-138684000D02*
X168656000Y-138684000D01*
X127016000Y-134046000D02*
X126966000Y-134046000D01*
X126966000Y-134046000D02*
X123946000Y-137066000D01*
X123946000Y-137066000D02*
X123444000Y-137066000D01*
X134366000Y-101834000D02*
X135241000Y-101834000D01*
X135241000Y-101834000D02*
X137922000Y-101834000D01*
X137922000Y-101834000D02*
X141224000Y-101834000D01*
X99756000Y-134432000D02*
X99822000Y-134366000D01*
X98552000Y-134432000D02*
X99756000Y-134432000D01*
X122174000Y-137414000D02*
X123096000Y-137414000D01*
X123096000Y-137414000D02*
X123444000Y-137066000D01*
X116078000Y-128778000D02*
X116078000Y-137160000D01*
X114554000Y-127254000D02*
X116078000Y-128778000D01*
X96106000Y-129286000D02*
X96106000Y-130462000D01*
X96106000Y-130462000D02*
X96012000Y-130556000D01*
X92710000Y-112776000D02*
X92710000Y-114644998D01*
X92710000Y-114644998D02*
X97181001Y-119115999D01*
X96106000Y-129286000D02*
X96206000Y-129286000D01*
X96206000Y-129286000D02*
X97181001Y-128310999D01*
X88730000Y-111506000D02*
X87630000Y-111506000D01*
X97181001Y-128310999D02*
X97181001Y-119115999D01*
X89571002Y-111506000D02*
X88730000Y-111506000D01*
X117094000Y-146304000D02*
X123444000Y-139954000D01*
X123444000Y-139954000D02*
X123444000Y-137066000D01*
X114554000Y-146304000D02*
X117094000Y-146304000D01*
X112014000Y-146304000D02*
X114554000Y-146304000D01*
X109474000Y-146304000D02*
X112014000Y-146304000D01*
X106934000Y-146304000D02*
X109474000Y-146304000D01*
X104394000Y-146304000D02*
X105615314Y-146304000D01*
X105615314Y-146304000D02*
X106934000Y-146304000D01*
X104394000Y-146304000D02*
X103172686Y-146304000D01*
X103172686Y-146304000D02*
X101854000Y-146304000D01*
X101854000Y-146304000D02*
X99314000Y-146304000D01*
X96774000Y-146304000D02*
X99314000Y-146304000D01*
X96774000Y-146304000D02*
X94234000Y-146304000D01*
X161778000Y-121412000D02*
X161778000Y-125588000D01*
X161778000Y-125588000D02*
X161798000Y-125608000D01*
X167492003Y-131805001D02*
X165587001Y-131805001D01*
X168107001Y-132419999D02*
X167492003Y-131805001D01*
X168107001Y-134440001D02*
X168107001Y-132419999D01*
X167673002Y-134874000D02*
X168107001Y-134440001D01*
X164592000Y-134874000D02*
X167673002Y-134874000D01*
X164129999Y-130347999D02*
X163830000Y-130048000D01*
X165587001Y-131805001D02*
X164129999Y-130347999D01*
X201761999Y-120609001D02*
X202692000Y-120609001D01*
X202692000Y-120609001D02*
X203782001Y-120609001D01*
X202672000Y-122569000D02*
X202692000Y-122549000D01*
X202672000Y-123444000D02*
X202672000Y-122569000D01*
X202692000Y-122549000D02*
X202692000Y-120609001D01*
X199096999Y-101046001D02*
X199096999Y-116586000D01*
X199096999Y-116586000D02*
X199096999Y-117217001D01*
X195439000Y-122154000D02*
X199096999Y-118496001D01*
X194564000Y-122154000D02*
X195439000Y-122154000D01*
X199096999Y-118496001D02*
X199096999Y-116586000D01*
X210754000Y-112522000D02*
X213223998Y-112522000D01*
X213223998Y-112522000D02*
X215118999Y-110626999D01*
X215118999Y-110626999D02*
X217189001Y-110626999D01*
X217189001Y-110626999D02*
X220472000Y-113909998D01*
X220472000Y-113909998D02*
X220472000Y-118447736D01*
X220472000Y-118447736D02*
X220472000Y-118872000D01*
X215138000Y-119654000D02*
X219202001Y-119654000D01*
X219202001Y-119654000D02*
X219368999Y-119820998D01*
X209390000Y-129159000D02*
X208915000Y-129159000D01*
X207817999Y-129748001D02*
X207518000Y-130048000D01*
X208407000Y-129159000D02*
X207817999Y-129748001D01*
X208661000Y-129159000D02*
X208407000Y-129159000D01*
X185354000Y-130429000D02*
X183651999Y-130429000D01*
X183651999Y-130429000D02*
X183388000Y-130692999D01*
X191262000Y-122154000D02*
X191262000Y-123154000D01*
X189230000Y-125186000D02*
X189230000Y-127254000D01*
X191262000Y-123154000D02*
X189230000Y-125186000D01*
X191262000Y-122154000D02*
X192137000Y-122154000D01*
X192137000Y-122154000D02*
X194564000Y-122154000D01*
X227330000Y-123190000D02*
X227076000Y-123444000D01*
X227076000Y-123444000D02*
X226060000Y-123444000D01*
X227330000Y-116840000D02*
X227330000Y-123190000D01*
X227330000Y-116840000D02*
X226294000Y-116840000D01*
X226294000Y-116840000D02*
X225786000Y-116332000D01*
X220472000Y-119592997D02*
X220472000Y-118872000D01*
X219368999Y-119820998D02*
X220243999Y-119820998D01*
X220243999Y-119820998D02*
X220472000Y-119592997D01*
X187198000Y-96266000D02*
X187198000Y-97141000D01*
X187198000Y-97141000D02*
X187939001Y-97882001D01*
X187939001Y-97882001D02*
X187939001Y-98657999D01*
X189484000Y-102870000D02*
X189484000Y-101995000D01*
X189484000Y-101995000D02*
X187939001Y-100450001D01*
X187939001Y-100450001D02*
X187939001Y-98657999D01*
X187939001Y-98657999D02*
X187874001Y-98592999D01*
X185788999Y-108055999D02*
X186022000Y-108289000D01*
X187874001Y-98592999D02*
X185853999Y-98592999D01*
X185853999Y-98592999D02*
X185788999Y-98657999D01*
X185788999Y-98657999D02*
X185788999Y-108055999D01*
X186022000Y-108289000D02*
X186022000Y-108839000D01*
X204978000Y-84622000D02*
X204978000Y-84747000D01*
X206462000Y-101995000D02*
X206462000Y-102870000D01*
X204978000Y-84747000D02*
X207657001Y-87426001D01*
X207657001Y-87426001D02*
X207657001Y-100799999D01*
X207657001Y-100799999D02*
X206462000Y-101995000D01*
X181842000Y-69890000D02*
X183167001Y-71215001D01*
X174357000Y-74890000D02*
X173482000Y-74890000D01*
X183167001Y-71215001D02*
X183167001Y-73026001D01*
X183167001Y-73026001D02*
X182258003Y-73934999D01*
X175312001Y-73934999D02*
X174357000Y-74890000D01*
X182258003Y-73934999D02*
X175312001Y-73934999D01*
X154404999Y-62964999D02*
X173482000Y-62964999D01*
X173482000Y-62964999D02*
X191916999Y-62964999D01*
X173482000Y-63790000D02*
X173482000Y-62964999D01*
X173482000Y-64790000D02*
X173482000Y-63790000D01*
X122682000Y-108256000D02*
X122884000Y-108256000D01*
X117460000Y-108256000D02*
X122682000Y-108256000D01*
X122682000Y-108256000D02*
X128952859Y-108256000D01*
X128952859Y-108256000D02*
X134488859Y-113792000D01*
X134488859Y-113792000D02*
X135588859Y-113792000D01*
X101346000Y-112268000D02*
X96774000Y-112268000D01*
X96774000Y-112268000D02*
X96311999Y-111805999D01*
X96311999Y-111805999D02*
X96012000Y-111506000D01*
X110653002Y-113792000D02*
X108802998Y-113792000D01*
X98434999Y-118063999D02*
X98434999Y-118664001D01*
X108802998Y-113792000D02*
X104855999Y-117738999D01*
X104855999Y-117738999D02*
X98759999Y-117738999D01*
X98759999Y-117738999D02*
X98434999Y-118063999D01*
X98434999Y-118664001D02*
X99404998Y-119634000D01*
X99404998Y-119634000D02*
X105918000Y-119634000D01*
X122884000Y-108256000D02*
X116189002Y-108256000D01*
X116189002Y-108256000D02*
X110653002Y-113792000D01*
X110653002Y-113792000D02*
X107774000Y-113792000D01*
X107774000Y-113792000D02*
X106810000Y-114756000D01*
X106810000Y-114756000D02*
X106060000Y-114756000D01*
X110010000Y-105806000D02*
X110010000Y-109700000D01*
X110010000Y-109700000D02*
X107442000Y-112268000D01*
X99430987Y-107833013D02*
X98251985Y-107833013D01*
X98251985Y-107833013D02*
X97164999Y-108919999D01*
X97164999Y-108919999D02*
X97164999Y-109864999D01*
X97164999Y-109864999D02*
X97790000Y-110490000D01*
X87630000Y-111506000D02*
X91440000Y-111506000D01*
X91440000Y-111506000D02*
X92710000Y-112776000D01*
X87630000Y-111506000D02*
X87630000Y-112606000D01*
X87630000Y-112606000D02*
X83904000Y-116332000D01*
X83904000Y-116332000D02*
X83630000Y-116332000D01*
X83630000Y-116332000D02*
X82630000Y-116332000D01*
X105410000Y-82550000D02*
X108014852Y-82550000D01*
X108014852Y-82550000D02*
X108819046Y-83354194D01*
X108819046Y-83354194D02*
X108819046Y-84229194D01*
X147574000Y-56134000D02*
X154404999Y-62964999D01*
X191916999Y-62964999D02*
X195592001Y-66640001D01*
X195592001Y-66640001D02*
X196342000Y-67390000D01*
X181842000Y-69890000D02*
X185417001Y-73465001D01*
X185417001Y-73465001D02*
X196858001Y-73465001D01*
X196858001Y-73465001D02*
X197417001Y-72906001D01*
X197417001Y-72906001D02*
X197417001Y-68465001D01*
X197417001Y-68465001D02*
X197091999Y-68139999D01*
X197091999Y-68139999D02*
X196342000Y-67390000D01*
X211020000Y-67390000D02*
X211020000Y-68503600D01*
X197417001Y-77533811D02*
X197417001Y-68465001D01*
X211020000Y-68503600D02*
X213319020Y-70802620D01*
X213319020Y-70802620D02*
X213319020Y-92164328D01*
X213319020Y-92164328D02*
X212426738Y-93056610D01*
X212426738Y-93056610D02*
X210121262Y-93056610D01*
X210121262Y-93056610D02*
X209424990Y-92360338D01*
X209424990Y-92360338D02*
X209424990Y-89541800D01*
X209424990Y-89541800D02*
X197417001Y-77533811D01*
X223520000Y-67390000D02*
X221746000Y-67390000D01*
X221746000Y-67390000D02*
X211020000Y-67390000D01*
X223774000Y-86868000D02*
X222000000Y-86868000D01*
X222000000Y-86868000D02*
X211274000Y-86868000D01*
X204978000Y-84747000D02*
X208066000Y-87835000D01*
X208066000Y-87835000D02*
X208066000Y-91001348D01*
X213123010Y-92360338D02*
X213123010Y-89830610D01*
X208066000Y-91001348D02*
X210121262Y-93056610D01*
X212426738Y-93056610D02*
X213123010Y-92360338D01*
X213123010Y-89830610D02*
X211274000Y-87981600D01*
X211274000Y-87981600D02*
X211274000Y-86868000D01*
X204002000Y-96266000D02*
X203877000Y-96266000D01*
X211854001Y-112537001D02*
X211854001Y-109137001D01*
X203877000Y-96266000D02*
X199096999Y-101046001D01*
X206462000Y-103745000D02*
X206462000Y-102870000D01*
X199096999Y-117217001D02*
X199200399Y-117320401D01*
X201696999Y-120544001D02*
X201761999Y-120609001D01*
X199200399Y-117320401D02*
X199721991Y-117320401D01*
X199721991Y-117320401D02*
X201696999Y-119295409D01*
X201696999Y-119295409D02*
X201696999Y-120544001D01*
X211854001Y-109137001D02*
X206462000Y-103745000D01*
X206462000Y-102870000D02*
X206587000Y-102870000D01*
X206587000Y-102870000D02*
X210754000Y-107037000D01*
X210754000Y-108162000D02*
X210754000Y-108712000D01*
X210754000Y-107037000D02*
X210754000Y-108162000D01*
X210754000Y-108712000D02*
X211779000Y-108712000D01*
X211779000Y-108712000D02*
X211854001Y-108787001D01*
X211854001Y-108787001D02*
X211854001Y-111896999D01*
X211854001Y-111896999D02*
X211229000Y-112522000D01*
X211229000Y-112522000D02*
X210754000Y-112522000D01*
X210754000Y-108712000D02*
X216154000Y-108712000D01*
X216154000Y-108712000D02*
X216154000Y-109982000D01*
X191422000Y-108839000D02*
X191422000Y-110109000D01*
X186022000Y-108839000D02*
X185547000Y-108839000D01*
X185547000Y-108839000D02*
X184921999Y-109464001D01*
X184921999Y-109464001D02*
X184921999Y-111939001D01*
X184921999Y-111939001D02*
X184986999Y-112004001D01*
X184986999Y-112004001D02*
X187231999Y-112004001D01*
X187231999Y-112004001D02*
X190397000Y-108839000D01*
X190397000Y-108839000D02*
X191422000Y-108839000D01*
X184921999Y-109464001D02*
X184921999Y-112023999D01*
X184921999Y-112023999D02*
X185547000Y-112649000D01*
X185547000Y-112649000D02*
X186022000Y-112649000D01*
X175514000Y-102108000D02*
X175514000Y-103329314D01*
X175514000Y-103329314D02*
X173618999Y-105224315D01*
X173618999Y-105224315D02*
X173618999Y-125014001D01*
X186022000Y-113861002D02*
X186022000Y-113199000D01*
X186022000Y-113199000D02*
X186022000Y-112649000D01*
X173618999Y-125014001D02*
X173943999Y-125339001D01*
X173943999Y-125339001D02*
X174544001Y-125339001D01*
X174544001Y-125339001D02*
X186022000Y-113861002D01*
X172974000Y-102108000D02*
X175514000Y-102108000D01*
X170434000Y-102108000D02*
X172974000Y-102108000D01*
X167894000Y-102108000D02*
X170434000Y-102108000D01*
X165354000Y-102108000D02*
X167894000Y-102108000D01*
X162814000Y-102108000D02*
X165354000Y-102108000D01*
X160274000Y-102108000D02*
X162814000Y-102108000D01*
X157734000Y-102108000D02*
X158955314Y-102108000D01*
X158955314Y-102108000D02*
X160274000Y-102108000D01*
X155194000Y-102108000D02*
X157734000Y-102108000D01*
X139954000Y-104648000D02*
X141366000Y-104648000D01*
X141366000Y-104648000D02*
X141484000Y-104530000D01*
X129399000Y-97556000D02*
X131806000Y-97556000D01*
X131806000Y-97556000D02*
X131826000Y-97536000D01*
X128524000Y-97556000D02*
X129399000Y-97556000D01*
X155194000Y-102108000D02*
X141498000Y-102108000D01*
X141498000Y-102108000D02*
X141224000Y-101834000D01*
X116840000Y-97556000D02*
X116840000Y-94234000D01*
X128524000Y-94492998D02*
X128524000Y-96556000D01*
X116840000Y-94234000D02*
X117901001Y-93172999D01*
X117901001Y-93172999D02*
X127204001Y-93172999D01*
X127204001Y-93172999D02*
X128524000Y-94492998D01*
X128524000Y-96556000D02*
X128524000Y-97556000D01*
X115824000Y-97790000D02*
X116606000Y-97790000D01*
X116606000Y-97790000D02*
X116840000Y-97556000D01*
X141484000Y-104530000D02*
X141484000Y-102094000D01*
X141484000Y-102094000D02*
X141224000Y-101834000D01*
X120503046Y-84229194D02*
X120628046Y-84229194D01*
X120628046Y-84229194D02*
X128524000Y-92125148D01*
X128524000Y-92125148D02*
X128524000Y-96556000D01*
X120503046Y-84229194D02*
X120503046Y-83354194D01*
X120503046Y-83354194D02*
X120428045Y-83279193D01*
X120428045Y-83279193D02*
X110769047Y-83279193D01*
X110769047Y-83279193D02*
X109819046Y-84229194D01*
X109819046Y-84229194D02*
X108819046Y-84229194D01*
X87271000Y-98298000D02*
X87271000Y-98447000D01*
X87271000Y-98447000D02*
X87376000Y-98552000D01*
X86106000Y-97008000D02*
X86106000Y-97133000D01*
X86106000Y-97133000D02*
X87271000Y-98298000D01*
X86106000Y-97008000D02*
X81746331Y-97008000D01*
X81746331Y-97008000D02*
X80986999Y-97767332D01*
X106060000Y-108256000D02*
X103846988Y-108256000D01*
X103846988Y-108256000D02*
X103424001Y-107833013D01*
X103424001Y-107833013D02*
X99430987Y-107833013D01*
X122884000Y-108256000D02*
X122936000Y-108204000D01*
X177292000Y-141005000D02*
X177292000Y-140480000D01*
X177292000Y-140480000D02*
X175514000Y-138702000D01*
X175514000Y-138702000D02*
X175514000Y-138430000D01*
X191008000Y-143510000D02*
X184299000Y-143510000D01*
X184299000Y-143510000D02*
X183134000Y-144675000D01*
X183134000Y-144675000D02*
X183134000Y-144800000D01*
X177292000Y-141005000D02*
X179464000Y-141005000D01*
X179464000Y-141005000D02*
X183134000Y-144675000D01*
X168396000Y-141020000D02*
X168396000Y-138944000D01*
X168396000Y-138944000D02*
X168656000Y-138684000D01*
X112184264Y-122174000D02*
X111760000Y-122174000D01*
X113093785Y-122174000D02*
X112184264Y-122174000D01*
X115010000Y-117206000D02*
X115010000Y-120257785D01*
X115010000Y-120257785D02*
X113093785Y-122174000D01*
X223520000Y-67390000D02*
X225991000Y-67390000D01*
X225991000Y-67390000D02*
X227076000Y-68475000D01*
X227076000Y-68475000D02*
X227076000Y-68600000D01*
X223774000Y-86868000D02*
X226165000Y-86868000D01*
X226165000Y-86868000D02*
X227076000Y-87779000D01*
X227076000Y-87779000D02*
X227076000Y-87904000D01*
X209390000Y-129159000D02*
X209390000Y-130429000D01*
X185354000Y-129159000D02*
X185354000Y-130429000D01*
X199637000Y-82703000D02*
X203184000Y-82703000D01*
X203184000Y-82703000D02*
X204978000Y-84497000D01*
X204978000Y-84497000D02*
X204978000Y-84622000D01*
X161798000Y-125608000D02*
X166586000Y-125608000D01*
X166586000Y-125608000D02*
X167132000Y-125062000D01*
X137668000Y-101834000D02*
X138543000Y-101834000D01*
X202184000Y-88646000D02*
X200866000Y-87328000D01*
X200866000Y-87328000D02*
X198882000Y-87328000D01*
X209296000Y-100193998D02*
X209296000Y-93980000D01*
X223286000Y-116332000D02*
X223286000Y-114183998D01*
X223286000Y-114183998D02*
X209296000Y-100193998D01*
X189698000Y-96266000D02*
X189698000Y-99434000D01*
X189698000Y-99434000D02*
X189564000Y-99568000D01*
X189632000Y-97028000D02*
X189632000Y-96332000D01*
X189632000Y-96332000D02*
X189698000Y-96266000D01*
X195832000Y-90678000D02*
X195832000Y-90828000D01*
X195832000Y-90828000D02*
X189632000Y-97028000D01*
X198882000Y-87328000D02*
X198882000Y-87478000D01*
X198882000Y-87478000D02*
X206502000Y-95098000D01*
X206502000Y-95098000D02*
X206502000Y-95391000D01*
X206502000Y-95391000D02*
X206502000Y-96266000D01*
X202772000Y-119634000D02*
X202672000Y-119634000D01*
X202672000Y-119634000D02*
X200172000Y-117134000D01*
X200172000Y-117134000D02*
X200172000Y-116332000D01*
X200172000Y-116332000D02*
X200172000Y-101292998D01*
X200172000Y-101292998D02*
X202871999Y-98592999D01*
X202871999Y-98592999D02*
X205506999Y-98592999D01*
X205506999Y-98592999D02*
X206482000Y-99568000D01*
X206482000Y-99568000D02*
X206582000Y-99568000D01*
X223286000Y-116332000D02*
X223411000Y-116332000D01*
X223411000Y-116332000D02*
X226140000Y-119061000D01*
X226140000Y-119061000D02*
X226140000Y-119634000D01*
X206502000Y-96266000D02*
X206502000Y-99488000D01*
X206502000Y-99488000D02*
X206582000Y-99568000D01*
X198882000Y-87328000D02*
X204772000Y-87328000D01*
X204772000Y-87328000D02*
X204978000Y-87122000D01*
X109510000Y-104652025D02*
X109065248Y-104207273D01*
X109065248Y-103813134D02*
X108765249Y-103513135D01*
X109065248Y-104207273D02*
X109065248Y-103813134D01*
X109510000Y-105806000D02*
X109510000Y-104652025D01*
X106319046Y-84229194D02*
X106319046Y-89447694D01*
X106319046Y-89447694D02*
X106203546Y-89563194D01*
X106203546Y-89563194D02*
X109141046Y-89563194D01*
X109141046Y-89563194D02*
X113010000Y-93432148D01*
X113010000Y-93432148D02*
X113010000Y-105056000D01*
X113010000Y-105056000D02*
X113010000Y-105806000D01*
X104140000Y-114300000D02*
X106016000Y-114300000D01*
X106016000Y-114300000D02*
X106060000Y-114256000D01*
X114010000Y-105806000D02*
X114010000Y-102011000D01*
X114010000Y-102011000D02*
X115965000Y-100056000D01*
X115965000Y-100056000D02*
X116840000Y-100056000D01*
X122682000Y-97536000D02*
X122682000Y-98530000D01*
X122682000Y-98530000D02*
X121369000Y-99843000D01*
X121369000Y-99843000D02*
X117053000Y-99843000D01*
X117053000Y-99843000D02*
X116840000Y-100056000D01*
X211488000Y-119634000D02*
X212743000Y-119634000D01*
X212743000Y-119634000D02*
X215138000Y-122029000D01*
X215138000Y-122029000D02*
X215138000Y-122154000D01*
X219368999Y-122320998D02*
X215304998Y-122320998D01*
X215304998Y-122320998D02*
X215138000Y-122154000D01*
X211488000Y-119634000D02*
X211588000Y-119634000D01*
X211588000Y-119634000D02*
X217254001Y-113967999D01*
X217254001Y-113967999D02*
X217254001Y-111877001D01*
X216629000Y-111252000D02*
X216154000Y-111252000D01*
X217254001Y-111877001D02*
X216629000Y-111252000D01*
X223440000Y-119634000D02*
X223440000Y-123324000D01*
X223440000Y-123324000D02*
X223560000Y-123444000D01*
X223560000Y-123444000D02*
X217415000Y-123444000D01*
X217415000Y-123444000D02*
X214790000Y-126069000D01*
X214790000Y-126069000D02*
X214790000Y-126619000D01*
X173482000Y-67290000D02*
X163250002Y-67290000D01*
X163250002Y-67290000D02*
X126145994Y-104394008D01*
X126145994Y-104394008D02*
X115994264Y-104394008D01*
X115994264Y-104394008D02*
X115570000Y-104394008D01*
X112010000Y-117206000D02*
X112010000Y-116336000D01*
X113147010Y-115198990D02*
X113147010Y-114724264D01*
X113147010Y-114724264D02*
X113147010Y-114300000D01*
X112010000Y-116336000D02*
X113147010Y-115198990D01*
X177038000Y-67390000D02*
X173582000Y-67390000D01*
X173582000Y-67390000D02*
X173482000Y-67290000D01*
X181842000Y-67390000D02*
X177038000Y-67390000D01*
X81280000Y-83058000D02*
X81280000Y-92074331D01*
X81280000Y-92074331D02*
X80986999Y-92367332D01*
X160274000Y-99568000D02*
X160274000Y-83058000D01*
X160274000Y-83058000D02*
X155448000Y-78232000D01*
X112510000Y-102858000D02*
X112510000Y-105806000D01*
X86106000Y-94508000D02*
X101202998Y-94508000D01*
X101202998Y-94508000D02*
X109173999Y-102479001D01*
X109173999Y-102479001D02*
X112131001Y-102479001D01*
X112131001Y-102479001D02*
X112510000Y-102858000D01*
X80986999Y-92367332D02*
X84090332Y-92367332D01*
X84090332Y-92367332D02*
X86106000Y-94383000D01*
X86106000Y-94383000D02*
X86106000Y-94508000D01*
X78740000Y-68834000D02*
X78315736Y-68834000D01*
X78315736Y-68834000D02*
X77582735Y-69567001D01*
X77582735Y-69567001D02*
X77244999Y-69567001D01*
X94173189Y-51111990D02*
X93668010Y-51111990D01*
X93668010Y-51111990D02*
X80518000Y-64262000D01*
X228346000Y-69846000D02*
X228205000Y-69846000D01*
X228205000Y-69846000D02*
X227076000Y-70975000D01*
X227076000Y-70975000D02*
X227076000Y-71100000D01*
X228092000Y-67655998D02*
X228092000Y-69592000D01*
X228092000Y-69592000D02*
X228346000Y-69846000D01*
X211547992Y-51111990D02*
X228092000Y-67655998D01*
X94173189Y-51111990D02*
X211547992Y-51111990D01*
X109010000Y-107398008D02*
X108758007Y-107650001D01*
X109010000Y-105806000D02*
X109010000Y-107398008D01*
X108758007Y-107650001D02*
X108458008Y-107950000D01*
X77244999Y-104676999D02*
X78186001Y-105618001D01*
X77244999Y-69567001D02*
X77244999Y-104676999D01*
X78186001Y-105618001D02*
X78486000Y-105918000D01*
X227076000Y-71100000D02*
X223696400Y-71100000D01*
X223696400Y-71100000D02*
X223520000Y-71276400D01*
X223520000Y-71276400D02*
X223520000Y-72390000D01*
X227076000Y-90404000D02*
X227076000Y-90529000D01*
X227076000Y-90529000D02*
X224641000Y-92964000D01*
X98923005Y-110353005D02*
X98089999Y-109519999D01*
X105310000Y-110256000D02*
X105212995Y-110353005D01*
X106060000Y-110256000D02*
X105310000Y-110256000D01*
X98089999Y-109519999D02*
X97790000Y-109220000D01*
X105212995Y-110353005D02*
X98923005Y-110353005D01*
X76707986Y-109811736D02*
X76707986Y-110236000D01*
X212869010Y-80241392D02*
X212869010Y-71897662D01*
X76707986Y-69213603D02*
X76707986Y-109811736D01*
X94359589Y-51562000D02*
X76707986Y-69213603D01*
X212869010Y-71897662D02*
X192533348Y-51562000D01*
X211274000Y-90754400D02*
X208534000Y-88014400D01*
X192533348Y-51562000D02*
X94359589Y-51562000D01*
X211274000Y-91868000D02*
X211274000Y-90754400D01*
X208534000Y-84576402D02*
X212869010Y-80241392D01*
X208534000Y-88014400D02*
X208534000Y-84576402D01*
X223774000Y-91868000D02*
X225737000Y-91868000D01*
X225737000Y-91868000D02*
X227076000Y-90529000D01*
X113897020Y-113329999D02*
X113597021Y-113030000D01*
X113897020Y-115085390D02*
X113897020Y-113329999D01*
X112510000Y-116472410D02*
X113897020Y-115085390D01*
X112510000Y-117206000D02*
X112510000Y-116472410D01*
X177038000Y-72310000D02*
X181762000Y-72310000D01*
X181762000Y-72310000D02*
X181842000Y-72390000D01*
X173482000Y-72390000D02*
X176958000Y-72390000D01*
X176958000Y-72390000D02*
X177038000Y-72310000D01*
X116117609Y-106436729D02*
X124739683Y-106436729D01*
X124739683Y-106436729D02*
X158786412Y-72390000D01*
X158786412Y-72390000D02*
X172607000Y-72390000D01*
X172607000Y-72390000D02*
X173482000Y-72390000D01*
X150114000Y-143510000D02*
X158495000Y-143510000D01*
X158495000Y-143510000D02*
X158496000Y-143511000D01*
X132080000Y-128524000D02*
X132080000Y-130614000D01*
X132080000Y-130614000D02*
X133466000Y-132000000D01*
X133466000Y-132000000D02*
X134366000Y-132000000D01*
X135588859Y-116332000D02*
X133604000Y-116332000D01*
X133604000Y-116332000D02*
X133350000Y-116078000D01*
X139954000Y-118778000D02*
X140854000Y-118778000D01*
X144458081Y-116332000D02*
X143256000Y-116332000D01*
X140854000Y-118778000D02*
X142123001Y-120047001D01*
X142123001Y-120047001D02*
X150590001Y-120047001D01*
X152379001Y-116437999D02*
X151257002Y-115316000D01*
X150590001Y-120047001D02*
X152379001Y-118258001D01*
X152379001Y-118258001D02*
X152379001Y-116437999D01*
X151257002Y-115316000D02*
X145474081Y-115316000D01*
X145474081Y-115316000D02*
X144458081Y-116332000D01*
X156718000Y-141986000D02*
X157646000Y-141986000D01*
X157646000Y-141986000D02*
X158496000Y-141136000D01*
X134366000Y-134700000D02*
X134366000Y-143256000D01*
X134366000Y-143256000D02*
X134112000Y-143510000D01*
X158496000Y-141136000D02*
X163720000Y-141136000D01*
X163720000Y-141136000D02*
X163836000Y-141020000D01*
X118560011Y-119092991D02*
X118560011Y-119475402D01*
X120937009Y-114865989D02*
X121111999Y-114690999D01*
X120205103Y-114865989D02*
X120937009Y-114865989D01*
X122037001Y-115616001D02*
X118560011Y-119092991D01*
X122037001Y-115015999D02*
X122037001Y-115616001D01*
X121712001Y-114690999D02*
X122037001Y-115015999D01*
X117460000Y-113756000D02*
X119095114Y-113756000D01*
X121111999Y-114690999D02*
X121712001Y-114690999D01*
X117810001Y-120225412D02*
X117810001Y-128986001D01*
X119095114Y-113756000D02*
X120205103Y-114865989D01*
X118560011Y-119475402D02*
X117810001Y-120225412D01*
X117810001Y-128986001D02*
X118110000Y-129286000D01*
X123444000Y-129380000D02*
X122014000Y-129380000D01*
X122014000Y-129380000D02*
X121920000Y-129286000D01*
X123837045Y-114270399D02*
X121666000Y-112099354D01*
X121666000Y-108756000D02*
X118210000Y-108756000D01*
X99884529Y-142575399D02*
X100502601Y-143193471D01*
X101283471Y-144952601D02*
X117664529Y-144952601D01*
X121666000Y-112099354D02*
X121666000Y-108756000D01*
X117664529Y-144952601D02*
X121255202Y-141361928D01*
X100502601Y-144171731D02*
X101283471Y-144952601D01*
X100502601Y-143193471D02*
X100502601Y-144171731D01*
X118210000Y-108756000D02*
X117460000Y-108756000D01*
X96774000Y-143764000D02*
X97962601Y-142575399D01*
X121255202Y-118943444D02*
X123837045Y-116361601D01*
X97962601Y-142575399D02*
X99884529Y-142575399D01*
X123837045Y-116361601D02*
X123837045Y-114270399D01*
X121255202Y-141361928D02*
X121255202Y-118943444D01*
X117410001Y-108805999D02*
X117460000Y-108756000D01*
X119201576Y-110756000D02*
X121044210Y-112598634D01*
X123387034Y-114456799D02*
X123387034Y-116175201D01*
X120650000Y-118912235D02*
X120650000Y-137668000D01*
X117460000Y-110756000D02*
X119201576Y-110756000D01*
X120650000Y-137668000D02*
X115417599Y-142900401D01*
X123387034Y-116175201D02*
X120650000Y-118912235D01*
X121044210Y-112598634D02*
X121528869Y-112598634D01*
X121528869Y-112598634D02*
X123387034Y-114456799D01*
X115417599Y-142900401D02*
X114554000Y-143764000D01*
X99314000Y-143764000D02*
X98125399Y-144952601D01*
X98125399Y-144952601D02*
X96040673Y-144952601D01*
X96040673Y-144952601D02*
X95422601Y-144334529D01*
X95422601Y-144334529D02*
X95422601Y-138387811D01*
X95422601Y-138387811D02*
X97657011Y-136153401D01*
X97657011Y-136153401D02*
X97657011Y-117988989D01*
X97657011Y-117988989D02*
X102108000Y-113538000D01*
X102108000Y-113538000D02*
X105092000Y-113538000D01*
X105092000Y-113538000D02*
X105310000Y-113756000D01*
X105310000Y-113756000D02*
X106060000Y-113756000D01*
X101854000Y-143764000D02*
X101854000Y-124714000D01*
X101854000Y-124714000D02*
X102616000Y-124714000D01*
X108010000Y-119320000D02*
X108010000Y-118558000D01*
X102616000Y-124714000D02*
X108010000Y-119320000D01*
X108010000Y-118558000D02*
X108010000Y-117206000D01*
X108575000Y-119888000D02*
X108575000Y-135265000D01*
X108575000Y-135265000D02*
X104394000Y-139446000D01*
X108575000Y-119888000D02*
X108575001Y-118227001D01*
X108575001Y-118227001D02*
X108559999Y-118211999D01*
X108559999Y-118211999D02*
X108559999Y-117255999D01*
X108559999Y-117255999D02*
X108510000Y-117206000D01*
X104394000Y-143764000D02*
X104394000Y-139446000D01*
X106934000Y-143764000D02*
X109025010Y-141672990D01*
X109025010Y-141672990D02*
X109025010Y-117971010D01*
X109025010Y-117971010D02*
X109010000Y-117956000D01*
X109010000Y-117956000D02*
X109010000Y-117206000D01*
X109510000Y-117206000D02*
X109510000Y-143728000D01*
X109510000Y-143728000D02*
X109474000Y-143764000D01*
X118210000Y-111256000D02*
X117460000Y-111256000D01*
X119065166Y-111256000D02*
X118210000Y-111256000D01*
X120857811Y-113048645D02*
X119065166Y-111256000D01*
X119505716Y-119420108D02*
X122937023Y-115988801D01*
X119505716Y-136272284D02*
X119505716Y-119420108D01*
X112014000Y-143764000D02*
X119505716Y-136272284D01*
X122937023Y-114643199D02*
X121342469Y-113048645D01*
X122937023Y-115988801D02*
X122937023Y-114643199D01*
X121342469Y-113048645D02*
X120857811Y-113048645D01*
X114554000Y-56134000D02*
X113378999Y-54958999D01*
X113378999Y-54958999D02*
X107909001Y-54958999D01*
X107909001Y-54958999D02*
X89909999Y-72958001D01*
X89909999Y-72958001D02*
X88740000Y-74128000D01*
X110998000Y-118872000D02*
X110998000Y-117218000D01*
X110998000Y-117218000D02*
X111010000Y-117206000D01*
X111711557Y-115750545D02*
X112011556Y-115450546D01*
X111510000Y-117206000D02*
X111510000Y-115952102D01*
X111510000Y-115952102D02*
X111711557Y-115750545D01*
X115824000Y-58928000D02*
X116840000Y-58928000D01*
X116840000Y-58928000D02*
X119634000Y-56134000D01*
X120987736Y-115316000D02*
X121412000Y-115316000D01*
X118958703Y-114256000D02*
X120018703Y-115316000D01*
X117460000Y-114256000D02*
X118958703Y-114256000D01*
X120018703Y-115316000D02*
X120987736Y-115316000D01*
X112010000Y-105806000D02*
X112010000Y-106556000D01*
X112995604Y-107541604D02*
X113147010Y-107541604D01*
X112010000Y-106556000D02*
X112995604Y-107541604D01*
X116586000Y-61214000D02*
X119634000Y-61214000D01*
X119634000Y-61214000D02*
X124714000Y-56134000D01*
X116586000Y-57912000D02*
X117010264Y-57912000D01*
X117010264Y-57912000D02*
X118458999Y-56463265D01*
X118458999Y-56463265D02*
X118458999Y-55569999D01*
X118458999Y-55569999D02*
X119069999Y-54958999D01*
X119069999Y-54958999D02*
X125278001Y-54958999D01*
X125278001Y-54958999D02*
X125945002Y-55626000D01*
X125945002Y-55626000D02*
X126746000Y-55626000D01*
X126746000Y-55626000D02*
X127254000Y-56134000D01*
X111510000Y-105806000D02*
X111510000Y-104136000D01*
X111510000Y-104136000D02*
X111760000Y-103886000D01*
X101941045Y-70643354D02*
X101941045Y-94321045D01*
X101941045Y-94321045D02*
X108920001Y-101300001D01*
X108920001Y-101300001D02*
X109220000Y-101600000D01*
X110072989Y-62511410D02*
X101941045Y-70643354D01*
X123416590Y-62511410D02*
X110072989Y-62511410D01*
X129794000Y-56134000D02*
X123416590Y-62511410D01*
X111010000Y-105806000D02*
X111010000Y-107430000D01*
X111010000Y-107430000D02*
X110998000Y-107442000D01*
X110797254Y-63136411D02*
X110372990Y-63136411D01*
X132334000Y-56134000D02*
X125331589Y-63136411D01*
X110510000Y-104727021D02*
X110222978Y-104439999D01*
X110510000Y-105806000D02*
X110510000Y-104727021D01*
X125331589Y-63136411D02*
X110797254Y-63136411D01*
X110222978Y-104439999D02*
X109922979Y-104140000D01*
X97195002Y-111256000D02*
X105310000Y-111256000D01*
X79284573Y-102359575D02*
X87255997Y-110330999D01*
X96270001Y-110330999D02*
X97195002Y-111256000D01*
X87255997Y-110330999D02*
X96270001Y-110330999D01*
X79284573Y-80554223D02*
X79284573Y-102359575D01*
X105310000Y-111256000D02*
X106060000Y-111256000D01*
X132588000Y-53848000D02*
X132588000Y-53594000D01*
X134874000Y-56134000D02*
X132588000Y-53848000D01*
X79411988Y-80607000D02*
X79337350Y-80607000D01*
X79337350Y-80607000D02*
X79284573Y-80554223D01*
X107203600Y-106876010D02*
X88918992Y-106876010D01*
X134192033Y-52912033D02*
X137414000Y-56134000D01*
X88918992Y-106876010D02*
X88194001Y-107601001D01*
X107203600Y-111362400D02*
X107203600Y-106876010D01*
X106810000Y-111756000D02*
X107203600Y-111362400D01*
X106060000Y-111756000D02*
X106810000Y-111756000D01*
X88194001Y-107601001D02*
X87065999Y-107601001D01*
X79861998Y-80793400D02*
X107743365Y-52912033D01*
X107743365Y-52912033D02*
X134192033Y-52912033D01*
X87065999Y-107601001D02*
X79861998Y-100397000D01*
X79861998Y-100397000D02*
X79861998Y-80793400D01*
X110010000Y-117206000D02*
X110010000Y-116106000D01*
X110010000Y-116106000D02*
X109519999Y-115615999D01*
X109519999Y-115615999D02*
X109220000Y-115316000D01*
X110510000Y-117206000D02*
X110510000Y-115590000D01*
X110510000Y-115590000D02*
X110236000Y-115316000D01*
X108510000Y-105806000D02*
X108510000Y-105056000D01*
X107519977Y-104065977D02*
X107519977Y-102270589D01*
X107519977Y-102270589D02*
X107519977Y-101846325D01*
X108510000Y-105056000D02*
X107519977Y-104065977D01*
X196342000Y-72390000D02*
X190016999Y-66064999D01*
X190016999Y-66064999D02*
X119609001Y-66064999D01*
X119609001Y-66064999D02*
X108204000Y-77470000D01*
X116710000Y-111756000D02*
X115824000Y-112642000D01*
X117460000Y-111756000D02*
X116710000Y-111756000D01*
X115824000Y-112642000D02*
X115824000Y-113367736D01*
X115824000Y-113367736D02*
X115824000Y-113792000D01*
X118533699Y-114756000D02*
X118830396Y-115052697D01*
X117460000Y-114756000D02*
X118533699Y-114756000D01*
X121156069Y-113498656D02*
X122487012Y-114829599D01*
X118944950Y-119974362D02*
X118644951Y-120274361D01*
X119010022Y-119909290D02*
X118944950Y-119974362D01*
X119010022Y-119279391D02*
X119010022Y-119909290D01*
X114510000Y-117206000D02*
X114510000Y-116271472D01*
X113943072Y-119975445D02*
X114367336Y-119975445D01*
X122487012Y-114829599D02*
X122487012Y-115802401D01*
X114718423Y-115198999D02*
X116214999Y-115198999D01*
X122487012Y-115802401D02*
X119010022Y-119279391D01*
X120358069Y-113498656D02*
X121156069Y-113498656D01*
X114377977Y-116139449D02*
X114377977Y-115539445D01*
X119942883Y-113083470D02*
X120358069Y-113498656D01*
X111459999Y-122799001D02*
X111134999Y-122474001D01*
X114600001Y-122799001D02*
X111459999Y-122799001D01*
X114510000Y-116271472D02*
X114377977Y-116139449D01*
X114377977Y-115539445D02*
X114718423Y-115198999D01*
X113033553Y-119975445D02*
X113943072Y-119975445D01*
X116214999Y-115198999D02*
X118110000Y-117094000D01*
X111134999Y-122474001D02*
X111134999Y-121873999D01*
X118110000Y-117094000D02*
X118110000Y-119289002D01*
X118110000Y-119289002D02*
X114600001Y-122799001D01*
X111134999Y-121873999D02*
X113033553Y-119975445D01*
X117835000Y-115256000D02*
X119126000Y-116547000D01*
X117460000Y-115256000D02*
X117835000Y-115256000D01*
X119126000Y-116547000D02*
X119126000Y-116840006D01*
X123997999Y-117810001D02*
X123698000Y-118110000D01*
X124287056Y-114083999D02*
X124287056Y-117520944D01*
X123190000Y-112986943D02*
X124287056Y-114083999D01*
X123190000Y-112385010D02*
X123190000Y-112986943D01*
X124287056Y-117520944D02*
X123997999Y-117810001D01*
X117460000Y-112256000D02*
X118881101Y-112256000D01*
X118881101Y-112256000D02*
X118917623Y-112292522D01*
X118917623Y-112292522D02*
X119217622Y-112592521D01*
X211074000Y-143510000D02*
X211074000Y-135244000D01*
X211074000Y-135244000D02*
X205116000Y-129286000D01*
X205116000Y-129286000D02*
X204216000Y-129286000D01*
X208365000Y-127889000D02*
X209390000Y-127889000D01*
X205116000Y-129286000D02*
X206513000Y-127889000D01*
X206513000Y-127889000D02*
X208365000Y-127889000D01*
X185354000Y-127889000D02*
X184973000Y-128270000D01*
X184973000Y-128270000D02*
X182750000Y-128270000D01*
X182750000Y-128270000D02*
X181654000Y-129366000D01*
X181654000Y-129366000D02*
X181494000Y-129366000D01*
X181494000Y-129366000D02*
X180594000Y-129366000D01*
X185354000Y-127889000D02*
X185804010Y-128339010D01*
X185804010Y-128339010D02*
X186194012Y-128339010D01*
X186194012Y-128339010D02*
X196008000Y-138152998D01*
X196008000Y-138152998D02*
X196008000Y-141280000D01*
X196008000Y-141280000D02*
X196008000Y-143510000D01*
X89215000Y-107381000D02*
X105310000Y-107381000D01*
X105310000Y-107381000D02*
X105685000Y-107756000D01*
X87630000Y-108966000D02*
X89215000Y-107381000D01*
X105685000Y-107756000D02*
X106060000Y-107756000D01*
X87630000Y-106426000D02*
X107390000Y-106426000D01*
X107390000Y-106426000D02*
X107520000Y-106556000D01*
X107520000Y-106556000D02*
X107635000Y-106556000D01*
X107635000Y-106556000D02*
X108010000Y-106181000D01*
X108010000Y-106181000D02*
X108010000Y-105806000D01*
X82358000Y-131374000D02*
X84334000Y-133350000D01*
X84334000Y-133350000D02*
X93540000Y-133350000D01*
X93540000Y-133350000D02*
X95572000Y-135382000D01*
X95572000Y-135382000D02*
X96352000Y-135382000D01*
X96106000Y-126746000D02*
X96006000Y-126746000D01*
X96006000Y-126746000D02*
X95030999Y-127721001D01*
X95030999Y-127721001D02*
X95030999Y-133890999D01*
X95030999Y-133890999D02*
X95572000Y-134432000D01*
X95572000Y-134432000D02*
X96352000Y-134432000D01*
X82358000Y-128874000D02*
X83590998Y-128874000D01*
X83590998Y-128874000D02*
X85718998Y-126746000D01*
X85718998Y-126746000D02*
X95106000Y-126746000D01*
X95106000Y-126746000D02*
X96106000Y-126746000D01*
X85108000Y-131374000D02*
X84036000Y-130302000D01*
X83265001Y-130348999D02*
X81865999Y-130348999D01*
X81332999Y-131866001D02*
X83267008Y-133800010D01*
X97207001Y-133557001D02*
X97132000Y-133482000D01*
X84036000Y-130302000D02*
X83312000Y-130302000D01*
X97142001Y-136032001D02*
X97207001Y-135967001D01*
X83312000Y-130302000D02*
X83265001Y-130348999D01*
X81332999Y-130881999D02*
X81332999Y-131866001D01*
X97132000Y-133482000D02*
X96352000Y-133482000D01*
X81865999Y-130348999D02*
X81332999Y-130881999D01*
X83267008Y-133800010D02*
X93330008Y-133800010D01*
X93330008Y-133800010D02*
X95561999Y-136032001D01*
X95561999Y-136032001D02*
X97142001Y-136032001D01*
X97207001Y-135967001D02*
X97207001Y-133557001D01*
X79930000Y-116332000D02*
X79930000Y-119634000D01*
X87122000Y-118364000D02*
X86868000Y-118364000D01*
X95504000Y-118364000D02*
X87122000Y-118364000D01*
X87122000Y-118364000D02*
X84900000Y-118364000D01*
X84900000Y-118364000D02*
X83630000Y-119634000D01*
X107696000Y-115824000D02*
X105156000Y-118364000D01*
X105156000Y-118364000D02*
X99060000Y-118364000D01*
X109091616Y-112522000D02*
X108458000Y-112522000D01*
X115010000Y-105806000D02*
X115010000Y-106603616D01*
X115010000Y-106603616D02*
X109091616Y-112522000D01*
X82630000Y-119634000D02*
X83630000Y-119634000D01*
X123444000Y-134366000D02*
X123444000Y-132080000D01*
X127016000Y-132146000D02*
X123510000Y-132146000D01*
X123510000Y-132146000D02*
X123444000Y-132080000D01*
X167132000Y-127762000D02*
X162052000Y-127762000D01*
X162052000Y-127762000D02*
X161798000Y-127508000D01*
X161798000Y-127508000D02*
X161748000Y-127508000D01*
X161748000Y-127508000D02*
X161022999Y-126782999D01*
X160353001Y-120526999D02*
X157174002Y-117348000D01*
X161022999Y-126782999D02*
X161022999Y-123684999D01*
X161022999Y-123684999D02*
X160353001Y-123015001D01*
X157174002Y-117348000D02*
X155004000Y-117348000D01*
X160353001Y-123015001D02*
X160353001Y-120526999D01*
X155004000Y-117348000D02*
X154004000Y-117348000D01*
X117460000Y-109756000D02*
X119762990Y-109756000D01*
X119762990Y-109756000D02*
X119888000Y-109881010D01*
X130650000Y-116078000D02*
X129032000Y-116078000D01*
X129032000Y-116078000D02*
X122682000Y-109728000D01*
X139954000Y-116078000D02*
X139954000Y-115978000D01*
X139954000Y-115978000D02*
X131281999Y-107305999D01*
X131281999Y-107305999D02*
X115198001Y-107305999D01*
X109248000Y-113256000D02*
X106810000Y-113256000D01*
X115198001Y-107305999D02*
X109248000Y-113256000D01*
X106810000Y-113256000D02*
X106060000Y-113256000D01*
X119231525Y-113256000D02*
X120099183Y-114123658D01*
X120099183Y-114123658D02*
X120425510Y-114123658D01*
X117460000Y-113256000D02*
X119231525Y-113256000D01*
X120425510Y-114123658D02*
X120849774Y-114123658D01*
X125209605Y-114328590D02*
X124909606Y-114028591D01*
X128388016Y-117507001D02*
X125209605Y-114328590D01*
X151304000Y-117348000D02*
X150304000Y-117348000D01*
X150304000Y-117348000D02*
X150144999Y-117507001D01*
X150144999Y-117507001D02*
X128388016Y-117507001D01*
X100344950Y-129300950D02*
X100644949Y-129600949D01*
X100330000Y-129286000D02*
X100344950Y-129300950D01*
X98806000Y-129286000D02*
X100330000Y-129286000D01*
X113010000Y-117206000D02*
X113010000Y-117956000D01*
X113010000Y-117956000D02*
X111468999Y-119497001D01*
X111468999Y-119497001D02*
X110880999Y-119497001D01*
X110880999Y-119497001D02*
X110236000Y-120142000D01*
X98806000Y-126746000D02*
X98806000Y-127646000D01*
X98806000Y-127646000D02*
X98806000Y-129286000D01*
X98552000Y-135382000D02*
X100076000Y-135382000D01*
X100076000Y-135382000D02*
X101391999Y-134066001D01*
X101391999Y-134066001D02*
X101391999Y-130855999D01*
X101391999Y-130855999D02*
X101092000Y-130556000D01*
X113510000Y-118590000D02*
X113538000Y-118618000D01*
X113510000Y-117206000D02*
X113510000Y-118590000D01*
X100582149Y-131656851D02*
X100582149Y-131573841D01*
X98552000Y-133482000D02*
X98757000Y-133482000D01*
X98757000Y-133482000D02*
X100582149Y-131656851D01*
X114010000Y-117956000D02*
X114179235Y-118125235D01*
X114179235Y-118125235D02*
X114179235Y-119041587D01*
X114179235Y-119041587D02*
X113879236Y-119341586D01*
X114010000Y-117206000D02*
X114010000Y-117956000D01*
X118078546Y-89563194D02*
X118078546Y-84304694D01*
X118078546Y-84304694D02*
X118003046Y-84229194D01*
X118078546Y-89563194D02*
X118078546Y-90813194D01*
X118078546Y-90813194D02*
X113510000Y-95381740D01*
X113510000Y-95381740D02*
X113510000Y-105056000D01*
X113510000Y-105056000D02*
X113510000Y-105806000D01*
X114510000Y-105056000D02*
X114510000Y-105806000D01*
X114510000Y-104274996D02*
X114510000Y-105056000D01*
X115269998Y-103514998D02*
X114510000Y-104274996D01*
X121137002Y-103514998D02*
X115269998Y-103514998D01*
X124809000Y-99843000D02*
X121137002Y-103514998D01*
X125519000Y-99843000D02*
X124809000Y-99843000D01*
X125519000Y-99843000D02*
X128311000Y-99843000D01*
X128311000Y-99843000D02*
X128524000Y-100056000D01*
X124182000Y-97536000D02*
X124182000Y-98506000D01*
X124182000Y-98506000D02*
X123844000Y-98844000D01*
X123844000Y-98844000D02*
X123844000Y-98878000D01*
X123844000Y-98878000D02*
X124809000Y-99843000D01*
X210754000Y-111252000D02*
X210754000Y-109982000D01*
X203962000Y-102870000D02*
X203962000Y-103745000D01*
X203962000Y-103745000D02*
X210199000Y-109982000D01*
X210199000Y-109982000D02*
X210754000Y-109982000D01*
X203882000Y-99568000D02*
X203882000Y-102790000D01*
X203882000Y-102790000D02*
X203962000Y-102870000D01*
X186022000Y-110109000D02*
X186022000Y-111379000D01*
X186984000Y-102870000D02*
X186984000Y-103745000D01*
X186497000Y-110109000D02*
X186022000Y-110109000D01*
X186984000Y-103745000D02*
X187122001Y-103883001D01*
X187122001Y-103883001D02*
X187122001Y-109483999D01*
X187122001Y-109483999D02*
X186497000Y-110109000D01*
X186864000Y-99568000D02*
X186864000Y-102750000D01*
X186864000Y-102750000D02*
X186984000Y-102870000D01*
X191262000Y-119654000D02*
X194564000Y-119654000D01*
X188040000Y-119634000D02*
X191242000Y-119634000D01*
X191242000Y-119634000D02*
X191262000Y-119654000D01*
X191422000Y-111379000D02*
X190947000Y-111379000D01*
X190947000Y-111379000D02*
X190321999Y-112004001D01*
X190321999Y-112004001D02*
X190321999Y-117713999D01*
X191262000Y-118654000D02*
X191262000Y-119654000D01*
X190321999Y-117713999D02*
X191262000Y-118654000D01*
X190754000Y-126619000D02*
X197872000Y-126619000D01*
X197872000Y-126619000D02*
X200172000Y-124319000D01*
X200172000Y-124319000D02*
X200172000Y-123444000D01*
X200172000Y-123444000D02*
X200172000Y-119734000D01*
X200172000Y-119734000D02*
X200072000Y-119634000D01*
X129112000Y-143510000D02*
X129112000Y-133192000D01*
X129112000Y-133192000D02*
X129016000Y-133096000D01*
X129705000Y-128524000D02*
X129705000Y-132407000D01*
X129705000Y-132407000D02*
X129716000Y-132418000D01*
X129066000Y-133096000D02*
X129016000Y-133096000D01*
X129716000Y-132418000D02*
X129716000Y-132446000D01*
X129716000Y-132446000D02*
X129066000Y-133096000D01*
X167132000Y-133430000D02*
X162102000Y-133430000D01*
X162102000Y-133430000D02*
X162022000Y-133350000D01*
X209390000Y-126619000D02*
X204249000Y-126619000D01*
X204249000Y-126619000D02*
X204216000Y-126586000D01*
X208788000Y-119634000D02*
X208688000Y-119634000D01*
X208688000Y-119634000D02*
X204216000Y-124106000D01*
X204216000Y-124106000D02*
X204216000Y-125586000D01*
X204216000Y-125586000D02*
X204216000Y-126586000D01*
X185354000Y-126619000D02*
X180641000Y-126619000D01*
X180641000Y-126619000D02*
X180594000Y-126666000D01*
X185340000Y-119634000D02*
X185340000Y-126605000D01*
X185340000Y-126605000D02*
X185354000Y-126619000D01*
X218694000Y-131318000D02*
X219630000Y-130382000D01*
X219630000Y-130382000D02*
X219630000Y-128016000D01*
X106060000Y-109256000D02*
X100021004Y-109256000D01*
X100021004Y-109256000D02*
X99731004Y-108966000D01*
X99731004Y-108966000D02*
X99314000Y-108966000D01*
X219630000Y-128016000D02*
X214917000Y-128016000D01*
X214917000Y-128016000D02*
X214790000Y-127889000D01*
X154295001Y-106633999D02*
X150766001Y-103104999D01*
X154295001Y-106922591D02*
X154295001Y-106633999D01*
X145183999Y-103104999D02*
X145118999Y-103169999D01*
X190754000Y-127889000D02*
X186454001Y-127889000D01*
X186454001Y-127889000D02*
X186454001Y-118762999D01*
X152908000Y-118279000D02*
X152908000Y-120396000D01*
X186454001Y-118762999D02*
X186350001Y-118658999D01*
X152777001Y-120526999D02*
X124583001Y-120526999D01*
X186350001Y-118658999D02*
X183295393Y-118658999D01*
X183295393Y-118658999D02*
X174663401Y-127290991D01*
X174663401Y-127290991D02*
X154295001Y-106922591D01*
X145118999Y-103169999D02*
X145118999Y-105890001D01*
X152928999Y-118258001D02*
X152908000Y-118279000D01*
X150766001Y-103104999D02*
X145183999Y-103104999D01*
X145118999Y-105890001D02*
X152928999Y-113700001D01*
X152928999Y-113700001D02*
X152928999Y-118258001D01*
X152908000Y-120396000D02*
X152777001Y-120526999D01*
X124583001Y-120526999D02*
X123190000Y-121920000D01*
X99568002Y-109728000D02*
X106032000Y-109728000D01*
X106032000Y-109728000D02*
X106060000Y-109756000D01*
X193976000Y-128016000D02*
X190881000Y-128016000D01*
X190881000Y-128016000D02*
X190754000Y-127889000D01*
X120399273Y-110724012D02*
X120823537Y-110724012D01*
X119806000Y-110724012D02*
X120399273Y-110724012D01*
X119337988Y-110256000D02*
X119806000Y-110724012D01*
X117460000Y-110256000D02*
X119337988Y-110256000D01*
X214790000Y-129159000D02*
X214315000Y-129159000D01*
X207389001Y-141269999D02*
X195278002Y-129159000D01*
X214315000Y-129159000D02*
X213614000Y-129860000D01*
X213614000Y-129860000D02*
X213614000Y-146558000D01*
X213614000Y-146558000D02*
X210312000Y-146558000D01*
X210312000Y-146558000D02*
X207389001Y-143635001D01*
X207389001Y-143635001D02*
X207389001Y-141269999D01*
X195278002Y-129159000D02*
X191779000Y-129159000D01*
X191779000Y-129159000D02*
X190754000Y-129159000D01*
X174543999Y-127807999D02*
X182326001Y-127807999D01*
X153670000Y-106934000D02*
X174543999Y-127807999D01*
X182326001Y-127807999D02*
X182626000Y-127508000D01*
X189103999Y-128533999D02*
X189103999Y-128650001D01*
X189103999Y-128650001D02*
X188976000Y-128778000D01*
X189729000Y-129159000D02*
X190754000Y-129159000D01*
X189103999Y-128533999D02*
X189729000Y-129159000D01*
X189021999Y-130093999D02*
X188722000Y-129794000D01*
X189357000Y-130429000D02*
X189021999Y-130093999D01*
X190754000Y-130429000D02*
X189357000Y-130429000D01*
X120686000Y-109256000D02*
X120904000Y-109474000D01*
X117460000Y-109256000D02*
X120686000Y-109256000D01*
X190754000Y-130429000D02*
X190754000Y-131745002D01*
X190754000Y-131745002D02*
X206328998Y-147320000D01*
X206328998Y-147320000D02*
X214630000Y-147320000D01*
X214630000Y-147320000D02*
X214790000Y-147160000D01*
X214790000Y-130979000D02*
X214790000Y-130429000D01*
X214790000Y-147160000D02*
X214790000Y-130979000D01*
X182141003Y-129803999D02*
X181504001Y-130441001D01*
X181504001Y-130441001D02*
X175653001Y-130441001D01*
X175653001Y-130441001D02*
X152146000Y-106934000D01*
D49*
G36*
X162771910Y-142571441D02*
X162984110Y-142716431D01*
X163236000Y-142767440D01*
X164436000Y-142767440D01*
X164671317Y-142723162D01*
X164887441Y-142584090D01*
X165032431Y-142371890D01*
X165033421Y-142367000D01*
X167200356Y-142367000D01*
X167331910Y-142571441D01*
X167544110Y-142716431D01*
X167796000Y-142767440D01*
X168996000Y-142767440D01*
X169231317Y-142723162D01*
X169447441Y-142584090D01*
X169592431Y-142371890D01*
X169593421Y-142367000D01*
X173101000Y-142367000D01*
X173101000Y-152021465D01*
X160401000Y-152270485D01*
X160401000Y-142367000D01*
X162640356Y-142367000D01*
X162771910Y-142571441D01*
X162771910Y-142571441D01*
G37*
X162771910Y-142571441D02*
X162984110Y-142716431D01*
X163236000Y-142767440D01*
X164436000Y-142767440D01*
X164671317Y-142723162D01*
X164887441Y-142584090D01*
X165032431Y-142371890D01*
X165033421Y-142367000D01*
X167200356Y-142367000D01*
X167331910Y-142571441D01*
X167544110Y-142716431D01*
X167796000Y-142767440D01*
X168996000Y-142767440D01*
X169231317Y-142723162D01*
X169447441Y-142584090D01*
X169592431Y-142371890D01*
X169593421Y-142367000D01*
X173101000Y-142367000D01*
X173101000Y-152021465D01*
X160401000Y-152270485D01*
X160401000Y-142367000D01*
X162640356Y-142367000D01*
X162771910Y-142571441D01*
G36*
X175115600Y-130978402D02*
X175362162Y-131143149D01*
X175653001Y-131201001D01*
X181504001Y-131201001D01*
X181794840Y-131143149D01*
X182041402Y-130978402D01*
X182280683Y-130739121D01*
X182326170Y-130739161D01*
X182385249Y-130714750D01*
X183944000Y-130714750D01*
X183944000Y-130855310D01*
X184040673Y-131088699D01*
X184219302Y-131267327D01*
X184452691Y-131364000D01*
X185068250Y-131364000D01*
X185227000Y-131205250D01*
X185227000Y-130556000D01*
X185481000Y-130556000D01*
X185481000Y-131205250D01*
X185639750Y-131364000D01*
X186255309Y-131364000D01*
X186488698Y-131267327D01*
X186667327Y-131088699D01*
X186764000Y-130855310D01*
X186764000Y-130714750D01*
X186605250Y-130556000D01*
X185481000Y-130556000D01*
X185227000Y-130556000D01*
X184102750Y-130556000D01*
X183944000Y-130714750D01*
X182385249Y-130714750D01*
X182669946Y-130597116D01*
X182933195Y-130334326D01*
X183075841Y-129990798D01*
X183076165Y-129618832D01*
X183004236Y-129444750D01*
X183944000Y-129444750D01*
X183944000Y-129585310D01*
X184030442Y-129794000D01*
X183944000Y-130002690D01*
X183944000Y-130143250D01*
X184102750Y-130302000D01*
X185227000Y-130302000D01*
X185227000Y-129286000D01*
X184102750Y-129286000D01*
X183944000Y-129444750D01*
X183004236Y-129444750D01*
X182934120Y-129275056D01*
X182876983Y-129217819D01*
X183064802Y-129030000D01*
X184100750Y-129030000D01*
X184102750Y-129032000D01*
X185227000Y-129032000D01*
X185227000Y-129012000D01*
X185469532Y-129012000D01*
X185481000Y-129019663D01*
X185481000Y-129032000D01*
X185499464Y-129032000D01*
X185501000Y-129033026D01*
X185501000Y-129286000D01*
X185481000Y-129286000D01*
X185481000Y-130302000D01*
X186605250Y-130302000D01*
X186764000Y-130143250D01*
X186764000Y-130002690D01*
X186750643Y-129970443D01*
X195248000Y-138467800D01*
X195248000Y-139573000D01*
X179277000Y-139573000D01*
X179277000Y-139003691D01*
X179180327Y-138770302D01*
X179001699Y-138591673D01*
X178768310Y-138495000D01*
X177577750Y-138495000D01*
X177419000Y-138653750D01*
X177419000Y-139573000D01*
X177165000Y-139573000D01*
X177165000Y-138653750D01*
X177006250Y-138495000D01*
X175815690Y-138495000D01*
X175582301Y-138591673D01*
X175403673Y-138770302D01*
X175307000Y-139003691D01*
X175307000Y-139573000D01*
X172847000Y-139573000D01*
X172847000Y-128709802D01*
X175115600Y-130978402D01*
X175115600Y-130978402D01*
G37*
X175115600Y-130978402D02*
X175362162Y-131143149D01*
X175653001Y-131201001D01*
X181504001Y-131201001D01*
X181794840Y-131143149D01*
X182041402Y-130978402D01*
X182280683Y-130739121D01*
X182326170Y-130739161D01*
X182385249Y-130714750D01*
X183944000Y-130714750D01*
X183944000Y-130855310D01*
X184040673Y-131088699D01*
X184219302Y-131267327D01*
X184452691Y-131364000D01*
X185068250Y-131364000D01*
X185227000Y-131205250D01*
X185227000Y-130556000D01*
X185481000Y-130556000D01*
X185481000Y-131205250D01*
X185639750Y-131364000D01*
X186255309Y-131364000D01*
X186488698Y-131267327D01*
X186667327Y-131088699D01*
X186764000Y-130855310D01*
X186764000Y-130714750D01*
X186605250Y-130556000D01*
X185481000Y-130556000D01*
X185227000Y-130556000D01*
X184102750Y-130556000D01*
X183944000Y-130714750D01*
X182385249Y-130714750D01*
X182669946Y-130597116D01*
X182933195Y-130334326D01*
X183075841Y-129990798D01*
X183076165Y-129618832D01*
X183004236Y-129444750D01*
X183944000Y-129444750D01*
X183944000Y-129585310D01*
X184030442Y-129794000D01*
X183944000Y-130002690D01*
X183944000Y-130143250D01*
X184102750Y-130302000D01*
X185227000Y-130302000D01*
X185227000Y-129286000D01*
X184102750Y-129286000D01*
X183944000Y-129444750D01*
X183004236Y-129444750D01*
X182934120Y-129275056D01*
X182876983Y-129217819D01*
X183064802Y-129030000D01*
X184100750Y-129030000D01*
X184102750Y-129032000D01*
X185227000Y-129032000D01*
X185227000Y-129012000D01*
X185469532Y-129012000D01*
X185481000Y-129019663D01*
X185481000Y-129032000D01*
X185499464Y-129032000D01*
X185501000Y-129033026D01*
X185501000Y-129286000D01*
X185481000Y-129286000D01*
X185481000Y-130302000D01*
X186605250Y-130302000D01*
X186764000Y-130143250D01*
X186764000Y-130002690D01*
X186750643Y-129970443D01*
X195248000Y-138467800D01*
X195248000Y-139573000D01*
X179277000Y-139573000D01*
X179277000Y-139003691D01*
X179180327Y-138770302D01*
X179001699Y-138591673D01*
X178768310Y-138495000D01*
X177577750Y-138495000D01*
X177419000Y-138653750D01*
X177419000Y-139573000D01*
X177165000Y-139573000D01*
X177165000Y-138653750D01*
X177006250Y-138495000D01*
X175815690Y-138495000D01*
X175582301Y-138591673D01*
X175403673Y-138770302D01*
X175307000Y-139003691D01*
X175307000Y-139573000D01*
X172847000Y-139573000D01*
X172847000Y-128709802D01*
X175115600Y-130978402D01*
G36*
X210273910Y-120735441D02*
X210486110Y-120880431D01*
X210738000Y-120931440D01*
X212238000Y-120931440D01*
X212473317Y-120887162D01*
X212689441Y-120748090D01*
X212727129Y-120692931D01*
X213865560Y-121831362D01*
X213865560Y-122904000D01*
X213909838Y-123139317D01*
X214048910Y-123355441D01*
X214261110Y-123500431D01*
X214513000Y-123551440D01*
X215763000Y-123551440D01*
X215998317Y-123507162D01*
X216214441Y-123368090D01*
X216359431Y-123155890D01*
X216374597Y-123080998D01*
X216703200Y-123080998D01*
X214252599Y-125531599D01*
X214159080Y-125671560D01*
X214015000Y-125671560D01*
X213779683Y-125715838D01*
X213563559Y-125854910D01*
X213418569Y-126067110D01*
X213367560Y-126319000D01*
X213367560Y-126919000D01*
X213411838Y-127154317D01*
X213475678Y-127253528D01*
X213418569Y-127337110D01*
X213367560Y-127589000D01*
X213367560Y-128189000D01*
X213411838Y-128424317D01*
X213475678Y-128523528D01*
X213418569Y-128607110D01*
X213367560Y-128859000D01*
X213367560Y-129031638D01*
X213076599Y-129322599D01*
X212911852Y-129569161D01*
X212854000Y-129860000D01*
X212854000Y-139573000D01*
X211834000Y-139573000D01*
X211834000Y-135244000D01*
X211776148Y-134953161D01*
X211776148Y-134953160D01*
X211611401Y-134706599D01*
X207619552Y-130714750D01*
X207980000Y-130714750D01*
X207980000Y-130855310D01*
X208076673Y-131088699D01*
X208255302Y-131267327D01*
X208488691Y-131364000D01*
X209104250Y-131364000D01*
X209263000Y-131205250D01*
X209263000Y-130556000D01*
X209517000Y-130556000D01*
X209517000Y-131205250D01*
X209675750Y-131364000D01*
X210291309Y-131364000D01*
X210524698Y-131267327D01*
X210703327Y-131088699D01*
X210800000Y-130855310D01*
X210800000Y-130714750D01*
X210641250Y-130556000D01*
X209517000Y-130556000D01*
X209263000Y-130556000D01*
X208138750Y-130556000D01*
X207980000Y-130714750D01*
X207619552Y-130714750D01*
X206349552Y-129444750D01*
X207980000Y-129444750D01*
X207980000Y-129585310D01*
X208066442Y-129794000D01*
X207980000Y-130002690D01*
X207980000Y-130143250D01*
X208138750Y-130302000D01*
X209263000Y-130302000D01*
X209263000Y-129286000D01*
X209517000Y-129286000D01*
X209517000Y-130302000D01*
X210641250Y-130302000D01*
X210800000Y-130143250D01*
X210800000Y-130002690D01*
X210713558Y-129794000D01*
X210800000Y-129585310D01*
X210800000Y-129444750D01*
X210641250Y-129286000D01*
X209517000Y-129286000D01*
X209263000Y-129286000D01*
X208138750Y-129286000D01*
X207980000Y-129444750D01*
X206349552Y-129444750D01*
X206190802Y-129286000D01*
X206827802Y-128649000D01*
X208014666Y-128649000D01*
X207980000Y-128732690D01*
X207980000Y-128873250D01*
X208138750Y-129032000D01*
X209263000Y-129032000D01*
X209263000Y-129012000D01*
X209517000Y-129012000D01*
X209517000Y-129032000D01*
X210641250Y-129032000D01*
X210800000Y-128873250D01*
X210800000Y-128732690D01*
X210710194Y-128515878D01*
X210761431Y-128440890D01*
X210812440Y-128189000D01*
X210812440Y-127589000D01*
X210768162Y-127353683D01*
X210704322Y-127254472D01*
X210761431Y-127170890D01*
X210812440Y-126919000D01*
X210812440Y-126319000D01*
X210768162Y-126083683D01*
X210629090Y-125867559D01*
X210416890Y-125722569D01*
X210165000Y-125671560D01*
X208615000Y-125671560D01*
X208379683Y-125715838D01*
X208163559Y-125854910D01*
X208160764Y-125859000D01*
X205513440Y-125859000D01*
X205513440Y-125836000D01*
X205469162Y-125600683D01*
X205330090Y-125384559D01*
X205117890Y-125239569D01*
X204976000Y-125210836D01*
X204976000Y-124420802D01*
X208465362Y-120931440D01*
X209538000Y-120931440D01*
X209773317Y-120887162D01*
X209989441Y-120748090D01*
X210134431Y-120535890D01*
X210137081Y-120522803D01*
X210273910Y-120735441D01*
X210273910Y-120735441D01*
G37*
X210273910Y-120735441D02*
X210486110Y-120880431D01*
X210738000Y-120931440D01*
X212238000Y-120931440D01*
X212473317Y-120887162D01*
X212689441Y-120748090D01*
X212727129Y-120692931D01*
X213865560Y-121831362D01*
X213865560Y-122904000D01*
X213909838Y-123139317D01*
X214048910Y-123355441D01*
X214261110Y-123500431D01*
X214513000Y-123551440D01*
X215763000Y-123551440D01*
X215998317Y-123507162D01*
X216214441Y-123368090D01*
X216359431Y-123155890D01*
X216374597Y-123080998D01*
X216703200Y-123080998D01*
X214252599Y-125531599D01*
X214159080Y-125671560D01*
X214015000Y-125671560D01*
X213779683Y-125715838D01*
X213563559Y-125854910D01*
X213418569Y-126067110D01*
X213367560Y-126319000D01*
X213367560Y-126919000D01*
X213411838Y-127154317D01*
X213475678Y-127253528D01*
X213418569Y-127337110D01*
X213367560Y-127589000D01*
X213367560Y-128189000D01*
X213411838Y-128424317D01*
X213475678Y-128523528D01*
X213418569Y-128607110D01*
X213367560Y-128859000D01*
X213367560Y-129031638D01*
X213076599Y-129322599D01*
X212911852Y-129569161D01*
X212854000Y-129860000D01*
X212854000Y-139573000D01*
X211834000Y-139573000D01*
X211834000Y-135244000D01*
X211776148Y-134953161D01*
X211776148Y-134953160D01*
X211611401Y-134706599D01*
X207619552Y-130714750D01*
X207980000Y-130714750D01*
X207980000Y-130855310D01*
X208076673Y-131088699D01*
X208255302Y-131267327D01*
X208488691Y-131364000D01*
X209104250Y-131364000D01*
X209263000Y-131205250D01*
X209263000Y-130556000D01*
X209517000Y-130556000D01*
X209517000Y-131205250D01*
X209675750Y-131364000D01*
X210291309Y-131364000D01*
X210524698Y-131267327D01*
X210703327Y-131088699D01*
X210800000Y-130855310D01*
X210800000Y-130714750D01*
X210641250Y-130556000D01*
X209517000Y-130556000D01*
X209263000Y-130556000D01*
X208138750Y-130556000D01*
X207980000Y-130714750D01*
X207619552Y-130714750D01*
X206349552Y-129444750D01*
X207980000Y-129444750D01*
X207980000Y-129585310D01*
X208066442Y-129794000D01*
X207980000Y-130002690D01*
X207980000Y-130143250D01*
X208138750Y-130302000D01*
X209263000Y-130302000D01*
X209263000Y-129286000D01*
X209517000Y-129286000D01*
X209517000Y-130302000D01*
X210641250Y-130302000D01*
X210800000Y-130143250D01*
X210800000Y-130002690D01*
X210713558Y-129794000D01*
X210800000Y-129585310D01*
X210800000Y-129444750D01*
X210641250Y-129286000D01*
X209517000Y-129286000D01*
X209263000Y-129286000D01*
X208138750Y-129286000D01*
X207980000Y-129444750D01*
X206349552Y-129444750D01*
X206190802Y-129286000D01*
X206827802Y-128649000D01*
X208014666Y-128649000D01*
X207980000Y-128732690D01*
X207980000Y-128873250D01*
X208138750Y-129032000D01*
X209263000Y-129032000D01*
X209263000Y-129012000D01*
X209517000Y-129012000D01*
X209517000Y-129032000D01*
X210641250Y-129032000D01*
X210800000Y-128873250D01*
X210800000Y-128732690D01*
X210710194Y-128515878D01*
X210761431Y-128440890D01*
X210812440Y-128189000D01*
X210812440Y-127589000D01*
X210768162Y-127353683D01*
X210704322Y-127254472D01*
X210761431Y-127170890D01*
X210812440Y-126919000D01*
X210812440Y-126319000D01*
X210768162Y-126083683D01*
X210629090Y-125867559D01*
X210416890Y-125722569D01*
X210165000Y-125671560D01*
X208615000Y-125671560D01*
X208379683Y-125715838D01*
X208163559Y-125854910D01*
X208160764Y-125859000D01*
X205513440Y-125859000D01*
X205513440Y-125836000D01*
X205469162Y-125600683D01*
X205330090Y-125384559D01*
X205117890Y-125239569D01*
X204976000Y-125210836D01*
X204976000Y-124420802D01*
X208465362Y-120931440D01*
X209538000Y-120931440D01*
X209773317Y-120887162D01*
X209989441Y-120748090D01*
X210134431Y-120535890D01*
X210137081Y-120522803D01*
X210273910Y-120735441D01*
G36*
X198498673Y-81243302D02*
X198402000Y-81476691D01*
X198402000Y-82417250D01*
X198560750Y-82576000D01*
X199510000Y-82576000D01*
X199510000Y-82556000D01*
X199764000Y-82556000D01*
X199764000Y-82576000D01*
X200713250Y-82576000D01*
X200872000Y-82417250D01*
X200872000Y-81476691D01*
X200775327Y-81243302D01*
X200685026Y-81153000D01*
X210882600Y-81153000D01*
X207996599Y-84039001D01*
X207831852Y-84285563D01*
X207774000Y-84576402D01*
X207774000Y-88014400D01*
X207831852Y-88305239D01*
X207996599Y-88551801D01*
X209956127Y-90511329D01*
X209511633Y-90808330D01*
X209186777Y-91294511D01*
X209072703Y-91868000D01*
X209186777Y-92441489D01*
X209511633Y-92927670D01*
X209997814Y-93252526D01*
X210571303Y-93366600D01*
X211976697Y-93366600D01*
X212550186Y-93252526D01*
X213036367Y-92927670D01*
X213361223Y-92441489D01*
X213475297Y-91868000D01*
X213361223Y-91294511D01*
X213036367Y-90808330D01*
X212550186Y-90483474D01*
X211976697Y-90369400D01*
X211913232Y-90369400D01*
X211811401Y-90216999D01*
X209294000Y-87699598D01*
X209294000Y-87529760D01*
X209464127Y-87837868D01*
X209922778Y-88203925D01*
X210486600Y-88366600D01*
X211147000Y-88366600D01*
X211147000Y-86995000D01*
X211401000Y-86995000D01*
X211401000Y-88366600D01*
X212061400Y-88366600D01*
X212625222Y-88203925D01*
X213083873Y-87837868D01*
X213367527Y-87324157D01*
X213389358Y-87227026D01*
X221658642Y-87227026D01*
X221680473Y-87324157D01*
X221964127Y-87837868D01*
X222422778Y-88203925D01*
X222986600Y-88366600D01*
X223647000Y-88366600D01*
X223647000Y-86995000D01*
X221779783Y-86995000D01*
X221658642Y-87227026D01*
X213389358Y-87227026D01*
X213268217Y-86995000D01*
X211401000Y-86995000D01*
X211147000Y-86995000D01*
X211127000Y-86995000D01*
X211127000Y-86741000D01*
X211147000Y-86741000D01*
X211147000Y-85369400D01*
X211401000Y-85369400D01*
X211401000Y-86741000D01*
X213268217Y-86741000D01*
X213389358Y-86508974D01*
X221658642Y-86508974D01*
X221779783Y-86741000D01*
X223647000Y-86741000D01*
X223647000Y-85369400D01*
X222986600Y-85369400D01*
X222422778Y-85532075D01*
X221964127Y-85898132D01*
X221680473Y-86411843D01*
X221658642Y-86508974D01*
X213389358Y-86508974D01*
X213367527Y-86411843D01*
X213083873Y-85898132D01*
X212625222Y-85532075D01*
X212061400Y-85369400D01*
X211401000Y-85369400D01*
X211147000Y-85369400D01*
X210486600Y-85369400D01*
X209922778Y-85532075D01*
X209464127Y-85898132D01*
X209294000Y-86206240D01*
X209294000Y-84891204D01*
X213032204Y-81153000D01*
X225933000Y-81153000D01*
X225933000Y-86740998D01*
X225768218Y-86740998D01*
X225889358Y-86508974D01*
X225867527Y-86411843D01*
X225583873Y-85898132D01*
X225125222Y-85532075D01*
X224561400Y-85369400D01*
X223901000Y-85369400D01*
X223901000Y-86741000D01*
X223921000Y-86741000D01*
X223921000Y-86995000D01*
X223901000Y-86995000D01*
X223901000Y-88366600D01*
X224561400Y-88366600D01*
X225125222Y-88203925D01*
X225583873Y-87837868D01*
X225816000Y-87417475D01*
X225816000Y-87618250D01*
X225933000Y-87735250D01*
X225933000Y-88072750D01*
X225816000Y-88189750D01*
X225816000Y-88780309D01*
X225912673Y-89013698D01*
X225933000Y-89034025D01*
X225933000Y-89287322D01*
X225854569Y-89402110D01*
X225803560Y-89654000D01*
X225803560Y-90726638D01*
X225610668Y-90919530D01*
X225536367Y-90808330D01*
X225050186Y-90483474D01*
X224476697Y-90369400D01*
X223071303Y-90369400D01*
X222497814Y-90483474D01*
X222011633Y-90808330D01*
X221686777Y-91294511D01*
X221572703Y-91868000D01*
X221686777Y-92441489D01*
X222011633Y-92927670D01*
X222497814Y-93252526D01*
X223071303Y-93366600D01*
X224013528Y-93366600D01*
X224103599Y-93501401D01*
X224350161Y-93666148D01*
X224641000Y-93724000D01*
X224931839Y-93666148D01*
X225178401Y-93501401D01*
X225933000Y-92746802D01*
X225933000Y-115210750D01*
X225913000Y-115230750D01*
X225913000Y-116205000D01*
X225933000Y-116205000D01*
X225933000Y-116459000D01*
X225913000Y-116459000D01*
X225913000Y-117433250D01*
X225933000Y-117453250D01*
X225933000Y-117779198D01*
X225623026Y-117469224D01*
X225659000Y-117433250D01*
X225659000Y-116459000D01*
X225639000Y-116459000D01*
X225639000Y-116205000D01*
X225659000Y-116205000D01*
X225659000Y-115230750D01*
X225500250Y-115072000D01*
X224909691Y-115072000D01*
X224676302Y-115168673D01*
X224535064Y-115309910D01*
X224500090Y-115255559D01*
X224287890Y-115110569D01*
X224046000Y-115061585D01*
X224046000Y-114183998D01*
X223988148Y-113893159D01*
X223823401Y-113646597D01*
X210056000Y-99879196D01*
X210056000Y-94542463D01*
X210088192Y-94510327D01*
X210230838Y-94166799D01*
X210231162Y-93794833D01*
X210089117Y-93451057D01*
X209826327Y-93187808D01*
X209482799Y-93045162D01*
X209110833Y-93044838D01*
X208767057Y-93186883D01*
X208503808Y-93449673D01*
X208361162Y-93793201D01*
X208360838Y-94165167D01*
X208502883Y-94508943D01*
X208536000Y-94542118D01*
X208536000Y-100193998D01*
X208593852Y-100484837D01*
X208758599Y-100731399D01*
X215804200Y-107777000D01*
X215252691Y-107777000D01*
X215019302Y-107873673D01*
X214840673Y-108052301D01*
X214744000Y-108285690D01*
X214744000Y-108426250D01*
X214902750Y-108585000D01*
X216027000Y-108585000D01*
X216027000Y-108565000D01*
X216281000Y-108565000D01*
X216281000Y-108585000D01*
X216301000Y-108585000D01*
X216301000Y-108839000D01*
X216281000Y-108839000D01*
X216281000Y-109855000D01*
X217405250Y-109855000D01*
X217564000Y-109696250D01*
X217564000Y-109555690D01*
X217550643Y-109523443D01*
X222526000Y-114498800D01*
X222526000Y-115061442D01*
X222300683Y-115103838D01*
X222084559Y-115242910D01*
X221939569Y-115455110D01*
X221888560Y-115707000D01*
X221888560Y-116957000D01*
X221932838Y-117192317D01*
X222071910Y-117408441D01*
X222284110Y-117553431D01*
X222536000Y-117604440D01*
X223608638Y-117604440D01*
X224379039Y-118374841D01*
X224190000Y-118336560D01*
X222690000Y-118336560D01*
X222454683Y-118380838D01*
X222238559Y-118519910D01*
X222093569Y-118732110D01*
X222042560Y-118984000D01*
X222042560Y-120284000D01*
X222086838Y-120519317D01*
X222225910Y-120735441D01*
X222438110Y-120880431D01*
X222680000Y-120929415D01*
X222680000Y-122196021D01*
X222574683Y-122215838D01*
X222358559Y-122354910D01*
X222213569Y-122567110D01*
X222189898Y-122684000D01*
X220641439Y-122684000D01*
X220641439Y-121570998D01*
X220597161Y-121335681D01*
X220458089Y-121119557D01*
X220389993Y-121073029D01*
X220532326Y-120930696D01*
X220628999Y-120697307D01*
X220628999Y-120106748D01*
X220470249Y-119947998D01*
X219495999Y-119947998D01*
X219495999Y-119967998D01*
X219241999Y-119967998D01*
X219241999Y-119947998D01*
X218267749Y-119947998D01*
X218108999Y-120106748D01*
X218108999Y-120697307D01*
X218205672Y-120930696D01*
X218346909Y-121071934D01*
X218292558Y-121106908D01*
X218147568Y-121319108D01*
X218098584Y-121560998D01*
X216410440Y-121560998D01*
X216410440Y-121404000D01*
X216366162Y-121168683D01*
X216227090Y-120952559D01*
X216158994Y-120906031D01*
X216301327Y-120763698D01*
X216398000Y-120530309D01*
X216398000Y-119939750D01*
X216239250Y-119781000D01*
X215265000Y-119781000D01*
X215265000Y-119801000D01*
X215011000Y-119801000D01*
X215011000Y-119781000D01*
X214036750Y-119781000D01*
X214000776Y-119816974D01*
X213280401Y-119096599D01*
X213232326Y-119064476D01*
X213519111Y-118777691D01*
X213878000Y-118777691D01*
X213878000Y-119368250D01*
X214036750Y-119527000D01*
X215011000Y-119527000D01*
X215011000Y-118427750D01*
X215265000Y-118427750D01*
X215265000Y-119527000D01*
X216239250Y-119527000D01*
X216398000Y-119368250D01*
X216398000Y-118944689D01*
X218108999Y-118944689D01*
X218108999Y-119535248D01*
X218267749Y-119693998D01*
X219241999Y-119693998D01*
X219241999Y-118594748D01*
X219495999Y-118594748D01*
X219495999Y-119693998D01*
X220470249Y-119693998D01*
X220628999Y-119535248D01*
X220628999Y-118944689D01*
X220532326Y-118711300D01*
X220353698Y-118532671D01*
X220120309Y-118435998D01*
X219654749Y-118435998D01*
X219495999Y-118594748D01*
X219241999Y-118594748D01*
X219083249Y-118435998D01*
X218617689Y-118435998D01*
X218384300Y-118532671D01*
X218205672Y-118711300D01*
X218108999Y-118944689D01*
X216398000Y-118944689D01*
X216398000Y-118777691D01*
X216301327Y-118544302D01*
X216122699Y-118365673D01*
X215889310Y-118269000D01*
X215423750Y-118269000D01*
X215265000Y-118427750D01*
X215011000Y-118427750D01*
X214852250Y-118269000D01*
X214386690Y-118269000D01*
X214153301Y-118365673D01*
X213974673Y-118544302D01*
X213878000Y-118777691D01*
X213519111Y-118777691D01*
X217791402Y-114505400D01*
X217956149Y-114258839D01*
X217971036Y-114183998D01*
X218014001Y-113967999D01*
X218014001Y-111877001D01*
X217956149Y-111586162D01*
X217791402Y-111339600D01*
X217576440Y-111124638D01*
X217576440Y-110952000D01*
X217532162Y-110716683D01*
X217473822Y-110626020D01*
X217564000Y-110408310D01*
X217564000Y-110267750D01*
X217405250Y-110109000D01*
X216281000Y-110109000D01*
X216281000Y-110129000D01*
X216027000Y-110129000D01*
X216027000Y-110109000D01*
X214902750Y-110109000D01*
X214744000Y-110267750D01*
X214744000Y-110408310D01*
X214833806Y-110625122D01*
X214782569Y-110700110D01*
X214731560Y-110952000D01*
X214731560Y-111552000D01*
X214775838Y-111787317D01*
X214839678Y-111886528D01*
X214782569Y-111970110D01*
X214731560Y-112222000D01*
X214731560Y-112822000D01*
X214775838Y-113057317D01*
X214914910Y-113273441D01*
X215127110Y-113418431D01*
X215379000Y-113469440D01*
X216494001Y-113469440D01*
X216494001Y-113653197D01*
X211810638Y-118336560D01*
X210738000Y-118336560D01*
X210502683Y-118380838D01*
X210286559Y-118519910D01*
X210141569Y-118732110D01*
X210138919Y-118745197D01*
X210002090Y-118532559D01*
X209789890Y-118387569D01*
X209538000Y-118336560D01*
X208038000Y-118336560D01*
X207802683Y-118380838D01*
X207586559Y-118519910D01*
X207441569Y-118732110D01*
X207390560Y-118984000D01*
X207390560Y-119856638D01*
X203930200Y-123316998D01*
X203898252Y-123316998D01*
X204057000Y-123158250D01*
X204057000Y-122692690D01*
X203960327Y-122459301D01*
X203781698Y-122280673D01*
X203548309Y-122184000D01*
X202957750Y-122184000D01*
X202799000Y-122342750D01*
X202799000Y-123317000D01*
X202819000Y-123317000D01*
X202819000Y-123571000D01*
X202799000Y-123571000D01*
X202799000Y-124545250D01*
X202957750Y-124704000D01*
X203456000Y-124704000D01*
X203456000Y-125209258D01*
X203330683Y-125232838D01*
X203114559Y-125371910D01*
X202969569Y-125584110D01*
X202918560Y-125836000D01*
X202918560Y-127336000D01*
X202962838Y-127571317D01*
X203101910Y-127787441D01*
X203314110Y-127932431D01*
X203327197Y-127935081D01*
X203114559Y-128071910D01*
X202969569Y-128284110D01*
X202918560Y-128536000D01*
X202918560Y-130036000D01*
X202962838Y-130271317D01*
X203101910Y-130487441D01*
X203314110Y-130632431D01*
X203566000Y-130683440D01*
X204866000Y-130683440D01*
X205101317Y-130639162D01*
X205279623Y-130524425D01*
X210314000Y-135558802D01*
X210314000Y-139573000D01*
X206766804Y-139573000D01*
X196507244Y-129313440D01*
X197426000Y-129313440D01*
X197661317Y-129269162D01*
X197877441Y-129130090D01*
X198022431Y-128917890D01*
X198029057Y-128885170D01*
X198187201Y-128950838D01*
X198559167Y-128951162D01*
X198902943Y-128809117D01*
X199166192Y-128546327D01*
X199308838Y-128202799D01*
X199309162Y-127830833D01*
X199167117Y-127487057D01*
X198904327Y-127223808D01*
X198560799Y-127081162D01*
X198484706Y-127081096D01*
X200709401Y-124856401D01*
X200802920Y-124716440D01*
X200922000Y-124716440D01*
X201157317Y-124672162D01*
X201373441Y-124533090D01*
X201419969Y-124464994D01*
X201562302Y-124607327D01*
X201795691Y-124704000D01*
X202386250Y-124704000D01*
X202545000Y-124545250D01*
X202545000Y-123571000D01*
X202525000Y-123571000D01*
X202525000Y-123317000D01*
X202545000Y-123317000D01*
X202545000Y-122342750D01*
X202386250Y-122184000D01*
X201795691Y-122184000D01*
X201562302Y-122280673D01*
X201421064Y-122421910D01*
X201386090Y-122367559D01*
X201173890Y-122222569D01*
X200932000Y-122173585D01*
X200932000Y-120910742D01*
X201057317Y-120887162D01*
X201273441Y-120748090D01*
X201418431Y-120535890D01*
X201421081Y-120522803D01*
X201557910Y-120735441D01*
X201770110Y-120880431D01*
X202022000Y-120931440D01*
X203522000Y-120931440D01*
X203757317Y-120887162D01*
X203973441Y-120748090D01*
X204118431Y-120535890D01*
X204169440Y-120284000D01*
X204169440Y-118984000D01*
X204125162Y-118748683D01*
X203986090Y-118532559D01*
X203773890Y-118387569D01*
X203522000Y-118336560D01*
X202449362Y-118336560D01*
X201640534Y-117527732D01*
X201795691Y-117592000D01*
X202386250Y-117592000D01*
X202545000Y-117433250D01*
X202545000Y-116459000D01*
X202799000Y-116459000D01*
X202799000Y-117433250D01*
X202957750Y-117592000D01*
X203548309Y-117592000D01*
X203781698Y-117495327D01*
X203960327Y-117316699D01*
X204057000Y-117083310D01*
X204057000Y-116617750D01*
X203898250Y-116459000D01*
X202799000Y-116459000D01*
X202545000Y-116459000D01*
X202525000Y-116459000D01*
X202525000Y-116205000D01*
X202545000Y-116205000D01*
X202545000Y-115230750D01*
X202799000Y-115230750D01*
X202799000Y-116205000D01*
X203898250Y-116205000D01*
X204057000Y-116046250D01*
X204057000Y-115580690D01*
X203960327Y-115347301D01*
X203781698Y-115168673D01*
X203548309Y-115072000D01*
X202957750Y-115072000D01*
X202799000Y-115230750D01*
X202545000Y-115230750D01*
X202386250Y-115072000D01*
X201795691Y-115072000D01*
X201562302Y-115168673D01*
X201421064Y-115309910D01*
X201386090Y-115255559D01*
X201173890Y-115110569D01*
X200932000Y-115061585D01*
X200932000Y-112807750D01*
X209344000Y-112807750D01*
X209344000Y-112948310D01*
X209440673Y-113181699D01*
X209619302Y-113360327D01*
X209852691Y-113457000D01*
X210468250Y-113457000D01*
X210627000Y-113298250D01*
X210627000Y-112649000D01*
X210881000Y-112649000D01*
X210881000Y-113298250D01*
X211039750Y-113457000D01*
X211655309Y-113457000D01*
X211888698Y-113360327D01*
X212067327Y-113181699D01*
X212164000Y-112948310D01*
X212164000Y-112807750D01*
X212005250Y-112649000D01*
X210881000Y-112649000D01*
X210627000Y-112649000D01*
X209502750Y-112649000D01*
X209344000Y-112807750D01*
X200932000Y-112807750D01*
X200932000Y-101607800D01*
X202484560Y-100055240D01*
X202484560Y-100218000D01*
X202528838Y-100453317D01*
X202667910Y-100669441D01*
X202880110Y-100814431D01*
X203122000Y-100863415D01*
X203122000Y-101614495D01*
X202976683Y-101641838D01*
X202760559Y-101780910D01*
X202615569Y-101993110D01*
X202564560Y-102245000D01*
X202564560Y-103495000D01*
X202608838Y-103730317D01*
X202747910Y-103946441D01*
X202960110Y-104091431D01*
X203212000Y-104142440D01*
X203331080Y-104142440D01*
X203424599Y-104282401D01*
X209331560Y-110189362D01*
X209331560Y-110282000D01*
X209375838Y-110517317D01*
X209439678Y-110616528D01*
X209382569Y-110700110D01*
X209331560Y-110952000D01*
X209331560Y-111552000D01*
X209375838Y-111787317D01*
X209434178Y-111877980D01*
X209344000Y-112095690D01*
X209344000Y-112236250D01*
X209502750Y-112395000D01*
X210627000Y-112395000D01*
X210627000Y-112375000D01*
X210881000Y-112375000D01*
X210881000Y-112395000D01*
X212005250Y-112395000D01*
X212164000Y-112236250D01*
X212164000Y-112095690D01*
X212074194Y-111878878D01*
X212125431Y-111803890D01*
X212176440Y-111552000D01*
X212176440Y-110952000D01*
X212132162Y-110716683D01*
X212068322Y-110617472D01*
X212125431Y-110533890D01*
X212176440Y-110282000D01*
X212176440Y-109682000D01*
X212132162Y-109446683D01*
X212073822Y-109356020D01*
X212164000Y-109138310D01*
X212164000Y-108997750D01*
X214744000Y-108997750D01*
X214744000Y-109138310D01*
X214830442Y-109347000D01*
X214744000Y-109555690D01*
X214744000Y-109696250D01*
X214902750Y-109855000D01*
X216027000Y-109855000D01*
X216027000Y-108839000D01*
X214902750Y-108839000D01*
X214744000Y-108997750D01*
X212164000Y-108997750D01*
X212005250Y-108839000D01*
X210881000Y-108839000D01*
X210881000Y-108859000D01*
X210627000Y-108859000D01*
X210627000Y-108839000D01*
X210607000Y-108839000D01*
X210607000Y-108585000D01*
X210627000Y-108585000D01*
X210627000Y-107935750D01*
X210881000Y-107935750D01*
X210881000Y-108585000D01*
X212005250Y-108585000D01*
X212164000Y-108426250D01*
X212164000Y-108285690D01*
X212067327Y-108052301D01*
X211888698Y-107873673D01*
X211655309Y-107777000D01*
X211039750Y-107777000D01*
X210881000Y-107935750D01*
X210627000Y-107935750D01*
X210468250Y-107777000D01*
X209852691Y-107777000D01*
X209619302Y-107873673D01*
X209440673Y-108052301D01*
X209412388Y-108120586D01*
X205198939Y-103907137D01*
X205209969Y-103890994D01*
X205352302Y-104033327D01*
X205585691Y-104130000D01*
X206176250Y-104130000D01*
X206335000Y-103971250D01*
X206335000Y-102997000D01*
X206589000Y-102997000D01*
X206589000Y-103971250D01*
X206747750Y-104130000D01*
X207338309Y-104130000D01*
X207571698Y-104033327D01*
X207750327Y-103854699D01*
X207847000Y-103621310D01*
X207847000Y-103155750D01*
X207688250Y-102997000D01*
X206589000Y-102997000D01*
X206335000Y-102997000D01*
X206315000Y-102997000D01*
X206315000Y-102743000D01*
X206335000Y-102743000D01*
X206335000Y-101768750D01*
X206589000Y-101768750D01*
X206589000Y-102743000D01*
X207688250Y-102743000D01*
X207847000Y-102584250D01*
X207847000Y-102118690D01*
X207750327Y-101885301D01*
X207571698Y-101706673D01*
X207338309Y-101610000D01*
X206747750Y-101610000D01*
X206589000Y-101768750D01*
X206335000Y-101768750D01*
X206176250Y-101610000D01*
X205585691Y-101610000D01*
X205352302Y-101706673D01*
X205211064Y-101847910D01*
X205176090Y-101793559D01*
X204963890Y-101648569D01*
X204712000Y-101597560D01*
X204642000Y-101597560D01*
X204642000Y-100863558D01*
X204867317Y-100821162D01*
X205083441Y-100682090D01*
X205228431Y-100469890D01*
X205231081Y-100456803D01*
X205367910Y-100669441D01*
X205580110Y-100814431D01*
X205832000Y-100865440D01*
X207332000Y-100865440D01*
X207567317Y-100821162D01*
X207783441Y-100682090D01*
X207928431Y-100469890D01*
X207979440Y-100218000D01*
X207979440Y-98918000D01*
X207935162Y-98682683D01*
X207796090Y-98466559D01*
X207583890Y-98321569D01*
X207332000Y-98270560D01*
X207262000Y-98270560D01*
X207262000Y-97536558D01*
X207487317Y-97494162D01*
X207703441Y-97355090D01*
X207848431Y-97142890D01*
X207899440Y-96891000D01*
X207899440Y-95641000D01*
X207855162Y-95405683D01*
X207716090Y-95189559D01*
X207503890Y-95044569D01*
X207252000Y-94993560D01*
X207241225Y-94993560D01*
X207225631Y-94915162D01*
X207204148Y-94807160D01*
X207039401Y-94560599D01*
X202059694Y-89580892D01*
X202369167Y-89581162D01*
X202712943Y-89439117D01*
X202976192Y-89176327D01*
X203118838Y-88832799D01*
X203119162Y-88460833D01*
X202977117Y-88117057D01*
X202948111Y-88088000D01*
X203746203Y-88088000D01*
X203749838Y-88107317D01*
X203888910Y-88323441D01*
X204101110Y-88468431D01*
X204353000Y-88519440D01*
X205603000Y-88519440D01*
X205838317Y-88475162D01*
X206054441Y-88336090D01*
X206199431Y-88123890D01*
X206250440Y-87872000D01*
X206250440Y-86372000D01*
X206206162Y-86136683D01*
X206067090Y-85920559D01*
X205998994Y-85874031D01*
X206141327Y-85731698D01*
X206238000Y-85498309D01*
X206238000Y-84907750D01*
X206079250Y-84749000D01*
X205105000Y-84749000D01*
X205105000Y-84769000D01*
X204851000Y-84769000D01*
X204851000Y-84749000D01*
X203876750Y-84749000D01*
X203718000Y-84907750D01*
X203718000Y-85498309D01*
X203814673Y-85731698D01*
X203955910Y-85872936D01*
X203901559Y-85907910D01*
X203756569Y-86120110D01*
X203705560Y-86372000D01*
X203705560Y-86568000D01*
X200904440Y-86568000D01*
X200904440Y-85803000D01*
X200860162Y-85567683D01*
X200721090Y-85351559D01*
X200508890Y-85206569D01*
X200257000Y-85155560D01*
X194457000Y-85155560D01*
X194221683Y-85199838D01*
X194005559Y-85338910D01*
X193860569Y-85551110D01*
X193809560Y-85803000D01*
X193809560Y-91775638D01*
X190567449Y-95017749D01*
X190448000Y-94993560D01*
X188948000Y-94993560D01*
X188712683Y-95037838D01*
X188496559Y-95176910D01*
X188450031Y-95245006D01*
X188307698Y-95102673D01*
X188074309Y-95006000D01*
X187483750Y-95006000D01*
X187325000Y-95164750D01*
X187325000Y-96139000D01*
X187345000Y-96139000D01*
X187345000Y-96393000D01*
X187325000Y-96393000D01*
X187325000Y-97367250D01*
X187483750Y-97526000D01*
X188074309Y-97526000D01*
X188307698Y-97429327D01*
X188448936Y-97288090D01*
X188483910Y-97342441D01*
X188696110Y-97487431D01*
X188938000Y-97536415D01*
X188938000Y-98270560D01*
X188814000Y-98270560D01*
X188578683Y-98314838D01*
X188362559Y-98453910D01*
X188217569Y-98666110D01*
X188214919Y-98679197D01*
X188078090Y-98466559D01*
X187865890Y-98321569D01*
X187614000Y-98270560D01*
X186114000Y-98270560D01*
X185878683Y-98314838D01*
X185662559Y-98453910D01*
X185517569Y-98666110D01*
X185466560Y-98918000D01*
X185466560Y-100218000D01*
X185510838Y-100453317D01*
X185649910Y-100669441D01*
X185862110Y-100814431D01*
X186104000Y-100863415D01*
X186104000Y-101622021D01*
X185998683Y-101641838D01*
X185782559Y-101780910D01*
X185637569Y-101993110D01*
X185586560Y-102245000D01*
X185586560Y-103495000D01*
X185630838Y-103730317D01*
X185769910Y-103946441D01*
X185982110Y-104091431D01*
X186234000Y-104142440D01*
X186353080Y-104142440D01*
X186362001Y-104155791D01*
X186362001Y-107904000D01*
X186307750Y-107904000D01*
X186149000Y-108062750D01*
X186149000Y-108712000D01*
X186169000Y-108712000D01*
X186169000Y-108966000D01*
X186149000Y-108966000D01*
X186149000Y-108986000D01*
X185895000Y-108986000D01*
X185895000Y-108966000D01*
X184770750Y-108966000D01*
X184612000Y-109124750D01*
X184612000Y-109265310D01*
X184701806Y-109482122D01*
X184650569Y-109557110D01*
X184599560Y-109809000D01*
X184599560Y-110409000D01*
X184643838Y-110644317D01*
X184707678Y-110743528D01*
X184650569Y-110827110D01*
X184599560Y-111079000D01*
X184599560Y-111679000D01*
X184643838Y-111914317D01*
X184702178Y-112004980D01*
X184612000Y-112222690D01*
X184612000Y-112363250D01*
X184770750Y-112522000D01*
X185895000Y-112522000D01*
X185895000Y-112502000D01*
X186149000Y-112502000D01*
X186149000Y-112522000D01*
X187273250Y-112522000D01*
X187432000Y-112363250D01*
X187432000Y-112222690D01*
X187342194Y-112005878D01*
X187393431Y-111930890D01*
X187444440Y-111679000D01*
X187444440Y-111079000D01*
X187400162Y-110843683D01*
X187336322Y-110744472D01*
X187393431Y-110660890D01*
X187444440Y-110409000D01*
X187444440Y-110236362D01*
X187659402Y-110021400D01*
X187824149Y-109774838D01*
X187882001Y-109483999D01*
X187882001Y-109124750D01*
X190012000Y-109124750D01*
X190012000Y-109265310D01*
X190098442Y-109474000D01*
X190012000Y-109682690D01*
X190012000Y-109823250D01*
X190170750Y-109982000D01*
X191295000Y-109982000D01*
X191295000Y-108966000D01*
X191549000Y-108966000D01*
X191549000Y-109982000D01*
X192673250Y-109982000D01*
X192832000Y-109823250D01*
X192832000Y-109682690D01*
X192745558Y-109474000D01*
X192832000Y-109265310D01*
X192832000Y-109124750D01*
X192673250Y-108966000D01*
X191549000Y-108966000D01*
X191295000Y-108966000D01*
X190170750Y-108966000D01*
X190012000Y-109124750D01*
X187882001Y-109124750D01*
X187882001Y-108412690D01*
X190012000Y-108412690D01*
X190012000Y-108553250D01*
X190170750Y-108712000D01*
X191295000Y-108712000D01*
X191295000Y-108062750D01*
X191549000Y-108062750D01*
X191549000Y-108712000D01*
X192673250Y-108712000D01*
X192832000Y-108553250D01*
X192832000Y-108412690D01*
X192735327Y-108179301D01*
X192556698Y-108000673D01*
X192323309Y-107904000D01*
X191707750Y-107904000D01*
X191549000Y-108062750D01*
X191295000Y-108062750D01*
X191136250Y-107904000D01*
X190520691Y-107904000D01*
X190287302Y-108000673D01*
X190108673Y-108179301D01*
X190012000Y-108412690D01*
X187882001Y-108412690D01*
X187882001Y-104114592D01*
X187969317Y-104098162D01*
X188185441Y-103959090D01*
X188231969Y-103890994D01*
X188374302Y-104033327D01*
X188607691Y-104130000D01*
X189198250Y-104130000D01*
X189357000Y-103971250D01*
X189357000Y-102997000D01*
X189611000Y-102997000D01*
X189611000Y-103971250D01*
X189769750Y-104130000D01*
X190360309Y-104130000D01*
X190593698Y-104033327D01*
X190772327Y-103854699D01*
X190869000Y-103621310D01*
X190869000Y-103155750D01*
X190710250Y-102997000D01*
X189611000Y-102997000D01*
X189357000Y-102997000D01*
X189337000Y-102997000D01*
X189337000Y-102743000D01*
X189357000Y-102743000D01*
X189357000Y-101768750D01*
X189611000Y-101768750D01*
X189611000Y-102743000D01*
X190710250Y-102743000D01*
X190869000Y-102584250D01*
X190869000Y-102118690D01*
X190772327Y-101885301D01*
X190593698Y-101706673D01*
X190360309Y-101610000D01*
X189769750Y-101610000D01*
X189611000Y-101768750D01*
X189357000Y-101768750D01*
X189198250Y-101610000D01*
X188607691Y-101610000D01*
X188374302Y-101706673D01*
X188233064Y-101847910D01*
X188198090Y-101793559D01*
X187985890Y-101648569D01*
X187734000Y-101597560D01*
X187624000Y-101597560D01*
X187624000Y-100863558D01*
X187849317Y-100821162D01*
X188065441Y-100682090D01*
X188210431Y-100469890D01*
X188213081Y-100456803D01*
X188349910Y-100669441D01*
X188562110Y-100814431D01*
X188814000Y-100865440D01*
X190314000Y-100865440D01*
X190549317Y-100821162D01*
X190765441Y-100682090D01*
X190910431Y-100469890D01*
X190961440Y-100218000D01*
X190961440Y-98918000D01*
X190917162Y-98682683D01*
X190778090Y-98466559D01*
X190565890Y-98321569D01*
X190458000Y-98299721D01*
X190458000Y-97536558D01*
X190683317Y-97494162D01*
X190899441Y-97355090D01*
X191044431Y-97142890D01*
X191095440Y-96891000D01*
X191095440Y-96639362D01*
X191183052Y-96551750D01*
X202617000Y-96551750D01*
X202617000Y-97017310D01*
X202713673Y-97250699D01*
X202892302Y-97429327D01*
X203125691Y-97526000D01*
X203716250Y-97526000D01*
X203875000Y-97367250D01*
X203875000Y-96393000D01*
X202775750Y-96393000D01*
X202617000Y-96551750D01*
X191183052Y-96551750D01*
X192220112Y-95514690D01*
X202617000Y-95514690D01*
X202617000Y-95980250D01*
X202775750Y-96139000D01*
X203875000Y-96139000D01*
X203875000Y-95164750D01*
X203716250Y-95006000D01*
X203125691Y-95006000D01*
X202892302Y-95102673D01*
X202713673Y-95281301D01*
X202617000Y-95514690D01*
X192220112Y-95514690D01*
X194884362Y-92850440D01*
X200257000Y-92850440D01*
X200492317Y-92806162D01*
X200708441Y-92667090D01*
X200853431Y-92454890D01*
X200904440Y-92203000D01*
X200904440Y-90575242D01*
X205425628Y-95096430D01*
X205300559Y-95176910D01*
X205254031Y-95245006D01*
X205111698Y-95102673D01*
X204878309Y-95006000D01*
X204287750Y-95006000D01*
X204129000Y-95164750D01*
X204129000Y-96139000D01*
X204149000Y-96139000D01*
X204149000Y-96393000D01*
X204129000Y-96393000D01*
X204129000Y-97367250D01*
X204287750Y-97526000D01*
X204878309Y-97526000D01*
X205111698Y-97429327D01*
X205252936Y-97288090D01*
X205287910Y-97342441D01*
X205500110Y-97487431D01*
X205742000Y-97536415D01*
X205742000Y-97879744D01*
X205506999Y-97832999D01*
X202871999Y-97832999D01*
X202581159Y-97890851D01*
X202334598Y-98055598D01*
X199634599Y-100755597D01*
X199469852Y-101002159D01*
X199412000Y-101292998D01*
X199412000Y-115061442D01*
X199186683Y-115103838D01*
X198970559Y-115242910D01*
X198825569Y-115455110D01*
X198774560Y-115707000D01*
X198774560Y-116957000D01*
X198818838Y-117192317D01*
X198957910Y-117408441D01*
X199170110Y-117553431D01*
X199422000Y-117604440D01*
X199589857Y-117604440D01*
X199634599Y-117671401D01*
X200299758Y-118336560D01*
X199322000Y-118336560D01*
X199086683Y-118380838D01*
X198870559Y-118519910D01*
X198725569Y-118732110D01*
X198674560Y-118984000D01*
X198674560Y-120284000D01*
X198718838Y-120519317D01*
X198857910Y-120735441D01*
X199070110Y-120880431D01*
X199322000Y-120931440D01*
X199412000Y-120931440D01*
X199412000Y-122173442D01*
X199186683Y-122215838D01*
X198970559Y-122354910D01*
X198825569Y-122567110D01*
X198774560Y-122819000D01*
X198774560Y-124069000D01*
X198818838Y-124304317D01*
X198933575Y-124482623D01*
X197557198Y-125859000D01*
X191980563Y-125859000D01*
X191780890Y-125722569D01*
X191529000Y-125671560D01*
X189979000Y-125671560D01*
X189743683Y-125715838D01*
X189527559Y-125854910D01*
X189382569Y-126067110D01*
X189331560Y-126319000D01*
X189331560Y-126919000D01*
X189371074Y-127129000D01*
X187214001Y-127129000D01*
X187214001Y-122439750D01*
X190002000Y-122439750D01*
X190002000Y-123030309D01*
X190098673Y-123263698D01*
X190277301Y-123442327D01*
X190510690Y-123539000D01*
X190976250Y-123539000D01*
X191135000Y-123380250D01*
X191135000Y-122281000D01*
X191389000Y-122281000D01*
X191389000Y-123380250D01*
X191547750Y-123539000D01*
X192013310Y-123539000D01*
X192246699Y-123442327D01*
X192425327Y-123263698D01*
X192522000Y-123030309D01*
X192522000Y-122439750D01*
X193304000Y-122439750D01*
X193304000Y-123030309D01*
X193400673Y-123263698D01*
X193579301Y-123442327D01*
X193812690Y-123539000D01*
X194278250Y-123539000D01*
X194437000Y-123380250D01*
X194437000Y-122281000D01*
X194691000Y-122281000D01*
X194691000Y-123380250D01*
X194849750Y-123539000D01*
X195315310Y-123539000D01*
X195548699Y-123442327D01*
X195727327Y-123263698D01*
X195824000Y-123030309D01*
X195824000Y-122439750D01*
X195665250Y-122281000D01*
X194691000Y-122281000D01*
X194437000Y-122281000D01*
X193462750Y-122281000D01*
X193304000Y-122439750D01*
X192522000Y-122439750D01*
X192363250Y-122281000D01*
X191389000Y-122281000D01*
X191135000Y-122281000D01*
X190160750Y-122281000D01*
X190002000Y-122439750D01*
X187214001Y-122439750D01*
X187214001Y-120916050D01*
X187290000Y-120931440D01*
X188790000Y-120931440D01*
X189025317Y-120887162D01*
X189241441Y-120748090D01*
X189386431Y-120535890D01*
X189415164Y-120394000D01*
X189989560Y-120394000D01*
X189989560Y-120404000D01*
X190033838Y-120639317D01*
X190172910Y-120855441D01*
X190241006Y-120901969D01*
X190098673Y-121044302D01*
X190002000Y-121277691D01*
X190002000Y-121868250D01*
X190160750Y-122027000D01*
X191135000Y-122027000D01*
X191135000Y-122007000D01*
X191389000Y-122007000D01*
X191389000Y-122027000D01*
X192363250Y-122027000D01*
X192522000Y-121868250D01*
X192522000Y-121277691D01*
X192425327Y-121044302D01*
X192284090Y-120903064D01*
X192338441Y-120868090D01*
X192483431Y-120655890D01*
X192532415Y-120414000D01*
X193293442Y-120414000D01*
X193335838Y-120639317D01*
X193474910Y-120855441D01*
X193543006Y-120901969D01*
X193400673Y-121044302D01*
X193304000Y-121277691D01*
X193304000Y-121868250D01*
X193462750Y-122027000D01*
X194437000Y-122027000D01*
X194437000Y-122007000D01*
X194691000Y-122007000D01*
X194691000Y-122027000D01*
X195665250Y-122027000D01*
X195824000Y-121868250D01*
X195824000Y-121277691D01*
X195727327Y-121044302D01*
X195586090Y-120903064D01*
X195640441Y-120868090D01*
X195785431Y-120655890D01*
X195836440Y-120404000D01*
X195836440Y-118904000D01*
X195792162Y-118668683D01*
X195653090Y-118452559D01*
X195440890Y-118307569D01*
X195189000Y-118256560D01*
X193939000Y-118256560D01*
X193703683Y-118300838D01*
X193487559Y-118439910D01*
X193342569Y-118652110D01*
X193293585Y-118894000D01*
X192532558Y-118894000D01*
X192490162Y-118668683D01*
X192351090Y-118452559D01*
X192138890Y-118307569D01*
X191893846Y-118257946D01*
X191799401Y-118116599D01*
X191081999Y-117399197D01*
X191081999Y-113596440D01*
X192197000Y-113596440D01*
X192432317Y-113552162D01*
X192648441Y-113413090D01*
X192793431Y-113200890D01*
X192844440Y-112949000D01*
X192844440Y-112349000D01*
X192800162Y-112113683D01*
X192736322Y-112014472D01*
X192793431Y-111930890D01*
X192844440Y-111679000D01*
X192844440Y-111079000D01*
X192800162Y-110843683D01*
X192741822Y-110753020D01*
X192832000Y-110535310D01*
X192832000Y-110394750D01*
X192673250Y-110236000D01*
X191549000Y-110236000D01*
X191549000Y-110256000D01*
X191295000Y-110256000D01*
X191295000Y-110236000D01*
X190170750Y-110236000D01*
X190012000Y-110394750D01*
X190012000Y-110535310D01*
X190101806Y-110752122D01*
X190050569Y-110827110D01*
X189999560Y-111079000D01*
X189999560Y-111251638D01*
X189784598Y-111466600D01*
X189619851Y-111713162D01*
X189561999Y-112004001D01*
X189561999Y-117713999D01*
X189619851Y-118004838D01*
X189784598Y-118251400D01*
X190099321Y-118566123D01*
X190040569Y-118652110D01*
X189995635Y-118874000D01*
X189416742Y-118874000D01*
X189393162Y-118748683D01*
X189254090Y-118532559D01*
X189041890Y-118387569D01*
X188790000Y-118336560D01*
X187290000Y-118336560D01*
X187090613Y-118374077D01*
X186991402Y-118225598D01*
X186887402Y-118121598D01*
X186640840Y-117956851D01*
X186350001Y-117898999D01*
X183295393Y-117898999D01*
X183004554Y-117956851D01*
X182757992Y-118121598D01*
X174663401Y-126216189D01*
X174096084Y-125648872D01*
X174429167Y-125649162D01*
X174772943Y-125507117D01*
X175036192Y-125244327D01*
X175178838Y-124900799D01*
X175178879Y-124853923D01*
X181639401Y-118393401D01*
X181804148Y-118146839D01*
X181862000Y-117856000D01*
X181862000Y-112934750D01*
X184612000Y-112934750D01*
X184612000Y-113075310D01*
X184708673Y-113308699D01*
X184887302Y-113487327D01*
X185120691Y-113584000D01*
X185736250Y-113584000D01*
X185895000Y-113425250D01*
X185895000Y-112776000D01*
X186149000Y-112776000D01*
X186149000Y-113425250D01*
X186307750Y-113584000D01*
X186923309Y-113584000D01*
X187156698Y-113487327D01*
X187335327Y-113308699D01*
X187432000Y-113075310D01*
X187432000Y-112934750D01*
X187273250Y-112776000D01*
X186149000Y-112776000D01*
X185895000Y-112776000D01*
X184770750Y-112776000D01*
X184612000Y-112934750D01*
X181862000Y-112934750D01*
X181862000Y-108412690D01*
X184612000Y-108412690D01*
X184612000Y-108553250D01*
X184770750Y-108712000D01*
X185895000Y-108712000D01*
X185895000Y-108062750D01*
X185736250Y-107904000D01*
X185120691Y-107904000D01*
X184887302Y-108000673D01*
X184708673Y-108179301D01*
X184612000Y-108412690D01*
X181862000Y-108412690D01*
X181862000Y-96551750D01*
X185813000Y-96551750D01*
X185813000Y-97017310D01*
X185909673Y-97250699D01*
X186088302Y-97429327D01*
X186321691Y-97526000D01*
X186912250Y-97526000D01*
X187071000Y-97367250D01*
X187071000Y-96393000D01*
X185971750Y-96393000D01*
X185813000Y-96551750D01*
X181862000Y-96551750D01*
X181862000Y-96142802D01*
X182490112Y-95514690D01*
X185813000Y-95514690D01*
X185813000Y-95980250D01*
X185971750Y-96139000D01*
X187071000Y-96139000D01*
X187071000Y-95164750D01*
X186912250Y-95006000D01*
X186321691Y-95006000D01*
X186088302Y-95102673D01*
X185909673Y-95281301D01*
X185813000Y-95514690D01*
X182490112Y-95514690D01*
X193910113Y-84094689D01*
X194012910Y-84254441D01*
X194225110Y-84399431D01*
X194477000Y-84450440D01*
X195677000Y-84450440D01*
X195912317Y-84406162D01*
X196128441Y-84267090D01*
X196273431Y-84054890D01*
X196324440Y-83803000D01*
X196324440Y-82988750D01*
X198402000Y-82988750D01*
X198402000Y-83929309D01*
X198498673Y-84162698D01*
X198677301Y-84341327D01*
X198910690Y-84438000D01*
X199351250Y-84438000D01*
X199510000Y-84279250D01*
X199510000Y-82830000D01*
X199764000Y-82830000D01*
X199764000Y-84279250D01*
X199922750Y-84438000D01*
X200363310Y-84438000D01*
X200596699Y-84341327D01*
X200775327Y-84162698D01*
X200872000Y-83929309D01*
X200872000Y-83745691D01*
X203718000Y-83745691D01*
X203718000Y-84336250D01*
X203876750Y-84495000D01*
X204851000Y-84495000D01*
X204851000Y-83395750D01*
X205105000Y-83395750D01*
X205105000Y-84495000D01*
X206079250Y-84495000D01*
X206238000Y-84336250D01*
X206238000Y-83745691D01*
X206141327Y-83512302D01*
X205962699Y-83333673D01*
X205729310Y-83237000D01*
X205263750Y-83237000D01*
X205105000Y-83395750D01*
X204851000Y-83395750D01*
X204692250Y-83237000D01*
X204226690Y-83237000D01*
X203993301Y-83333673D01*
X203814673Y-83512302D01*
X203718000Y-83745691D01*
X200872000Y-83745691D01*
X200872000Y-82988750D01*
X200713250Y-82830000D01*
X199764000Y-82830000D01*
X199510000Y-82830000D01*
X198560750Y-82830000D01*
X198402000Y-82988750D01*
X196324440Y-82988750D01*
X196324440Y-81603000D01*
X196280162Y-81367683D01*
X196142017Y-81153000D01*
X198588974Y-81153000D01*
X198498673Y-81243302D01*
X198498673Y-81243302D01*
G37*
X198498673Y-81243302D02*
X198402000Y-81476691D01*
X198402000Y-82417250D01*
X198560750Y-82576000D01*
X199510000Y-82576000D01*
X199510000Y-82556000D01*
X199764000Y-82556000D01*
X199764000Y-82576000D01*
X200713250Y-82576000D01*
X200872000Y-82417250D01*
X200872000Y-81476691D01*
X200775327Y-81243302D01*
X200685026Y-81153000D01*
X210882600Y-81153000D01*
X207996599Y-84039001D01*
X207831852Y-84285563D01*
X207774000Y-84576402D01*
X207774000Y-88014400D01*
X207831852Y-88305239D01*
X207996599Y-88551801D01*
X209956127Y-90511329D01*
X209511633Y-90808330D01*
X209186777Y-91294511D01*
X209072703Y-91868000D01*
X209186777Y-92441489D01*
X209511633Y-92927670D01*
X209997814Y-93252526D01*
X210571303Y-93366600D01*
X211976697Y-93366600D01*
X212550186Y-93252526D01*
X213036367Y-92927670D01*
X213361223Y-92441489D01*
X213475297Y-91868000D01*
X213361223Y-91294511D01*
X213036367Y-90808330D01*
X212550186Y-90483474D01*
X211976697Y-90369400D01*
X211913232Y-90369400D01*
X211811401Y-90216999D01*
X209294000Y-87699598D01*
X209294000Y-87529760D01*
X209464127Y-87837868D01*
X209922778Y-88203925D01*
X210486600Y-88366600D01*
X211147000Y-88366600D01*
X211147000Y-86995000D01*
X211401000Y-86995000D01*
X211401000Y-88366600D01*
X212061400Y-88366600D01*
X212625222Y-88203925D01*
X213083873Y-87837868D01*
X213367527Y-87324157D01*
X213389358Y-87227026D01*
X221658642Y-87227026D01*
X221680473Y-87324157D01*
X221964127Y-87837868D01*
X222422778Y-88203925D01*
X222986600Y-88366600D01*
X223647000Y-88366600D01*
X223647000Y-86995000D01*
X221779783Y-86995000D01*
X221658642Y-87227026D01*
X213389358Y-87227026D01*
X213268217Y-86995000D01*
X211401000Y-86995000D01*
X211147000Y-86995000D01*
X211127000Y-86995000D01*
X211127000Y-86741000D01*
X211147000Y-86741000D01*
X211147000Y-85369400D01*
X211401000Y-85369400D01*
X211401000Y-86741000D01*
X213268217Y-86741000D01*
X213389358Y-86508974D01*
X221658642Y-86508974D01*
X221779783Y-86741000D01*
X223647000Y-86741000D01*
X223647000Y-85369400D01*
X222986600Y-85369400D01*
X222422778Y-85532075D01*
X221964127Y-85898132D01*
X221680473Y-86411843D01*
X221658642Y-86508974D01*
X213389358Y-86508974D01*
X213367527Y-86411843D01*
X213083873Y-85898132D01*
X212625222Y-85532075D01*
X212061400Y-85369400D01*
X211401000Y-85369400D01*
X211147000Y-85369400D01*
X210486600Y-85369400D01*
X209922778Y-85532075D01*
X209464127Y-85898132D01*
X209294000Y-86206240D01*
X209294000Y-84891204D01*
X213032204Y-81153000D01*
X225933000Y-81153000D01*
X225933000Y-86740998D01*
X225768218Y-86740998D01*
X225889358Y-86508974D01*
X225867527Y-86411843D01*
X225583873Y-85898132D01*
X225125222Y-85532075D01*
X224561400Y-85369400D01*
X223901000Y-85369400D01*
X223901000Y-86741000D01*
X223921000Y-86741000D01*
X223921000Y-86995000D01*
X223901000Y-86995000D01*
X223901000Y-88366600D01*
X224561400Y-88366600D01*
X225125222Y-88203925D01*
X225583873Y-87837868D01*
X225816000Y-87417475D01*
X225816000Y-87618250D01*
X225933000Y-87735250D01*
X225933000Y-88072750D01*
X225816000Y-88189750D01*
X225816000Y-88780309D01*
X225912673Y-89013698D01*
X225933000Y-89034025D01*
X225933000Y-89287322D01*
X225854569Y-89402110D01*
X225803560Y-89654000D01*
X225803560Y-90726638D01*
X225610668Y-90919530D01*
X225536367Y-90808330D01*
X225050186Y-90483474D01*
X224476697Y-90369400D01*
X223071303Y-90369400D01*
X222497814Y-90483474D01*
X222011633Y-90808330D01*
X221686777Y-91294511D01*
X221572703Y-91868000D01*
X221686777Y-92441489D01*
X222011633Y-92927670D01*
X222497814Y-93252526D01*
X223071303Y-93366600D01*
X224013528Y-93366600D01*
X224103599Y-93501401D01*
X224350161Y-93666148D01*
X224641000Y-93724000D01*
X224931839Y-93666148D01*
X225178401Y-93501401D01*
X225933000Y-92746802D01*
X225933000Y-115210750D01*
X225913000Y-115230750D01*
X225913000Y-116205000D01*
X225933000Y-116205000D01*
X225933000Y-116459000D01*
X225913000Y-116459000D01*
X225913000Y-117433250D01*
X225933000Y-117453250D01*
X225933000Y-117779198D01*
X225623026Y-117469224D01*
X225659000Y-117433250D01*
X225659000Y-116459000D01*
X225639000Y-116459000D01*
X225639000Y-116205000D01*
X225659000Y-116205000D01*
X225659000Y-115230750D01*
X225500250Y-115072000D01*
X224909691Y-115072000D01*
X224676302Y-115168673D01*
X224535064Y-115309910D01*
X224500090Y-115255559D01*
X224287890Y-115110569D01*
X224046000Y-115061585D01*
X224046000Y-114183998D01*
X223988148Y-113893159D01*
X223823401Y-113646597D01*
X210056000Y-99879196D01*
X210056000Y-94542463D01*
X210088192Y-94510327D01*
X210230838Y-94166799D01*
X210231162Y-93794833D01*
X210089117Y-93451057D01*
X209826327Y-93187808D01*
X209482799Y-93045162D01*
X209110833Y-93044838D01*
X208767057Y-93186883D01*
X208503808Y-93449673D01*
X208361162Y-93793201D01*
X208360838Y-94165167D01*
X208502883Y-94508943D01*
X208536000Y-94542118D01*
X208536000Y-100193998D01*
X208593852Y-100484837D01*
X208758599Y-100731399D01*
X215804200Y-107777000D01*
X215252691Y-107777000D01*
X215019302Y-107873673D01*
X214840673Y-108052301D01*
X214744000Y-108285690D01*
X214744000Y-108426250D01*
X214902750Y-108585000D01*
X216027000Y-108585000D01*
X216027000Y-108565000D01*
X216281000Y-108565000D01*
X216281000Y-108585000D01*
X216301000Y-108585000D01*
X216301000Y-108839000D01*
X216281000Y-108839000D01*
X216281000Y-109855000D01*
X217405250Y-109855000D01*
X217564000Y-109696250D01*
X217564000Y-109555690D01*
X217550643Y-109523443D01*
X222526000Y-114498800D01*
X222526000Y-115061442D01*
X222300683Y-115103838D01*
X222084559Y-115242910D01*
X221939569Y-115455110D01*
X221888560Y-115707000D01*
X221888560Y-116957000D01*
X221932838Y-117192317D01*
X222071910Y-117408441D01*
X222284110Y-117553431D01*
X222536000Y-117604440D01*
X223608638Y-117604440D01*
X224379039Y-118374841D01*
X224190000Y-118336560D01*
X222690000Y-118336560D01*
X222454683Y-118380838D01*
X222238559Y-118519910D01*
X222093569Y-118732110D01*
X222042560Y-118984000D01*
X222042560Y-120284000D01*
X222086838Y-120519317D01*
X222225910Y-120735441D01*
X222438110Y-120880431D01*
X222680000Y-120929415D01*
X222680000Y-122196021D01*
X222574683Y-122215838D01*
X222358559Y-122354910D01*
X222213569Y-122567110D01*
X222189898Y-122684000D01*
X220641439Y-122684000D01*
X220641439Y-121570998D01*
X220597161Y-121335681D01*
X220458089Y-121119557D01*
X220389993Y-121073029D01*
X220532326Y-120930696D01*
X220628999Y-120697307D01*
X220628999Y-120106748D01*
X220470249Y-119947998D01*
X219495999Y-119947998D01*
X219495999Y-119967998D01*
X219241999Y-119967998D01*
X219241999Y-119947998D01*
X218267749Y-119947998D01*
X218108999Y-120106748D01*
X218108999Y-120697307D01*
X218205672Y-120930696D01*
X218346909Y-121071934D01*
X218292558Y-121106908D01*
X218147568Y-121319108D01*
X218098584Y-121560998D01*
X216410440Y-121560998D01*
X216410440Y-121404000D01*
X216366162Y-121168683D01*
X216227090Y-120952559D01*
X216158994Y-120906031D01*
X216301327Y-120763698D01*
X216398000Y-120530309D01*
X216398000Y-119939750D01*
X216239250Y-119781000D01*
X215265000Y-119781000D01*
X215265000Y-119801000D01*
X215011000Y-119801000D01*
X215011000Y-119781000D01*
X214036750Y-119781000D01*
X214000776Y-119816974D01*
X213280401Y-119096599D01*
X213232326Y-119064476D01*
X213519111Y-118777691D01*
X213878000Y-118777691D01*
X213878000Y-119368250D01*
X214036750Y-119527000D01*
X215011000Y-119527000D01*
X215011000Y-118427750D01*
X215265000Y-118427750D01*
X215265000Y-119527000D01*
X216239250Y-119527000D01*
X216398000Y-119368250D01*
X216398000Y-118944689D01*
X218108999Y-118944689D01*
X218108999Y-119535248D01*
X218267749Y-119693998D01*
X219241999Y-119693998D01*
X219241999Y-118594748D01*
X219495999Y-118594748D01*
X219495999Y-119693998D01*
X220470249Y-119693998D01*
X220628999Y-119535248D01*
X220628999Y-118944689D01*
X220532326Y-118711300D01*
X220353698Y-118532671D01*
X220120309Y-118435998D01*
X219654749Y-118435998D01*
X219495999Y-118594748D01*
X219241999Y-118594748D01*
X219083249Y-118435998D01*
X218617689Y-118435998D01*
X218384300Y-118532671D01*
X218205672Y-118711300D01*
X218108999Y-118944689D01*
X216398000Y-118944689D01*
X216398000Y-118777691D01*
X216301327Y-118544302D01*
X216122699Y-118365673D01*
X215889310Y-118269000D01*
X215423750Y-118269000D01*
X215265000Y-118427750D01*
X215011000Y-118427750D01*
X214852250Y-118269000D01*
X214386690Y-118269000D01*
X214153301Y-118365673D01*
X213974673Y-118544302D01*
X213878000Y-118777691D01*
X213519111Y-118777691D01*
X217791402Y-114505400D01*
X217956149Y-114258839D01*
X217971036Y-114183998D01*
X218014001Y-113967999D01*
X218014001Y-111877001D01*
X217956149Y-111586162D01*
X217791402Y-111339600D01*
X217576440Y-111124638D01*
X217576440Y-110952000D01*
X217532162Y-110716683D01*
X217473822Y-110626020D01*
X217564000Y-110408310D01*
X217564000Y-110267750D01*
X217405250Y-110109000D01*
X216281000Y-110109000D01*
X216281000Y-110129000D01*
X216027000Y-110129000D01*
X216027000Y-110109000D01*
X214902750Y-110109000D01*
X214744000Y-110267750D01*
X214744000Y-110408310D01*
X214833806Y-110625122D01*
X214782569Y-110700110D01*
X214731560Y-110952000D01*
X214731560Y-111552000D01*
X214775838Y-111787317D01*
X214839678Y-111886528D01*
X214782569Y-111970110D01*
X214731560Y-112222000D01*
X214731560Y-112822000D01*
X214775838Y-113057317D01*
X214914910Y-113273441D01*
X215127110Y-113418431D01*
X215379000Y-113469440D01*
X216494001Y-113469440D01*
X216494001Y-113653197D01*
X211810638Y-118336560D01*
X210738000Y-118336560D01*
X210502683Y-118380838D01*
X210286559Y-118519910D01*
X210141569Y-118732110D01*
X210138919Y-118745197D01*
X210002090Y-118532559D01*
X209789890Y-118387569D01*
X209538000Y-118336560D01*
X208038000Y-118336560D01*
X207802683Y-118380838D01*
X207586559Y-118519910D01*
X207441569Y-118732110D01*
X207390560Y-118984000D01*
X207390560Y-119856638D01*
X203930200Y-123316998D01*
X203898252Y-123316998D01*
X204057000Y-123158250D01*
X204057000Y-122692690D01*
X203960327Y-122459301D01*
X203781698Y-122280673D01*
X203548309Y-122184000D01*
X202957750Y-122184000D01*
X202799000Y-122342750D01*
X202799000Y-123317000D01*
X202819000Y-123317000D01*
X202819000Y-123571000D01*
X202799000Y-123571000D01*
X202799000Y-124545250D01*
X202957750Y-124704000D01*
X203456000Y-124704000D01*
X203456000Y-125209258D01*
X203330683Y-125232838D01*
X203114559Y-125371910D01*
X202969569Y-125584110D01*
X202918560Y-125836000D01*
X202918560Y-127336000D01*
X202962838Y-127571317D01*
X203101910Y-127787441D01*
X203314110Y-127932431D01*
X203327197Y-127935081D01*
X203114559Y-128071910D01*
X202969569Y-128284110D01*
X202918560Y-128536000D01*
X202918560Y-130036000D01*
X202962838Y-130271317D01*
X203101910Y-130487441D01*
X203314110Y-130632431D01*
X203566000Y-130683440D01*
X204866000Y-130683440D01*
X205101317Y-130639162D01*
X205279623Y-130524425D01*
X210314000Y-135558802D01*
X210314000Y-139573000D01*
X206766804Y-139573000D01*
X196507244Y-129313440D01*
X197426000Y-129313440D01*
X197661317Y-129269162D01*
X197877441Y-129130090D01*
X198022431Y-128917890D01*
X198029057Y-128885170D01*
X198187201Y-128950838D01*
X198559167Y-128951162D01*
X198902943Y-128809117D01*
X199166192Y-128546327D01*
X199308838Y-128202799D01*
X199309162Y-127830833D01*
X199167117Y-127487057D01*
X198904327Y-127223808D01*
X198560799Y-127081162D01*
X198484706Y-127081096D01*
X200709401Y-124856401D01*
X200802920Y-124716440D01*
X200922000Y-124716440D01*
X201157317Y-124672162D01*
X201373441Y-124533090D01*
X201419969Y-124464994D01*
X201562302Y-124607327D01*
X201795691Y-124704000D01*
X202386250Y-124704000D01*
X202545000Y-124545250D01*
X202545000Y-123571000D01*
X202525000Y-123571000D01*
X202525000Y-123317000D01*
X202545000Y-123317000D01*
X202545000Y-122342750D01*
X202386250Y-122184000D01*
X201795691Y-122184000D01*
X201562302Y-122280673D01*
X201421064Y-122421910D01*
X201386090Y-122367559D01*
X201173890Y-122222569D01*
X200932000Y-122173585D01*
X200932000Y-120910742D01*
X201057317Y-120887162D01*
X201273441Y-120748090D01*
X201418431Y-120535890D01*
X201421081Y-120522803D01*
X201557910Y-120735441D01*
X201770110Y-120880431D01*
X202022000Y-120931440D01*
X203522000Y-120931440D01*
X203757317Y-120887162D01*
X203973441Y-120748090D01*
X204118431Y-120535890D01*
X204169440Y-120284000D01*
X204169440Y-118984000D01*
X204125162Y-118748683D01*
X203986090Y-118532559D01*
X203773890Y-118387569D01*
X203522000Y-118336560D01*
X202449362Y-118336560D01*
X201640534Y-117527732D01*
X201795691Y-117592000D01*
X202386250Y-117592000D01*
X202545000Y-117433250D01*
X202545000Y-116459000D01*
X202799000Y-116459000D01*
X202799000Y-117433250D01*
X202957750Y-117592000D01*
X203548309Y-117592000D01*
X203781698Y-117495327D01*
X203960327Y-117316699D01*
X204057000Y-117083310D01*
X204057000Y-116617750D01*
X203898250Y-116459000D01*
X202799000Y-116459000D01*
X202545000Y-116459000D01*
X202525000Y-116459000D01*
X202525000Y-116205000D01*
X202545000Y-116205000D01*
X202545000Y-115230750D01*
X202799000Y-115230750D01*
X202799000Y-116205000D01*
X203898250Y-116205000D01*
X204057000Y-116046250D01*
X204057000Y-115580690D01*
X203960327Y-115347301D01*
X203781698Y-115168673D01*
X203548309Y-115072000D01*
X202957750Y-115072000D01*
X202799000Y-115230750D01*
X202545000Y-115230750D01*
X202386250Y-115072000D01*
X201795691Y-115072000D01*
X201562302Y-115168673D01*
X201421064Y-115309910D01*
X201386090Y-115255559D01*
X201173890Y-115110569D01*
X200932000Y-115061585D01*
X200932000Y-112807750D01*
X209344000Y-112807750D01*
X209344000Y-112948310D01*
X209440673Y-113181699D01*
X209619302Y-113360327D01*
X209852691Y-113457000D01*
X210468250Y-113457000D01*
X210627000Y-113298250D01*
X210627000Y-112649000D01*
X210881000Y-112649000D01*
X210881000Y-113298250D01*
X211039750Y-113457000D01*
X211655309Y-113457000D01*
X211888698Y-113360327D01*
X212067327Y-113181699D01*
X212164000Y-112948310D01*
X212164000Y-112807750D01*
X212005250Y-112649000D01*
X210881000Y-112649000D01*
X210627000Y-112649000D01*
X209502750Y-112649000D01*
X209344000Y-112807750D01*
X200932000Y-112807750D01*
X200932000Y-101607800D01*
X202484560Y-100055240D01*
X202484560Y-100218000D01*
X202528838Y-100453317D01*
X202667910Y-100669441D01*
X202880110Y-100814431D01*
X203122000Y-100863415D01*
X203122000Y-101614495D01*
X202976683Y-101641838D01*
X202760559Y-101780910D01*
X202615569Y-101993110D01*
X202564560Y-102245000D01*
X202564560Y-103495000D01*
X202608838Y-103730317D01*
X202747910Y-103946441D01*
X202960110Y-104091431D01*
X203212000Y-104142440D01*
X203331080Y-104142440D01*
X203424599Y-104282401D01*
X209331560Y-110189362D01*
X209331560Y-110282000D01*
X209375838Y-110517317D01*
X209439678Y-110616528D01*
X209382569Y-110700110D01*
X209331560Y-110952000D01*
X209331560Y-111552000D01*
X209375838Y-111787317D01*
X209434178Y-111877980D01*
X209344000Y-112095690D01*
X209344000Y-112236250D01*
X209502750Y-112395000D01*
X210627000Y-112395000D01*
X210627000Y-112375000D01*
X210881000Y-112375000D01*
X210881000Y-112395000D01*
X212005250Y-112395000D01*
X212164000Y-112236250D01*
X212164000Y-112095690D01*
X212074194Y-111878878D01*
X212125431Y-111803890D01*
X212176440Y-111552000D01*
X212176440Y-110952000D01*
X212132162Y-110716683D01*
X212068322Y-110617472D01*
X212125431Y-110533890D01*
X212176440Y-110282000D01*
X212176440Y-109682000D01*
X212132162Y-109446683D01*
X212073822Y-109356020D01*
X212164000Y-109138310D01*
X212164000Y-108997750D01*
X214744000Y-108997750D01*
X214744000Y-109138310D01*
X214830442Y-109347000D01*
X214744000Y-109555690D01*
X214744000Y-109696250D01*
X214902750Y-109855000D01*
X216027000Y-109855000D01*
X216027000Y-108839000D01*
X214902750Y-108839000D01*
X214744000Y-108997750D01*
X212164000Y-108997750D01*
X212005250Y-108839000D01*
X210881000Y-108839000D01*
X210881000Y-108859000D01*
X210627000Y-108859000D01*
X210627000Y-108839000D01*
X210607000Y-108839000D01*
X210607000Y-108585000D01*
X210627000Y-108585000D01*
X210627000Y-107935750D01*
X210881000Y-107935750D01*
X210881000Y-108585000D01*
X212005250Y-108585000D01*
X212164000Y-108426250D01*
X212164000Y-108285690D01*
X212067327Y-108052301D01*
X211888698Y-107873673D01*
X211655309Y-107777000D01*
X211039750Y-107777000D01*
X210881000Y-107935750D01*
X210627000Y-107935750D01*
X210468250Y-107777000D01*
X209852691Y-107777000D01*
X209619302Y-107873673D01*
X209440673Y-108052301D01*
X209412388Y-108120586D01*
X205198939Y-103907137D01*
X205209969Y-103890994D01*
X205352302Y-104033327D01*
X205585691Y-104130000D01*
X206176250Y-104130000D01*
X206335000Y-103971250D01*
X206335000Y-102997000D01*
X206589000Y-102997000D01*
X206589000Y-103971250D01*
X206747750Y-104130000D01*
X207338309Y-104130000D01*
X207571698Y-104033327D01*
X207750327Y-103854699D01*
X207847000Y-103621310D01*
X207847000Y-103155750D01*
X207688250Y-102997000D01*
X206589000Y-102997000D01*
X206335000Y-102997000D01*
X206315000Y-102997000D01*
X206315000Y-102743000D01*
X206335000Y-102743000D01*
X206335000Y-101768750D01*
X206589000Y-101768750D01*
X206589000Y-102743000D01*
X207688250Y-102743000D01*
X207847000Y-102584250D01*
X207847000Y-102118690D01*
X207750327Y-101885301D01*
X207571698Y-101706673D01*
X207338309Y-101610000D01*
X206747750Y-101610000D01*
X206589000Y-101768750D01*
X206335000Y-101768750D01*
X206176250Y-101610000D01*
X205585691Y-101610000D01*
X205352302Y-101706673D01*
X205211064Y-101847910D01*
X205176090Y-101793559D01*
X204963890Y-101648569D01*
X204712000Y-101597560D01*
X204642000Y-101597560D01*
X204642000Y-100863558D01*
X204867317Y-100821162D01*
X205083441Y-100682090D01*
X205228431Y-100469890D01*
X205231081Y-100456803D01*
X205367910Y-100669441D01*
X205580110Y-100814431D01*
X205832000Y-100865440D01*
X207332000Y-100865440D01*
X207567317Y-100821162D01*
X207783441Y-100682090D01*
X207928431Y-100469890D01*
X207979440Y-100218000D01*
X207979440Y-98918000D01*
X207935162Y-98682683D01*
X207796090Y-98466559D01*
X207583890Y-98321569D01*
X207332000Y-98270560D01*
X207262000Y-98270560D01*
X207262000Y-97536558D01*
X207487317Y-97494162D01*
X207703441Y-97355090D01*
X207848431Y-97142890D01*
X207899440Y-96891000D01*
X207899440Y-95641000D01*
X207855162Y-95405683D01*
X207716090Y-95189559D01*
X207503890Y-95044569D01*
X207252000Y-94993560D01*
X207241225Y-94993560D01*
X207225631Y-94915162D01*
X207204148Y-94807160D01*
X207039401Y-94560599D01*
X202059694Y-89580892D01*
X202369167Y-89581162D01*
X202712943Y-89439117D01*
X202976192Y-89176327D01*
X203118838Y-88832799D01*
X203119162Y-88460833D01*
X202977117Y-88117057D01*
X202948111Y-88088000D01*
X203746203Y-88088000D01*
X203749838Y-88107317D01*
X203888910Y-88323441D01*
X204101110Y-88468431D01*
X204353000Y-88519440D01*
X205603000Y-88519440D01*
X205838317Y-88475162D01*
X206054441Y-88336090D01*
X206199431Y-88123890D01*
X206250440Y-87872000D01*
X206250440Y-86372000D01*
X206206162Y-86136683D01*
X206067090Y-85920559D01*
X205998994Y-85874031D01*
X206141327Y-85731698D01*
X206238000Y-85498309D01*
X206238000Y-84907750D01*
X206079250Y-84749000D01*
X205105000Y-84749000D01*
X205105000Y-84769000D01*
X204851000Y-84769000D01*
X204851000Y-84749000D01*
X203876750Y-84749000D01*
X203718000Y-84907750D01*
X203718000Y-85498309D01*
X203814673Y-85731698D01*
X203955910Y-85872936D01*
X203901559Y-85907910D01*
X203756569Y-86120110D01*
X203705560Y-86372000D01*
X203705560Y-86568000D01*
X200904440Y-86568000D01*
X200904440Y-85803000D01*
X200860162Y-85567683D01*
X200721090Y-85351559D01*
X200508890Y-85206569D01*
X200257000Y-85155560D01*
X194457000Y-85155560D01*
X194221683Y-85199838D01*
X194005559Y-85338910D01*
X193860569Y-85551110D01*
X193809560Y-85803000D01*
X193809560Y-91775638D01*
X190567449Y-95017749D01*
X190448000Y-94993560D01*
X188948000Y-94993560D01*
X188712683Y-95037838D01*
X188496559Y-95176910D01*
X188450031Y-95245006D01*
X188307698Y-95102673D01*
X188074309Y-95006000D01*
X187483750Y-95006000D01*
X187325000Y-95164750D01*
X187325000Y-96139000D01*
X187345000Y-96139000D01*
X187345000Y-96393000D01*
X187325000Y-96393000D01*
X187325000Y-97367250D01*
X187483750Y-97526000D01*
X188074309Y-97526000D01*
X188307698Y-97429327D01*
X188448936Y-97288090D01*
X188483910Y-97342441D01*
X188696110Y-97487431D01*
X188938000Y-97536415D01*
X188938000Y-98270560D01*
X188814000Y-98270560D01*
X188578683Y-98314838D01*
X188362559Y-98453910D01*
X188217569Y-98666110D01*
X188214919Y-98679197D01*
X188078090Y-98466559D01*
X187865890Y-98321569D01*
X187614000Y-98270560D01*
X186114000Y-98270560D01*
X185878683Y-98314838D01*
X185662559Y-98453910D01*
X185517569Y-98666110D01*
X185466560Y-98918000D01*
X185466560Y-100218000D01*
X185510838Y-100453317D01*
X185649910Y-100669441D01*
X185862110Y-100814431D01*
X186104000Y-100863415D01*
X186104000Y-101622021D01*
X185998683Y-101641838D01*
X185782559Y-101780910D01*
X185637569Y-101993110D01*
X185586560Y-102245000D01*
X185586560Y-103495000D01*
X185630838Y-103730317D01*
X185769910Y-103946441D01*
X185982110Y-104091431D01*
X186234000Y-104142440D01*
X186353080Y-104142440D01*
X186362001Y-104155791D01*
X186362001Y-107904000D01*
X186307750Y-107904000D01*
X186149000Y-108062750D01*
X186149000Y-108712000D01*
X186169000Y-108712000D01*
X186169000Y-108966000D01*
X186149000Y-108966000D01*
X186149000Y-108986000D01*
X185895000Y-108986000D01*
X185895000Y-108966000D01*
X184770750Y-108966000D01*
X184612000Y-109124750D01*
X184612000Y-109265310D01*
X184701806Y-109482122D01*
X184650569Y-109557110D01*
X184599560Y-109809000D01*
X184599560Y-110409000D01*
X184643838Y-110644317D01*
X184707678Y-110743528D01*
X184650569Y-110827110D01*
X184599560Y-111079000D01*
X184599560Y-111679000D01*
X184643838Y-111914317D01*
X184702178Y-112004980D01*
X184612000Y-112222690D01*
X184612000Y-112363250D01*
X184770750Y-112522000D01*
X185895000Y-112522000D01*
X185895000Y-112502000D01*
X186149000Y-112502000D01*
X186149000Y-112522000D01*
X187273250Y-112522000D01*
X187432000Y-112363250D01*
X187432000Y-112222690D01*
X187342194Y-112005878D01*
X187393431Y-111930890D01*
X187444440Y-111679000D01*
X187444440Y-111079000D01*
X187400162Y-110843683D01*
X187336322Y-110744472D01*
X187393431Y-110660890D01*
X187444440Y-110409000D01*
X187444440Y-110236362D01*
X187659402Y-110021400D01*
X187824149Y-109774838D01*
X187882001Y-109483999D01*
X187882001Y-109124750D01*
X190012000Y-109124750D01*
X190012000Y-109265310D01*
X190098442Y-109474000D01*
X190012000Y-109682690D01*
X190012000Y-109823250D01*
X190170750Y-109982000D01*
X191295000Y-109982000D01*
X191295000Y-108966000D01*
X191549000Y-108966000D01*
X191549000Y-109982000D01*
X192673250Y-109982000D01*
X192832000Y-109823250D01*
X192832000Y-109682690D01*
X192745558Y-109474000D01*
X192832000Y-109265310D01*
X192832000Y-109124750D01*
X192673250Y-108966000D01*
X191549000Y-108966000D01*
X191295000Y-108966000D01*
X190170750Y-108966000D01*
X190012000Y-109124750D01*
X187882001Y-109124750D01*
X187882001Y-108412690D01*
X190012000Y-108412690D01*
X190012000Y-108553250D01*
X190170750Y-108712000D01*
X191295000Y-108712000D01*
X191295000Y-108062750D01*
X191549000Y-108062750D01*
X191549000Y-108712000D01*
X192673250Y-108712000D01*
X192832000Y-108553250D01*
X192832000Y-108412690D01*
X192735327Y-108179301D01*
X192556698Y-108000673D01*
X192323309Y-107904000D01*
X191707750Y-107904000D01*
X191549000Y-108062750D01*
X191295000Y-108062750D01*
X191136250Y-107904000D01*
X190520691Y-107904000D01*
X190287302Y-108000673D01*
X190108673Y-108179301D01*
X190012000Y-108412690D01*
X187882001Y-108412690D01*
X187882001Y-104114592D01*
X187969317Y-104098162D01*
X188185441Y-103959090D01*
X188231969Y-103890994D01*
X188374302Y-104033327D01*
X188607691Y-104130000D01*
X189198250Y-104130000D01*
X189357000Y-103971250D01*
X189357000Y-102997000D01*
X189611000Y-102997000D01*
X189611000Y-103971250D01*
X189769750Y-104130000D01*
X190360309Y-104130000D01*
X190593698Y-104033327D01*
X190772327Y-103854699D01*
X190869000Y-103621310D01*
X190869000Y-103155750D01*
X190710250Y-102997000D01*
X189611000Y-102997000D01*
X189357000Y-102997000D01*
X189337000Y-102997000D01*
X189337000Y-102743000D01*
X189357000Y-102743000D01*
X189357000Y-101768750D01*
X189611000Y-101768750D01*
X189611000Y-102743000D01*
X190710250Y-102743000D01*
X190869000Y-102584250D01*
X190869000Y-102118690D01*
X190772327Y-101885301D01*
X190593698Y-101706673D01*
X190360309Y-101610000D01*
X189769750Y-101610000D01*
X189611000Y-101768750D01*
X189357000Y-101768750D01*
X189198250Y-101610000D01*
X188607691Y-101610000D01*
X188374302Y-101706673D01*
X188233064Y-101847910D01*
X188198090Y-101793559D01*
X187985890Y-101648569D01*
X187734000Y-101597560D01*
X187624000Y-101597560D01*
X187624000Y-100863558D01*
X187849317Y-100821162D01*
X188065441Y-100682090D01*
X188210431Y-100469890D01*
X188213081Y-100456803D01*
X188349910Y-100669441D01*
X188562110Y-100814431D01*
X188814000Y-100865440D01*
X190314000Y-100865440D01*
X190549317Y-100821162D01*
X190765441Y-100682090D01*
X190910431Y-100469890D01*
X190961440Y-100218000D01*
X190961440Y-98918000D01*
X190917162Y-98682683D01*
X190778090Y-98466559D01*
X190565890Y-98321569D01*
X190458000Y-98299721D01*
X190458000Y-97536558D01*
X190683317Y-97494162D01*
X190899441Y-97355090D01*
X191044431Y-97142890D01*
X191095440Y-96891000D01*
X191095440Y-96639362D01*
X191183052Y-96551750D01*
X202617000Y-96551750D01*
X202617000Y-97017310D01*
X202713673Y-97250699D01*
X202892302Y-97429327D01*
X203125691Y-97526000D01*
X203716250Y-97526000D01*
X203875000Y-97367250D01*
X203875000Y-96393000D01*
X202775750Y-96393000D01*
X202617000Y-96551750D01*
X191183052Y-96551750D01*
X192220112Y-95514690D01*
X202617000Y-95514690D01*
X202617000Y-95980250D01*
X202775750Y-96139000D01*
X203875000Y-96139000D01*
X203875000Y-95164750D01*
X203716250Y-95006000D01*
X203125691Y-95006000D01*
X202892302Y-95102673D01*
X202713673Y-95281301D01*
X202617000Y-95514690D01*
X192220112Y-95514690D01*
X194884362Y-92850440D01*
X200257000Y-92850440D01*
X200492317Y-92806162D01*
X200708441Y-92667090D01*
X200853431Y-92454890D01*
X200904440Y-92203000D01*
X200904440Y-90575242D01*
X205425628Y-95096430D01*
X205300559Y-95176910D01*
X205254031Y-95245006D01*
X205111698Y-95102673D01*
X204878309Y-95006000D01*
X204287750Y-95006000D01*
X204129000Y-95164750D01*
X204129000Y-96139000D01*
X204149000Y-96139000D01*
X204149000Y-96393000D01*
X204129000Y-96393000D01*
X204129000Y-97367250D01*
X204287750Y-97526000D01*
X204878309Y-97526000D01*
X205111698Y-97429327D01*
X205252936Y-97288090D01*
X205287910Y-97342441D01*
X205500110Y-97487431D01*
X205742000Y-97536415D01*
X205742000Y-97879744D01*
X205506999Y-97832999D01*
X202871999Y-97832999D01*
X202581159Y-97890851D01*
X202334598Y-98055598D01*
X199634599Y-100755597D01*
X199469852Y-101002159D01*
X199412000Y-101292998D01*
X199412000Y-115061442D01*
X199186683Y-115103838D01*
X198970559Y-115242910D01*
X198825569Y-115455110D01*
X198774560Y-115707000D01*
X198774560Y-116957000D01*
X198818838Y-117192317D01*
X198957910Y-117408441D01*
X199170110Y-117553431D01*
X199422000Y-117604440D01*
X199589857Y-117604440D01*
X199634599Y-117671401D01*
X200299758Y-118336560D01*
X199322000Y-118336560D01*
X199086683Y-118380838D01*
X198870559Y-118519910D01*
X198725569Y-118732110D01*
X198674560Y-118984000D01*
X198674560Y-120284000D01*
X198718838Y-120519317D01*
X198857910Y-120735441D01*
X199070110Y-120880431D01*
X199322000Y-120931440D01*
X199412000Y-120931440D01*
X199412000Y-122173442D01*
X199186683Y-122215838D01*
X198970559Y-122354910D01*
X198825569Y-122567110D01*
X198774560Y-122819000D01*
X198774560Y-124069000D01*
X198818838Y-124304317D01*
X198933575Y-124482623D01*
X197557198Y-125859000D01*
X191980563Y-125859000D01*
X191780890Y-125722569D01*
X191529000Y-125671560D01*
X189979000Y-125671560D01*
X189743683Y-125715838D01*
X189527559Y-125854910D01*
X189382569Y-126067110D01*
X189331560Y-126319000D01*
X189331560Y-126919000D01*
X189371074Y-127129000D01*
X187214001Y-127129000D01*
X187214001Y-122439750D01*
X190002000Y-122439750D01*
X190002000Y-123030309D01*
X190098673Y-123263698D01*
X190277301Y-123442327D01*
X190510690Y-123539000D01*
X190976250Y-123539000D01*
X191135000Y-123380250D01*
X191135000Y-122281000D01*
X191389000Y-122281000D01*
X191389000Y-123380250D01*
X191547750Y-123539000D01*
X192013310Y-123539000D01*
X192246699Y-123442327D01*
X192425327Y-123263698D01*
X192522000Y-123030309D01*
X192522000Y-122439750D01*
X193304000Y-122439750D01*
X193304000Y-123030309D01*
X193400673Y-123263698D01*
X193579301Y-123442327D01*
X193812690Y-123539000D01*
X194278250Y-123539000D01*
X194437000Y-123380250D01*
X194437000Y-122281000D01*
X194691000Y-122281000D01*
X194691000Y-123380250D01*
X194849750Y-123539000D01*
X195315310Y-123539000D01*
X195548699Y-123442327D01*
X195727327Y-123263698D01*
X195824000Y-123030309D01*
X195824000Y-122439750D01*
X195665250Y-122281000D01*
X194691000Y-122281000D01*
X194437000Y-122281000D01*
X193462750Y-122281000D01*
X193304000Y-122439750D01*
X192522000Y-122439750D01*
X192363250Y-122281000D01*
X191389000Y-122281000D01*
X191135000Y-122281000D01*
X190160750Y-122281000D01*
X190002000Y-122439750D01*
X187214001Y-122439750D01*
X187214001Y-120916050D01*
X187290000Y-120931440D01*
X188790000Y-120931440D01*
X189025317Y-120887162D01*
X189241441Y-120748090D01*
X189386431Y-120535890D01*
X189415164Y-120394000D01*
X189989560Y-120394000D01*
X189989560Y-120404000D01*
X190033838Y-120639317D01*
X190172910Y-120855441D01*
X190241006Y-120901969D01*
X190098673Y-121044302D01*
X190002000Y-121277691D01*
X190002000Y-121868250D01*
X190160750Y-122027000D01*
X191135000Y-122027000D01*
X191135000Y-122007000D01*
X191389000Y-122007000D01*
X191389000Y-122027000D01*
X192363250Y-122027000D01*
X192522000Y-121868250D01*
X192522000Y-121277691D01*
X192425327Y-121044302D01*
X192284090Y-120903064D01*
X192338441Y-120868090D01*
X192483431Y-120655890D01*
X192532415Y-120414000D01*
X193293442Y-120414000D01*
X193335838Y-120639317D01*
X193474910Y-120855441D01*
X193543006Y-120901969D01*
X193400673Y-121044302D01*
X193304000Y-121277691D01*
X193304000Y-121868250D01*
X193462750Y-122027000D01*
X194437000Y-122027000D01*
X194437000Y-122007000D01*
X194691000Y-122007000D01*
X194691000Y-122027000D01*
X195665250Y-122027000D01*
X195824000Y-121868250D01*
X195824000Y-121277691D01*
X195727327Y-121044302D01*
X195586090Y-120903064D01*
X195640441Y-120868090D01*
X195785431Y-120655890D01*
X195836440Y-120404000D01*
X195836440Y-118904000D01*
X195792162Y-118668683D01*
X195653090Y-118452559D01*
X195440890Y-118307569D01*
X195189000Y-118256560D01*
X193939000Y-118256560D01*
X193703683Y-118300838D01*
X193487559Y-118439910D01*
X193342569Y-118652110D01*
X193293585Y-118894000D01*
X192532558Y-118894000D01*
X192490162Y-118668683D01*
X192351090Y-118452559D01*
X192138890Y-118307569D01*
X191893846Y-118257946D01*
X191799401Y-118116599D01*
X191081999Y-117399197D01*
X191081999Y-113596440D01*
X192197000Y-113596440D01*
X192432317Y-113552162D01*
X192648441Y-113413090D01*
X192793431Y-113200890D01*
X192844440Y-112949000D01*
X192844440Y-112349000D01*
X192800162Y-112113683D01*
X192736322Y-112014472D01*
X192793431Y-111930890D01*
X192844440Y-111679000D01*
X192844440Y-111079000D01*
X192800162Y-110843683D01*
X192741822Y-110753020D01*
X192832000Y-110535310D01*
X192832000Y-110394750D01*
X192673250Y-110236000D01*
X191549000Y-110236000D01*
X191549000Y-110256000D01*
X191295000Y-110256000D01*
X191295000Y-110236000D01*
X190170750Y-110236000D01*
X190012000Y-110394750D01*
X190012000Y-110535310D01*
X190101806Y-110752122D01*
X190050569Y-110827110D01*
X189999560Y-111079000D01*
X189999560Y-111251638D01*
X189784598Y-111466600D01*
X189619851Y-111713162D01*
X189561999Y-112004001D01*
X189561999Y-117713999D01*
X189619851Y-118004838D01*
X189784598Y-118251400D01*
X190099321Y-118566123D01*
X190040569Y-118652110D01*
X189995635Y-118874000D01*
X189416742Y-118874000D01*
X189393162Y-118748683D01*
X189254090Y-118532559D01*
X189041890Y-118387569D01*
X188790000Y-118336560D01*
X187290000Y-118336560D01*
X187090613Y-118374077D01*
X186991402Y-118225598D01*
X186887402Y-118121598D01*
X186640840Y-117956851D01*
X186350001Y-117898999D01*
X183295393Y-117898999D01*
X183004554Y-117956851D01*
X182757992Y-118121598D01*
X174663401Y-126216189D01*
X174096084Y-125648872D01*
X174429167Y-125649162D01*
X174772943Y-125507117D01*
X175036192Y-125244327D01*
X175178838Y-124900799D01*
X175178879Y-124853923D01*
X181639401Y-118393401D01*
X181804148Y-118146839D01*
X181862000Y-117856000D01*
X181862000Y-112934750D01*
X184612000Y-112934750D01*
X184612000Y-113075310D01*
X184708673Y-113308699D01*
X184887302Y-113487327D01*
X185120691Y-113584000D01*
X185736250Y-113584000D01*
X185895000Y-113425250D01*
X185895000Y-112776000D01*
X186149000Y-112776000D01*
X186149000Y-113425250D01*
X186307750Y-113584000D01*
X186923309Y-113584000D01*
X187156698Y-113487327D01*
X187335327Y-113308699D01*
X187432000Y-113075310D01*
X187432000Y-112934750D01*
X187273250Y-112776000D01*
X186149000Y-112776000D01*
X185895000Y-112776000D01*
X184770750Y-112776000D01*
X184612000Y-112934750D01*
X181862000Y-112934750D01*
X181862000Y-108412690D01*
X184612000Y-108412690D01*
X184612000Y-108553250D01*
X184770750Y-108712000D01*
X185895000Y-108712000D01*
X185895000Y-108062750D01*
X185736250Y-107904000D01*
X185120691Y-107904000D01*
X184887302Y-108000673D01*
X184708673Y-108179301D01*
X184612000Y-108412690D01*
X181862000Y-108412690D01*
X181862000Y-96551750D01*
X185813000Y-96551750D01*
X185813000Y-97017310D01*
X185909673Y-97250699D01*
X186088302Y-97429327D01*
X186321691Y-97526000D01*
X186912250Y-97526000D01*
X187071000Y-97367250D01*
X187071000Y-96393000D01*
X185971750Y-96393000D01*
X185813000Y-96551750D01*
X181862000Y-96551750D01*
X181862000Y-96142802D01*
X182490112Y-95514690D01*
X185813000Y-95514690D01*
X185813000Y-95980250D01*
X185971750Y-96139000D01*
X187071000Y-96139000D01*
X187071000Y-95164750D01*
X186912250Y-95006000D01*
X186321691Y-95006000D01*
X186088302Y-95102673D01*
X185909673Y-95281301D01*
X185813000Y-95514690D01*
X182490112Y-95514690D01*
X193910113Y-84094689D01*
X194012910Y-84254441D01*
X194225110Y-84399431D01*
X194477000Y-84450440D01*
X195677000Y-84450440D01*
X195912317Y-84406162D01*
X196128441Y-84267090D01*
X196273431Y-84054890D01*
X196324440Y-83803000D01*
X196324440Y-82988750D01*
X198402000Y-82988750D01*
X198402000Y-83929309D01*
X198498673Y-84162698D01*
X198677301Y-84341327D01*
X198910690Y-84438000D01*
X199351250Y-84438000D01*
X199510000Y-84279250D01*
X199510000Y-82830000D01*
X199764000Y-82830000D01*
X199764000Y-84279250D01*
X199922750Y-84438000D01*
X200363310Y-84438000D01*
X200596699Y-84341327D01*
X200775327Y-84162698D01*
X200872000Y-83929309D01*
X200872000Y-83745691D01*
X203718000Y-83745691D01*
X203718000Y-84336250D01*
X203876750Y-84495000D01*
X204851000Y-84495000D01*
X204851000Y-83395750D01*
X205105000Y-83395750D01*
X205105000Y-84495000D01*
X206079250Y-84495000D01*
X206238000Y-84336250D01*
X206238000Y-83745691D01*
X206141327Y-83512302D01*
X205962699Y-83333673D01*
X205729310Y-83237000D01*
X205263750Y-83237000D01*
X205105000Y-83395750D01*
X204851000Y-83395750D01*
X204692250Y-83237000D01*
X204226690Y-83237000D01*
X203993301Y-83333673D01*
X203814673Y-83512302D01*
X203718000Y-83745691D01*
X200872000Y-83745691D01*
X200872000Y-82988750D01*
X200713250Y-82830000D01*
X199764000Y-82830000D01*
X199510000Y-82830000D01*
X198560750Y-82830000D01*
X198402000Y-82988750D01*
X196324440Y-82988750D01*
X196324440Y-81603000D01*
X196280162Y-81367683D01*
X196142017Y-81153000D01*
X198588974Y-81153000D01*
X198498673Y-81243302D01*
G36*
X160401000Y-141605000D02*
X156845000Y-141605000D01*
X156845000Y-135763000D01*
X160401000Y-135763000D01*
X160401000Y-141605000D01*
X160401000Y-141605000D01*
G37*
X160401000Y-141605000D02*
X156845000Y-141605000D01*
X156845000Y-135763000D01*
X160401000Y-135763000D01*
X160401000Y-141605000D01*
G36*
X157494110Y-142932431D02*
X157746000Y-142983440D01*
X159246000Y-142983440D01*
X159385000Y-142957285D01*
X159385000Y-147955000D01*
X156845000Y-147955000D01*
X156845000Y-142921111D01*
X156903167Y-142921162D01*
X157014888Y-142875000D01*
X157410057Y-142875000D01*
X157494110Y-142932431D01*
X157494110Y-142932431D01*
G37*
X157494110Y-142932431D02*
X157746000Y-142983440D01*
X159246000Y-142983440D01*
X159385000Y-142957285D01*
X159385000Y-147955000D01*
X156845000Y-147955000D01*
X156845000Y-142921111D01*
X156903167Y-142921162D01*
X157014888Y-142875000D01*
X157410057Y-142875000D01*
X157494110Y-142932431D01*
M02*
