%FSLAX45Y45*%
G04 Gerber Fmt 4.5, Leading zero omitted, Abs format (unit mm)*
G04 Created by KiCad (PCBNEW 4.0.7-e2-6376~58~ubuntu16.04.1) date Tue Apr 16 15:45:25 2019*
%MOMM*%
%LPD*%
G01*
G04 APERTURE LIST*
%ADD10C,0.127000*%
%ADD11C,0.100000*%
%ADD12C,0.200000*%
%ADD13C,0.300000*%
G04 APERTURE END LIST*
D10*
D11*
X7620000Y-15240000D02*
X7620000Y-5080000D01*
X22860000Y-15240000D02*
X7620000Y-15240000D01*
X22860000Y-5080000D02*
X22860000Y-15240000D01*
X7620000Y-5080000D02*
X22860000Y-5080000D01*
D12*
X9352300Y-5555000D02*
X9672300Y-5875000D01*
X9672300Y-5555000D02*
X9352300Y-5875000D01*
X9352300Y-8695000D02*
X9672300Y-9015000D01*
X9672300Y-8695000D02*
X9352300Y-9015000D01*
X16892300Y-5555000D02*
X17212300Y-5875000D01*
X17212300Y-5555000D02*
X16892300Y-5875000D01*
X16892300Y-8695000D02*
X17212300Y-9015000D01*
X17212300Y-8695000D02*
X16892300Y-9015000D01*
X8343000Y-5588000D02*
G75*
G03X8343000Y-5588000I-215000J0D01*
G01*
X8343000Y-14732000D02*
G75*
G03X8343000Y-14732000I-215000J0D01*
G01*
X22567000Y-5588000D02*
G75*
G03X22567000Y-5588000I-215000J0D01*
G01*
X22567000Y-14732000D02*
G75*
G03X22567000Y-14732000I-215000J0D01*
G01*
D13*
X7886428Y-15710714D02*
X7886428Y-15410714D01*
X7957857Y-15410714D01*
X8000714Y-15425000D01*
X8029286Y-15453571D01*
X8043571Y-15482143D01*
X8057857Y-15539286D01*
X8057857Y-15582143D01*
X8043571Y-15639286D01*
X8029286Y-15667857D01*
X8000714Y-15696429D01*
X7957857Y-15710714D01*
X7886428Y-15710714D01*
X8186428Y-15710714D02*
X8186428Y-15510714D01*
X8186428Y-15567857D02*
X8200714Y-15539286D01*
X8215000Y-15525000D01*
X8243571Y-15510714D01*
X8272143Y-15510714D01*
X8372143Y-15710714D02*
X8372143Y-15510714D01*
X8372143Y-15410714D02*
X8357857Y-15425000D01*
X8372143Y-15439286D01*
X8386428Y-15425000D01*
X8372143Y-15410714D01*
X8372143Y-15439286D01*
X8557857Y-15710714D02*
X8529286Y-15696429D01*
X8515000Y-15667857D01*
X8515000Y-15410714D01*
X8715000Y-15710714D02*
X8686429Y-15696429D01*
X8672143Y-15667857D01*
X8672143Y-15410714D01*
X9057857Y-15710714D02*
X9057857Y-15410714D01*
X9157857Y-15625000D01*
X9257857Y-15410714D01*
X9257857Y-15710714D01*
X9529286Y-15710714D02*
X9529286Y-15553571D01*
X9515000Y-15525000D01*
X9486429Y-15510714D01*
X9429286Y-15510714D01*
X9400714Y-15525000D01*
X9529286Y-15696429D02*
X9500714Y-15710714D01*
X9429286Y-15710714D01*
X9400714Y-15696429D01*
X9386429Y-15667857D01*
X9386429Y-15639286D01*
X9400714Y-15610714D01*
X9429286Y-15596429D01*
X9500714Y-15596429D01*
X9529286Y-15582143D01*
X9672143Y-15510714D02*
X9672143Y-15810714D01*
X9672143Y-15525000D02*
X9700714Y-15510714D01*
X9757857Y-15510714D01*
X9786429Y-15525000D01*
X9800714Y-15539286D01*
X9815000Y-15567857D01*
X9815000Y-15653571D01*
X9800714Y-15682143D01*
X9786429Y-15696429D01*
X9757857Y-15710714D01*
X9700714Y-15710714D01*
X9672143Y-15696429D01*
X9943571Y-15682143D02*
X9957857Y-15696429D01*
X9943571Y-15710714D01*
X9929286Y-15696429D01*
X9943571Y-15682143D01*
X9943571Y-15710714D01*
X9943571Y-15525000D02*
X9957857Y-15539286D01*
X9943571Y-15553571D01*
X9929286Y-15539286D01*
X9943571Y-15525000D01*
X9943571Y-15553571D01*
X7295000Y-16045000D02*
X7615000Y-16365000D01*
X7615000Y-16045000D02*
X7295000Y-16365000D01*
X7857857Y-16040714D02*
X8043571Y-16040714D01*
X7943571Y-16155000D01*
X7986428Y-16155000D01*
X8015000Y-16169286D01*
X8029286Y-16183571D01*
X8043571Y-16212143D01*
X8043571Y-16283571D01*
X8029286Y-16312143D01*
X8015000Y-16326429D01*
X7986428Y-16340714D01*
X7900714Y-16340714D01*
X7872143Y-16326429D01*
X7857857Y-16312143D01*
X8172143Y-16312143D02*
X8186428Y-16326429D01*
X8172143Y-16340714D01*
X8157857Y-16326429D01*
X8172143Y-16312143D01*
X8172143Y-16340714D01*
X8300714Y-16069286D02*
X8315000Y-16055000D01*
X8343571Y-16040714D01*
X8415000Y-16040714D01*
X8443571Y-16055000D01*
X8457857Y-16069286D01*
X8472143Y-16097857D01*
X8472143Y-16126429D01*
X8457857Y-16169286D01*
X8286428Y-16340714D01*
X8472143Y-16340714D01*
X8657857Y-16040714D02*
X8686429Y-16040714D01*
X8715000Y-16055000D01*
X8729286Y-16069286D01*
X8743571Y-16097857D01*
X8757857Y-16155000D01*
X8757857Y-16226429D01*
X8743571Y-16283571D01*
X8729286Y-16312143D01*
X8715000Y-16326429D01*
X8686429Y-16340714D01*
X8657857Y-16340714D01*
X8629286Y-16326429D01*
X8615000Y-16312143D01*
X8600714Y-16283571D01*
X8586429Y-16226429D01*
X8586429Y-16155000D01*
X8600714Y-16097857D01*
X8615000Y-16069286D01*
X8629286Y-16055000D01*
X8657857Y-16040714D01*
X8886429Y-16340714D02*
X8886429Y-16140714D01*
X8886429Y-16169286D02*
X8900714Y-16155000D01*
X8929286Y-16140714D01*
X8972143Y-16140714D01*
X9000714Y-16155000D01*
X9015000Y-16183571D01*
X9015000Y-16340714D01*
X9015000Y-16183571D02*
X9029286Y-16155000D01*
X9057857Y-16140714D01*
X9100714Y-16140714D01*
X9129286Y-16155000D01*
X9143571Y-16183571D01*
X9143571Y-16340714D01*
X9286429Y-16340714D02*
X9286429Y-16140714D01*
X9286429Y-16169286D02*
X9300714Y-16155000D01*
X9329286Y-16140714D01*
X9372143Y-16140714D01*
X9400714Y-16155000D01*
X9415000Y-16183571D01*
X9415000Y-16340714D01*
X9415000Y-16183571D02*
X9429286Y-16155000D01*
X9457857Y-16140714D01*
X9500714Y-16140714D01*
X9529286Y-16155000D01*
X9543571Y-16183571D01*
X9543571Y-16340714D01*
X10129286Y-16026429D02*
X9872143Y-16412143D01*
X10515000Y-16040714D02*
X10543571Y-16040714D01*
X10572143Y-16055000D01*
X10586428Y-16069286D01*
X10600714Y-16097857D01*
X10615000Y-16155000D01*
X10615000Y-16226429D01*
X10600714Y-16283571D01*
X10586428Y-16312143D01*
X10572143Y-16326429D01*
X10543571Y-16340714D01*
X10515000Y-16340714D01*
X10486428Y-16326429D01*
X10472143Y-16312143D01*
X10457857Y-16283571D01*
X10443571Y-16226429D01*
X10443571Y-16155000D01*
X10457857Y-16097857D01*
X10472143Y-16069286D01*
X10486428Y-16055000D01*
X10515000Y-16040714D01*
X10743571Y-16312143D02*
X10757857Y-16326429D01*
X10743571Y-16340714D01*
X10729286Y-16326429D01*
X10743571Y-16312143D01*
X10743571Y-16340714D01*
X11043571Y-16340714D02*
X10872143Y-16340714D01*
X10957857Y-16340714D02*
X10957857Y-16040714D01*
X10929286Y-16083571D01*
X10900714Y-16112143D01*
X10872143Y-16126429D01*
X11157857Y-16069286D02*
X11172143Y-16055000D01*
X11200714Y-16040714D01*
X11272143Y-16040714D01*
X11300714Y-16055000D01*
X11315000Y-16069286D01*
X11329285Y-16097857D01*
X11329285Y-16126429D01*
X11315000Y-16169286D01*
X11143571Y-16340714D01*
X11329285Y-16340714D01*
X11586428Y-16040714D02*
X11529285Y-16040714D01*
X11500714Y-16055000D01*
X11486428Y-16069286D01*
X11457857Y-16112143D01*
X11443571Y-16169286D01*
X11443571Y-16283571D01*
X11457857Y-16312143D01*
X11472143Y-16326429D01*
X11500714Y-16340714D01*
X11557857Y-16340714D01*
X11586428Y-16326429D01*
X11600714Y-16312143D01*
X11615000Y-16283571D01*
X11615000Y-16212143D01*
X11600714Y-16183571D01*
X11586428Y-16169286D01*
X11557857Y-16155000D01*
X11500714Y-16155000D01*
X11472143Y-16169286D01*
X11457857Y-16183571D01*
X11443571Y-16212143D01*
X11729286Y-16040714D02*
X11729286Y-16097857D01*
X11843571Y-16040714D02*
X11843571Y-16097857D01*
X12286428Y-16455000D02*
X12272143Y-16440714D01*
X12243571Y-16397857D01*
X12229285Y-16369286D01*
X12215000Y-16326429D01*
X12200714Y-16255000D01*
X12200714Y-16197857D01*
X12215000Y-16126429D01*
X12229285Y-16083571D01*
X12243571Y-16055000D01*
X12272143Y-16012143D01*
X12286428Y-15997857D01*
X12529285Y-16140714D02*
X12529285Y-16340714D01*
X12457857Y-16026429D02*
X12386428Y-16240714D01*
X12572143Y-16240714D01*
X12915000Y-16340714D02*
X12915000Y-16040714D01*
X13043571Y-16340714D02*
X13043571Y-16183571D01*
X13029285Y-16155000D01*
X13000714Y-16140714D01*
X12957857Y-16140714D01*
X12929285Y-16155000D01*
X12915000Y-16169286D01*
X13229285Y-16340714D02*
X13200714Y-16326429D01*
X13186428Y-16312143D01*
X13172143Y-16283571D01*
X13172143Y-16197857D01*
X13186428Y-16169286D01*
X13200714Y-16155000D01*
X13229285Y-16140714D01*
X13272143Y-16140714D01*
X13300714Y-16155000D01*
X13315000Y-16169286D01*
X13329285Y-16197857D01*
X13329285Y-16283571D01*
X13315000Y-16312143D01*
X13300714Y-16326429D01*
X13272143Y-16340714D01*
X13229285Y-16340714D01*
X13500714Y-16340714D02*
X13472143Y-16326429D01*
X13457857Y-16297857D01*
X13457857Y-16040714D01*
X13729286Y-16326429D02*
X13700714Y-16340714D01*
X13643571Y-16340714D01*
X13615000Y-16326429D01*
X13600714Y-16297857D01*
X13600714Y-16183571D01*
X13615000Y-16155000D01*
X13643571Y-16140714D01*
X13700714Y-16140714D01*
X13729286Y-16155000D01*
X13743571Y-16183571D01*
X13743571Y-16212143D01*
X13600714Y-16240714D01*
X13857857Y-16326429D02*
X13886428Y-16340714D01*
X13943571Y-16340714D01*
X13972143Y-16326429D01*
X13986428Y-16297857D01*
X13986428Y-16283571D01*
X13972143Y-16255000D01*
X13943571Y-16240714D01*
X13900714Y-16240714D01*
X13872143Y-16226429D01*
X13857857Y-16197857D01*
X13857857Y-16183571D01*
X13872143Y-16155000D01*
X13900714Y-16140714D01*
X13943571Y-16140714D01*
X13972143Y-16155000D01*
X14086428Y-16455000D02*
X14100714Y-16440714D01*
X14129286Y-16397857D01*
X14143571Y-16369286D01*
X14157857Y-16326429D01*
X14172143Y-16255000D01*
X14172143Y-16197857D01*
X14157857Y-16126429D01*
X14143571Y-16083571D01*
X14129286Y-16055000D01*
X14100714Y-16012143D01*
X14086428Y-15997857D01*
X14629286Y-16455000D02*
X14615000Y-16440714D01*
X14586428Y-16397857D01*
X14572143Y-16369286D01*
X14557857Y-16326429D01*
X14543571Y-16255000D01*
X14543571Y-16197857D01*
X14557857Y-16126429D01*
X14572143Y-16083571D01*
X14586428Y-16055000D01*
X14615000Y-16012143D01*
X14629286Y-15997857D01*
X14743571Y-16140714D02*
X14743571Y-16340714D01*
X14743571Y-16169286D02*
X14757857Y-16155000D01*
X14786428Y-16140714D01*
X14829286Y-16140714D01*
X14857857Y-16155000D01*
X14872143Y-16183571D01*
X14872143Y-16340714D01*
X15057857Y-16340714D02*
X15029286Y-16326429D01*
X15015000Y-16312143D01*
X15000714Y-16283571D01*
X15000714Y-16197857D01*
X15015000Y-16169286D01*
X15029286Y-16155000D01*
X15057857Y-16140714D01*
X15100714Y-16140714D01*
X15129286Y-16155000D01*
X15143571Y-16169286D01*
X15157857Y-16197857D01*
X15157857Y-16283571D01*
X15143571Y-16312143D01*
X15129286Y-16326429D01*
X15100714Y-16340714D01*
X15057857Y-16340714D01*
X15243571Y-16140714D02*
X15357857Y-16140714D01*
X15286428Y-16040714D02*
X15286428Y-16297857D01*
X15300714Y-16326429D01*
X15329286Y-16340714D01*
X15357857Y-16340714D01*
X15686428Y-16140714D02*
X15686428Y-16440714D01*
X15686428Y-16155000D02*
X15715000Y-16140714D01*
X15772143Y-16140714D01*
X15800714Y-16155000D01*
X15815000Y-16169286D01*
X15829286Y-16197857D01*
X15829286Y-16283571D01*
X15815000Y-16312143D01*
X15800714Y-16326429D01*
X15772143Y-16340714D01*
X15715000Y-16340714D01*
X15686428Y-16326429D01*
X16000714Y-16340714D02*
X15972143Y-16326429D01*
X15957857Y-16297857D01*
X15957857Y-16040714D01*
X16243571Y-16340714D02*
X16243571Y-16183571D01*
X16229286Y-16155000D01*
X16200714Y-16140714D01*
X16143571Y-16140714D01*
X16115000Y-16155000D01*
X16243571Y-16326429D02*
X16215000Y-16340714D01*
X16143571Y-16340714D01*
X16115000Y-16326429D01*
X16100714Y-16297857D01*
X16100714Y-16269286D01*
X16115000Y-16240714D01*
X16143571Y-16226429D01*
X16215000Y-16226429D01*
X16243571Y-16212143D01*
X16343571Y-16140714D02*
X16457857Y-16140714D01*
X16386429Y-16040714D02*
X16386429Y-16297857D01*
X16400714Y-16326429D01*
X16429286Y-16340714D01*
X16457857Y-16340714D01*
X16672143Y-16326429D02*
X16643571Y-16340714D01*
X16586429Y-16340714D01*
X16557857Y-16326429D01*
X16543571Y-16297857D01*
X16543571Y-16183571D01*
X16557857Y-16155000D01*
X16586429Y-16140714D01*
X16643571Y-16140714D01*
X16672143Y-16155000D01*
X16686429Y-16183571D01*
X16686429Y-16212143D01*
X16543571Y-16240714D01*
X16943572Y-16340714D02*
X16943572Y-16040714D01*
X16943572Y-16326429D02*
X16915000Y-16340714D01*
X16857857Y-16340714D01*
X16829286Y-16326429D01*
X16815000Y-16312143D01*
X16800714Y-16283571D01*
X16800714Y-16197857D01*
X16815000Y-16169286D01*
X16829286Y-16155000D01*
X16857857Y-16140714D01*
X16915000Y-16140714D01*
X16943572Y-16155000D01*
X17057857Y-16455000D02*
X17072143Y-16440714D01*
X17100714Y-16397857D01*
X17115000Y-16369286D01*
X17129286Y-16326429D01*
X17143572Y-16255000D01*
X17143572Y-16197857D01*
X17129286Y-16126429D01*
X17115000Y-16083571D01*
X17100714Y-16055000D01*
X17072143Y-16012143D01*
X17057857Y-15997857D01*
X7615000Y-16655000D02*
G75*
G03X7615000Y-16655000I-215000J0D01*
G01*
X8015000Y-16590714D02*
X8015000Y-16790714D01*
X7943571Y-16476429D02*
X7872143Y-16690714D01*
X8057857Y-16690714D01*
X8172143Y-16762143D02*
X8186428Y-16776429D01*
X8172143Y-16790714D01*
X8157857Y-16776429D01*
X8172143Y-16762143D01*
X8172143Y-16790714D01*
X8286428Y-16490714D02*
X8472143Y-16490714D01*
X8372143Y-16605000D01*
X8415000Y-16605000D01*
X8443571Y-16619286D01*
X8457857Y-16633571D01*
X8472143Y-16662143D01*
X8472143Y-16733571D01*
X8457857Y-16762143D01*
X8443571Y-16776429D01*
X8415000Y-16790714D01*
X8329286Y-16790714D01*
X8300714Y-16776429D01*
X8286428Y-16762143D01*
X8657857Y-16490714D02*
X8686429Y-16490714D01*
X8715000Y-16505000D01*
X8729286Y-16519286D01*
X8743571Y-16547857D01*
X8757857Y-16605000D01*
X8757857Y-16676429D01*
X8743571Y-16733571D01*
X8729286Y-16762143D01*
X8715000Y-16776429D01*
X8686429Y-16790714D01*
X8657857Y-16790714D01*
X8629286Y-16776429D01*
X8615000Y-16762143D01*
X8600714Y-16733571D01*
X8586429Y-16676429D01*
X8586429Y-16605000D01*
X8600714Y-16547857D01*
X8615000Y-16519286D01*
X8629286Y-16505000D01*
X8657857Y-16490714D01*
X8886429Y-16790714D02*
X8886429Y-16590714D01*
X8886429Y-16619286D02*
X8900714Y-16605000D01*
X8929286Y-16590714D01*
X8972143Y-16590714D01*
X9000714Y-16605000D01*
X9015000Y-16633571D01*
X9015000Y-16790714D01*
X9015000Y-16633571D02*
X9029286Y-16605000D01*
X9057857Y-16590714D01*
X9100714Y-16590714D01*
X9129286Y-16605000D01*
X9143571Y-16633571D01*
X9143571Y-16790714D01*
X9286429Y-16790714D02*
X9286429Y-16590714D01*
X9286429Y-16619286D02*
X9300714Y-16605000D01*
X9329286Y-16590714D01*
X9372143Y-16590714D01*
X9400714Y-16605000D01*
X9415000Y-16633571D01*
X9415000Y-16790714D01*
X9415000Y-16633571D02*
X9429286Y-16605000D01*
X9457857Y-16590714D01*
X9500714Y-16590714D01*
X9529286Y-16605000D01*
X9543571Y-16633571D01*
X9543571Y-16790714D01*
X10129286Y-16476429D02*
X9872143Y-16862143D01*
X10515000Y-16490714D02*
X10543571Y-16490714D01*
X10572143Y-16505000D01*
X10586428Y-16519286D01*
X10600714Y-16547857D01*
X10615000Y-16605000D01*
X10615000Y-16676429D01*
X10600714Y-16733571D01*
X10586428Y-16762143D01*
X10572143Y-16776429D01*
X10543571Y-16790714D01*
X10515000Y-16790714D01*
X10486428Y-16776429D01*
X10472143Y-16762143D01*
X10457857Y-16733571D01*
X10443571Y-16676429D01*
X10443571Y-16605000D01*
X10457857Y-16547857D01*
X10472143Y-16519286D01*
X10486428Y-16505000D01*
X10515000Y-16490714D01*
X10743571Y-16762143D02*
X10757857Y-16776429D01*
X10743571Y-16790714D01*
X10729286Y-16776429D01*
X10743571Y-16762143D01*
X10743571Y-16790714D01*
X11043571Y-16790714D02*
X10872143Y-16790714D01*
X10957857Y-16790714D02*
X10957857Y-16490714D01*
X10929286Y-16533571D01*
X10900714Y-16562143D01*
X10872143Y-16576429D01*
X11300714Y-16490714D02*
X11243571Y-16490714D01*
X11215000Y-16505000D01*
X11200714Y-16519286D01*
X11172143Y-16562143D01*
X11157857Y-16619286D01*
X11157857Y-16733571D01*
X11172143Y-16762143D01*
X11186428Y-16776429D01*
X11215000Y-16790714D01*
X11272143Y-16790714D01*
X11300714Y-16776429D01*
X11315000Y-16762143D01*
X11329285Y-16733571D01*
X11329285Y-16662143D01*
X11315000Y-16633571D01*
X11300714Y-16619286D01*
X11272143Y-16605000D01*
X11215000Y-16605000D01*
X11186428Y-16619286D01*
X11172143Y-16633571D01*
X11157857Y-16662143D01*
X11472143Y-16790714D02*
X11529285Y-16790714D01*
X11557857Y-16776429D01*
X11572143Y-16762143D01*
X11600714Y-16719286D01*
X11615000Y-16662143D01*
X11615000Y-16547857D01*
X11600714Y-16519286D01*
X11586428Y-16505000D01*
X11557857Y-16490714D01*
X11500714Y-16490714D01*
X11472143Y-16505000D01*
X11457857Y-16519286D01*
X11443571Y-16547857D01*
X11443571Y-16619286D01*
X11457857Y-16647857D01*
X11472143Y-16662143D01*
X11500714Y-16676429D01*
X11557857Y-16676429D01*
X11586428Y-16662143D01*
X11600714Y-16647857D01*
X11615000Y-16619286D01*
X11729286Y-16490714D02*
X11729286Y-16547857D01*
X11843571Y-16490714D02*
X11843571Y-16547857D01*
X12286428Y-16905000D02*
X12272143Y-16890714D01*
X12243571Y-16847857D01*
X12229285Y-16819286D01*
X12215000Y-16776429D01*
X12200714Y-16705000D01*
X12200714Y-16647857D01*
X12215000Y-16576429D01*
X12229285Y-16533571D01*
X12243571Y-16505000D01*
X12272143Y-16462143D01*
X12286428Y-16447857D01*
X12529285Y-16590714D02*
X12529285Y-16790714D01*
X12457857Y-16476429D02*
X12386428Y-16690714D01*
X12572143Y-16690714D01*
X12915000Y-16790714D02*
X12915000Y-16490714D01*
X13043571Y-16790714D02*
X13043571Y-16633571D01*
X13029285Y-16605000D01*
X13000714Y-16590714D01*
X12957857Y-16590714D01*
X12929285Y-16605000D01*
X12915000Y-16619286D01*
X13229285Y-16790714D02*
X13200714Y-16776429D01*
X13186428Y-16762143D01*
X13172143Y-16733571D01*
X13172143Y-16647857D01*
X13186428Y-16619286D01*
X13200714Y-16605000D01*
X13229285Y-16590714D01*
X13272143Y-16590714D01*
X13300714Y-16605000D01*
X13315000Y-16619286D01*
X13329285Y-16647857D01*
X13329285Y-16733571D01*
X13315000Y-16762143D01*
X13300714Y-16776429D01*
X13272143Y-16790714D01*
X13229285Y-16790714D01*
X13500714Y-16790714D02*
X13472143Y-16776429D01*
X13457857Y-16747857D01*
X13457857Y-16490714D01*
X13729286Y-16776429D02*
X13700714Y-16790714D01*
X13643571Y-16790714D01*
X13615000Y-16776429D01*
X13600714Y-16747857D01*
X13600714Y-16633571D01*
X13615000Y-16605000D01*
X13643571Y-16590714D01*
X13700714Y-16590714D01*
X13729286Y-16605000D01*
X13743571Y-16633571D01*
X13743571Y-16662143D01*
X13600714Y-16690714D01*
X13857857Y-16776429D02*
X13886428Y-16790714D01*
X13943571Y-16790714D01*
X13972143Y-16776429D01*
X13986428Y-16747857D01*
X13986428Y-16733571D01*
X13972143Y-16705000D01*
X13943571Y-16690714D01*
X13900714Y-16690714D01*
X13872143Y-16676429D01*
X13857857Y-16647857D01*
X13857857Y-16633571D01*
X13872143Y-16605000D01*
X13900714Y-16590714D01*
X13943571Y-16590714D01*
X13972143Y-16605000D01*
X14086428Y-16905000D02*
X14100714Y-16890714D01*
X14129286Y-16847857D01*
X14143571Y-16819286D01*
X14157857Y-16776429D01*
X14172143Y-16705000D01*
X14172143Y-16647857D01*
X14157857Y-16576429D01*
X14143571Y-16533571D01*
X14129286Y-16505000D01*
X14100714Y-16462143D01*
X14086428Y-16447857D01*
X14629286Y-16905000D02*
X14615000Y-16890714D01*
X14586428Y-16847857D01*
X14572143Y-16819286D01*
X14557857Y-16776429D01*
X14543571Y-16705000D01*
X14543571Y-16647857D01*
X14557857Y-16576429D01*
X14572143Y-16533571D01*
X14586428Y-16505000D01*
X14615000Y-16462143D01*
X14629286Y-16447857D01*
X14743571Y-16590714D02*
X14743571Y-16790714D01*
X14743571Y-16619286D02*
X14757857Y-16605000D01*
X14786428Y-16590714D01*
X14829286Y-16590714D01*
X14857857Y-16605000D01*
X14872143Y-16633571D01*
X14872143Y-16790714D01*
X15057857Y-16790714D02*
X15029286Y-16776429D01*
X15015000Y-16762143D01*
X15000714Y-16733571D01*
X15000714Y-16647857D01*
X15015000Y-16619286D01*
X15029286Y-16605000D01*
X15057857Y-16590714D01*
X15100714Y-16590714D01*
X15129286Y-16605000D01*
X15143571Y-16619286D01*
X15157857Y-16647857D01*
X15157857Y-16733571D01*
X15143571Y-16762143D01*
X15129286Y-16776429D01*
X15100714Y-16790714D01*
X15057857Y-16790714D01*
X15243571Y-16590714D02*
X15357857Y-16590714D01*
X15286428Y-16490714D02*
X15286428Y-16747857D01*
X15300714Y-16776429D01*
X15329286Y-16790714D01*
X15357857Y-16790714D01*
X15686428Y-16590714D02*
X15686428Y-16890714D01*
X15686428Y-16605000D02*
X15715000Y-16590714D01*
X15772143Y-16590714D01*
X15800714Y-16605000D01*
X15815000Y-16619286D01*
X15829286Y-16647857D01*
X15829286Y-16733571D01*
X15815000Y-16762143D01*
X15800714Y-16776429D01*
X15772143Y-16790714D01*
X15715000Y-16790714D01*
X15686428Y-16776429D01*
X16000714Y-16790714D02*
X15972143Y-16776429D01*
X15957857Y-16747857D01*
X15957857Y-16490714D01*
X16243571Y-16790714D02*
X16243571Y-16633571D01*
X16229286Y-16605000D01*
X16200714Y-16590714D01*
X16143571Y-16590714D01*
X16115000Y-16605000D01*
X16243571Y-16776429D02*
X16215000Y-16790714D01*
X16143571Y-16790714D01*
X16115000Y-16776429D01*
X16100714Y-16747857D01*
X16100714Y-16719286D01*
X16115000Y-16690714D01*
X16143571Y-16676429D01*
X16215000Y-16676429D01*
X16243571Y-16662143D01*
X16343571Y-16590714D02*
X16457857Y-16590714D01*
X16386429Y-16490714D02*
X16386429Y-16747857D01*
X16400714Y-16776429D01*
X16429286Y-16790714D01*
X16457857Y-16790714D01*
X16672143Y-16776429D02*
X16643571Y-16790714D01*
X16586429Y-16790714D01*
X16557857Y-16776429D01*
X16543571Y-16747857D01*
X16543571Y-16633571D01*
X16557857Y-16605000D01*
X16586429Y-16590714D01*
X16643571Y-16590714D01*
X16672143Y-16605000D01*
X16686429Y-16633571D01*
X16686429Y-16662143D01*
X16543571Y-16690714D01*
X16943572Y-16790714D02*
X16943572Y-16490714D01*
X16943572Y-16776429D02*
X16915000Y-16790714D01*
X16857857Y-16790714D01*
X16829286Y-16776429D01*
X16815000Y-16762143D01*
X16800714Y-16733571D01*
X16800714Y-16647857D01*
X16815000Y-16619286D01*
X16829286Y-16605000D01*
X16857857Y-16590714D01*
X16915000Y-16590714D01*
X16943572Y-16605000D01*
X17057857Y-16905000D02*
X17072143Y-16890714D01*
X17100714Y-16847857D01*
X17115000Y-16819286D01*
X17129286Y-16776429D01*
X17143572Y-16705000D01*
X17143572Y-16647857D01*
X17129286Y-16576429D01*
X17115000Y-16533571D01*
X17100714Y-16505000D01*
X17072143Y-16462143D01*
X17057857Y-16447857D01*
M02*
