G04 #@! TF.FileFunction,Soldermask,Top*
%FSLAX46Y46*%
G04 Gerber Fmt 4.6, Leading zero omitted, Abs format (unit mm)*
G04 Created by KiCad (PCBNEW 4.0.7-e2-6376~58~ubuntu16.04.1) date Tue Apr 16 15:45:19 2019*
%MOMM*%
%LPD*%
G01*
G04 APERTURE LIST*
%ADD10C,0.100000*%
%ADD11R,1.700000X1.700000*%
%ADD12O,1.700000X1.700000*%
%ADD13R,1.200000X2.200000*%
%ADD14R,5.800000X6.400000*%
%ADD15C,3.200000*%
%ADD16C,4.300000*%
%ADD17R,2.000000X2.000000*%
%ADD18C,2.000000*%
%ADD19R,1.250000X1.500000*%
%ADD20R,2.700000X3.750000*%
%ADD21R,1.500000X1.250000*%
%ADD22R,1.500000X2.400000*%
%ADD23R,1.500000X1.050000*%
%ADD24R,1.980000X3.960000*%
%ADD25O,1.980000X3.960000*%
%ADD26R,1.727200X1.727200*%
%ADD27O,1.727200X1.727200*%
%ADD28R,1.500000X1.300000*%
%ADD29R,0.900000X0.800000*%
%ADD30R,1.300000X1.500000*%
%ADD31C,2.340000*%
%ADD32C,1.500000*%
%ADD33R,3.200000X2.000000*%
%ADD34O,3.048000X1.727200*%
%ADD35R,1.600000X2.000000*%
%ADD36R,0.250000X1.000000*%
%ADD37R,1.000000X0.250000*%
%ADD38R,1.060000X0.650000*%
%ADD39R,1.550000X0.600000*%
%ADD40R,7.875000X2.000000*%
%ADD41R,2.850000X1.430000*%
%ADD42C,1.000000*%
%ADD43C,3.000000*%
%ADD44C,1.400000*%
%ADD45R,1.400000X1.400000*%
%ADD46R,2.400000X1.500000*%
%ADD47R,1.050000X1.500000*%
G04 APERTURE END LIST*
D10*
D11*
X109474000Y-56134000D03*
D12*
X112014000Y-56134000D03*
X114554000Y-56134000D03*
X117094000Y-56134000D03*
X119634000Y-56134000D03*
X122174000Y-56134000D03*
X124714000Y-56134000D03*
X127254000Y-56134000D03*
X129794000Y-56134000D03*
X132334000Y-56134000D03*
X134874000Y-56134000D03*
X137414000Y-56134000D03*
X139954000Y-56134000D03*
X142494000Y-56134000D03*
X145034000Y-56134000D03*
X147574000Y-56134000D03*
D13*
X141484000Y-104530000D03*
X146044000Y-104530000D03*
D14*
X143764000Y-98230000D03*
D15*
X170523000Y-88550000D03*
X95123000Y-57150000D03*
X170523000Y-57150000D03*
X95123000Y-88550000D03*
D16*
X81280000Y-55880000D03*
X223520000Y-55880000D03*
X223520000Y-147320000D03*
X81280000Y-147320000D03*
D17*
X150622000Y-122194000D03*
D18*
X150622000Y-129794000D03*
D19*
X137922000Y-99334000D03*
X137922000Y-101834000D03*
X134366000Y-99334000D03*
X134366000Y-101834000D03*
X183134000Y-147300000D03*
X183134000Y-144800000D03*
D20*
X177292000Y-148555000D03*
X177292000Y-141005000D03*
D21*
X159278000Y-121412000D03*
X161778000Y-121412000D03*
X118003046Y-84229194D03*
X120503046Y-84229194D03*
X106319046Y-84229194D03*
X108819046Y-84229194D03*
D19*
X128524000Y-100056000D03*
X128524000Y-97556000D03*
X116840000Y-100056000D03*
X116840000Y-97556000D03*
X173482000Y-64790000D03*
X173482000Y-67290000D03*
X86106000Y-94508000D03*
X86106000Y-97008000D03*
X227076000Y-71100000D03*
X227076000Y-68600000D03*
X227076000Y-90404000D03*
X227076000Y-87904000D03*
X173482000Y-74890000D03*
X173482000Y-72390000D03*
D21*
X206502000Y-96266000D03*
X204002000Y-96266000D03*
X203962000Y-102870000D03*
X206462000Y-102870000D03*
D19*
X204978000Y-87122000D03*
X204978000Y-84622000D03*
X215138000Y-122154000D03*
X215138000Y-119654000D03*
D21*
X223286000Y-116332000D03*
X225786000Y-116332000D03*
D19*
X219368999Y-122320998D03*
X219368999Y-119820998D03*
D21*
X223560000Y-123444000D03*
X226060000Y-123444000D03*
X189698000Y-96266000D03*
X187198000Y-96266000D03*
X186984000Y-102870000D03*
X189484000Y-102870000D03*
D19*
X191262000Y-119654000D03*
X191262000Y-122154000D03*
D21*
X200172000Y-116332000D03*
X202672000Y-116332000D03*
D19*
X194564000Y-119654000D03*
X194564000Y-122154000D03*
D21*
X200172000Y-123444000D03*
X202672000Y-123444000D03*
D22*
X158496000Y-141136000D03*
D23*
X158496000Y-143511000D03*
D11*
X135588859Y-113792000D03*
D12*
X135588859Y-116332000D03*
X135588859Y-118872000D03*
D11*
X143256000Y-113792000D03*
D12*
X143256000Y-116332000D03*
X143256000Y-118872000D03*
D24*
X145114000Y-143510000D03*
D25*
X150114000Y-143510000D03*
D24*
X129112000Y-143510000D03*
D25*
X134112000Y-143510000D03*
D26*
X94234000Y-146304000D03*
D27*
X94234000Y-143764000D03*
X96774000Y-146304000D03*
X96774000Y-143764000D03*
X99314000Y-146304000D03*
X99314000Y-143764000D03*
X101854000Y-146304000D03*
X101854000Y-143764000D03*
X104394000Y-146304000D03*
X104394000Y-143764000D03*
X106934000Y-146304000D03*
X106934000Y-143764000D03*
X109474000Y-146304000D03*
X109474000Y-143764000D03*
X112014000Y-146304000D03*
X112014000Y-143764000D03*
X114554000Y-146304000D03*
X114554000Y-143764000D03*
X117094000Y-146304000D03*
X117094000Y-143764000D03*
D26*
X178054000Y-99568000D03*
D27*
X178054000Y-102108000D03*
X175514000Y-99568000D03*
X175514000Y-102108000D03*
X172974000Y-99568000D03*
X172974000Y-102108000D03*
X170434000Y-99568000D03*
X170434000Y-102108000D03*
X167894000Y-99568000D03*
X167894000Y-102108000D03*
X165354000Y-99568000D03*
X165354000Y-102108000D03*
X162814000Y-99568000D03*
X162814000Y-102108000D03*
X160274000Y-99568000D03*
X160274000Y-102108000D03*
X157734000Y-99568000D03*
X157734000Y-102108000D03*
X155194000Y-99568000D03*
X155194000Y-102108000D03*
D24*
X206074000Y-143510000D03*
D25*
X211074000Y-143510000D03*
D24*
X191008000Y-143510000D03*
D25*
X196008000Y-143510000D03*
D11*
X87630000Y-111506000D03*
D12*
X87630000Y-108966000D03*
X87630000Y-106426000D03*
D28*
X203882000Y-99568000D03*
X206582000Y-99568000D03*
X223440000Y-119634000D03*
X226140000Y-119634000D03*
X186864000Y-99568000D03*
X189564000Y-99568000D03*
X200072000Y-119634000D03*
X202772000Y-119634000D03*
X79930000Y-119634000D03*
X82630000Y-119634000D03*
D29*
X127016000Y-132146000D03*
X127016000Y-134046000D03*
X129016000Y-133096000D03*
X161798000Y-127508000D03*
X161798000Y-125608000D03*
X159798000Y-126558000D03*
D30*
X123444000Y-132080000D03*
X123444000Y-129380000D03*
X134366000Y-134700000D03*
X134366000Y-132000000D03*
D28*
X133350000Y-116078000D03*
X130650000Y-116078000D03*
D30*
X139954000Y-118778000D03*
X139954000Y-116078000D03*
X123444000Y-137066000D03*
X123444000Y-134366000D03*
D28*
X154004000Y-117348000D03*
X151304000Y-117348000D03*
D30*
X167132000Y-130730000D03*
X167132000Y-133430000D03*
X167132000Y-125062000D03*
X167132000Y-127762000D03*
D28*
X79930000Y-116332000D03*
X82630000Y-116332000D03*
D30*
X177038000Y-67390000D03*
X177038000Y-64690000D03*
D28*
X96106000Y-126746000D03*
X98806000Y-126746000D03*
X98806000Y-129286000D03*
X96106000Y-129286000D03*
D30*
X177038000Y-72310000D03*
X177038000Y-75010000D03*
X204216000Y-129286000D03*
X204216000Y-126586000D03*
D28*
X211488000Y-119634000D03*
X208788000Y-119634000D03*
X219630000Y-128016000D03*
X222330000Y-128016000D03*
D30*
X180594000Y-129366000D03*
X180594000Y-126666000D03*
D28*
X188040000Y-119634000D03*
X185340000Y-119634000D03*
X193976000Y-128016000D03*
X196676000Y-128016000D03*
D31*
X78740000Y-71628000D03*
X88740000Y-74128000D03*
X78740000Y-76628000D03*
D32*
X196342000Y-72390000D03*
X196342000Y-67390000D03*
D33*
X189342000Y-75490000D03*
X189342000Y-64290000D03*
D18*
X181842000Y-72390000D03*
X181842000Y-69890000D03*
D17*
X181842000Y-67390000D03*
D34*
X223520000Y-67390000D03*
X223520000Y-72390000D03*
X211020000Y-67390000D03*
X211020000Y-72390000D03*
X223774000Y-86868000D03*
X223774000Y-91868000D03*
X211274000Y-86868000D03*
X211274000Y-91868000D03*
D35*
X80986999Y-92367332D03*
X80986999Y-97767332D03*
D13*
X168396000Y-141020000D03*
X163836000Y-141020000D03*
D14*
X166116000Y-147320000D03*
D36*
X115510000Y-105806000D03*
X115010000Y-105806000D03*
X114510000Y-105806000D03*
X114010000Y-105806000D03*
X113510000Y-105806000D03*
X113010000Y-105806000D03*
X112510000Y-105806000D03*
X112010000Y-105806000D03*
X111510000Y-105806000D03*
X111010000Y-105806000D03*
X110510000Y-105806000D03*
X110010000Y-105806000D03*
X109510000Y-105806000D03*
X109010000Y-105806000D03*
X108510000Y-105806000D03*
X108010000Y-105806000D03*
D37*
X106060000Y-107756000D03*
X106060000Y-108256000D03*
X106060000Y-108756000D03*
X106060000Y-109256000D03*
X106060000Y-109756000D03*
X106060000Y-110256000D03*
X106060000Y-110756000D03*
X106060000Y-111256000D03*
X106060000Y-111756000D03*
X106060000Y-112256000D03*
X106060000Y-112756000D03*
X106060000Y-113256000D03*
X106060000Y-113756000D03*
X106060000Y-114256000D03*
X106060000Y-114756000D03*
X106060000Y-115256000D03*
D36*
X108010000Y-117206000D03*
X108510000Y-117206000D03*
X109010000Y-117206000D03*
X109510000Y-117206000D03*
X110010000Y-117206000D03*
X110510000Y-117206000D03*
X111010000Y-117206000D03*
X111510000Y-117206000D03*
X112010000Y-117206000D03*
X112510000Y-117206000D03*
X113010000Y-117206000D03*
X113510000Y-117206000D03*
X114010000Y-117206000D03*
X114510000Y-117206000D03*
X115010000Y-117206000D03*
X115510000Y-117206000D03*
D37*
X117460000Y-115256000D03*
X117460000Y-114756000D03*
X117460000Y-114256000D03*
X117460000Y-113756000D03*
X117460000Y-113256000D03*
X117460000Y-112756000D03*
X117460000Y-112256000D03*
X117460000Y-111756000D03*
X117460000Y-111256000D03*
X117460000Y-110756000D03*
X117460000Y-110256000D03*
X117460000Y-109756000D03*
X117460000Y-109256000D03*
X117460000Y-108756000D03*
X117460000Y-108256000D03*
X117460000Y-107756000D03*
D38*
X98552000Y-135382000D03*
X98552000Y-134432000D03*
X98552000Y-133482000D03*
X96352000Y-133482000D03*
X96352000Y-135382000D03*
X96352000Y-134432000D03*
D13*
X199637000Y-82703000D03*
X195077000Y-82703000D03*
D14*
X197357000Y-89003000D03*
D39*
X209390000Y-126619000D03*
X209390000Y-127889000D03*
X209390000Y-129159000D03*
X209390000Y-130429000D03*
X214790000Y-130429000D03*
X214790000Y-129159000D03*
X214790000Y-127889000D03*
X214790000Y-126619000D03*
X185354000Y-126619000D03*
X185354000Y-127889000D03*
X185354000Y-129159000D03*
X185354000Y-130429000D03*
X190754000Y-130429000D03*
X190754000Y-129159000D03*
X190754000Y-127889000D03*
X190754000Y-126619000D03*
D40*
X118078546Y-89563194D03*
X106203546Y-89563194D03*
D41*
X125519000Y-99843000D03*
X125519000Y-94213000D03*
X121369000Y-94213000D03*
X121369000Y-99843000D03*
D42*
X124182000Y-97536000D03*
X122682000Y-97536000D03*
D43*
X85598000Y-124104000D03*
D44*
X85108000Y-128874000D03*
X85108000Y-131374000D03*
D45*
X82358000Y-128874000D03*
D43*
X85598000Y-136144000D03*
D44*
X82358000Y-131374000D03*
D39*
X210754000Y-108712000D03*
X210754000Y-109982000D03*
X210754000Y-111252000D03*
X210754000Y-112522000D03*
X216154000Y-112522000D03*
X216154000Y-111252000D03*
X216154000Y-109982000D03*
X216154000Y-108712000D03*
X186022000Y-108839000D03*
X186022000Y-110109000D03*
X186022000Y-111379000D03*
X186022000Y-112649000D03*
X191422000Y-112649000D03*
X191422000Y-111379000D03*
X191422000Y-110109000D03*
X191422000Y-108839000D03*
D46*
X132080000Y-128524000D03*
D47*
X129705000Y-128524000D03*
D46*
X162022000Y-133350000D03*
D47*
X159647000Y-133350000D03*
M02*
