M48
;DRILL file {KiCad 4.0.7-e2-6376~58~ubuntu16.04.1} date Tue Apr 16 15:45:24 2019
;FORMAT={-:-/ absolute / metric / decimal}
FMAT,2
METRIC,TZ
T1C0.400
T2C0.500
T3C0.813
T4C0.920
T5C1.000
T6C1.016
T7C1.300
T8C1.320
T9C1.500
T10C2.300
%
G90
G05
M71
T1
X76.708Y-110.236
X78.486Y-105.918
X78.74Y-68.834
X79.285Y-80.554
X80.518Y-64.262
X81.28Y-83.058
X87.376Y-98.552
X92.71Y-112.776
X95.504Y-118.364
X95.758Y-103.124
X96.012Y-111.506
X96.012Y-130.556
X97.79Y-109.22
X97.79Y-110.49
X99.06Y-97.282
X99.06Y-118.364
X99.314Y-108.966
X99.568Y-109.728
X99.822Y-134.366
X100.582Y-131.574
X100.645Y-129.601
X101.092Y-130.556
X101.346Y-112.268
X102.616Y-125.476
X103.124Y-108.458
X103.378Y-116.078
X104.14Y-114.3
X105.41Y-82.55
X105.918Y-119.634
X106.934Y-104.902
X107.442Y-112.268
X107.52Y-101.846
X107.696Y-115.824
X107.696Y-126.746
X108.204Y-77.47
X108.458Y-112.522
X108.458Y-107.95
X108.765Y-103.513
X109.22Y-101.6
X109.22Y-115.316
X109.923Y-104.14
X110.236Y-115.316
X110.236Y-120.142
X110.373Y-63.136
X110.998Y-107.442
X110.998Y-118.872
X110.998Y-126.746
X111.76Y-103.886
X111.76Y-122.174
X112.012Y-115.451
X113.147Y-107.542
X113.147Y-114.3
X113.538Y-118.618
X113.538Y-123.952
X113.597Y-113.03
X113.879Y-119.342
X114.367Y-119.975
X114.554Y-127.254
X115.003Y-115.839
X115.453Y-120.904
X115.57Y-104.394
X115.57Y-107.95
X115.824Y-58.928
X115.824Y-97.79
X115.824Y-113.792
X116.078Y-137.16
X116.118Y-106.437
X116.586Y-57.912
X116.586Y-61.214
X116.82Y-105.156
X117.094Y-118.618
X118.11Y-129.286
X118.645Y-120.274
X118.83Y-115.053
X119.126Y-116.84
X119.218Y-112.593
X119.888Y-109.881
X119.943Y-113.083
X120.824Y-110.724
X120.85Y-114.124
X120.904Y-109.474
X121.412Y-115.316
X121.92Y-129.286
X122.174Y-137.414
X122.682Y-109.728
X122.936Y-118.872
X123.19Y-112.385
X123.19Y-121.92
X123.698Y-105.664
X123.698Y-118.11
X124.91Y-114.029
X131.826Y-97.536
X132.588Y-53.594
X139.7Y-96.774
X139.954Y-104.648
X147.32Y-94.742
X147.828Y-106.172
X152.146Y-106.934
X152.908Y-148.995
X153.67Y-106.934
X155.448Y-78.232
X156.718Y-141.986
X163.83Y-130.048
X164.592Y-134.874
X168.656Y-138.684
X171.45Y-127.508
X174.244Y-124.714
X175.514Y-138.43
X178.054Y-93.232
X178.816Y-75.184
X179.07Y-64.77
X182.141Y-129.804
X182.626Y-127.508
X183.388Y-130.693
X188.722Y-129.794
X188.976Y-128.778
X189.23Y-127.254
X198.374Y-128.016
X202.184Y-88.646
X207.518Y-130.048
X209.296Y-93.98
X218.694Y-131.318
X220.472Y-118.872
X223.774Y-128.524
X227.33Y-116.84
T2
X122.682Y-97.536
X124.182Y-97.536
T3
X211.02Y-67.39
X211.02Y-72.39
X211.274Y-86.868
X211.274Y-91.868
X223.52Y-67.39
X223.52Y-72.39
X223.774Y-86.868
X223.774Y-91.868
T4
X82.358Y-128.874
X82.358Y-131.374
X85.108Y-128.874
X85.108Y-131.374
T5
X87.63Y-106.426
X87.63Y-108.966
X87.63Y-111.506
X109.474Y-56.134
X112.014Y-56.134
X114.554Y-56.134
X117.094Y-56.134
X119.634Y-56.134
X122.174Y-56.134
X124.714Y-56.134
X127.254Y-56.134
X129.794Y-56.134
X132.334Y-56.134
X134.874Y-56.134
X135.589Y-113.792
X135.589Y-116.332
X135.589Y-118.872
X137.414Y-56.134
X139.954Y-56.134
X142.494Y-56.134
X143.256Y-113.792
X143.256Y-116.332
X143.256Y-118.872
X145.034Y-56.134
X147.574Y-56.134
X150.622Y-122.194
X150.622Y-129.794
X181.842Y-67.39
X181.842Y-69.89
X181.842Y-72.39
X196.342Y-67.39
X196.342Y-72.39
T6
X94.234Y-143.764
X94.234Y-146.304
X96.774Y-143.764
X96.774Y-146.304
X99.314Y-143.764
X99.314Y-146.304
X101.854Y-143.764
X101.854Y-146.304
X104.394Y-143.764
X104.394Y-146.304
X106.934Y-143.764
X106.934Y-146.304
X109.474Y-143.764
X109.474Y-146.304
X112.014Y-143.764
X112.014Y-146.304
X114.554Y-143.764
X114.554Y-146.304
X117.094Y-143.764
X117.094Y-146.304
X155.194Y-99.568
X155.194Y-102.108
X157.734Y-99.568
X157.734Y-102.108
X160.274Y-99.568
X160.274Y-102.108
X162.814Y-99.568
X162.814Y-102.108
X165.354Y-99.568
X165.354Y-102.108
X167.894Y-99.568
X167.894Y-102.108
X170.434Y-99.568
X170.434Y-102.108
X172.974Y-99.568
X172.974Y-102.108
X175.514Y-99.568
X175.514Y-102.108
X178.054Y-99.568
X178.054Y-102.108
T7
X78.74Y-71.628
X78.74Y-76.628
X88.74Y-74.128
T8
X129.112Y-143.51
X134.112Y-143.51
X145.114Y-143.51
X150.114Y-143.51
X191.008Y-143.51
X196.008Y-143.51
X206.074Y-143.51
X211.074Y-143.51
T10
X85.598Y-124.104
X85.598Y-136.144
T9
X188.692Y-64.29G85X189.992Y-64.29
G05
X188.692Y-75.49G85X189.992Y-75.49
G05
T0
M30
