G04 #@! TF.FileFunction,Legend,Top*
%FSLAX46Y46*%
G04 Gerber Fmt 4.6, Leading zero omitted, Abs format (unit mm)*
G04 Created by KiCad (PCBNEW 4.0.7-e2-6376~58~ubuntu16.04.1) date Tue Apr 16 15:45:19 2019*
%MOMM*%
%LPD*%
G01*
G04 APERTURE LIST*
%ADD10C,0.100000*%
%ADD11C,0.300000*%
%ADD12C,0.120000*%
%ADD13C,0.150000*%
G04 APERTURE END LIST*
D10*
D11*
X187223146Y-53770571D02*
X187580289Y-54770571D01*
X187937431Y-53770571D01*
X188794574Y-53270571D02*
X188937431Y-53270571D01*
X189080288Y-53342000D01*
X189151717Y-53413429D01*
X189223146Y-53556286D01*
X189294574Y-53842000D01*
X189294574Y-54199143D01*
X189223146Y-54484857D01*
X189151717Y-54627714D01*
X189080288Y-54699143D01*
X188937431Y-54770571D01*
X188794574Y-54770571D01*
X188651717Y-54699143D01*
X188580288Y-54627714D01*
X188508860Y-54484857D01*
X188437431Y-54199143D01*
X188437431Y-53842000D01*
X188508860Y-53556286D01*
X188580288Y-53413429D01*
X188651717Y-53342000D01*
X188794574Y-53270571D01*
X190223145Y-53270571D02*
X190366002Y-53270571D01*
X190508859Y-53342000D01*
X190580288Y-53413429D01*
X190651717Y-53556286D01*
X190723145Y-53842000D01*
X190723145Y-54199143D01*
X190651717Y-54484857D01*
X190580288Y-54627714D01*
X190508859Y-54699143D01*
X190366002Y-54770571D01*
X190223145Y-54770571D01*
X190080288Y-54699143D01*
X190008859Y-54627714D01*
X189937431Y-54484857D01*
X189866002Y-54199143D01*
X189866002Y-53842000D01*
X189937431Y-53556286D01*
X190008859Y-53413429D01*
X190080288Y-53342000D01*
X190223145Y-53270571D01*
X192151716Y-54770571D02*
X191294573Y-54770571D01*
X191723145Y-54770571D02*
X191723145Y-53270571D01*
X191580288Y-53484857D01*
X191437430Y-53627714D01*
X191294573Y-53699143D01*
X193866001Y-53413429D02*
X193937430Y-53342000D01*
X194080287Y-53270571D01*
X194437430Y-53270571D01*
X194580287Y-53342000D01*
X194651716Y-53413429D01*
X194723144Y-53556286D01*
X194723144Y-53699143D01*
X194651716Y-53913429D01*
X193794573Y-54770571D01*
X194723144Y-54770571D01*
X195651715Y-53270571D02*
X195794572Y-53270571D01*
X195937429Y-53342000D01*
X196008858Y-53413429D01*
X196080287Y-53556286D01*
X196151715Y-53842000D01*
X196151715Y-54199143D01*
X196080287Y-54484857D01*
X196008858Y-54627714D01*
X195937429Y-54699143D01*
X195794572Y-54770571D01*
X195651715Y-54770571D01*
X195508858Y-54699143D01*
X195437429Y-54627714D01*
X195366001Y-54484857D01*
X195294572Y-54199143D01*
X195294572Y-53842000D01*
X195366001Y-53556286D01*
X195437429Y-53413429D01*
X195508858Y-53342000D01*
X195651715Y-53270571D01*
X197580286Y-54770571D02*
X196723143Y-54770571D01*
X197151715Y-54770571D02*
X197151715Y-53270571D01*
X197008858Y-53484857D01*
X196866000Y-53627714D01*
X196723143Y-53699143D01*
X198294571Y-54770571D02*
X198580286Y-54770571D01*
X198723143Y-54699143D01*
X198794571Y-54627714D01*
X198937429Y-54413429D01*
X199008857Y-54127714D01*
X199008857Y-53556286D01*
X198937429Y-53413429D01*
X198866000Y-53342000D01*
X198723143Y-53270571D01*
X198437429Y-53270571D01*
X198294571Y-53342000D01*
X198223143Y-53413429D01*
X198151714Y-53556286D01*
X198151714Y-53913429D01*
X198223143Y-54056286D01*
X198294571Y-54127714D01*
X198437429Y-54199143D01*
X198723143Y-54199143D01*
X198866000Y-54127714D01*
X198937429Y-54056286D01*
X199008857Y-53913429D01*
X199651714Y-54199143D02*
X200794571Y-54199143D01*
X201794571Y-53270571D02*
X201937428Y-53270571D01*
X202080285Y-53342000D01*
X202151714Y-53413429D01*
X202223143Y-53556286D01*
X202294571Y-53842000D01*
X202294571Y-54199143D01*
X202223143Y-54484857D01*
X202151714Y-54627714D01*
X202080285Y-54699143D01*
X201937428Y-54770571D01*
X201794571Y-54770571D01*
X201651714Y-54699143D01*
X201580285Y-54627714D01*
X201508857Y-54484857D01*
X201437428Y-54199143D01*
X201437428Y-53842000D01*
X201508857Y-53556286D01*
X201580285Y-53413429D01*
X201651714Y-53342000D01*
X201794571Y-53270571D01*
X203580285Y-53770571D02*
X203580285Y-54770571D01*
X203223142Y-53199143D02*
X202865999Y-54270571D01*
X203794571Y-54270571D01*
X204365999Y-54199143D02*
X205508856Y-54199143D01*
X207008856Y-54770571D02*
X206151713Y-54770571D01*
X206580285Y-54770571D02*
X206580285Y-53270571D01*
X206437428Y-53484857D01*
X206294570Y-53627714D01*
X206151713Y-53699143D01*
X208294570Y-53270571D02*
X208008856Y-53270571D01*
X207865999Y-53342000D01*
X207794570Y-53413429D01*
X207651713Y-53627714D01*
X207580284Y-53913429D01*
X207580284Y-54484857D01*
X207651713Y-54627714D01*
X207723141Y-54699143D01*
X207865999Y-54770571D01*
X208151713Y-54770571D01*
X208294570Y-54699143D01*
X208365999Y-54627714D01*
X208437427Y-54484857D01*
X208437427Y-54127714D01*
X208365999Y-53984857D01*
X208294570Y-53913429D01*
X208151713Y-53842000D01*
X207865999Y-53842000D01*
X207723141Y-53913429D01*
X207651713Y-53984857D01*
X207580284Y-54127714D01*
X177616001Y-59870571D02*
X177616001Y-58370571D01*
X178330287Y-58870571D02*
X178330287Y-59870571D01*
X178330287Y-59013429D02*
X178401715Y-58942000D01*
X178544573Y-58870571D01*
X178758858Y-58870571D01*
X178901715Y-58942000D01*
X178973144Y-59084857D01*
X178973144Y-59870571D01*
X179473144Y-58870571D02*
X180044573Y-58870571D01*
X179687430Y-59870571D02*
X179687430Y-58584857D01*
X179758858Y-58442000D01*
X179901716Y-58370571D01*
X180044573Y-58370571D01*
X180544573Y-59870571D02*
X180544573Y-58870571D01*
X180544573Y-59156286D02*
X180616001Y-59013429D01*
X180687430Y-58942000D01*
X180830287Y-58870571D01*
X180973144Y-58870571D01*
X182116001Y-59870571D02*
X182116001Y-59084857D01*
X182044572Y-58942000D01*
X181901715Y-58870571D01*
X181616001Y-58870571D01*
X181473144Y-58942000D01*
X182116001Y-59799143D02*
X181973144Y-59870571D01*
X181616001Y-59870571D01*
X181473144Y-59799143D01*
X181401715Y-59656286D01*
X181401715Y-59513429D01*
X181473144Y-59370571D01*
X181616001Y-59299143D01*
X181973144Y-59299143D01*
X182116001Y-59227714D01*
X182830287Y-59870571D02*
X182830287Y-58870571D01*
X182830287Y-59156286D02*
X182901715Y-59013429D01*
X182973144Y-58942000D01*
X183116001Y-58870571D01*
X183258858Y-58870571D01*
X184330286Y-59799143D02*
X184187429Y-59870571D01*
X183901715Y-59870571D01*
X183758858Y-59799143D01*
X183687429Y-59656286D01*
X183687429Y-59084857D01*
X183758858Y-58942000D01*
X183901715Y-58870571D01*
X184187429Y-58870571D01*
X184330286Y-58942000D01*
X184401715Y-59084857D01*
X184401715Y-59227714D01*
X183687429Y-59370571D01*
X185687429Y-59870571D02*
X185687429Y-58370571D01*
X185687429Y-59799143D02*
X185544572Y-59870571D01*
X185258858Y-59870571D01*
X185116000Y-59799143D01*
X185044572Y-59727714D01*
X184973143Y-59584857D01*
X184973143Y-59156286D01*
X185044572Y-59013429D01*
X185116000Y-58942000D01*
X185258858Y-58870571D01*
X185544572Y-58870571D01*
X185687429Y-58942000D01*
X187473143Y-59799143D02*
X187616000Y-59870571D01*
X187901715Y-59870571D01*
X188044572Y-59799143D01*
X188116000Y-59656286D01*
X188116000Y-59584857D01*
X188044572Y-59442000D01*
X187901715Y-59370571D01*
X187687429Y-59370571D01*
X187544572Y-59299143D01*
X187473143Y-59156286D01*
X187473143Y-59084857D01*
X187544572Y-58942000D01*
X187687429Y-58870571D01*
X187901715Y-58870571D01*
X188044572Y-58942000D01*
X188973144Y-59870571D02*
X188830286Y-59799143D01*
X188758858Y-59727714D01*
X188687429Y-59584857D01*
X188687429Y-59156286D01*
X188758858Y-59013429D01*
X188830286Y-58942000D01*
X188973144Y-58870571D01*
X189187429Y-58870571D01*
X189330286Y-58942000D01*
X189401715Y-59013429D01*
X189473144Y-59156286D01*
X189473144Y-59584857D01*
X189401715Y-59727714D01*
X189330286Y-59799143D01*
X189187429Y-59870571D01*
X188973144Y-59870571D01*
X190330287Y-59870571D02*
X190187429Y-59799143D01*
X190116001Y-59656286D01*
X190116001Y-58370571D01*
X191544572Y-59870571D02*
X191544572Y-58370571D01*
X191544572Y-59799143D02*
X191401715Y-59870571D01*
X191116001Y-59870571D01*
X190973143Y-59799143D01*
X190901715Y-59727714D01*
X190830286Y-59584857D01*
X190830286Y-59156286D01*
X190901715Y-59013429D01*
X190973143Y-58942000D01*
X191116001Y-58870571D01*
X191401715Y-58870571D01*
X191544572Y-58942000D01*
X192830286Y-59799143D02*
X192687429Y-59870571D01*
X192401715Y-59870571D01*
X192258858Y-59799143D01*
X192187429Y-59656286D01*
X192187429Y-59084857D01*
X192258858Y-58942000D01*
X192401715Y-58870571D01*
X192687429Y-58870571D01*
X192830286Y-58942000D01*
X192901715Y-59084857D01*
X192901715Y-59227714D01*
X192187429Y-59370571D01*
X193544572Y-59870571D02*
X193544572Y-58870571D01*
X193544572Y-59156286D02*
X193616000Y-59013429D01*
X193687429Y-58942000D01*
X193830286Y-58870571D01*
X193973143Y-58870571D01*
X194473143Y-59870571D02*
X194473143Y-58870571D01*
X194473143Y-58370571D02*
X194401714Y-58442000D01*
X194473143Y-58513429D01*
X194544571Y-58442000D01*
X194473143Y-58370571D01*
X194473143Y-58513429D01*
X195187429Y-58870571D02*
X195187429Y-59870571D01*
X195187429Y-59013429D02*
X195258857Y-58942000D01*
X195401715Y-58870571D01*
X195616000Y-58870571D01*
X195758857Y-58942000D01*
X195830286Y-59084857D01*
X195830286Y-59870571D01*
X197187429Y-58870571D02*
X197187429Y-60084857D01*
X197116000Y-60227714D01*
X197044572Y-60299143D01*
X196901715Y-60370571D01*
X196687429Y-60370571D01*
X196544572Y-60299143D01*
X197187429Y-59799143D02*
X197044572Y-59870571D01*
X196758858Y-59870571D01*
X196616000Y-59799143D01*
X196544572Y-59727714D01*
X196473143Y-59584857D01*
X196473143Y-59156286D01*
X196544572Y-59013429D01*
X196616000Y-58942000D01*
X196758858Y-58870571D01*
X197044572Y-58870571D01*
X197187429Y-58942000D01*
X198973143Y-59799143D02*
X199116000Y-59870571D01*
X199401715Y-59870571D01*
X199544572Y-59799143D01*
X199616000Y-59656286D01*
X199616000Y-59584857D01*
X199544572Y-59442000D01*
X199401715Y-59370571D01*
X199187429Y-59370571D01*
X199044572Y-59299143D01*
X198973143Y-59156286D01*
X198973143Y-59084857D01*
X199044572Y-58942000D01*
X199187429Y-58870571D01*
X199401715Y-58870571D01*
X199544572Y-58942000D01*
X200044572Y-58870571D02*
X200616001Y-58870571D01*
X200258858Y-58370571D02*
X200258858Y-59656286D01*
X200330286Y-59799143D01*
X200473144Y-59870571D01*
X200616001Y-59870571D01*
X201758858Y-59870571D02*
X201758858Y-59084857D01*
X201687429Y-58942000D01*
X201544572Y-58870571D01*
X201258858Y-58870571D01*
X201116001Y-58942000D01*
X201758858Y-59799143D02*
X201616001Y-59870571D01*
X201258858Y-59870571D01*
X201116001Y-59799143D01*
X201044572Y-59656286D01*
X201044572Y-59513429D01*
X201116001Y-59370571D01*
X201258858Y-59299143D01*
X201616001Y-59299143D01*
X201758858Y-59227714D01*
X202258858Y-58870571D02*
X202830287Y-58870571D01*
X202473144Y-58370571D02*
X202473144Y-59656286D01*
X202544572Y-59799143D01*
X202687430Y-59870571D01*
X202830287Y-59870571D01*
X203330287Y-59870571D02*
X203330287Y-58870571D01*
X203330287Y-58370571D02*
X203258858Y-58442000D01*
X203330287Y-58513429D01*
X203401715Y-58442000D01*
X203330287Y-58370571D01*
X203330287Y-58513429D01*
X204258859Y-59870571D02*
X204116001Y-59799143D01*
X204044573Y-59727714D01*
X203973144Y-59584857D01*
X203973144Y-59156286D01*
X204044573Y-59013429D01*
X204116001Y-58942000D01*
X204258859Y-58870571D01*
X204473144Y-58870571D01*
X204616001Y-58942000D01*
X204687430Y-59013429D01*
X204758859Y-59156286D01*
X204758859Y-59584857D01*
X204687430Y-59727714D01*
X204616001Y-59799143D01*
X204473144Y-59870571D01*
X204258859Y-59870571D01*
X205401716Y-58870571D02*
X205401716Y-59870571D01*
X205401716Y-59013429D02*
X205473144Y-58942000D01*
X205616002Y-58870571D01*
X205830287Y-58870571D01*
X205973144Y-58942000D01*
X206044573Y-59084857D01*
X206044573Y-59870571D01*
X208544573Y-59799143D02*
X208401716Y-59870571D01*
X208116002Y-59870571D01*
X207973144Y-59799143D01*
X207901716Y-59727714D01*
X207830287Y-59584857D01*
X207830287Y-59156286D01*
X207901716Y-59013429D01*
X207973144Y-58942000D01*
X208116002Y-58870571D01*
X208401716Y-58870571D01*
X208544573Y-58942000D01*
X209401716Y-59870571D02*
X209258858Y-59799143D01*
X209187430Y-59727714D01*
X209116001Y-59584857D01*
X209116001Y-59156286D01*
X209187430Y-59013429D01*
X209258858Y-58942000D01*
X209401716Y-58870571D01*
X209616001Y-58870571D01*
X209758858Y-58942000D01*
X209830287Y-59013429D01*
X209901716Y-59156286D01*
X209901716Y-59584857D01*
X209830287Y-59727714D01*
X209758858Y-59799143D01*
X209616001Y-59870571D01*
X209401716Y-59870571D01*
X210544573Y-58870571D02*
X210544573Y-59870571D01*
X210544573Y-59013429D02*
X210616001Y-58942000D01*
X210758859Y-58870571D01*
X210973144Y-58870571D01*
X211116001Y-58942000D01*
X211187430Y-59084857D01*
X211187430Y-59870571D01*
X211687430Y-58870571D02*
X212258859Y-58870571D01*
X211901716Y-58370571D02*
X211901716Y-59656286D01*
X211973144Y-59799143D01*
X212116002Y-59870571D01*
X212258859Y-59870571D01*
X212758859Y-59870571D02*
X212758859Y-58870571D01*
X212758859Y-59156286D02*
X212830287Y-59013429D01*
X212901716Y-58942000D01*
X213044573Y-58870571D01*
X213187430Y-58870571D01*
X213901716Y-59870571D02*
X213758858Y-59799143D01*
X213687430Y-59727714D01*
X213616001Y-59584857D01*
X213616001Y-59156286D01*
X213687430Y-59013429D01*
X213758858Y-58942000D01*
X213901716Y-58870571D01*
X214116001Y-58870571D01*
X214258858Y-58942000D01*
X214330287Y-59013429D01*
X214401716Y-59156286D01*
X214401716Y-59584857D01*
X214330287Y-59727714D01*
X214258858Y-59799143D01*
X214116001Y-59870571D01*
X213901716Y-59870571D01*
X215258859Y-59870571D02*
X215116001Y-59799143D01*
X215044573Y-59656286D01*
X215044573Y-58370571D01*
X216044573Y-59870571D02*
X215901715Y-59799143D01*
X215830287Y-59656286D01*
X215830287Y-58370571D01*
X217187429Y-59799143D02*
X217044572Y-59870571D01*
X216758858Y-59870571D01*
X216616001Y-59799143D01*
X216544572Y-59656286D01*
X216544572Y-59084857D01*
X216616001Y-58942000D01*
X216758858Y-58870571D01*
X217044572Y-58870571D01*
X217187429Y-58942000D01*
X217258858Y-59084857D01*
X217258858Y-59227714D01*
X216544572Y-59370571D01*
X217901715Y-59870571D02*
X217901715Y-58870571D01*
X217901715Y-59156286D02*
X217973143Y-59013429D01*
X218044572Y-58942000D01*
X218187429Y-58870571D01*
X218330286Y-58870571D01*
X147466857Y-62210000D02*
X147538286Y-61995714D01*
X147609714Y-61924286D01*
X147752571Y-61852857D01*
X147966857Y-61852857D01*
X148109714Y-61924286D01*
X148181143Y-61995714D01*
X148252571Y-62138572D01*
X148252571Y-62710000D01*
X146752571Y-62710000D01*
X146752571Y-62210000D01*
X146824000Y-62067143D01*
X146895429Y-61995714D01*
X147038286Y-61924286D01*
X147181143Y-61924286D01*
X147324000Y-61995714D01*
X147395429Y-62067143D01*
X147466857Y-62210000D01*
X147466857Y-62710000D01*
X148252571Y-60495714D02*
X148252571Y-61210000D01*
X146752571Y-61210000D01*
X148252571Y-59995714D02*
X146752571Y-59995714D01*
X148252571Y-59138571D02*
X147395429Y-59781428D01*
X146752571Y-59138571D02*
X147609714Y-59995714D01*
X145141143Y-64801428D02*
X145141143Y-63658571D01*
X145712571Y-64230000D02*
X144569714Y-64230000D01*
X144926857Y-62444285D02*
X144998286Y-62229999D01*
X145069714Y-62158571D01*
X145212571Y-62087142D01*
X145426857Y-62087142D01*
X145569714Y-62158571D01*
X145641143Y-62229999D01*
X145712571Y-62372857D01*
X145712571Y-62944285D01*
X144212571Y-62944285D01*
X144212571Y-62444285D01*
X144284000Y-62301428D01*
X144355429Y-62229999D01*
X144498286Y-62158571D01*
X144641143Y-62158571D01*
X144784000Y-62229999D01*
X144855429Y-62301428D01*
X144926857Y-62444285D01*
X144926857Y-62944285D01*
X145712571Y-60729999D02*
X145712571Y-61444285D01*
X144212571Y-61444285D01*
X145284000Y-60301428D02*
X145284000Y-59587142D01*
X145712571Y-60444285D02*
X144212571Y-59944285D01*
X145712571Y-59444285D01*
X143172571Y-62321142D02*
X141672571Y-62321142D01*
X141672571Y-61963999D01*
X141744000Y-61749714D01*
X141886857Y-61606856D01*
X142029714Y-61535428D01*
X142315429Y-61463999D01*
X142529714Y-61463999D01*
X142815429Y-61535428D01*
X142958286Y-61606856D01*
X143101143Y-61749714D01*
X143172571Y-61963999D01*
X143172571Y-62321142D01*
X141672571Y-60963999D02*
X141672571Y-59963999D01*
X143172571Y-60606856D01*
X140632571Y-62321142D02*
X139132571Y-62321142D01*
X139132571Y-61963999D01*
X139204000Y-61749714D01*
X139346857Y-61606856D01*
X139489714Y-61535428D01*
X139775429Y-61463999D01*
X139989714Y-61463999D01*
X140275429Y-61535428D01*
X140418286Y-61606856D01*
X140561143Y-61749714D01*
X140632571Y-61963999D01*
X140632571Y-62321142D01*
X139132571Y-60178285D02*
X139132571Y-60463999D01*
X139204000Y-60606856D01*
X139275429Y-60678285D01*
X139489714Y-60821142D01*
X139775429Y-60892571D01*
X140346857Y-60892571D01*
X140489714Y-60821142D01*
X140561143Y-60749714D01*
X140632571Y-60606856D01*
X140632571Y-60321142D01*
X140561143Y-60178285D01*
X140489714Y-60106856D01*
X140346857Y-60035428D01*
X139989714Y-60035428D01*
X139846857Y-60106856D01*
X139775429Y-60178285D01*
X139704000Y-60321142D01*
X139704000Y-60606856D01*
X139775429Y-60749714D01*
X139846857Y-60821142D01*
X139989714Y-60892571D01*
X138092571Y-62321142D02*
X136592571Y-62321142D01*
X136592571Y-61963999D01*
X136664000Y-61749714D01*
X136806857Y-61606856D01*
X136949714Y-61535428D01*
X137235429Y-61463999D01*
X137449714Y-61463999D01*
X137735429Y-61535428D01*
X137878286Y-61606856D01*
X138021143Y-61749714D01*
X138092571Y-61963999D01*
X138092571Y-62321142D01*
X136592571Y-60106856D02*
X136592571Y-60821142D01*
X137306857Y-60892571D01*
X137235429Y-60821142D01*
X137164000Y-60678285D01*
X137164000Y-60321142D01*
X137235429Y-60178285D01*
X137306857Y-60106856D01*
X137449714Y-60035428D01*
X137806857Y-60035428D01*
X137949714Y-60106856D01*
X138021143Y-60178285D01*
X138092571Y-60321142D01*
X138092571Y-60678285D01*
X138021143Y-60821142D01*
X137949714Y-60892571D01*
X135552571Y-62321142D02*
X134052571Y-62321142D01*
X134052571Y-61963999D01*
X134124000Y-61749714D01*
X134266857Y-61606856D01*
X134409714Y-61535428D01*
X134695429Y-61463999D01*
X134909714Y-61463999D01*
X135195429Y-61535428D01*
X135338286Y-61606856D01*
X135481143Y-61749714D01*
X135552571Y-61963999D01*
X135552571Y-62321142D01*
X134552571Y-60178285D02*
X135552571Y-60178285D01*
X133981143Y-60535428D02*
X135052571Y-60892571D01*
X135052571Y-59963999D01*
X133012571Y-62321142D02*
X131512571Y-62321142D01*
X131512571Y-61963999D01*
X131584000Y-61749714D01*
X131726857Y-61606856D01*
X131869714Y-61535428D01*
X132155429Y-61463999D01*
X132369714Y-61463999D01*
X132655429Y-61535428D01*
X132798286Y-61606856D01*
X132941143Y-61749714D01*
X133012571Y-61963999D01*
X133012571Y-62321142D01*
X131512571Y-60963999D02*
X131512571Y-60035428D01*
X132084000Y-60535428D01*
X132084000Y-60321142D01*
X132155429Y-60178285D01*
X132226857Y-60106856D01*
X132369714Y-60035428D01*
X132726857Y-60035428D01*
X132869714Y-60106856D01*
X132941143Y-60178285D01*
X133012571Y-60321142D01*
X133012571Y-60749714D01*
X132941143Y-60892571D01*
X132869714Y-60963999D01*
X130472571Y-62321142D02*
X128972571Y-62321142D01*
X128972571Y-61963999D01*
X129044000Y-61749714D01*
X129186857Y-61606856D01*
X129329714Y-61535428D01*
X129615429Y-61463999D01*
X129829714Y-61463999D01*
X130115429Y-61535428D01*
X130258286Y-61606856D01*
X130401143Y-61749714D01*
X130472571Y-61963999D01*
X130472571Y-62321142D01*
X129115429Y-60892571D02*
X129044000Y-60821142D01*
X128972571Y-60678285D01*
X128972571Y-60321142D01*
X129044000Y-60178285D01*
X129115429Y-60106856D01*
X129258286Y-60035428D01*
X129401143Y-60035428D01*
X129615429Y-60106856D01*
X130472571Y-60963999D01*
X130472571Y-60035428D01*
X127932571Y-62321142D02*
X126432571Y-62321142D01*
X126432571Y-61963999D01*
X126504000Y-61749714D01*
X126646857Y-61606856D01*
X126789714Y-61535428D01*
X127075429Y-61463999D01*
X127289714Y-61463999D01*
X127575429Y-61535428D01*
X127718286Y-61606856D01*
X127861143Y-61749714D01*
X127932571Y-61963999D01*
X127932571Y-62321142D01*
X127932571Y-60035428D02*
X127932571Y-60892571D01*
X127932571Y-60463999D02*
X126432571Y-60463999D01*
X126646857Y-60606856D01*
X126789714Y-60749714D01*
X126861143Y-60892571D01*
X125392571Y-62321142D02*
X123892571Y-62321142D01*
X123892571Y-61963999D01*
X123964000Y-61749714D01*
X124106857Y-61606856D01*
X124249714Y-61535428D01*
X124535429Y-61463999D01*
X124749714Y-61463999D01*
X125035429Y-61535428D01*
X125178286Y-61606856D01*
X125321143Y-61749714D01*
X125392571Y-61963999D01*
X125392571Y-62321142D01*
X123892571Y-60535428D02*
X123892571Y-60392571D01*
X123964000Y-60249714D01*
X124035429Y-60178285D01*
X124178286Y-60106856D01*
X124464000Y-60035428D01*
X124821143Y-60035428D01*
X125106857Y-60106856D01*
X125249714Y-60178285D01*
X125321143Y-60249714D01*
X125392571Y-60392571D01*
X125392571Y-60535428D01*
X125321143Y-60678285D01*
X125249714Y-60749714D01*
X125106857Y-60821142D01*
X124821143Y-60892571D01*
X124464000Y-60892571D01*
X124178286Y-60821142D01*
X124035429Y-60749714D01*
X123964000Y-60678285D01*
X123892571Y-60535428D01*
X122066857Y-61281428D02*
X122066857Y-60781428D01*
X122852571Y-60567142D02*
X122852571Y-61281428D01*
X121352571Y-61281428D01*
X121352571Y-60567142D01*
X120312571Y-61352857D02*
X119598286Y-61852857D01*
X120312571Y-62210000D02*
X118812571Y-62210000D01*
X118812571Y-61638572D01*
X118884000Y-61495714D01*
X118955429Y-61424286D01*
X119098286Y-61352857D01*
X119312571Y-61352857D01*
X119455429Y-61424286D01*
X119526857Y-61495714D01*
X119598286Y-61638572D01*
X119598286Y-62210000D01*
X118812571Y-60852857D02*
X120312571Y-60495714D01*
X119241143Y-60210000D01*
X120312571Y-59924286D01*
X118812571Y-59567143D01*
X117772571Y-61209999D02*
X117058286Y-61709999D01*
X117772571Y-62067142D02*
X116272571Y-62067142D01*
X116272571Y-61495714D01*
X116344000Y-61352856D01*
X116415429Y-61281428D01*
X116558286Y-61209999D01*
X116772571Y-61209999D01*
X116915429Y-61281428D01*
X116986857Y-61352856D01*
X117058286Y-61495714D01*
X117058286Y-62067142D01*
X117701143Y-60638571D02*
X117772571Y-60424285D01*
X117772571Y-60067142D01*
X117701143Y-59924285D01*
X117629714Y-59852856D01*
X117486857Y-59781428D01*
X117344000Y-59781428D01*
X117201143Y-59852856D01*
X117129714Y-59924285D01*
X117058286Y-60067142D01*
X116986857Y-60352856D01*
X116915429Y-60495714D01*
X116844000Y-60567142D01*
X116701143Y-60638571D01*
X116558286Y-60638571D01*
X116415429Y-60567142D01*
X116344000Y-60495714D01*
X116272571Y-60352856D01*
X116272571Y-59995714D01*
X116344000Y-59781428D01*
X113732571Y-61920285D02*
X115232571Y-61420285D01*
X113732571Y-60920285D01*
X113732571Y-60134571D02*
X113732571Y-59991714D01*
X113804000Y-59848857D01*
X113875429Y-59777428D01*
X114018286Y-59705999D01*
X114304000Y-59634571D01*
X114661143Y-59634571D01*
X114946857Y-59705999D01*
X115089714Y-59777428D01*
X115161143Y-59848857D01*
X115232571Y-59991714D01*
X115232571Y-60134571D01*
X115161143Y-60277428D01*
X115089714Y-60348857D01*
X114946857Y-60420285D01*
X114661143Y-60491714D01*
X114304000Y-60491714D01*
X114018286Y-60420285D01*
X113875429Y-60348857D01*
X113804000Y-60277428D01*
X113732571Y-60134571D01*
X112121143Y-62245714D02*
X112121143Y-61102857D01*
X112692571Y-61674286D02*
X111549714Y-61674286D01*
X111192571Y-59674285D02*
X111192571Y-60388571D01*
X111906857Y-60460000D01*
X111835429Y-60388571D01*
X111764000Y-60245714D01*
X111764000Y-59888571D01*
X111835429Y-59745714D01*
X111906857Y-59674285D01*
X112049714Y-59602857D01*
X112406857Y-59602857D01*
X112549714Y-59674285D01*
X112621143Y-59745714D01*
X112692571Y-59888571D01*
X112692571Y-60245714D01*
X112621143Y-60388571D01*
X112549714Y-60460000D01*
X108724000Y-59805143D02*
X108652571Y-59948000D01*
X108652571Y-60162286D01*
X108724000Y-60376571D01*
X108866857Y-60519429D01*
X109009714Y-60590857D01*
X109295429Y-60662286D01*
X109509714Y-60662286D01*
X109795429Y-60590857D01*
X109938286Y-60519429D01*
X110081143Y-60376571D01*
X110152571Y-60162286D01*
X110152571Y-60019429D01*
X110081143Y-59805143D01*
X110009714Y-59733714D01*
X109509714Y-59733714D01*
X109509714Y-60019429D01*
X121222859Y-76878571D02*
X120508573Y-76878571D01*
X120508573Y-75378571D01*
X122580002Y-76735714D02*
X122508573Y-76807143D01*
X122294287Y-76878571D01*
X122151430Y-76878571D01*
X121937145Y-76807143D01*
X121794287Y-76664286D01*
X121722859Y-76521429D01*
X121651430Y-76235714D01*
X121651430Y-76021429D01*
X121722859Y-75735714D01*
X121794287Y-75592857D01*
X121937145Y-75450000D01*
X122151430Y-75378571D01*
X122294287Y-75378571D01*
X122508573Y-75450000D01*
X122580002Y-75521429D01*
X123222859Y-76878571D02*
X123222859Y-75378571D01*
X123580002Y-75378571D01*
X123794287Y-75450000D01*
X123937145Y-75592857D01*
X124008573Y-75735714D01*
X124080002Y-76021429D01*
X124080002Y-76235714D01*
X124008573Y-76521429D01*
X123937145Y-76664286D01*
X123794287Y-76807143D01*
X123580002Y-76878571D01*
X123222859Y-76878571D01*
X126651430Y-76878571D02*
X125794287Y-76878571D01*
X126222859Y-76878571D02*
X126222859Y-75378571D01*
X126080002Y-75592857D01*
X125937144Y-75735714D01*
X125794287Y-75807143D01*
X127937144Y-75378571D02*
X127651430Y-75378571D01*
X127508573Y-75450000D01*
X127437144Y-75521429D01*
X127294287Y-75735714D01*
X127222858Y-76021429D01*
X127222858Y-76592857D01*
X127294287Y-76735714D01*
X127365715Y-76807143D01*
X127508573Y-76878571D01*
X127794287Y-76878571D01*
X127937144Y-76807143D01*
X128008573Y-76735714D01*
X128080001Y-76592857D01*
X128080001Y-76235714D01*
X128008573Y-76092857D01*
X127937144Y-76021429D01*
X127794287Y-75950000D01*
X127508573Y-75950000D01*
X127365715Y-76021429D01*
X127294287Y-76092857D01*
X127222858Y-76235714D01*
X128580001Y-76878571D02*
X129365715Y-75878571D01*
X128580001Y-75878571D02*
X129365715Y-76878571D01*
X129865715Y-75521429D02*
X129937144Y-75450000D01*
X130080001Y-75378571D01*
X130437144Y-75378571D01*
X130580001Y-75450000D01*
X130651430Y-75521429D01*
X130722858Y-75664286D01*
X130722858Y-75807143D01*
X130651430Y-76021429D01*
X129794287Y-76878571D01*
X130722858Y-76878571D01*
X133222858Y-75378571D02*
X132508572Y-75378571D01*
X132437143Y-76092857D01*
X132508572Y-76021429D01*
X132651429Y-75950000D01*
X133008572Y-75950000D01*
X133151429Y-76021429D01*
X133222858Y-76092857D01*
X133294286Y-76235714D01*
X133294286Y-76592857D01*
X133222858Y-76735714D01*
X133151429Y-76807143D01*
X133008572Y-76878571D01*
X132651429Y-76878571D01*
X132508572Y-76807143D01*
X132437143Y-76735714D01*
X133794286Y-75878571D02*
X134151429Y-76878571D01*
X134508571Y-75878571D01*
X136222857Y-76878571D02*
X136222857Y-75878571D01*
X136222857Y-76021429D02*
X136294285Y-75950000D01*
X136437143Y-75878571D01*
X136651428Y-75878571D01*
X136794285Y-75950000D01*
X136865714Y-76092857D01*
X136865714Y-76878571D01*
X136865714Y-76092857D02*
X136937143Y-75950000D01*
X137080000Y-75878571D01*
X137294285Y-75878571D01*
X137437143Y-75950000D01*
X137508571Y-76092857D01*
X137508571Y-76878571D01*
X138437143Y-76878571D02*
X138294285Y-76807143D01*
X138222857Y-76735714D01*
X138151428Y-76592857D01*
X138151428Y-76164286D01*
X138222857Y-76021429D01*
X138294285Y-75950000D01*
X138437143Y-75878571D01*
X138651428Y-75878571D01*
X138794285Y-75950000D01*
X138865714Y-76021429D01*
X138937143Y-76164286D01*
X138937143Y-76592857D01*
X138865714Y-76735714D01*
X138794285Y-76807143D01*
X138651428Y-76878571D01*
X138437143Y-76878571D01*
X140222857Y-76878571D02*
X140222857Y-75378571D01*
X140222857Y-76807143D02*
X140080000Y-76878571D01*
X139794286Y-76878571D01*
X139651428Y-76807143D01*
X139580000Y-76735714D01*
X139508571Y-76592857D01*
X139508571Y-76164286D01*
X139580000Y-76021429D01*
X139651428Y-75950000D01*
X139794286Y-75878571D01*
X140080000Y-75878571D01*
X140222857Y-75950000D01*
X141580000Y-75878571D02*
X141580000Y-76878571D01*
X140937143Y-75878571D02*
X140937143Y-76664286D01*
X141008571Y-76807143D01*
X141151429Y-76878571D01*
X141365714Y-76878571D01*
X141508571Y-76807143D01*
X141580000Y-76735714D01*
X142508572Y-76878571D02*
X142365714Y-76807143D01*
X142294286Y-76664286D01*
X142294286Y-75378571D01*
X143651428Y-76807143D02*
X143508571Y-76878571D01*
X143222857Y-76878571D01*
X143080000Y-76807143D01*
X143008571Y-76664286D01*
X143008571Y-76092857D01*
X143080000Y-75950000D01*
X143222857Y-75878571D01*
X143508571Y-75878571D01*
X143651428Y-75950000D01*
X143722857Y-76092857D01*
X143722857Y-76235714D01*
X143008571Y-76378571D01*
X113800001Y-137354571D02*
X114800001Y-137354571D01*
X114157144Y-138854571D01*
X112045715Y-137354571D02*
X111760001Y-137354571D01*
X111617144Y-137426000D01*
X111545715Y-137497429D01*
X111402858Y-137711714D01*
X111331429Y-137997429D01*
X111331429Y-138568857D01*
X111402858Y-138711714D01*
X111474286Y-138783143D01*
X111617144Y-138854571D01*
X111902858Y-138854571D01*
X112045715Y-138783143D01*
X112117144Y-138711714D01*
X112188572Y-138568857D01*
X112188572Y-138211714D01*
X112117144Y-138068857D01*
X112045715Y-137997429D01*
X111902858Y-137926000D01*
X111617144Y-137926000D01*
X111474286Y-137997429D01*
X111402858Y-138068857D01*
X111331429Y-138211714D01*
X109831144Y-137354571D02*
X109116858Y-137354571D01*
X109045429Y-138068857D01*
X109116858Y-137997429D01*
X109259715Y-137926000D01*
X109616858Y-137926000D01*
X109759715Y-137997429D01*
X109831144Y-138068857D01*
X109902572Y-138211714D01*
X109902572Y-138568857D01*
X109831144Y-138711714D01*
X109759715Y-138783143D01*
X109616858Y-138854571D01*
X109259715Y-138854571D01*
X109116858Y-138783143D01*
X109045429Y-138711714D01*
X106965715Y-138108571D02*
X106965715Y-139108571D01*
X106608572Y-137537143D02*
X106251429Y-138608571D01*
X107180001Y-138608571D01*
X103640001Y-137354571D02*
X104568572Y-137354571D01*
X104068572Y-137926000D01*
X104282858Y-137926000D01*
X104425715Y-137997429D01*
X104497144Y-138068857D01*
X104568572Y-138211714D01*
X104568572Y-138568857D01*
X104497144Y-138711714D01*
X104425715Y-138783143D01*
X104282858Y-138854571D01*
X103854286Y-138854571D01*
X103711429Y-138783143D01*
X103640001Y-138711714D01*
X100917429Y-137497429D02*
X100988858Y-137426000D01*
X101131715Y-137354571D01*
X101488858Y-137354571D01*
X101631715Y-137426000D01*
X101703144Y-137497429D01*
X101774572Y-137640286D01*
X101774572Y-137783143D01*
X101703144Y-137997429D01*
X100846001Y-138854571D01*
X101774572Y-138854571D01*
X99488572Y-138854571D02*
X98631429Y-138854571D01*
X99060001Y-138854571D02*
X99060001Y-137354571D01*
X98917144Y-137568857D01*
X98774286Y-137711714D01*
X98631429Y-137783143D01*
X96448572Y-137354571D02*
X96591429Y-137354571D01*
X96734286Y-137426000D01*
X96805715Y-137497429D01*
X96877144Y-137640286D01*
X96948572Y-137926000D01*
X96948572Y-138283143D01*
X96877144Y-138568857D01*
X96805715Y-138711714D01*
X96734286Y-138783143D01*
X96591429Y-138854571D01*
X96448572Y-138854571D01*
X96305715Y-138783143D01*
X96234286Y-138711714D01*
X96162858Y-138568857D01*
X96091429Y-138283143D01*
X96091429Y-137926000D01*
X96162858Y-137640286D01*
X96234286Y-137497429D01*
X96305715Y-137426000D01*
X96448572Y-137354571D01*
X94087143Y-139715714D02*
X94087143Y-138572857D01*
X94658571Y-139144286D02*
X93515714Y-139144286D01*
X93158571Y-137144285D02*
X93158571Y-137858571D01*
X93872857Y-137930000D01*
X93801429Y-137858571D01*
X93730000Y-137715714D01*
X93730000Y-137358571D01*
X93801429Y-137215714D01*
X93872857Y-137144285D01*
X94015714Y-137072857D01*
X94372857Y-137072857D01*
X94515714Y-137144285D01*
X94587143Y-137215714D01*
X94658571Y-137358571D01*
X94658571Y-137715714D01*
X94587143Y-137858571D01*
X94515714Y-137930000D01*
X139553143Y-146311428D02*
X139553143Y-145168571D01*
X140124571Y-145740000D02*
X138981714Y-145740000D01*
X140124571Y-143668571D02*
X140124571Y-144525714D01*
X140124571Y-144097142D02*
X138624571Y-144097142D01*
X138838857Y-144239999D01*
X138981714Y-144382857D01*
X139053143Y-144525714D01*
X138767429Y-143097143D02*
X138696000Y-143025714D01*
X138624571Y-142882857D01*
X138624571Y-142525714D01*
X138696000Y-142382857D01*
X138767429Y-142311428D01*
X138910286Y-142240000D01*
X139053143Y-142240000D01*
X139267429Y-142311428D01*
X140124571Y-143168571D01*
X140124571Y-142240000D01*
X139338857Y-141097143D02*
X139338857Y-141597143D01*
X140124571Y-141597143D02*
X138624571Y-141597143D01*
X138624571Y-140882857D01*
X139696000Y-140382858D02*
X139696000Y-139668572D01*
X140124571Y-140525715D02*
X138624571Y-140025715D01*
X140124571Y-139525715D01*
X140124571Y-139025715D02*
X138624571Y-139025715D01*
X140124571Y-138168572D01*
X138624571Y-138168572D01*
X155047143Y-148160856D02*
X155047143Y-147017999D01*
X155618571Y-147589428D02*
X154475714Y-147589428D01*
X155618571Y-145517999D02*
X155618571Y-146375142D01*
X155618571Y-145946570D02*
X154118571Y-145946570D01*
X154332857Y-146089427D01*
X154475714Y-146232285D01*
X154547143Y-146375142D01*
X154261429Y-144946571D02*
X154190000Y-144875142D01*
X154118571Y-144732285D01*
X154118571Y-144375142D01*
X154190000Y-144232285D01*
X154261429Y-144160856D01*
X154404286Y-144089428D01*
X154547143Y-144089428D01*
X154761429Y-144160856D01*
X155618571Y-145017999D01*
X155618571Y-144089428D01*
X154118571Y-143660857D02*
X155618571Y-143160857D01*
X154118571Y-142660857D01*
X155618571Y-142160857D02*
X154118571Y-142160857D01*
X154118571Y-141803714D01*
X154190000Y-141589429D01*
X154332857Y-141446571D01*
X154475714Y-141375143D01*
X154761429Y-141303714D01*
X154975714Y-141303714D01*
X155261429Y-141375143D01*
X155404286Y-141446571D01*
X155547143Y-141589429D01*
X155618571Y-141803714D01*
X155618571Y-142160857D01*
X155475714Y-139803714D02*
X155547143Y-139875143D01*
X155618571Y-140089429D01*
X155618571Y-140232286D01*
X155547143Y-140446571D01*
X155404286Y-140589429D01*
X155261429Y-140660857D01*
X154975714Y-140732286D01*
X154761429Y-140732286D01*
X154475714Y-140660857D01*
X154332857Y-140589429D01*
X154190000Y-140446571D01*
X154118571Y-140232286D01*
X154118571Y-140089429D01*
X154190000Y-139875143D01*
X154261429Y-139803714D01*
X145732572Y-119741143D02*
X146875429Y-119741143D01*
X146304000Y-120312571D02*
X146304000Y-119169714D01*
X132524572Y-119741143D02*
X133667429Y-119741143D01*
X133096000Y-120312571D02*
X133096000Y-119169714D01*
X135064572Y-121773143D02*
X136207429Y-121773143D01*
X135636000Y-122344571D02*
X135636000Y-121201714D01*
X142684572Y-121773143D02*
X143827429Y-121773143D01*
X143256000Y-122344571D02*
X143256000Y-121201714D01*
D12*
X148904000Y-57464000D02*
X148904000Y-54804000D01*
X110744000Y-57464000D02*
X148904000Y-57464000D01*
X110744000Y-54804000D02*
X148904000Y-54804000D01*
X110744000Y-57464000D02*
X110744000Y-54804000D01*
X109474000Y-57464000D02*
X108144000Y-57464000D01*
X108144000Y-57464000D02*
X108144000Y-56134000D01*
X140314000Y-101300000D02*
X140314000Y-102800000D01*
X140314000Y-102800000D02*
X140584000Y-102800000D01*
X140584000Y-102800000D02*
X140584000Y-105630000D01*
X147214000Y-101300000D02*
X147214000Y-102800000D01*
X147214000Y-102800000D02*
X146944000Y-102800000D01*
X146944000Y-102800000D02*
X146944000Y-103900000D01*
X156722000Y-125994000D02*
G75*
G03X156722000Y-125994000I-6100000J0D01*
G01*
X138772000Y-101084000D02*
X138772000Y-100084000D01*
X137072000Y-100084000D02*
X137072000Y-101084000D01*
X135216000Y-101084000D02*
X135216000Y-100084000D01*
X133516000Y-100084000D02*
X133516000Y-101084000D01*
X182284000Y-145550000D02*
X182284000Y-146550000D01*
X183984000Y-146550000D02*
X183984000Y-145550000D01*
X174892000Y-150730000D02*
X174892000Y-141130000D01*
X179692000Y-150730000D02*
X179692000Y-141130000D01*
X174892000Y-150730000D02*
X179692000Y-150730000D01*
X161028000Y-120562000D02*
X160028000Y-120562000D01*
X160028000Y-122262000D02*
X161028000Y-122262000D01*
X119753046Y-83379194D02*
X118753046Y-83379194D01*
X118753046Y-85079194D02*
X119753046Y-85079194D01*
X108069046Y-83379194D02*
X107069046Y-83379194D01*
X107069046Y-85079194D02*
X108069046Y-85079194D01*
X127674000Y-98306000D02*
X127674000Y-99306000D01*
X129374000Y-99306000D02*
X129374000Y-98306000D01*
X115990000Y-98306000D02*
X115990000Y-99306000D01*
X117690000Y-99306000D02*
X117690000Y-98306000D01*
X174332000Y-66540000D02*
X174332000Y-65540000D01*
X172632000Y-65540000D02*
X172632000Y-66540000D01*
X86956000Y-96258000D02*
X86956000Y-95258000D01*
X85256000Y-95258000D02*
X85256000Y-96258000D01*
X226226000Y-69350000D02*
X226226000Y-70350000D01*
X227926000Y-70350000D02*
X227926000Y-69350000D01*
X226226000Y-88654000D02*
X226226000Y-89654000D01*
X227926000Y-89654000D02*
X227926000Y-88654000D01*
X172632000Y-73140000D02*
X172632000Y-74140000D01*
X174332000Y-74140000D02*
X174332000Y-73140000D01*
X204752000Y-97116000D02*
X205752000Y-97116000D01*
X205752000Y-95416000D02*
X204752000Y-95416000D01*
X205712000Y-102020000D02*
X204712000Y-102020000D01*
X204712000Y-103720000D02*
X205712000Y-103720000D01*
X204128000Y-85372000D02*
X204128000Y-86372000D01*
X205828000Y-86372000D02*
X205828000Y-85372000D01*
X214288000Y-120404000D02*
X214288000Y-121404000D01*
X215988000Y-121404000D02*
X215988000Y-120404000D01*
X225036000Y-115482000D02*
X224036000Y-115482000D01*
X224036000Y-117182000D02*
X225036000Y-117182000D01*
X218518999Y-120570998D02*
X218518999Y-121570998D01*
X220218999Y-121570998D02*
X220218999Y-120570998D01*
X225310000Y-122594000D02*
X224310000Y-122594000D01*
X224310000Y-124294000D02*
X225310000Y-124294000D01*
X187948000Y-97116000D02*
X188948000Y-97116000D01*
X188948000Y-95416000D02*
X187948000Y-95416000D01*
X188734000Y-102020000D02*
X187734000Y-102020000D01*
X187734000Y-103720000D02*
X188734000Y-103720000D01*
X192112000Y-121404000D02*
X192112000Y-120404000D01*
X190412000Y-120404000D02*
X190412000Y-121404000D01*
X201922000Y-115482000D02*
X200922000Y-115482000D01*
X200922000Y-117182000D02*
X201922000Y-117182000D01*
X195414000Y-121404000D02*
X195414000Y-120404000D01*
X193714000Y-120404000D02*
X193714000Y-121404000D01*
X201922000Y-122594000D02*
X200922000Y-122594000D01*
X200922000Y-124294000D02*
X201922000Y-124294000D01*
X159496000Y-142986000D02*
X159496000Y-139786000D01*
X157496000Y-139786000D02*
X157496000Y-142986000D01*
X157496000Y-139786000D02*
X159496000Y-139786000D01*
X134258859Y-120202000D02*
X136918859Y-120202000D01*
X134258859Y-115062000D02*
X134258859Y-120202000D01*
X136918859Y-115062000D02*
X136918859Y-120202000D01*
X134258859Y-115062000D02*
X136918859Y-115062000D01*
X134258859Y-113792000D02*
X134258859Y-112462000D01*
X134258859Y-112462000D02*
X135588859Y-112462000D01*
X141926000Y-120202000D02*
X144586000Y-120202000D01*
X141926000Y-115062000D02*
X141926000Y-120202000D01*
X144586000Y-115062000D02*
X144586000Y-120202000D01*
X141926000Y-115062000D02*
X144586000Y-115062000D01*
X141926000Y-113792000D02*
X141926000Y-112462000D01*
X141926000Y-112462000D02*
X143256000Y-112462000D01*
X142464000Y-137210000D02*
X142464000Y-149810000D01*
X142464000Y-149810000D02*
X152814000Y-149810000D01*
X152814000Y-149810000D02*
X152814000Y-148860000D01*
X152814000Y-148860000D02*
X153314000Y-149110000D01*
X153314000Y-149110000D02*
X153314000Y-147210000D01*
X153314000Y-147210000D02*
X153314000Y-147160000D01*
X153314000Y-147160000D02*
X152814000Y-147410000D01*
X152814000Y-147410000D02*
X152814000Y-142010000D01*
X152814000Y-142010000D02*
X153314000Y-142310000D01*
X153314000Y-142310000D02*
X153314000Y-137210000D01*
X153314000Y-137210000D02*
X142464000Y-137210000D01*
X126462000Y-137210000D02*
X126462000Y-149810000D01*
X126462000Y-149810000D02*
X136812000Y-149810000D01*
X136812000Y-149810000D02*
X136812000Y-148860000D01*
X136812000Y-148860000D02*
X137312000Y-149110000D01*
X137312000Y-149110000D02*
X137312000Y-147210000D01*
X137312000Y-147210000D02*
X137312000Y-147160000D01*
X137312000Y-147160000D02*
X136812000Y-147410000D01*
X136812000Y-147410000D02*
X136812000Y-142010000D01*
X136812000Y-142010000D02*
X137312000Y-142310000D01*
X137312000Y-142310000D02*
X137312000Y-137210000D01*
X137312000Y-137210000D02*
X126462000Y-137210000D01*
X88904000Y-140234000D02*
X122424000Y-140234000D01*
X122424000Y-140234000D02*
X122424000Y-149834000D01*
X122424000Y-149834000D02*
X88904000Y-149834000D01*
X88904000Y-149834000D02*
X88904000Y-140234000D01*
X183384000Y-105638000D02*
X149864000Y-105638000D01*
X149864000Y-105638000D02*
X149864000Y-96038000D01*
X149864000Y-96038000D02*
X183384000Y-96038000D01*
X183384000Y-96038000D02*
X183384000Y-105638000D01*
X203424000Y-137210000D02*
X203424000Y-149810000D01*
X203424000Y-149810000D02*
X213774000Y-149810000D01*
X213774000Y-149810000D02*
X213774000Y-148860000D01*
X213774000Y-148860000D02*
X214274000Y-149110000D01*
X214274000Y-149110000D02*
X214274000Y-147210000D01*
X214274000Y-147210000D02*
X214274000Y-147160000D01*
X214274000Y-147160000D02*
X213774000Y-147410000D01*
X213774000Y-147410000D02*
X213774000Y-142010000D01*
X213774000Y-142010000D02*
X214274000Y-142310000D01*
X214274000Y-142310000D02*
X214274000Y-137210000D01*
X214274000Y-137210000D02*
X203424000Y-137210000D01*
X188358000Y-137210000D02*
X188358000Y-149810000D01*
X188358000Y-149810000D02*
X198708000Y-149810000D01*
X198708000Y-149810000D02*
X198708000Y-148860000D01*
X198708000Y-148860000D02*
X199208000Y-149110000D01*
X199208000Y-149110000D02*
X199208000Y-147210000D01*
X199208000Y-147210000D02*
X199208000Y-147160000D01*
X199208000Y-147160000D02*
X198708000Y-147410000D01*
X198708000Y-147410000D02*
X198708000Y-142010000D01*
X198708000Y-142010000D02*
X199208000Y-142310000D01*
X199208000Y-142310000D02*
X199208000Y-137210000D01*
X199208000Y-137210000D02*
X188358000Y-137210000D01*
X86190000Y-112836000D02*
X86190000Y-105096000D01*
X86190000Y-105096000D02*
X83530000Y-105096000D01*
X83530000Y-105096000D02*
X83530000Y-112836000D01*
X83530000Y-112836000D02*
X86190000Y-112836000D01*
X83530000Y-111886000D02*
X77530000Y-111886000D01*
X77530000Y-111886000D02*
X77530000Y-111126000D01*
X77530000Y-111126000D02*
X83530000Y-111126000D01*
X83530000Y-111826000D02*
X77530000Y-111826000D01*
X83530000Y-111706000D02*
X77530000Y-111706000D01*
X83530000Y-111586000D02*
X77530000Y-111586000D01*
X83530000Y-111466000D02*
X77530000Y-111466000D01*
X83530000Y-111346000D02*
X77530000Y-111346000D01*
X83530000Y-111226000D02*
X77530000Y-111226000D01*
X86520000Y-111886000D02*
X86190000Y-111886000D01*
X86520000Y-111126000D02*
X86190000Y-111126000D01*
X86190000Y-110236000D02*
X83530000Y-110236000D01*
X83530000Y-109346000D02*
X77530000Y-109346000D01*
X77530000Y-109346000D02*
X77530000Y-108586000D01*
X77530000Y-108586000D02*
X83530000Y-108586000D01*
X86587071Y-109346000D02*
X86190000Y-109346000D01*
X86587071Y-108586000D02*
X86190000Y-108586000D01*
X86190000Y-107696000D02*
X83530000Y-107696000D01*
X83530000Y-106806000D02*
X77530000Y-106806000D01*
X77530000Y-106806000D02*
X77530000Y-106046000D01*
X77530000Y-106046000D02*
X83530000Y-106046000D01*
X86587071Y-106806000D02*
X86190000Y-106806000D01*
X86587071Y-106046000D02*
X86190000Y-106046000D01*
X88900000Y-111506000D02*
X88900000Y-112776000D01*
X88900000Y-112776000D02*
X87630000Y-112776000D01*
X205832000Y-100448000D02*
X204632000Y-100448000D01*
X204632000Y-98688000D02*
X205832000Y-98688000D01*
X225390000Y-120514000D02*
X224190000Y-120514000D01*
X224190000Y-118754000D02*
X225390000Y-118754000D01*
X188814000Y-100448000D02*
X187614000Y-100448000D01*
X187614000Y-98688000D02*
X188814000Y-98688000D01*
X202022000Y-120514000D02*
X200822000Y-120514000D01*
X200822000Y-118754000D02*
X202022000Y-118754000D01*
X82280000Y-120384000D02*
X79080000Y-120384000D01*
X79080000Y-118884000D02*
X82280000Y-118884000D01*
X79080000Y-118884000D02*
X79080000Y-120384000D01*
X128776000Y-134676000D02*
X128776000Y-133746000D01*
X128776000Y-131516000D02*
X128776000Y-132446000D01*
X128776000Y-131516000D02*
X126616000Y-131516000D01*
X128776000Y-134676000D02*
X127316000Y-134676000D01*
X160038000Y-124978000D02*
X160038000Y-125908000D01*
X160038000Y-128138000D02*
X160038000Y-127208000D01*
X160038000Y-128138000D02*
X162198000Y-128138000D01*
X160038000Y-124978000D02*
X161498000Y-124978000D01*
X124324000Y-130130000D02*
X124324000Y-131330000D01*
X122564000Y-131330000D02*
X122564000Y-130130000D01*
X135246000Y-132750000D02*
X135246000Y-133950000D01*
X133486000Y-133950000D02*
X133486000Y-132750000D01*
X131400000Y-115198000D02*
X132600000Y-115198000D01*
X132600000Y-116958000D02*
X131400000Y-116958000D01*
X140834000Y-116828000D02*
X140834000Y-118028000D01*
X139074000Y-118028000D02*
X139074000Y-116828000D01*
X124324000Y-135116000D02*
X124324000Y-136316000D01*
X122564000Y-136316000D02*
X122564000Y-135116000D01*
X152054000Y-116468000D02*
X153254000Y-116468000D01*
X153254000Y-118228000D02*
X152054000Y-118228000D01*
X166252000Y-132680000D02*
X166252000Y-131480000D01*
X168012000Y-131480000D02*
X168012000Y-132680000D01*
X166252000Y-127012000D02*
X166252000Y-125812000D01*
X168012000Y-125812000D02*
X168012000Y-127012000D01*
X81880000Y-117212000D02*
X80680000Y-117212000D01*
X80680000Y-115452000D02*
X81880000Y-115452000D01*
X177918000Y-65440000D02*
X177918000Y-66640000D01*
X176158000Y-66640000D02*
X176158000Y-65440000D01*
X98056000Y-127626000D02*
X96856000Y-127626000D01*
X96856000Y-125866000D02*
X98056000Y-125866000D01*
X96856000Y-128406000D02*
X98056000Y-128406000D01*
X98056000Y-130166000D02*
X96856000Y-130166000D01*
X176158000Y-74260000D02*
X176158000Y-73060000D01*
X177918000Y-73060000D02*
X177918000Y-74260000D01*
X205096000Y-127336000D02*
X205096000Y-128536000D01*
X203336000Y-128536000D02*
X203336000Y-127336000D01*
X209538000Y-118754000D02*
X210738000Y-118754000D01*
X210738000Y-120514000D02*
X209538000Y-120514000D01*
X221580000Y-128896000D02*
X220380000Y-128896000D01*
X220380000Y-127136000D02*
X221580000Y-127136000D01*
X181474000Y-127416000D02*
X181474000Y-128616000D01*
X179714000Y-128616000D02*
X179714000Y-127416000D01*
X186090000Y-118754000D02*
X187290000Y-118754000D01*
X187290000Y-120514000D02*
X186090000Y-120514000D01*
X195926000Y-128896000D02*
X194726000Y-128896000D01*
X194726000Y-127136000D02*
X195926000Y-127136000D01*
X88748173Y-75414071D02*
G75*
G02X83740000Y-79188000I-5008173J1436071D01*
G01*
X79749383Y-70628053D02*
G75*
G02X88817000Y-72807000I3990617J-3349947D01*
G01*
X78706928Y-75326867D02*
G75*
G02X78625000Y-72984000I5033072J1348867D01*
G01*
X83830657Y-79187257D02*
G75*
G02X79868000Y-77464000I-90657J5209257D01*
G01*
X85240000Y-73978000D02*
G75*
G03X85240000Y-73978000I-1500000J0D01*
G01*
X188842000Y-69890000D02*
X189842000Y-69890000D01*
X189342000Y-69390000D02*
X189342000Y-70390000D01*
X195442000Y-73190000D02*
X195442000Y-75790000D01*
X195442000Y-68590000D02*
X195442000Y-71190000D01*
X195442000Y-63990000D02*
X195442000Y-66590000D01*
X182142000Y-65790000D02*
X181842000Y-66090000D01*
X181542000Y-65790000D02*
X182142000Y-65790000D01*
X181842000Y-66090000D02*
X181542000Y-65790000D01*
X183242000Y-64090000D02*
X183242000Y-75790000D01*
X187342000Y-64090000D02*
X183242000Y-64090000D01*
X187342000Y-75790000D02*
X183242000Y-75790000D01*
X195442000Y-75790000D02*
X191342000Y-75790000D01*
X191342000Y-63990000D02*
X195442000Y-63990000D01*
X192342000Y-69890000D02*
G75*
G03X192342000Y-69890000I-3000000J0D01*
G01*
X211120000Y-63740000D02*
X223420000Y-63740000D01*
X223420000Y-68320000D02*
X223420000Y-71460000D01*
X223420000Y-76040000D02*
X211120000Y-76040000D01*
X211120000Y-66460000D02*
X211120000Y-63740000D01*
X221949050Y-69930000D02*
G75*
G03X221949050Y-69930000I-4579050J0D01*
G01*
X211120000Y-76040000D02*
X211120000Y-73320000D01*
X211120000Y-71460000D02*
X211120000Y-68320000D01*
X223420000Y-73320000D02*
X223420000Y-76040000D01*
X223420000Y-63740000D02*
X223420000Y-66460000D01*
X211374000Y-83218000D02*
X223674000Y-83218000D01*
X223674000Y-87798000D02*
X223674000Y-90938000D01*
X223674000Y-95518000D02*
X211374000Y-95518000D01*
X211374000Y-85938000D02*
X211374000Y-83218000D01*
X222203050Y-89408000D02*
G75*
G03X222203050Y-89408000I-4579050J0D01*
G01*
X211374000Y-95518000D02*
X211374000Y-92798000D01*
X211374000Y-90938000D02*
X211374000Y-87798000D01*
X223674000Y-92798000D02*
X223674000Y-95518000D01*
X223674000Y-83218000D02*
X223674000Y-85938000D01*
X79136999Y-91967332D02*
X79786999Y-91967332D01*
X82836999Y-91967332D02*
X82186999Y-91967332D01*
X82186999Y-98167332D02*
X82836999Y-98167332D01*
X79136999Y-98167332D02*
X79786999Y-98167332D01*
X79136999Y-91967332D02*
X79136999Y-98167332D01*
X82836999Y-98167332D02*
X82836999Y-91967332D01*
X169566000Y-144250000D02*
X169566000Y-142750000D01*
X169566000Y-142750000D02*
X169296000Y-142750000D01*
X169296000Y-142750000D02*
X169296000Y-139920000D01*
X162666000Y-144250000D02*
X162666000Y-142750000D01*
X162666000Y-142750000D02*
X162936000Y-142750000D01*
X162936000Y-142750000D02*
X162936000Y-141650000D01*
D13*
X116935000Y-106331000D02*
X115935000Y-106331000D01*
X116935000Y-116681000D02*
X115860000Y-116681000D01*
X106585000Y-116681000D02*
X107660000Y-116681000D01*
X106585000Y-106331000D02*
X107660000Y-106331000D01*
X116935000Y-106331000D02*
X116935000Y-107406000D01*
X106585000Y-106331000D02*
X106585000Y-107406000D01*
X106585000Y-116681000D02*
X106585000Y-115606000D01*
X116935000Y-116681000D02*
X116935000Y-115606000D01*
X115935000Y-106331000D02*
X115935000Y-105306000D01*
D12*
X98352000Y-132822000D02*
X96552000Y-132822000D01*
X96552000Y-136042000D02*
X99002000Y-136042000D01*
X200807000Y-85933000D02*
X200807000Y-84433000D01*
X200807000Y-84433000D02*
X200537000Y-84433000D01*
X200537000Y-84433000D02*
X200537000Y-81603000D01*
X193907000Y-85933000D02*
X193907000Y-84433000D01*
X193907000Y-84433000D02*
X194177000Y-84433000D01*
X194177000Y-84433000D02*
X194177000Y-83333000D01*
D13*
X210015000Y-125949000D02*
X210015000Y-125999000D01*
X214165000Y-125949000D02*
X214165000Y-126094000D01*
X214165000Y-131099000D02*
X214165000Y-130954000D01*
X210015000Y-131099000D02*
X210015000Y-130954000D01*
X210015000Y-125949000D02*
X214165000Y-125949000D01*
X210015000Y-131099000D02*
X214165000Y-131099000D01*
X210015000Y-125999000D02*
X208615000Y-125999000D01*
X185979000Y-125949000D02*
X185979000Y-125999000D01*
X190129000Y-125949000D02*
X190129000Y-126094000D01*
X190129000Y-131099000D02*
X190129000Y-130954000D01*
X185979000Y-131099000D02*
X185979000Y-130954000D01*
X185979000Y-125949000D02*
X190129000Y-125949000D01*
X185979000Y-131099000D02*
X190129000Y-131099000D01*
X185979000Y-125999000D02*
X184579000Y-125999000D01*
D12*
X106241046Y-92113194D02*
X122216046Y-92113194D01*
X122216046Y-92113194D02*
X122216046Y-87013194D01*
X122216046Y-87013194D02*
X106241046Y-87013194D01*
X121644000Y-93298000D02*
X121644000Y-92828000D01*
X121644000Y-92828000D02*
X125244000Y-92828000D01*
X125244000Y-92828000D02*
X125244000Y-93298000D01*
X121644000Y-98928000D02*
X121644000Y-95128000D01*
X122944000Y-101228000D02*
X121644000Y-101228000D01*
X125244000Y-101228000D02*
X123944000Y-101228000D01*
X121644000Y-101228000D02*
X121644000Y-100758000D01*
X125244000Y-101228000D02*
X125244000Y-100758000D01*
X125244000Y-95128000D02*
X125244000Y-98928000D01*
X123944000Y-101228000D02*
G75*
G03X122944000Y-101228000I-500000J0D01*
G01*
X122682610Y-98236652D02*
G75*
G03X124182000Y-98236000I749390J700652D01*
G01*
X122682610Y-96835348D02*
G75*
G02X124182000Y-96836000I749390J-700652D01*
G01*
X78608000Y-137124000D02*
X78608000Y-123124000D01*
X91608000Y-123124000D02*
X91608000Y-137124000D01*
X78608000Y-123124000D02*
X84178000Y-123124000D01*
X78608000Y-137124000D02*
X84178000Y-137124000D01*
X87018000Y-123124000D02*
X91608000Y-123124000D01*
X87018000Y-137124000D02*
X91608000Y-137124000D01*
D13*
X211379000Y-108042000D02*
X211379000Y-108092000D01*
X215529000Y-108042000D02*
X215529000Y-108187000D01*
X215529000Y-113192000D02*
X215529000Y-113047000D01*
X211379000Y-113192000D02*
X211379000Y-113047000D01*
X211379000Y-108042000D02*
X215529000Y-108042000D01*
X211379000Y-113192000D02*
X215529000Y-113192000D01*
X211379000Y-108092000D02*
X209979000Y-108092000D01*
X186647000Y-108169000D02*
X186647000Y-108219000D01*
X190797000Y-108169000D02*
X190797000Y-108314000D01*
X190797000Y-113319000D02*
X190797000Y-113174000D01*
X186647000Y-113319000D02*
X186647000Y-113174000D01*
X186647000Y-108169000D02*
X190797000Y-108169000D01*
X186647000Y-113319000D02*
X190797000Y-113319000D01*
X186647000Y-108219000D02*
X185247000Y-108219000D01*
D12*
X130230000Y-129524000D02*
X133430000Y-129524000D01*
X133430000Y-127524000D02*
X130230000Y-127524000D01*
X133430000Y-127524000D02*
X133430000Y-129524000D01*
X160172000Y-134350000D02*
X163372000Y-134350000D01*
X163372000Y-132350000D02*
X160172000Y-132350000D01*
X163372000Y-132350000D02*
X163372000Y-134350000D01*
D13*
X106596381Y-58253047D02*
X107310667Y-58253047D01*
X107453524Y-58300667D01*
X107548762Y-58395905D01*
X107596381Y-58538762D01*
X107596381Y-58634000D01*
X107691619Y-58014952D02*
X107691619Y-57253047D01*
X107596381Y-56538761D02*
X107596381Y-57014952D01*
X106596381Y-57014952D01*
X107501143Y-55633999D02*
X107548762Y-55681618D01*
X107596381Y-55824475D01*
X107596381Y-55919713D01*
X107548762Y-56062571D01*
X107453524Y-56157809D01*
X107358286Y-56205428D01*
X107167810Y-56253047D01*
X107024952Y-56253047D01*
X106834476Y-56205428D01*
X106739238Y-56157809D01*
X106644000Y-56062571D01*
X106596381Y-55919713D01*
X106596381Y-55824475D01*
X106644000Y-55681618D01*
X106691619Y-55633999D01*
X107596381Y-55205428D02*
X106596381Y-55205428D01*
X106596381Y-54967333D01*
X106644000Y-54824475D01*
X106739238Y-54729237D01*
X106834476Y-54681618D01*
X107024952Y-54633999D01*
X107167810Y-54633999D01*
X107358286Y-54681618D01*
X107453524Y-54729237D01*
X107548762Y-54824475D01*
X107596381Y-54967333D01*
X107596381Y-55205428D01*
X107596381Y-53681618D02*
X107596381Y-54253047D01*
X107596381Y-53967333D02*
X106596381Y-53967333D01*
X106739238Y-54062571D01*
X106834476Y-54157809D01*
X106882095Y-54253047D01*
X142454381Y-94487905D02*
X143263905Y-94487905D01*
X143359143Y-94440286D01*
X143406762Y-94392667D01*
X143454381Y-94297429D01*
X143454381Y-94106952D01*
X143406762Y-94011714D01*
X143359143Y-93964095D01*
X143263905Y-93916476D01*
X142454381Y-93916476D01*
X143454381Y-92916476D02*
X143454381Y-93487905D01*
X143454381Y-93202191D02*
X142454381Y-93202191D01*
X142597238Y-93297429D01*
X142692476Y-93392667D01*
X142740095Y-93487905D01*
X157750571Y-126874952D02*
X157798190Y-126732095D01*
X157845810Y-126684476D01*
X157941048Y-126636857D01*
X158083905Y-126636857D01*
X158179143Y-126684476D01*
X158226762Y-126732095D01*
X158274381Y-126827333D01*
X158274381Y-127208286D01*
X157274381Y-127208286D01*
X157274381Y-126874952D01*
X157322000Y-126779714D01*
X157369619Y-126732095D01*
X157464857Y-126684476D01*
X157560095Y-126684476D01*
X157655333Y-126732095D01*
X157702952Y-126779714D01*
X157750571Y-126874952D01*
X157750571Y-127208286D01*
X157274381Y-126303524D02*
X157274381Y-125636857D01*
X158274381Y-126303524D01*
X158274381Y-125636857D01*
X158274381Y-124732095D02*
X158274381Y-125303524D01*
X158274381Y-125017810D02*
X157274381Y-125017810D01*
X157417238Y-125113048D01*
X157512476Y-125208286D01*
X157560095Y-125303524D01*
X153233429Y-122564952D02*
X153233429Y-121803047D01*
X153614381Y-122183999D02*
X152852476Y-122183999D01*
X140029143Y-100750666D02*
X140076762Y-100798285D01*
X140124381Y-100941142D01*
X140124381Y-101036380D01*
X140076762Y-101179238D01*
X139981524Y-101274476D01*
X139886286Y-101322095D01*
X139695810Y-101369714D01*
X139552952Y-101369714D01*
X139362476Y-101322095D01*
X139267238Y-101274476D01*
X139172000Y-101179238D01*
X139124381Y-101036380D01*
X139124381Y-100941142D01*
X139172000Y-100798285D01*
X139219619Y-100750666D01*
X140124381Y-99798285D02*
X140124381Y-100369714D01*
X140124381Y-100084000D02*
X139124381Y-100084000D01*
X139267238Y-100179238D01*
X139362476Y-100274476D01*
X139410095Y-100369714D01*
X136473143Y-100750666D02*
X136520762Y-100798285D01*
X136568381Y-100941142D01*
X136568381Y-101036380D01*
X136520762Y-101179238D01*
X136425524Y-101274476D01*
X136330286Y-101322095D01*
X136139810Y-101369714D01*
X135996952Y-101369714D01*
X135806476Y-101322095D01*
X135711238Y-101274476D01*
X135616000Y-101179238D01*
X135568381Y-101036380D01*
X135568381Y-100941142D01*
X135616000Y-100798285D01*
X135663619Y-100750666D01*
X135663619Y-100369714D02*
X135616000Y-100322095D01*
X135568381Y-100226857D01*
X135568381Y-99988761D01*
X135616000Y-99893523D01*
X135663619Y-99845904D01*
X135758857Y-99798285D01*
X135854095Y-99798285D01*
X135996952Y-99845904D01*
X136568381Y-100417333D01*
X136568381Y-99798285D01*
X181741143Y-146216666D02*
X181788762Y-146264285D01*
X181836381Y-146407142D01*
X181836381Y-146502380D01*
X181788762Y-146645238D01*
X181693524Y-146740476D01*
X181598286Y-146788095D01*
X181407810Y-146835714D01*
X181264952Y-146835714D01*
X181074476Y-146788095D01*
X180979238Y-146740476D01*
X180884000Y-146645238D01*
X180836381Y-146502380D01*
X180836381Y-146407142D01*
X180884000Y-146264285D01*
X180931619Y-146216666D01*
X180836381Y-145883333D02*
X180836381Y-145264285D01*
X181217333Y-145597619D01*
X181217333Y-145454761D01*
X181264952Y-145359523D01*
X181312571Y-145311904D01*
X181407810Y-145264285D01*
X181645905Y-145264285D01*
X181741143Y-145311904D01*
X181788762Y-145359523D01*
X181836381Y-145454761D01*
X181836381Y-145740476D01*
X181788762Y-145835714D01*
X181741143Y-145883333D01*
X173749143Y-144946666D02*
X173796762Y-144994285D01*
X173844381Y-145137142D01*
X173844381Y-145232380D01*
X173796762Y-145375238D01*
X173701524Y-145470476D01*
X173606286Y-145518095D01*
X173415810Y-145565714D01*
X173272952Y-145565714D01*
X173082476Y-145518095D01*
X172987238Y-145470476D01*
X172892000Y-145375238D01*
X172844381Y-145232380D01*
X172844381Y-145137142D01*
X172892000Y-144994285D01*
X172939619Y-144946666D01*
X173177714Y-144089523D02*
X173844381Y-144089523D01*
X172796762Y-144327619D02*
X173511048Y-144565714D01*
X173511048Y-143946666D01*
X160361334Y-120019143D02*
X160313715Y-120066762D01*
X160170858Y-120114381D01*
X160075620Y-120114381D01*
X159932762Y-120066762D01*
X159837524Y-119971524D01*
X159789905Y-119876286D01*
X159742286Y-119685810D01*
X159742286Y-119542952D01*
X159789905Y-119352476D01*
X159837524Y-119257238D01*
X159932762Y-119162000D01*
X160075620Y-119114381D01*
X160170858Y-119114381D01*
X160313715Y-119162000D01*
X160361334Y-119209619D01*
X161266096Y-119114381D02*
X160789905Y-119114381D01*
X160742286Y-119590571D01*
X160789905Y-119542952D01*
X160885143Y-119495333D01*
X161123239Y-119495333D01*
X161218477Y-119542952D01*
X161266096Y-119590571D01*
X161313715Y-119685810D01*
X161313715Y-119923905D01*
X161266096Y-120019143D01*
X161218477Y-120066762D01*
X161123239Y-120114381D01*
X160885143Y-120114381D01*
X160789905Y-120066762D01*
X160742286Y-120019143D01*
X119086380Y-82836337D02*
X119038761Y-82883956D01*
X118895904Y-82931575D01*
X118800666Y-82931575D01*
X118657808Y-82883956D01*
X118562570Y-82788718D01*
X118514951Y-82693480D01*
X118467332Y-82503004D01*
X118467332Y-82360146D01*
X118514951Y-82169670D01*
X118562570Y-82074432D01*
X118657808Y-81979194D01*
X118800666Y-81931575D01*
X118895904Y-81931575D01*
X119038761Y-81979194D01*
X119086380Y-82026813D01*
X119657808Y-82360146D02*
X119562570Y-82312527D01*
X119514951Y-82264908D01*
X119467332Y-82169670D01*
X119467332Y-82122051D01*
X119514951Y-82026813D01*
X119562570Y-81979194D01*
X119657808Y-81931575D01*
X119848285Y-81931575D01*
X119943523Y-81979194D01*
X119991142Y-82026813D01*
X120038761Y-82122051D01*
X120038761Y-82169670D01*
X119991142Y-82264908D01*
X119943523Y-82312527D01*
X119848285Y-82360146D01*
X119657808Y-82360146D01*
X119562570Y-82407765D01*
X119514951Y-82455384D01*
X119467332Y-82550623D01*
X119467332Y-82741099D01*
X119514951Y-82836337D01*
X119562570Y-82883956D01*
X119657808Y-82931575D01*
X119848285Y-82931575D01*
X119943523Y-82883956D01*
X119991142Y-82836337D01*
X120038761Y-82741099D01*
X120038761Y-82550623D01*
X119991142Y-82455384D01*
X119943523Y-82407765D01*
X119848285Y-82360146D01*
X106926189Y-82836337D02*
X106878570Y-82883956D01*
X106735713Y-82931575D01*
X106640475Y-82931575D01*
X106497617Y-82883956D01*
X106402379Y-82788718D01*
X106354760Y-82693480D01*
X106307141Y-82503004D01*
X106307141Y-82360146D01*
X106354760Y-82169670D01*
X106402379Y-82074432D01*
X106497617Y-81979194D01*
X106640475Y-81931575D01*
X106735713Y-81931575D01*
X106878570Y-81979194D01*
X106926189Y-82026813D01*
X107878570Y-82931575D02*
X107307141Y-82931575D01*
X107592855Y-82931575D02*
X107592855Y-81931575D01*
X107497617Y-82074432D01*
X107402379Y-82169670D01*
X107307141Y-82217289D01*
X108497617Y-81931575D02*
X108592856Y-81931575D01*
X108688094Y-81979194D01*
X108735713Y-82026813D01*
X108783332Y-82122051D01*
X108830951Y-82312527D01*
X108830951Y-82550623D01*
X108783332Y-82741099D01*
X108735713Y-82836337D01*
X108688094Y-82883956D01*
X108592856Y-82931575D01*
X108497617Y-82931575D01*
X108402379Y-82883956D01*
X108354760Y-82836337D01*
X108307141Y-82741099D01*
X108259522Y-82550623D01*
X108259522Y-82312527D01*
X108307141Y-82122051D01*
X108354760Y-82026813D01*
X108402379Y-81979194D01*
X108497617Y-81931575D01*
X129897143Y-95638857D02*
X129944762Y-95686476D01*
X129992381Y-95829333D01*
X129992381Y-95924571D01*
X129944762Y-96067429D01*
X129849524Y-96162667D01*
X129754286Y-96210286D01*
X129563810Y-96257905D01*
X129420952Y-96257905D01*
X129230476Y-96210286D01*
X129135238Y-96162667D01*
X129040000Y-96067429D01*
X128992381Y-95924571D01*
X128992381Y-95829333D01*
X129040000Y-95686476D01*
X129087619Y-95638857D01*
X129992381Y-94686476D02*
X129992381Y-95257905D01*
X129992381Y-94972191D02*
X128992381Y-94972191D01*
X129135238Y-95067429D01*
X129230476Y-95162667D01*
X129278095Y-95257905D01*
X129087619Y-94305524D02*
X129040000Y-94257905D01*
X128992381Y-94162667D01*
X128992381Y-93924571D01*
X129040000Y-93829333D01*
X129087619Y-93781714D01*
X129182857Y-93734095D01*
X129278095Y-93734095D01*
X129420952Y-93781714D01*
X129992381Y-94353143D01*
X129992381Y-93734095D01*
X117197143Y-95384857D02*
X117244762Y-95432476D01*
X117292381Y-95575333D01*
X117292381Y-95670571D01*
X117244762Y-95813429D01*
X117149524Y-95908667D01*
X117054286Y-95956286D01*
X116863810Y-96003905D01*
X116720952Y-96003905D01*
X116530476Y-95956286D01*
X116435238Y-95908667D01*
X116340000Y-95813429D01*
X116292381Y-95670571D01*
X116292381Y-95575333D01*
X116340000Y-95432476D01*
X116387619Y-95384857D01*
X117292381Y-94432476D02*
X117292381Y-95003905D01*
X117292381Y-94718191D02*
X116292381Y-94718191D01*
X116435238Y-94813429D01*
X116530476Y-94908667D01*
X116578095Y-95003905D01*
X116625714Y-93575333D02*
X117292381Y-93575333D01*
X116244762Y-93813429D02*
X116959048Y-94051524D01*
X116959048Y-93432476D01*
X172061143Y-66682857D02*
X172108762Y-66730476D01*
X172156381Y-66873333D01*
X172156381Y-66968571D01*
X172108762Y-67111429D01*
X172013524Y-67206667D01*
X171918286Y-67254286D01*
X171727810Y-67301905D01*
X171584952Y-67301905D01*
X171394476Y-67254286D01*
X171299238Y-67206667D01*
X171204000Y-67111429D01*
X171156381Y-66968571D01*
X171156381Y-66873333D01*
X171204000Y-66730476D01*
X171251619Y-66682857D01*
X171251619Y-66301905D02*
X171204000Y-66254286D01*
X171156381Y-66159048D01*
X171156381Y-65920952D01*
X171204000Y-65825714D01*
X171251619Y-65778095D01*
X171346857Y-65730476D01*
X171442095Y-65730476D01*
X171584952Y-65778095D01*
X172156381Y-66349524D01*
X172156381Y-65730476D01*
X171251619Y-65349524D02*
X171204000Y-65301905D01*
X171156381Y-65206667D01*
X171156381Y-64968571D01*
X171204000Y-64873333D01*
X171251619Y-64825714D01*
X171346857Y-64778095D01*
X171442095Y-64778095D01*
X171584952Y-64825714D01*
X172156381Y-65397143D01*
X172156381Y-64778095D01*
X88213143Y-96400857D02*
X88260762Y-96448476D01*
X88308381Y-96591333D01*
X88308381Y-96686571D01*
X88260762Y-96829429D01*
X88165524Y-96924667D01*
X88070286Y-96972286D01*
X87879810Y-97019905D01*
X87736952Y-97019905D01*
X87546476Y-96972286D01*
X87451238Y-96924667D01*
X87356000Y-96829429D01*
X87308381Y-96686571D01*
X87308381Y-96591333D01*
X87356000Y-96448476D01*
X87403619Y-96400857D01*
X87403619Y-96019905D02*
X87356000Y-95972286D01*
X87308381Y-95877048D01*
X87308381Y-95638952D01*
X87356000Y-95543714D01*
X87403619Y-95496095D01*
X87498857Y-95448476D01*
X87594095Y-95448476D01*
X87736952Y-95496095D01*
X88308381Y-96067524D01*
X88308381Y-95448476D01*
X87308381Y-95115143D02*
X87308381Y-94496095D01*
X87689333Y-94829429D01*
X87689333Y-94686571D01*
X87736952Y-94591333D01*
X87784571Y-94543714D01*
X87879810Y-94496095D01*
X88117905Y-94496095D01*
X88213143Y-94543714D01*
X88260762Y-94591333D01*
X88308381Y-94686571D01*
X88308381Y-94972286D01*
X88260762Y-95067524D01*
X88213143Y-95115143D01*
X225683143Y-70492857D02*
X225730762Y-70540476D01*
X225778381Y-70683333D01*
X225778381Y-70778571D01*
X225730762Y-70921429D01*
X225635524Y-71016667D01*
X225540286Y-71064286D01*
X225349810Y-71111905D01*
X225206952Y-71111905D01*
X225016476Y-71064286D01*
X224921238Y-71016667D01*
X224826000Y-70921429D01*
X224778381Y-70778571D01*
X224778381Y-70683333D01*
X224826000Y-70540476D01*
X224873619Y-70492857D01*
X224873619Y-70111905D02*
X224826000Y-70064286D01*
X224778381Y-69969048D01*
X224778381Y-69730952D01*
X224826000Y-69635714D01*
X224873619Y-69588095D01*
X224968857Y-69540476D01*
X225064095Y-69540476D01*
X225206952Y-69588095D01*
X225778381Y-70159524D01*
X225778381Y-69540476D01*
X225111714Y-68683333D02*
X225778381Y-68683333D01*
X224730762Y-68921429D02*
X225445048Y-69159524D01*
X225445048Y-68540476D01*
X225683143Y-89796857D02*
X225730762Y-89844476D01*
X225778381Y-89987333D01*
X225778381Y-90082571D01*
X225730762Y-90225429D01*
X225635524Y-90320667D01*
X225540286Y-90368286D01*
X225349810Y-90415905D01*
X225206952Y-90415905D01*
X225016476Y-90368286D01*
X224921238Y-90320667D01*
X224826000Y-90225429D01*
X224778381Y-90082571D01*
X224778381Y-89987333D01*
X224826000Y-89844476D01*
X224873619Y-89796857D01*
X224873619Y-89415905D02*
X224826000Y-89368286D01*
X224778381Y-89273048D01*
X224778381Y-89034952D01*
X224826000Y-88939714D01*
X224873619Y-88892095D01*
X224968857Y-88844476D01*
X225064095Y-88844476D01*
X225206952Y-88892095D01*
X225778381Y-89463524D01*
X225778381Y-88844476D01*
X224778381Y-87939714D02*
X224778381Y-88415905D01*
X225254571Y-88463524D01*
X225206952Y-88415905D01*
X225159333Y-88320667D01*
X225159333Y-88082571D01*
X225206952Y-87987333D01*
X225254571Y-87939714D01*
X225349810Y-87892095D01*
X225587905Y-87892095D01*
X225683143Y-87939714D01*
X225730762Y-87987333D01*
X225778381Y-88082571D01*
X225778381Y-88320667D01*
X225730762Y-88415905D01*
X225683143Y-88463524D01*
X172089143Y-74282857D02*
X172136762Y-74330476D01*
X172184381Y-74473333D01*
X172184381Y-74568571D01*
X172136762Y-74711429D01*
X172041524Y-74806667D01*
X171946286Y-74854286D01*
X171755810Y-74901905D01*
X171612952Y-74901905D01*
X171422476Y-74854286D01*
X171327238Y-74806667D01*
X171232000Y-74711429D01*
X171184381Y-74568571D01*
X171184381Y-74473333D01*
X171232000Y-74330476D01*
X171279619Y-74282857D01*
X171279619Y-73901905D02*
X171232000Y-73854286D01*
X171184381Y-73759048D01*
X171184381Y-73520952D01*
X171232000Y-73425714D01*
X171279619Y-73378095D01*
X171374857Y-73330476D01*
X171470095Y-73330476D01*
X171612952Y-73378095D01*
X172184381Y-73949524D01*
X172184381Y-73330476D01*
X171184381Y-72473333D02*
X171184381Y-72663810D01*
X171232000Y-72759048D01*
X171279619Y-72806667D01*
X171422476Y-72901905D01*
X171612952Y-72949524D01*
X171993905Y-72949524D01*
X172089143Y-72901905D01*
X172136762Y-72854286D01*
X172184381Y-72759048D01*
X172184381Y-72568571D01*
X172136762Y-72473333D01*
X172089143Y-72425714D01*
X171993905Y-72378095D01*
X171755810Y-72378095D01*
X171660571Y-72425714D01*
X171612952Y-72473333D01*
X171565333Y-72568571D01*
X171565333Y-72759048D01*
X171612952Y-72854286D01*
X171660571Y-72901905D01*
X171755810Y-72949524D01*
X204609143Y-98373143D02*
X204561524Y-98420762D01*
X204418667Y-98468381D01*
X204323429Y-98468381D01*
X204180571Y-98420762D01*
X204085333Y-98325524D01*
X204037714Y-98230286D01*
X203990095Y-98039810D01*
X203990095Y-97896952D01*
X204037714Y-97706476D01*
X204085333Y-97611238D01*
X204180571Y-97516000D01*
X204323429Y-97468381D01*
X204418667Y-97468381D01*
X204561524Y-97516000D01*
X204609143Y-97563619D01*
X204990095Y-97563619D02*
X205037714Y-97516000D01*
X205132952Y-97468381D01*
X205371048Y-97468381D01*
X205466286Y-97516000D01*
X205513905Y-97563619D01*
X205561524Y-97658857D01*
X205561524Y-97754095D01*
X205513905Y-97896952D01*
X204942476Y-98468381D01*
X205561524Y-98468381D01*
X205894857Y-97468381D02*
X206561524Y-97468381D01*
X206132952Y-98468381D01*
X204569143Y-105005143D02*
X204521524Y-105052762D01*
X204378667Y-105100381D01*
X204283429Y-105100381D01*
X204140571Y-105052762D01*
X204045333Y-104957524D01*
X203997714Y-104862286D01*
X203950095Y-104671810D01*
X203950095Y-104528952D01*
X203997714Y-104338476D01*
X204045333Y-104243238D01*
X204140571Y-104148000D01*
X204283429Y-104100381D01*
X204378667Y-104100381D01*
X204521524Y-104148000D01*
X204569143Y-104195619D01*
X204950095Y-104195619D02*
X204997714Y-104148000D01*
X205092952Y-104100381D01*
X205331048Y-104100381D01*
X205426286Y-104148000D01*
X205473905Y-104195619D01*
X205521524Y-104290857D01*
X205521524Y-104386095D01*
X205473905Y-104528952D01*
X204902476Y-105100381D01*
X205521524Y-105100381D01*
X206092952Y-104528952D02*
X205997714Y-104481333D01*
X205950095Y-104433714D01*
X205902476Y-104338476D01*
X205902476Y-104290857D01*
X205950095Y-104195619D01*
X205997714Y-104148000D01*
X206092952Y-104100381D01*
X206283429Y-104100381D01*
X206378667Y-104148000D01*
X206426286Y-104195619D01*
X206473905Y-104290857D01*
X206473905Y-104338476D01*
X206426286Y-104433714D01*
X206378667Y-104481333D01*
X206283429Y-104528952D01*
X206092952Y-104528952D01*
X205997714Y-104576571D01*
X205950095Y-104624190D01*
X205902476Y-104719429D01*
X205902476Y-104909905D01*
X205950095Y-105005143D01*
X205997714Y-105052762D01*
X206092952Y-105100381D01*
X206283429Y-105100381D01*
X206378667Y-105052762D01*
X206426286Y-105005143D01*
X206473905Y-104909905D01*
X206473905Y-104719429D01*
X206426286Y-104624190D01*
X206378667Y-104576571D01*
X206283429Y-104528952D01*
X203585143Y-86514857D02*
X203632762Y-86562476D01*
X203680381Y-86705333D01*
X203680381Y-86800571D01*
X203632762Y-86943429D01*
X203537524Y-87038667D01*
X203442286Y-87086286D01*
X203251810Y-87133905D01*
X203108952Y-87133905D01*
X202918476Y-87086286D01*
X202823238Y-87038667D01*
X202728000Y-86943429D01*
X202680381Y-86800571D01*
X202680381Y-86705333D01*
X202728000Y-86562476D01*
X202775619Y-86514857D01*
X202775619Y-86133905D02*
X202728000Y-86086286D01*
X202680381Y-85991048D01*
X202680381Y-85752952D01*
X202728000Y-85657714D01*
X202775619Y-85610095D01*
X202870857Y-85562476D01*
X202966095Y-85562476D01*
X203108952Y-85610095D01*
X203680381Y-86181524D01*
X203680381Y-85562476D01*
X203680381Y-85086286D02*
X203680381Y-84895810D01*
X203632762Y-84800571D01*
X203585143Y-84752952D01*
X203442286Y-84657714D01*
X203251810Y-84610095D01*
X202870857Y-84610095D01*
X202775619Y-84657714D01*
X202728000Y-84705333D01*
X202680381Y-84800571D01*
X202680381Y-84991048D01*
X202728000Y-85086286D01*
X202775619Y-85133905D01*
X202870857Y-85181524D01*
X203108952Y-85181524D01*
X203204190Y-85133905D01*
X203251810Y-85086286D01*
X203299429Y-84991048D01*
X203299429Y-84800571D01*
X203251810Y-84705333D01*
X203204190Y-84657714D01*
X203108952Y-84610095D01*
X213745143Y-121546857D02*
X213792762Y-121594476D01*
X213840381Y-121737333D01*
X213840381Y-121832571D01*
X213792762Y-121975429D01*
X213697524Y-122070667D01*
X213602286Y-122118286D01*
X213411810Y-122165905D01*
X213268952Y-122165905D01*
X213078476Y-122118286D01*
X212983238Y-122070667D01*
X212888000Y-121975429D01*
X212840381Y-121832571D01*
X212840381Y-121737333D01*
X212888000Y-121594476D01*
X212935619Y-121546857D01*
X212840381Y-121213524D02*
X212840381Y-120594476D01*
X213221333Y-120927810D01*
X213221333Y-120784952D01*
X213268952Y-120689714D01*
X213316571Y-120642095D01*
X213411810Y-120594476D01*
X213649905Y-120594476D01*
X213745143Y-120642095D01*
X213792762Y-120689714D01*
X213840381Y-120784952D01*
X213840381Y-121070667D01*
X213792762Y-121165905D01*
X213745143Y-121213524D01*
X212840381Y-119975429D02*
X212840381Y-119880190D01*
X212888000Y-119784952D01*
X212935619Y-119737333D01*
X213030857Y-119689714D01*
X213221333Y-119642095D01*
X213459429Y-119642095D01*
X213649905Y-119689714D01*
X213745143Y-119737333D01*
X213792762Y-119784952D01*
X213840381Y-119880190D01*
X213840381Y-119975429D01*
X213792762Y-120070667D01*
X213745143Y-120118286D01*
X213649905Y-120165905D01*
X213459429Y-120213524D01*
X213221333Y-120213524D01*
X213030857Y-120165905D01*
X212935619Y-120118286D01*
X212888000Y-120070667D01*
X212840381Y-119975429D01*
X223893143Y-114939143D02*
X223845524Y-114986762D01*
X223702667Y-115034381D01*
X223607429Y-115034381D01*
X223464571Y-114986762D01*
X223369333Y-114891524D01*
X223321714Y-114796286D01*
X223274095Y-114605810D01*
X223274095Y-114462952D01*
X223321714Y-114272476D01*
X223369333Y-114177238D01*
X223464571Y-114082000D01*
X223607429Y-114034381D01*
X223702667Y-114034381D01*
X223845524Y-114082000D01*
X223893143Y-114129619D01*
X224226476Y-114034381D02*
X224845524Y-114034381D01*
X224512190Y-114415333D01*
X224655048Y-114415333D01*
X224750286Y-114462952D01*
X224797905Y-114510571D01*
X224845524Y-114605810D01*
X224845524Y-114843905D01*
X224797905Y-114939143D01*
X224750286Y-114986762D01*
X224655048Y-115034381D01*
X224369333Y-115034381D01*
X224274095Y-114986762D01*
X224226476Y-114939143D01*
X225797905Y-115034381D02*
X225226476Y-115034381D01*
X225512190Y-115034381D02*
X225512190Y-114034381D01*
X225416952Y-114177238D01*
X225321714Y-114272476D01*
X225226476Y-114320095D01*
X217976142Y-121713855D02*
X218023761Y-121761474D01*
X218071380Y-121904331D01*
X218071380Y-121999569D01*
X218023761Y-122142427D01*
X217928523Y-122237665D01*
X217833285Y-122285284D01*
X217642809Y-122332903D01*
X217499951Y-122332903D01*
X217309475Y-122285284D01*
X217214237Y-122237665D01*
X217118999Y-122142427D01*
X217071380Y-121999569D01*
X217071380Y-121904331D01*
X217118999Y-121761474D01*
X217166618Y-121713855D01*
X217071380Y-121380522D02*
X217071380Y-120761474D01*
X217452332Y-121094808D01*
X217452332Y-120951950D01*
X217499951Y-120856712D01*
X217547570Y-120809093D01*
X217642809Y-120761474D01*
X217880904Y-120761474D01*
X217976142Y-120809093D01*
X218023761Y-120856712D01*
X218071380Y-120951950D01*
X218071380Y-121237665D01*
X218023761Y-121332903D01*
X217976142Y-121380522D01*
X217166618Y-120380522D02*
X217118999Y-120332903D01*
X217071380Y-120237665D01*
X217071380Y-119999569D01*
X217118999Y-119904331D01*
X217166618Y-119856712D01*
X217261856Y-119809093D01*
X217357094Y-119809093D01*
X217499951Y-119856712D01*
X218071380Y-120428141D01*
X218071380Y-119809093D01*
X224167143Y-122051143D02*
X224119524Y-122098762D01*
X223976667Y-122146381D01*
X223881429Y-122146381D01*
X223738571Y-122098762D01*
X223643333Y-122003524D01*
X223595714Y-121908286D01*
X223548095Y-121717810D01*
X223548095Y-121574952D01*
X223595714Y-121384476D01*
X223643333Y-121289238D01*
X223738571Y-121194000D01*
X223881429Y-121146381D01*
X223976667Y-121146381D01*
X224119524Y-121194000D01*
X224167143Y-121241619D01*
X224500476Y-121146381D02*
X225119524Y-121146381D01*
X224786190Y-121527333D01*
X224929048Y-121527333D01*
X225024286Y-121574952D01*
X225071905Y-121622571D01*
X225119524Y-121717810D01*
X225119524Y-121955905D01*
X225071905Y-122051143D01*
X225024286Y-122098762D01*
X224929048Y-122146381D01*
X224643333Y-122146381D01*
X224548095Y-122098762D01*
X224500476Y-122051143D01*
X225452857Y-121146381D02*
X226071905Y-121146381D01*
X225738571Y-121527333D01*
X225881429Y-121527333D01*
X225976667Y-121574952D01*
X226024286Y-121622571D01*
X226071905Y-121717810D01*
X226071905Y-121955905D01*
X226024286Y-122051143D01*
X225976667Y-122098762D01*
X225881429Y-122146381D01*
X225595714Y-122146381D01*
X225500476Y-122098762D01*
X225452857Y-122051143D01*
X187805143Y-98373143D02*
X187757524Y-98420762D01*
X187614667Y-98468381D01*
X187519429Y-98468381D01*
X187376571Y-98420762D01*
X187281333Y-98325524D01*
X187233714Y-98230286D01*
X187186095Y-98039810D01*
X187186095Y-97896952D01*
X187233714Y-97706476D01*
X187281333Y-97611238D01*
X187376571Y-97516000D01*
X187519429Y-97468381D01*
X187614667Y-97468381D01*
X187757524Y-97516000D01*
X187805143Y-97563619D01*
X188138476Y-97468381D02*
X188757524Y-97468381D01*
X188424190Y-97849333D01*
X188567048Y-97849333D01*
X188662286Y-97896952D01*
X188709905Y-97944571D01*
X188757524Y-98039810D01*
X188757524Y-98277905D01*
X188709905Y-98373143D01*
X188662286Y-98420762D01*
X188567048Y-98468381D01*
X188281333Y-98468381D01*
X188186095Y-98420762D01*
X188138476Y-98373143D01*
X189614667Y-97801714D02*
X189614667Y-98468381D01*
X189376571Y-97420762D02*
X189138476Y-98135048D01*
X189757524Y-98135048D01*
X187591143Y-104751143D02*
X187543524Y-104798762D01*
X187400667Y-104846381D01*
X187305429Y-104846381D01*
X187162571Y-104798762D01*
X187067333Y-104703524D01*
X187019714Y-104608286D01*
X186972095Y-104417810D01*
X186972095Y-104274952D01*
X187019714Y-104084476D01*
X187067333Y-103989238D01*
X187162571Y-103894000D01*
X187305429Y-103846381D01*
X187400667Y-103846381D01*
X187543524Y-103894000D01*
X187591143Y-103941619D01*
X187924476Y-103846381D02*
X188543524Y-103846381D01*
X188210190Y-104227333D01*
X188353048Y-104227333D01*
X188448286Y-104274952D01*
X188495905Y-104322571D01*
X188543524Y-104417810D01*
X188543524Y-104655905D01*
X188495905Y-104751143D01*
X188448286Y-104798762D01*
X188353048Y-104846381D01*
X188067333Y-104846381D01*
X187972095Y-104798762D01*
X187924476Y-104751143D01*
X189448286Y-103846381D02*
X188972095Y-103846381D01*
X188924476Y-104322571D01*
X188972095Y-104274952D01*
X189067333Y-104227333D01*
X189305429Y-104227333D01*
X189400667Y-104274952D01*
X189448286Y-104322571D01*
X189495905Y-104417810D01*
X189495905Y-104655905D01*
X189448286Y-104751143D01*
X189400667Y-104798762D01*
X189305429Y-104846381D01*
X189067333Y-104846381D01*
X188972095Y-104798762D01*
X188924476Y-104751143D01*
X193369143Y-121546857D02*
X193416762Y-121594476D01*
X193464381Y-121737333D01*
X193464381Y-121832571D01*
X193416762Y-121975429D01*
X193321524Y-122070667D01*
X193226286Y-122118286D01*
X193035810Y-122165905D01*
X192892952Y-122165905D01*
X192702476Y-122118286D01*
X192607238Y-122070667D01*
X192512000Y-121975429D01*
X192464381Y-121832571D01*
X192464381Y-121737333D01*
X192512000Y-121594476D01*
X192559619Y-121546857D01*
X192464381Y-121213524D02*
X192464381Y-120594476D01*
X192845333Y-120927810D01*
X192845333Y-120784952D01*
X192892952Y-120689714D01*
X192940571Y-120642095D01*
X193035810Y-120594476D01*
X193273905Y-120594476D01*
X193369143Y-120642095D01*
X193416762Y-120689714D01*
X193464381Y-120784952D01*
X193464381Y-121070667D01*
X193416762Y-121165905D01*
X193369143Y-121213524D01*
X192464381Y-119737333D02*
X192464381Y-119927810D01*
X192512000Y-120023048D01*
X192559619Y-120070667D01*
X192702476Y-120165905D01*
X192892952Y-120213524D01*
X193273905Y-120213524D01*
X193369143Y-120165905D01*
X193416762Y-120118286D01*
X193464381Y-120023048D01*
X193464381Y-119832571D01*
X193416762Y-119737333D01*
X193369143Y-119689714D01*
X193273905Y-119642095D01*
X193035810Y-119642095D01*
X192940571Y-119689714D01*
X192892952Y-119737333D01*
X192845333Y-119832571D01*
X192845333Y-120023048D01*
X192892952Y-120118286D01*
X192940571Y-120165905D01*
X193035810Y-120213524D01*
X200779143Y-114939143D02*
X200731524Y-114986762D01*
X200588667Y-115034381D01*
X200493429Y-115034381D01*
X200350571Y-114986762D01*
X200255333Y-114891524D01*
X200207714Y-114796286D01*
X200160095Y-114605810D01*
X200160095Y-114462952D01*
X200207714Y-114272476D01*
X200255333Y-114177238D01*
X200350571Y-114082000D01*
X200493429Y-114034381D01*
X200588667Y-114034381D01*
X200731524Y-114082000D01*
X200779143Y-114129619D01*
X201112476Y-114034381D02*
X201731524Y-114034381D01*
X201398190Y-114415333D01*
X201541048Y-114415333D01*
X201636286Y-114462952D01*
X201683905Y-114510571D01*
X201731524Y-114605810D01*
X201731524Y-114843905D01*
X201683905Y-114939143D01*
X201636286Y-114986762D01*
X201541048Y-115034381D01*
X201255333Y-115034381D01*
X201160095Y-114986762D01*
X201112476Y-114939143D01*
X202064857Y-114034381D02*
X202731524Y-114034381D01*
X202302952Y-115034381D01*
X196671143Y-121546857D02*
X196718762Y-121594476D01*
X196766381Y-121737333D01*
X196766381Y-121832571D01*
X196718762Y-121975429D01*
X196623524Y-122070667D01*
X196528286Y-122118286D01*
X196337810Y-122165905D01*
X196194952Y-122165905D01*
X196004476Y-122118286D01*
X195909238Y-122070667D01*
X195814000Y-121975429D01*
X195766381Y-121832571D01*
X195766381Y-121737333D01*
X195814000Y-121594476D01*
X195861619Y-121546857D01*
X195766381Y-121213524D02*
X195766381Y-120594476D01*
X196147333Y-120927810D01*
X196147333Y-120784952D01*
X196194952Y-120689714D01*
X196242571Y-120642095D01*
X196337810Y-120594476D01*
X196575905Y-120594476D01*
X196671143Y-120642095D01*
X196718762Y-120689714D01*
X196766381Y-120784952D01*
X196766381Y-121070667D01*
X196718762Y-121165905D01*
X196671143Y-121213524D01*
X196194952Y-120023048D02*
X196147333Y-120118286D01*
X196099714Y-120165905D01*
X196004476Y-120213524D01*
X195956857Y-120213524D01*
X195861619Y-120165905D01*
X195814000Y-120118286D01*
X195766381Y-120023048D01*
X195766381Y-119832571D01*
X195814000Y-119737333D01*
X195861619Y-119689714D01*
X195956857Y-119642095D01*
X196004476Y-119642095D01*
X196099714Y-119689714D01*
X196147333Y-119737333D01*
X196194952Y-119832571D01*
X196194952Y-120023048D01*
X196242571Y-120118286D01*
X196290190Y-120165905D01*
X196385429Y-120213524D01*
X196575905Y-120213524D01*
X196671143Y-120165905D01*
X196718762Y-120118286D01*
X196766381Y-120023048D01*
X196766381Y-119832571D01*
X196718762Y-119737333D01*
X196671143Y-119689714D01*
X196575905Y-119642095D01*
X196385429Y-119642095D01*
X196290190Y-119689714D01*
X196242571Y-119737333D01*
X196194952Y-119832571D01*
X200779143Y-122051143D02*
X200731524Y-122098762D01*
X200588667Y-122146381D01*
X200493429Y-122146381D01*
X200350571Y-122098762D01*
X200255333Y-122003524D01*
X200207714Y-121908286D01*
X200160095Y-121717810D01*
X200160095Y-121574952D01*
X200207714Y-121384476D01*
X200255333Y-121289238D01*
X200350571Y-121194000D01*
X200493429Y-121146381D01*
X200588667Y-121146381D01*
X200731524Y-121194000D01*
X200779143Y-121241619D01*
X201112476Y-121146381D02*
X201731524Y-121146381D01*
X201398190Y-121527333D01*
X201541048Y-121527333D01*
X201636286Y-121574952D01*
X201683905Y-121622571D01*
X201731524Y-121717810D01*
X201731524Y-121955905D01*
X201683905Y-122051143D01*
X201636286Y-122098762D01*
X201541048Y-122146381D01*
X201255333Y-122146381D01*
X201160095Y-122098762D01*
X201112476Y-122051143D01*
X202207714Y-122146381D02*
X202398190Y-122146381D01*
X202493429Y-122098762D01*
X202541048Y-122051143D01*
X202636286Y-121908286D01*
X202683905Y-121717810D01*
X202683905Y-121336857D01*
X202636286Y-121241619D01*
X202588667Y-121194000D01*
X202493429Y-121146381D01*
X202302952Y-121146381D01*
X202207714Y-121194000D01*
X202160095Y-121241619D01*
X202112476Y-121336857D01*
X202112476Y-121574952D01*
X202160095Y-121670190D01*
X202207714Y-121717810D01*
X202302952Y-121765429D01*
X202493429Y-121765429D01*
X202588667Y-121717810D01*
X202636286Y-121670190D01*
X202683905Y-121574952D01*
X160948381Y-142724095D02*
X159948381Y-142724095D01*
X159948381Y-142486000D01*
X159996000Y-142343142D01*
X160091238Y-142247904D01*
X160186476Y-142200285D01*
X160376952Y-142152666D01*
X160519810Y-142152666D01*
X160710286Y-142200285D01*
X160805524Y-142247904D01*
X160900762Y-142343142D01*
X160948381Y-142486000D01*
X160948381Y-142724095D01*
X160948381Y-141200285D02*
X160948381Y-141771714D01*
X160948381Y-141486000D02*
X159948381Y-141486000D01*
X160091238Y-141581238D01*
X160186476Y-141676476D01*
X160234095Y-141771714D01*
X133040667Y-111390571D02*
X133183524Y-111438190D01*
X133231143Y-111485810D01*
X133278762Y-111581048D01*
X133278762Y-111723905D01*
X133231143Y-111819143D01*
X133183524Y-111866762D01*
X133088286Y-111914381D01*
X132707333Y-111914381D01*
X132707333Y-110914381D01*
X133040667Y-110914381D01*
X133135905Y-110962000D01*
X133183524Y-111009619D01*
X133231143Y-111104857D01*
X133231143Y-111200095D01*
X133183524Y-111295333D01*
X133135905Y-111342952D01*
X133040667Y-111390571D01*
X132707333Y-111390571D01*
X133897809Y-110914381D02*
X134088286Y-110914381D01*
X134183524Y-110962000D01*
X134278762Y-111057238D01*
X134326381Y-111247714D01*
X134326381Y-111581048D01*
X134278762Y-111771524D01*
X134183524Y-111866762D01*
X134088286Y-111914381D01*
X133897809Y-111914381D01*
X133802571Y-111866762D01*
X133707333Y-111771524D01*
X133659714Y-111581048D01*
X133659714Y-111247714D01*
X133707333Y-111057238D01*
X133802571Y-110962000D01*
X133897809Y-110914381D01*
X134945428Y-110914381D02*
X135135905Y-110914381D01*
X135231143Y-110962000D01*
X135326381Y-111057238D01*
X135374000Y-111247714D01*
X135374000Y-111581048D01*
X135326381Y-111771524D01*
X135231143Y-111866762D01*
X135135905Y-111914381D01*
X134945428Y-111914381D01*
X134850190Y-111866762D01*
X134754952Y-111771524D01*
X134707333Y-111581048D01*
X134707333Y-111247714D01*
X134754952Y-111057238D01*
X134850190Y-110962000D01*
X134945428Y-110914381D01*
X135659714Y-110914381D02*
X136231143Y-110914381D01*
X135945428Y-111914381D02*
X135945428Y-110914381D01*
X136754952Y-110914381D02*
X136850191Y-110914381D01*
X136945429Y-110962000D01*
X136993048Y-111009619D01*
X137040667Y-111104857D01*
X137088286Y-111295333D01*
X137088286Y-111533429D01*
X137040667Y-111723905D01*
X136993048Y-111819143D01*
X136945429Y-111866762D01*
X136850191Y-111914381D01*
X136754952Y-111914381D01*
X136659714Y-111866762D01*
X136612095Y-111819143D01*
X136564476Y-111723905D01*
X136516857Y-111533429D01*
X136516857Y-111295333D01*
X136564476Y-111104857D01*
X136612095Y-111009619D01*
X136659714Y-110962000D01*
X136754952Y-110914381D01*
X141422667Y-111390571D02*
X141565524Y-111438190D01*
X141613143Y-111485810D01*
X141660762Y-111581048D01*
X141660762Y-111723905D01*
X141613143Y-111819143D01*
X141565524Y-111866762D01*
X141470286Y-111914381D01*
X141089333Y-111914381D01*
X141089333Y-110914381D01*
X141422667Y-110914381D01*
X141517905Y-110962000D01*
X141565524Y-111009619D01*
X141613143Y-111104857D01*
X141613143Y-111200095D01*
X141565524Y-111295333D01*
X141517905Y-111342952D01*
X141422667Y-111390571D01*
X141089333Y-111390571D01*
X142279809Y-110914381D02*
X142470286Y-110914381D01*
X142565524Y-110962000D01*
X142660762Y-111057238D01*
X142708381Y-111247714D01*
X142708381Y-111581048D01*
X142660762Y-111771524D01*
X142565524Y-111866762D01*
X142470286Y-111914381D01*
X142279809Y-111914381D01*
X142184571Y-111866762D01*
X142089333Y-111771524D01*
X142041714Y-111581048D01*
X142041714Y-111247714D01*
X142089333Y-111057238D01*
X142184571Y-110962000D01*
X142279809Y-110914381D01*
X143327428Y-110914381D02*
X143517905Y-110914381D01*
X143613143Y-110962000D01*
X143708381Y-111057238D01*
X143756000Y-111247714D01*
X143756000Y-111581048D01*
X143708381Y-111771524D01*
X143613143Y-111866762D01*
X143517905Y-111914381D01*
X143327428Y-111914381D01*
X143232190Y-111866762D01*
X143136952Y-111771524D01*
X143089333Y-111581048D01*
X143089333Y-111247714D01*
X143136952Y-111057238D01*
X143232190Y-110962000D01*
X143327428Y-110914381D01*
X144041714Y-110914381D02*
X144613143Y-110914381D01*
X144327428Y-111914381D02*
X144327428Y-110914381D01*
X145470286Y-111914381D02*
X144898857Y-111914381D01*
X145184571Y-111914381D02*
X145184571Y-110914381D01*
X145089333Y-111057238D01*
X144994095Y-111152476D01*
X144898857Y-111200095D01*
X140098762Y-135972381D02*
X140098762Y-136686667D01*
X140051142Y-136829524D01*
X139955904Y-136924762D01*
X139813047Y-136972381D01*
X139717809Y-136972381D01*
X140336857Y-137067619D02*
X141098762Y-137067619D01*
X141336857Y-136972381D02*
X141336857Y-135972381D01*
X141574952Y-135972381D01*
X141717810Y-136020000D01*
X141813048Y-136115238D01*
X141860667Y-136210476D01*
X141908286Y-136400952D01*
X141908286Y-136543810D01*
X141860667Y-136734286D01*
X141813048Y-136829524D01*
X141717810Y-136924762D01*
X141574952Y-136972381D01*
X141336857Y-136972381D01*
X142908286Y-136877143D02*
X142860667Y-136924762D01*
X142717810Y-136972381D01*
X142622572Y-136972381D01*
X142479714Y-136924762D01*
X142384476Y-136829524D01*
X142336857Y-136734286D01*
X142289238Y-136543810D01*
X142289238Y-136400952D01*
X142336857Y-136210476D01*
X142384476Y-136115238D01*
X142479714Y-136020000D01*
X142622572Y-135972381D01*
X142717810Y-135972381D01*
X142860667Y-136020000D01*
X142908286Y-136067619D01*
X143860667Y-136972381D02*
X143289238Y-136972381D01*
X143574952Y-136972381D02*
X143574952Y-135972381D01*
X143479714Y-136115238D01*
X143384476Y-136210476D01*
X143289238Y-136258095D01*
X144241619Y-136067619D02*
X144289238Y-136020000D01*
X144384476Y-135972381D01*
X144622572Y-135972381D01*
X144717810Y-136020000D01*
X144765429Y-136067619D01*
X144813048Y-136162857D01*
X144813048Y-136258095D01*
X144765429Y-136400952D01*
X144194000Y-136972381D01*
X144813048Y-136972381D01*
X145098762Y-135972381D02*
X145432095Y-136972381D01*
X145765429Y-135972381D01*
X146622572Y-136972381D02*
X146051143Y-136972381D01*
X146336857Y-136972381D02*
X146336857Y-135972381D01*
X146241619Y-136115238D01*
X146146381Y-136210476D01*
X146051143Y-136258095D01*
X123715810Y-135972381D02*
X123715810Y-136686667D01*
X123668190Y-136829524D01*
X123572952Y-136924762D01*
X123430095Y-136972381D01*
X123334857Y-136972381D01*
X123953905Y-137067619D02*
X124715810Y-137067619D01*
X125287239Y-136448571D02*
X124953905Y-136448571D01*
X124953905Y-136972381D02*
X124953905Y-135972381D01*
X125430096Y-135972381D01*
X125763429Y-136686667D02*
X126239620Y-136686667D01*
X125668191Y-136972381D02*
X126001524Y-135972381D01*
X126334858Y-136972381D01*
X126668191Y-136972381D02*
X126668191Y-135972381D01*
X127239620Y-136972381D01*
X127239620Y-135972381D01*
X128239620Y-136972381D02*
X127668191Y-136972381D01*
X127953905Y-136972381D02*
X127953905Y-135972381D01*
X127858667Y-136115238D01*
X127763429Y-136210476D01*
X127668191Y-136258095D01*
X128620572Y-136067619D02*
X128668191Y-136020000D01*
X128763429Y-135972381D01*
X129001525Y-135972381D01*
X129096763Y-136020000D01*
X129144382Y-136067619D01*
X129192001Y-136162857D01*
X129192001Y-136258095D01*
X129144382Y-136400952D01*
X128572953Y-136972381D01*
X129192001Y-136972381D01*
X129477715Y-135972381D02*
X129811048Y-136972381D01*
X130144382Y-135972381D01*
X131001525Y-136972381D02*
X130430096Y-136972381D01*
X130715810Y-136972381D02*
X130715810Y-135972381D01*
X130620572Y-136115238D01*
X130525334Y-136210476D01*
X130430096Y-136258095D01*
X99671905Y-150328381D02*
X99671905Y-151042667D01*
X99624285Y-151185524D01*
X99529047Y-151280762D01*
X99386190Y-151328381D01*
X99290952Y-151328381D01*
X99910000Y-151423619D02*
X100671905Y-151423619D01*
X100910000Y-151328381D02*
X100910000Y-150328381D01*
X100910000Y-150804571D02*
X101481429Y-150804571D01*
X101481429Y-151328381D02*
X101481429Y-150328381D01*
X101957619Y-150804571D02*
X102290953Y-150804571D01*
X102433810Y-151328381D02*
X101957619Y-151328381D01*
X101957619Y-150328381D01*
X102433810Y-150328381D01*
X102814762Y-151042667D02*
X103290953Y-151042667D01*
X102719524Y-151328381D02*
X103052857Y-150328381D01*
X103386191Y-151328381D01*
X103576667Y-150328381D02*
X104148096Y-150328381D01*
X103862381Y-151328381D02*
X103862381Y-150328381D01*
X104481429Y-150804571D02*
X104814763Y-150804571D01*
X104957620Y-151328381D02*
X104481429Y-151328381D01*
X104481429Y-150328381D01*
X104957620Y-150328381D01*
X105957620Y-151328381D02*
X105624286Y-150852190D01*
X105386191Y-151328381D02*
X105386191Y-150328381D01*
X105767144Y-150328381D01*
X105862382Y-150376000D01*
X105910001Y-150423619D01*
X105957620Y-150518857D01*
X105957620Y-150661714D01*
X105910001Y-150756952D01*
X105862382Y-150804571D01*
X105767144Y-150852190D01*
X105386191Y-150852190D01*
X106338572Y-151280762D02*
X106481429Y-151328381D01*
X106719525Y-151328381D01*
X106814763Y-151280762D01*
X106862382Y-151233143D01*
X106910001Y-151137905D01*
X106910001Y-151042667D01*
X106862382Y-150947429D01*
X106814763Y-150899810D01*
X106719525Y-150852190D01*
X106529048Y-150804571D01*
X106433810Y-150756952D01*
X106386191Y-150709333D01*
X106338572Y-150614095D01*
X106338572Y-150518857D01*
X106386191Y-150423619D01*
X106433810Y-150376000D01*
X106529048Y-150328381D01*
X106767144Y-150328381D01*
X106910001Y-150376000D01*
X107100477Y-151423619D02*
X107862382Y-151423619D01*
X108290953Y-150328381D02*
X108481430Y-150328381D01*
X108576668Y-150376000D01*
X108671906Y-150471238D01*
X108719525Y-150661714D01*
X108719525Y-150995048D01*
X108671906Y-151185524D01*
X108576668Y-151280762D01*
X108481430Y-151328381D01*
X108290953Y-151328381D01*
X108195715Y-151280762D01*
X108100477Y-151185524D01*
X108052858Y-150995048D01*
X108052858Y-150661714D01*
X108100477Y-150471238D01*
X108195715Y-150376000D01*
X108290953Y-150328381D01*
X109148096Y-150328381D02*
X109148096Y-151137905D01*
X109195715Y-151233143D01*
X109243334Y-151280762D01*
X109338572Y-151328381D01*
X109529049Y-151328381D01*
X109624287Y-151280762D01*
X109671906Y-151233143D01*
X109719525Y-151137905D01*
X109719525Y-150328381D01*
X110052858Y-150328381D02*
X110624287Y-150328381D01*
X110338572Y-151328381D02*
X110338572Y-150328381D01*
X111481430Y-151328381D02*
X110910001Y-151328381D01*
X111195715Y-151328381D02*
X111195715Y-150328381D01*
X111100477Y-150471238D01*
X111005239Y-150566476D01*
X110910001Y-150614095D01*
D12*
X94539715Y-148476381D02*
X93968286Y-148476381D01*
X94254000Y-148476381D02*
X94254000Y-147476381D01*
X94158762Y-147619238D01*
X94063524Y-147714476D01*
X93968286Y-147762095D01*
D13*
X162243048Y-106640381D02*
X162243048Y-107354667D01*
X162195428Y-107497524D01*
X162100190Y-107592762D01*
X161957333Y-107640381D01*
X161862095Y-107640381D01*
X162481143Y-107735619D02*
X163243048Y-107735619D01*
X163481143Y-107640381D02*
X163481143Y-106640381D01*
X163814477Y-107354667D01*
X164147810Y-106640381D01*
X164147810Y-107640381D01*
X165195429Y-107545143D02*
X165147810Y-107592762D01*
X165004953Y-107640381D01*
X164909715Y-107640381D01*
X164766857Y-107592762D01*
X164671619Y-107497524D01*
X164624000Y-107402286D01*
X164576381Y-107211810D01*
X164576381Y-107068952D01*
X164624000Y-106878476D01*
X164671619Y-106783238D01*
X164766857Y-106688000D01*
X164909715Y-106640381D01*
X165004953Y-106640381D01*
X165147810Y-106688000D01*
X165195429Y-106735619D01*
X165624000Y-106640381D02*
X165624000Y-107449905D01*
X165671619Y-107545143D01*
X165719238Y-107592762D01*
X165814476Y-107640381D01*
X166004953Y-107640381D01*
X166100191Y-107592762D01*
X166147810Y-107545143D01*
X166195429Y-107449905D01*
X166195429Y-106640381D01*
X166433524Y-107735619D02*
X167195429Y-107735619D01*
X167719239Y-106640381D02*
X167719239Y-107354667D01*
X167671619Y-107497524D01*
X167576381Y-107592762D01*
X167433524Y-107640381D01*
X167338286Y-107640381D01*
X168052572Y-106640381D02*
X168624001Y-106640381D01*
X168338286Y-107640381D02*
X168338286Y-106640381D01*
X168909715Y-107354667D02*
X169385906Y-107354667D01*
X168814477Y-107640381D02*
X169147810Y-106640381D01*
X169481144Y-107640381D01*
X170338287Y-106688000D02*
X170243049Y-106640381D01*
X170100192Y-106640381D01*
X169957334Y-106688000D01*
X169862096Y-106783238D01*
X169814477Y-106878476D01*
X169766858Y-107068952D01*
X169766858Y-107211810D01*
X169814477Y-107402286D01*
X169862096Y-107497524D01*
X169957334Y-107592762D01*
X170100192Y-107640381D01*
X170195430Y-107640381D01*
X170338287Y-107592762D01*
X170385906Y-107545143D01*
X170385906Y-107211810D01*
X170195430Y-107211810D01*
X171338287Y-107640381D02*
X170766858Y-107640381D01*
X171052572Y-107640381D02*
X171052572Y-106640381D01*
X170957334Y-106783238D01*
X170862096Y-106878476D01*
X170766858Y-106926095D01*
D12*
X178319715Y-98300381D02*
X177748286Y-98300381D01*
X178034000Y-98300381D02*
X178034000Y-97300381D01*
X177938762Y-97443238D01*
X177843524Y-97538476D01*
X177748286Y-97586095D01*
D13*
X205041905Y-135342381D02*
X205041905Y-136056667D01*
X204994285Y-136199524D01*
X204899047Y-136294762D01*
X204756190Y-136342381D01*
X204660952Y-136342381D01*
X205280000Y-136437619D02*
X206041905Y-136437619D01*
X206280000Y-136342381D02*
X206280000Y-135342381D01*
X206660953Y-135342381D01*
X206756191Y-135390000D01*
X206803810Y-135437619D01*
X206851429Y-135532857D01*
X206851429Y-135675714D01*
X206803810Y-135770952D01*
X206756191Y-135818571D01*
X206660953Y-135866190D01*
X206280000Y-135866190D01*
X207137143Y-135342381D02*
X207708572Y-135342381D01*
X207422857Y-136342381D02*
X207422857Y-135342381D01*
X208041905Y-136342381D02*
X208041905Y-135342381D01*
X208280000Y-135342381D01*
X208422858Y-135390000D01*
X208518096Y-135485238D01*
X208565715Y-135580476D01*
X208613334Y-135770952D01*
X208613334Y-135913810D01*
X208565715Y-136104286D01*
X208518096Y-136199524D01*
X208422858Y-136294762D01*
X208280000Y-136342381D01*
X208041905Y-136342381D01*
X208803810Y-136437619D02*
X209565715Y-136437619D01*
X209803810Y-136342381D02*
X209803810Y-135342381D01*
X210280000Y-136342381D02*
X210280000Y-135342381D01*
X210851429Y-136342381D01*
X210851429Y-135342381D01*
X211851429Y-136342381D02*
X211280000Y-136342381D01*
X211565714Y-136342381D02*
X211565714Y-135342381D01*
X211470476Y-135485238D01*
X211375238Y-135580476D01*
X211280000Y-135628095D01*
X190563905Y-135342381D02*
X190563905Y-136056667D01*
X190516285Y-136199524D01*
X190421047Y-136294762D01*
X190278190Y-136342381D01*
X190182952Y-136342381D01*
X190802000Y-136437619D02*
X191563905Y-136437619D01*
X191802000Y-136342381D02*
X191802000Y-135342381D01*
X192182953Y-135342381D01*
X192278191Y-135390000D01*
X192325810Y-135437619D01*
X192373429Y-135532857D01*
X192373429Y-135675714D01*
X192325810Y-135770952D01*
X192278191Y-135818571D01*
X192182953Y-135866190D01*
X191802000Y-135866190D01*
X192659143Y-135342381D02*
X193230572Y-135342381D01*
X192944857Y-136342381D02*
X192944857Y-135342381D01*
X193563905Y-136342381D02*
X193563905Y-135342381D01*
X193802000Y-135342381D01*
X193944858Y-135390000D01*
X194040096Y-135485238D01*
X194087715Y-135580476D01*
X194135334Y-135770952D01*
X194135334Y-135913810D01*
X194087715Y-136104286D01*
X194040096Y-136199524D01*
X193944858Y-136294762D01*
X193802000Y-136342381D01*
X193563905Y-136342381D01*
X194325810Y-136437619D02*
X195087715Y-136437619D01*
X195325810Y-136342381D02*
X195325810Y-135342381D01*
X195802000Y-136342381D02*
X195802000Y-135342381D01*
X196373429Y-136342381D01*
X196373429Y-135342381D01*
X196802000Y-135437619D02*
X196849619Y-135390000D01*
X196944857Y-135342381D01*
X197182953Y-135342381D01*
X197278191Y-135390000D01*
X197325810Y-135437619D01*
X197373429Y-135532857D01*
X197373429Y-135628095D01*
X197325810Y-135770952D01*
X196754381Y-136342381D01*
X197373429Y-136342381D01*
X77645238Y-102322381D02*
X77645238Y-103036667D01*
X77597618Y-103179524D01*
X77502380Y-103274762D01*
X77359523Y-103322381D01*
X77264285Y-103322381D01*
X77883333Y-103417619D02*
X78645238Y-103417619D01*
X78883333Y-102322381D02*
X78883333Y-103131905D01*
X78930952Y-103227143D01*
X78978571Y-103274762D01*
X79073809Y-103322381D01*
X79264286Y-103322381D01*
X79359524Y-103274762D01*
X79407143Y-103227143D01*
X79454762Y-103131905D01*
X79454762Y-102322381D01*
X79883333Y-103036667D02*
X80359524Y-103036667D01*
X79788095Y-103322381D02*
X80121428Y-102322381D01*
X80454762Y-103322381D01*
X81359524Y-103322381D02*
X81026190Y-102846190D01*
X80788095Y-103322381D02*
X80788095Y-102322381D01*
X81169048Y-102322381D01*
X81264286Y-102370000D01*
X81311905Y-102417619D01*
X81359524Y-102512857D01*
X81359524Y-102655714D01*
X81311905Y-102750952D01*
X81264286Y-102798571D01*
X81169048Y-102846190D01*
X80788095Y-102846190D01*
X81645238Y-102322381D02*
X82216667Y-102322381D01*
X81930952Y-103322381D02*
X81930952Y-102322381D01*
X83073810Y-103322381D02*
X82502381Y-103322381D01*
X82788095Y-103322381D02*
X82788095Y-102322381D01*
X82692857Y-102465238D01*
X82597619Y-102560476D01*
X82502381Y-102608095D01*
X83264286Y-103417619D02*
X84026191Y-103417619D01*
X84264286Y-103322381D02*
X84264286Y-102322381D01*
X84502381Y-102322381D01*
X84645239Y-102370000D01*
X84740477Y-102465238D01*
X84788096Y-102560476D01*
X84835715Y-102750952D01*
X84835715Y-102893810D01*
X84788096Y-103084286D01*
X84740477Y-103179524D01*
X84645239Y-103274762D01*
X84502381Y-103322381D01*
X84264286Y-103322381D01*
X85597620Y-102798571D02*
X85740477Y-102846190D01*
X85788096Y-102893810D01*
X85835715Y-102989048D01*
X85835715Y-103131905D01*
X85788096Y-103227143D01*
X85740477Y-103274762D01*
X85645239Y-103322381D01*
X85264286Y-103322381D01*
X85264286Y-102322381D01*
X85597620Y-102322381D01*
X85692858Y-102370000D01*
X85740477Y-102417619D01*
X85788096Y-102512857D01*
X85788096Y-102608095D01*
X85740477Y-102703333D01*
X85692858Y-102750952D01*
X85597620Y-102798571D01*
X85264286Y-102798571D01*
X86788096Y-102370000D02*
X86692858Y-102322381D01*
X86550001Y-102322381D01*
X86407143Y-102370000D01*
X86311905Y-102465238D01*
X86264286Y-102560476D01*
X86216667Y-102750952D01*
X86216667Y-102893810D01*
X86264286Y-103084286D01*
X86311905Y-103179524D01*
X86407143Y-103274762D01*
X86550001Y-103322381D01*
X86645239Y-103322381D01*
X86788096Y-103274762D01*
X86835715Y-103227143D01*
X86835715Y-102893810D01*
X86645239Y-102893810D01*
X87788096Y-103322381D02*
X87216667Y-103322381D01*
X87502381Y-103322381D02*
X87502381Y-102322381D01*
X87407143Y-102465238D01*
X87311905Y-102560476D01*
X87216667Y-102608095D01*
X205319334Y-101798381D02*
X204843143Y-101798381D01*
X204843143Y-100798381D01*
X205605048Y-100893619D02*
X205652667Y-100846000D01*
X205747905Y-100798381D01*
X205986001Y-100798381D01*
X206081239Y-100846000D01*
X206128858Y-100893619D01*
X206176477Y-100988857D01*
X206176477Y-101084095D01*
X206128858Y-101226952D01*
X205557429Y-101798381D01*
X206176477Y-101798381D01*
X224623334Y-118386381D02*
X224147143Y-118386381D01*
X224147143Y-117386381D01*
X224861429Y-117386381D02*
X225480477Y-117386381D01*
X225147143Y-117767333D01*
X225290001Y-117767333D01*
X225385239Y-117814952D01*
X225432858Y-117862571D01*
X225480477Y-117957810D01*
X225480477Y-118195905D01*
X225432858Y-118291143D01*
X225385239Y-118338762D01*
X225290001Y-118386381D01*
X225004286Y-118386381D01*
X224909048Y-118338762D01*
X224861429Y-118291143D01*
X188047334Y-101798381D02*
X187571143Y-101798381D01*
X187571143Y-100798381D01*
X188809239Y-101131714D02*
X188809239Y-101798381D01*
X188571143Y-100750762D02*
X188333048Y-101465048D01*
X188952096Y-101465048D01*
X201255334Y-118386381D02*
X200779143Y-118386381D01*
X200779143Y-117386381D01*
X202064858Y-117386381D02*
X201588667Y-117386381D01*
X201541048Y-117862571D01*
X201588667Y-117814952D01*
X201683905Y-117767333D01*
X201922001Y-117767333D01*
X202017239Y-117814952D01*
X202064858Y-117862571D01*
X202112477Y-117957810D01*
X202112477Y-118195905D01*
X202064858Y-118291143D01*
X202017239Y-118338762D01*
X201922001Y-118386381D01*
X201683905Y-118386381D01*
X201588667Y-118338762D01*
X201541048Y-118291143D01*
X78184762Y-118386381D02*
X77708571Y-118386381D01*
X77708571Y-117386381D01*
X78518095Y-117862571D02*
X78851429Y-117862571D01*
X78994286Y-118386381D02*
X78518095Y-118386381D01*
X78518095Y-117386381D01*
X78994286Y-117386381D01*
X79422857Y-118386381D02*
X79422857Y-117386381D01*
X79660952Y-117386381D01*
X79803810Y-117434000D01*
X79899048Y-117529238D01*
X79946667Y-117624476D01*
X79994286Y-117814952D01*
X79994286Y-117957810D01*
X79946667Y-118148286D01*
X79899048Y-118243524D01*
X79803810Y-118338762D01*
X79660952Y-118386381D01*
X79422857Y-118386381D01*
X80184762Y-118481619D02*
X80946667Y-118481619D01*
X81184762Y-118386381D02*
X81184762Y-117386381D01*
X81518096Y-118100667D01*
X81851429Y-117386381D01*
X81851429Y-118386381D01*
X82899048Y-118291143D02*
X82851429Y-118338762D01*
X82708572Y-118386381D01*
X82613334Y-118386381D01*
X82470476Y-118338762D01*
X82375238Y-118243524D01*
X82327619Y-118148286D01*
X82280000Y-117957810D01*
X82280000Y-117814952D01*
X82327619Y-117624476D01*
X82375238Y-117529238D01*
X82470476Y-117434000D01*
X82613334Y-117386381D01*
X82708572Y-117386381D01*
X82851429Y-117434000D01*
X82899048Y-117481619D01*
X83327619Y-117386381D02*
X83327619Y-118195905D01*
X83375238Y-118291143D01*
X83422857Y-118338762D01*
X83518095Y-118386381D01*
X83708572Y-118386381D01*
X83803810Y-118338762D01*
X83851429Y-118291143D01*
X83899048Y-118195905D01*
X83899048Y-117386381D01*
X84899048Y-118386381D02*
X84327619Y-118386381D01*
X84613333Y-118386381D02*
X84613333Y-117386381D01*
X84518095Y-117529238D01*
X84422857Y-117624476D01*
X84327619Y-117672095D01*
X127920762Y-131143619D02*
X127825524Y-131096000D01*
X127730286Y-131000762D01*
X127587429Y-130857905D01*
X127492190Y-130810286D01*
X127396952Y-130810286D01*
X127444571Y-131048381D02*
X127349333Y-131000762D01*
X127254095Y-130905524D01*
X127206476Y-130715048D01*
X127206476Y-130381714D01*
X127254095Y-130191238D01*
X127349333Y-130096000D01*
X127444571Y-130048381D01*
X127635048Y-130048381D01*
X127730286Y-130096000D01*
X127825524Y-130191238D01*
X127873143Y-130381714D01*
X127873143Y-130715048D01*
X127825524Y-130905524D01*
X127730286Y-131000762D01*
X127635048Y-131048381D01*
X127444571Y-131048381D01*
X128825524Y-131048381D02*
X128254095Y-131048381D01*
X128539809Y-131048381D02*
X128539809Y-130048381D01*
X128444571Y-130191238D01*
X128349333Y-130286476D01*
X128254095Y-130334095D01*
X160702762Y-129605619D02*
X160607524Y-129558000D01*
X160512286Y-129462762D01*
X160369429Y-129319905D01*
X160274190Y-129272286D01*
X160178952Y-129272286D01*
X160226571Y-129510381D02*
X160131333Y-129462762D01*
X160036095Y-129367524D01*
X159988476Y-129177048D01*
X159988476Y-128843714D01*
X160036095Y-128653238D01*
X160131333Y-128558000D01*
X160226571Y-128510381D01*
X160417048Y-128510381D01*
X160512286Y-128558000D01*
X160607524Y-128653238D01*
X160655143Y-128843714D01*
X160655143Y-129177048D01*
X160607524Y-129367524D01*
X160512286Y-129462762D01*
X160417048Y-129510381D01*
X160226571Y-129510381D01*
X161036095Y-128605619D02*
X161083714Y-128558000D01*
X161178952Y-128510381D01*
X161417048Y-128510381D01*
X161512286Y-128558000D01*
X161559905Y-128605619D01*
X161607524Y-128700857D01*
X161607524Y-128796095D01*
X161559905Y-128938952D01*
X160988476Y-129510381D01*
X161607524Y-129510381D01*
X122196381Y-130896666D02*
X121720190Y-131230000D01*
X122196381Y-131468095D02*
X121196381Y-131468095D01*
X121196381Y-131087142D01*
X121244000Y-130991904D01*
X121291619Y-130944285D01*
X121386857Y-130896666D01*
X121529714Y-130896666D01*
X121624952Y-130944285D01*
X121672571Y-130991904D01*
X121720190Y-131087142D01*
X121720190Y-131468095D01*
X122196381Y-129944285D02*
X122196381Y-130515714D01*
X122196381Y-130230000D02*
X121196381Y-130230000D01*
X121339238Y-130325238D01*
X121434476Y-130420476D01*
X121482095Y-130515714D01*
X133118381Y-133516666D02*
X132642190Y-133850000D01*
X133118381Y-134088095D02*
X132118381Y-134088095D01*
X132118381Y-133707142D01*
X132166000Y-133611904D01*
X132213619Y-133564285D01*
X132308857Y-133516666D01*
X132451714Y-133516666D01*
X132546952Y-133564285D01*
X132594571Y-133611904D01*
X132642190Y-133707142D01*
X132642190Y-134088095D01*
X132213619Y-133135714D02*
X132166000Y-133088095D01*
X132118381Y-132992857D01*
X132118381Y-132754761D01*
X132166000Y-132659523D01*
X132213619Y-132611904D01*
X132308857Y-132564285D01*
X132404095Y-132564285D01*
X132546952Y-132611904D01*
X133118381Y-133183333D01*
X133118381Y-132564285D01*
X131833334Y-118230381D02*
X131500000Y-117754190D01*
X131261905Y-118230381D02*
X131261905Y-117230381D01*
X131642858Y-117230381D01*
X131738096Y-117278000D01*
X131785715Y-117325619D01*
X131833334Y-117420857D01*
X131833334Y-117563714D01*
X131785715Y-117658952D01*
X131738096Y-117706571D01*
X131642858Y-117754190D01*
X131261905Y-117754190D01*
X132166667Y-117230381D02*
X132785715Y-117230381D01*
X132452381Y-117611333D01*
X132595239Y-117611333D01*
X132690477Y-117658952D01*
X132738096Y-117706571D01*
X132785715Y-117801810D01*
X132785715Y-118039905D01*
X132738096Y-118135143D01*
X132690477Y-118182762D01*
X132595239Y-118230381D01*
X132309524Y-118230381D01*
X132214286Y-118182762D01*
X132166667Y-118135143D01*
X138706381Y-117594666D02*
X138230190Y-117928000D01*
X138706381Y-118166095D02*
X137706381Y-118166095D01*
X137706381Y-117785142D01*
X137754000Y-117689904D01*
X137801619Y-117642285D01*
X137896857Y-117594666D01*
X138039714Y-117594666D01*
X138134952Y-117642285D01*
X138182571Y-117689904D01*
X138230190Y-117785142D01*
X138230190Y-118166095D01*
X138039714Y-116737523D02*
X138706381Y-116737523D01*
X137658762Y-116975619D02*
X138373048Y-117213714D01*
X138373048Y-116594666D01*
X122196381Y-135882666D02*
X121720190Y-136216000D01*
X122196381Y-136454095D02*
X121196381Y-136454095D01*
X121196381Y-136073142D01*
X121244000Y-135977904D01*
X121291619Y-135930285D01*
X121386857Y-135882666D01*
X121529714Y-135882666D01*
X121624952Y-135930285D01*
X121672571Y-135977904D01*
X121720190Y-136073142D01*
X121720190Y-136454095D01*
X121196381Y-134977904D02*
X121196381Y-135454095D01*
X121672571Y-135501714D01*
X121624952Y-135454095D01*
X121577333Y-135358857D01*
X121577333Y-135120761D01*
X121624952Y-135025523D01*
X121672571Y-134977904D01*
X121767810Y-134930285D01*
X122005905Y-134930285D01*
X122101143Y-134977904D01*
X122148762Y-135025523D01*
X122196381Y-135120761D01*
X122196381Y-135358857D01*
X122148762Y-135454095D01*
X122101143Y-135501714D01*
X152487334Y-119500381D02*
X152154000Y-119024190D01*
X151915905Y-119500381D02*
X151915905Y-118500381D01*
X152296858Y-118500381D01*
X152392096Y-118548000D01*
X152439715Y-118595619D01*
X152487334Y-118690857D01*
X152487334Y-118833714D01*
X152439715Y-118928952D01*
X152392096Y-118976571D01*
X152296858Y-119024190D01*
X151915905Y-119024190D01*
X153344477Y-118500381D02*
X153154000Y-118500381D01*
X153058762Y-118548000D01*
X153011143Y-118595619D01*
X152915905Y-118738476D01*
X152868286Y-118928952D01*
X152868286Y-119309905D01*
X152915905Y-119405143D01*
X152963524Y-119452762D01*
X153058762Y-119500381D01*
X153249239Y-119500381D01*
X153344477Y-119452762D01*
X153392096Y-119405143D01*
X153439715Y-119309905D01*
X153439715Y-119071810D01*
X153392096Y-118976571D01*
X153344477Y-118928952D01*
X153249239Y-118881333D01*
X153058762Y-118881333D01*
X152963524Y-118928952D01*
X152915905Y-118976571D01*
X152868286Y-119071810D01*
X169284381Y-132246666D02*
X168808190Y-132580000D01*
X169284381Y-132818095D02*
X168284381Y-132818095D01*
X168284381Y-132437142D01*
X168332000Y-132341904D01*
X168379619Y-132294285D01*
X168474857Y-132246666D01*
X168617714Y-132246666D01*
X168712952Y-132294285D01*
X168760571Y-132341904D01*
X168808190Y-132437142D01*
X168808190Y-132818095D01*
X168284381Y-131913333D02*
X168284381Y-131246666D01*
X169284381Y-131675238D01*
X169284381Y-126578666D02*
X168808190Y-126912000D01*
X169284381Y-127150095D02*
X168284381Y-127150095D01*
X168284381Y-126769142D01*
X168332000Y-126673904D01*
X168379619Y-126626285D01*
X168474857Y-126578666D01*
X168617714Y-126578666D01*
X168712952Y-126626285D01*
X168760571Y-126673904D01*
X168808190Y-126769142D01*
X168808190Y-127150095D01*
X168712952Y-126007238D02*
X168665333Y-126102476D01*
X168617714Y-126150095D01*
X168522476Y-126197714D01*
X168474857Y-126197714D01*
X168379619Y-126150095D01*
X168332000Y-126102476D01*
X168284381Y-126007238D01*
X168284381Y-125816761D01*
X168332000Y-125721523D01*
X168379619Y-125673904D01*
X168474857Y-125626285D01*
X168522476Y-125626285D01*
X168617714Y-125673904D01*
X168665333Y-125721523D01*
X168712952Y-125816761D01*
X168712952Y-126007238D01*
X168760571Y-126102476D01*
X168808190Y-126150095D01*
X168903429Y-126197714D01*
X169093905Y-126197714D01*
X169189143Y-126150095D01*
X169236762Y-126102476D01*
X169284381Y-126007238D01*
X169284381Y-125816761D01*
X169236762Y-125721523D01*
X169189143Y-125673904D01*
X169093905Y-125626285D01*
X168903429Y-125626285D01*
X168808190Y-125673904D01*
X168760571Y-125721523D01*
X168712952Y-125816761D01*
X81113334Y-115084381D02*
X80780000Y-114608190D01*
X80541905Y-115084381D02*
X80541905Y-114084381D01*
X80922858Y-114084381D01*
X81018096Y-114132000D01*
X81065715Y-114179619D01*
X81113334Y-114274857D01*
X81113334Y-114417714D01*
X81065715Y-114512952D01*
X81018096Y-114560571D01*
X80922858Y-114608190D01*
X80541905Y-114608190D01*
X81589524Y-115084381D02*
X81780000Y-115084381D01*
X81875239Y-115036762D01*
X81922858Y-114989143D01*
X82018096Y-114846286D01*
X82065715Y-114655810D01*
X82065715Y-114274857D01*
X82018096Y-114179619D01*
X81970477Y-114132000D01*
X81875239Y-114084381D01*
X81684762Y-114084381D01*
X81589524Y-114132000D01*
X81541905Y-114179619D01*
X81494286Y-114274857D01*
X81494286Y-114512952D01*
X81541905Y-114608190D01*
X81589524Y-114655810D01*
X81684762Y-114703429D01*
X81875239Y-114703429D01*
X81970477Y-114655810D01*
X82018096Y-114608190D01*
X82065715Y-114512952D01*
X175790381Y-66682857D02*
X175314190Y-67016191D01*
X175790381Y-67254286D02*
X174790381Y-67254286D01*
X174790381Y-66873333D01*
X174838000Y-66778095D01*
X174885619Y-66730476D01*
X174980857Y-66682857D01*
X175123714Y-66682857D01*
X175218952Y-66730476D01*
X175266571Y-66778095D01*
X175314190Y-66873333D01*
X175314190Y-67254286D01*
X175790381Y-65730476D02*
X175790381Y-66301905D01*
X175790381Y-66016191D02*
X174790381Y-66016191D01*
X174933238Y-66111429D01*
X175028476Y-66206667D01*
X175076095Y-66301905D01*
X174790381Y-65397143D02*
X174790381Y-64778095D01*
X175171333Y-65111429D01*
X175171333Y-64968571D01*
X175218952Y-64873333D01*
X175266571Y-64825714D01*
X175361810Y-64778095D01*
X175599905Y-64778095D01*
X175695143Y-64825714D01*
X175742762Y-64873333D01*
X175790381Y-64968571D01*
X175790381Y-65254286D01*
X175742762Y-65349524D01*
X175695143Y-65397143D01*
X96813143Y-125498381D02*
X96479809Y-125022190D01*
X96241714Y-125498381D02*
X96241714Y-124498381D01*
X96622667Y-124498381D01*
X96717905Y-124546000D01*
X96765524Y-124593619D01*
X96813143Y-124688857D01*
X96813143Y-124831714D01*
X96765524Y-124926952D01*
X96717905Y-124974571D01*
X96622667Y-125022190D01*
X96241714Y-125022190D01*
X97765524Y-125498381D02*
X97194095Y-125498381D01*
X97479809Y-125498381D02*
X97479809Y-124498381D01*
X97384571Y-124641238D01*
X97289333Y-124736476D01*
X97194095Y-124784095D01*
X98622667Y-124831714D02*
X98622667Y-125498381D01*
X98384571Y-124450762D02*
X98146476Y-125165048D01*
X98765524Y-125165048D01*
X96813143Y-131438381D02*
X96479809Y-130962190D01*
X96241714Y-131438381D02*
X96241714Y-130438381D01*
X96622667Y-130438381D01*
X96717905Y-130486000D01*
X96765524Y-130533619D01*
X96813143Y-130628857D01*
X96813143Y-130771714D01*
X96765524Y-130866952D01*
X96717905Y-130914571D01*
X96622667Y-130962190D01*
X96241714Y-130962190D01*
X97765524Y-131438381D02*
X97194095Y-131438381D01*
X97479809Y-131438381D02*
X97479809Y-130438381D01*
X97384571Y-130581238D01*
X97289333Y-130676476D01*
X97194095Y-130724095D01*
X98670286Y-130438381D02*
X98194095Y-130438381D01*
X98146476Y-130914571D01*
X98194095Y-130866952D01*
X98289333Y-130819333D01*
X98527429Y-130819333D01*
X98622667Y-130866952D01*
X98670286Y-130914571D01*
X98717905Y-131009810D01*
X98717905Y-131247905D01*
X98670286Y-131343143D01*
X98622667Y-131390762D01*
X98527429Y-131438381D01*
X98289333Y-131438381D01*
X98194095Y-131390762D01*
X98146476Y-131343143D01*
X179190381Y-74302857D02*
X178714190Y-74636191D01*
X179190381Y-74874286D02*
X178190381Y-74874286D01*
X178190381Y-74493333D01*
X178238000Y-74398095D01*
X178285619Y-74350476D01*
X178380857Y-74302857D01*
X178523714Y-74302857D01*
X178618952Y-74350476D01*
X178666571Y-74398095D01*
X178714190Y-74493333D01*
X178714190Y-74874286D01*
X179190381Y-73350476D02*
X179190381Y-73921905D01*
X179190381Y-73636191D02*
X178190381Y-73636191D01*
X178333238Y-73731429D01*
X178428476Y-73826667D01*
X178476095Y-73921905D01*
X178190381Y-72493333D02*
X178190381Y-72683810D01*
X178238000Y-72779048D01*
X178285619Y-72826667D01*
X178428476Y-72921905D01*
X178618952Y-72969524D01*
X178999905Y-72969524D01*
X179095143Y-72921905D01*
X179142762Y-72874286D01*
X179190381Y-72779048D01*
X179190381Y-72588571D01*
X179142762Y-72493333D01*
X179095143Y-72445714D01*
X178999905Y-72398095D01*
X178761810Y-72398095D01*
X178666571Y-72445714D01*
X178618952Y-72493333D01*
X178571333Y-72588571D01*
X178571333Y-72779048D01*
X178618952Y-72874286D01*
X178666571Y-72921905D01*
X178761810Y-72969524D01*
X202968381Y-128578857D02*
X202492190Y-128912191D01*
X202968381Y-129150286D02*
X201968381Y-129150286D01*
X201968381Y-128769333D01*
X202016000Y-128674095D01*
X202063619Y-128626476D01*
X202158857Y-128578857D01*
X202301714Y-128578857D01*
X202396952Y-128626476D01*
X202444571Y-128674095D01*
X202492190Y-128769333D01*
X202492190Y-129150286D01*
X202968381Y-127626476D02*
X202968381Y-128197905D01*
X202968381Y-127912191D02*
X201968381Y-127912191D01*
X202111238Y-128007429D01*
X202206476Y-128102667D01*
X202254095Y-128197905D01*
X201968381Y-127293143D02*
X201968381Y-126626476D01*
X202968381Y-127055048D01*
X209495143Y-121786381D02*
X209161809Y-121310190D01*
X208923714Y-121786381D02*
X208923714Y-120786381D01*
X209304667Y-120786381D01*
X209399905Y-120834000D01*
X209447524Y-120881619D01*
X209495143Y-120976857D01*
X209495143Y-121119714D01*
X209447524Y-121214952D01*
X209399905Y-121262571D01*
X209304667Y-121310190D01*
X208923714Y-121310190D01*
X210447524Y-121786381D02*
X209876095Y-121786381D01*
X210161809Y-121786381D02*
X210161809Y-120786381D01*
X210066571Y-120929238D01*
X209971333Y-121024476D01*
X209876095Y-121072095D01*
X211018952Y-121214952D02*
X210923714Y-121167333D01*
X210876095Y-121119714D01*
X210828476Y-121024476D01*
X210828476Y-120976857D01*
X210876095Y-120881619D01*
X210923714Y-120834000D01*
X211018952Y-120786381D01*
X211209429Y-120786381D01*
X211304667Y-120834000D01*
X211352286Y-120881619D01*
X211399905Y-120976857D01*
X211399905Y-121024476D01*
X211352286Y-121119714D01*
X211304667Y-121167333D01*
X211209429Y-121214952D01*
X211018952Y-121214952D01*
X210923714Y-121262571D01*
X210876095Y-121310190D01*
X210828476Y-121405429D01*
X210828476Y-121595905D01*
X210876095Y-121691143D01*
X210923714Y-121738762D01*
X211018952Y-121786381D01*
X211209429Y-121786381D01*
X211304667Y-121738762D01*
X211352286Y-121691143D01*
X211399905Y-121595905D01*
X211399905Y-121405429D01*
X211352286Y-121310190D01*
X211304667Y-121262571D01*
X211209429Y-121214952D01*
X220337143Y-126768381D02*
X220003809Y-126292190D01*
X219765714Y-126768381D02*
X219765714Y-125768381D01*
X220146667Y-125768381D01*
X220241905Y-125816000D01*
X220289524Y-125863619D01*
X220337143Y-125958857D01*
X220337143Y-126101714D01*
X220289524Y-126196952D01*
X220241905Y-126244571D01*
X220146667Y-126292190D01*
X219765714Y-126292190D01*
X221289524Y-126768381D02*
X220718095Y-126768381D01*
X221003809Y-126768381D02*
X221003809Y-125768381D01*
X220908571Y-125911238D01*
X220813333Y-126006476D01*
X220718095Y-126054095D01*
X221765714Y-126768381D02*
X221956190Y-126768381D01*
X222051429Y-126720762D01*
X222099048Y-126673143D01*
X222194286Y-126530286D01*
X222241905Y-126339810D01*
X222241905Y-125958857D01*
X222194286Y-125863619D01*
X222146667Y-125816000D01*
X222051429Y-125768381D01*
X221860952Y-125768381D01*
X221765714Y-125816000D01*
X221718095Y-125863619D01*
X221670476Y-125958857D01*
X221670476Y-126196952D01*
X221718095Y-126292190D01*
X221765714Y-126339810D01*
X221860952Y-126387429D01*
X222051429Y-126387429D01*
X222146667Y-126339810D01*
X222194286Y-126292190D01*
X222241905Y-126196952D01*
X179346381Y-128658857D02*
X178870190Y-128992191D01*
X179346381Y-129230286D02*
X178346381Y-129230286D01*
X178346381Y-128849333D01*
X178394000Y-128754095D01*
X178441619Y-128706476D01*
X178536857Y-128658857D01*
X178679714Y-128658857D01*
X178774952Y-128706476D01*
X178822571Y-128754095D01*
X178870190Y-128849333D01*
X178870190Y-129230286D01*
X178441619Y-128277905D02*
X178394000Y-128230286D01*
X178346381Y-128135048D01*
X178346381Y-127896952D01*
X178394000Y-127801714D01*
X178441619Y-127754095D01*
X178536857Y-127706476D01*
X178632095Y-127706476D01*
X178774952Y-127754095D01*
X179346381Y-128325524D01*
X179346381Y-127706476D01*
X178346381Y-127087429D02*
X178346381Y-126992190D01*
X178394000Y-126896952D01*
X178441619Y-126849333D01*
X178536857Y-126801714D01*
X178727333Y-126754095D01*
X178965429Y-126754095D01*
X179155905Y-126801714D01*
X179251143Y-126849333D01*
X179298762Y-126896952D01*
X179346381Y-126992190D01*
X179346381Y-127087429D01*
X179298762Y-127182667D01*
X179251143Y-127230286D01*
X179155905Y-127277905D01*
X178965429Y-127325524D01*
X178727333Y-127325524D01*
X178536857Y-127277905D01*
X178441619Y-127230286D01*
X178394000Y-127182667D01*
X178346381Y-127087429D01*
X186047143Y-121786381D02*
X185713809Y-121310190D01*
X185475714Y-121786381D02*
X185475714Y-120786381D01*
X185856667Y-120786381D01*
X185951905Y-120834000D01*
X185999524Y-120881619D01*
X186047143Y-120976857D01*
X186047143Y-121119714D01*
X185999524Y-121214952D01*
X185951905Y-121262571D01*
X185856667Y-121310190D01*
X185475714Y-121310190D01*
X186428095Y-120881619D02*
X186475714Y-120834000D01*
X186570952Y-120786381D01*
X186809048Y-120786381D01*
X186904286Y-120834000D01*
X186951905Y-120881619D01*
X186999524Y-120976857D01*
X186999524Y-121072095D01*
X186951905Y-121214952D01*
X186380476Y-121786381D01*
X186999524Y-121786381D01*
X187951905Y-121786381D02*
X187380476Y-121786381D01*
X187666190Y-121786381D02*
X187666190Y-120786381D01*
X187570952Y-120929238D01*
X187475714Y-121024476D01*
X187380476Y-121072095D01*
X194683143Y-126768381D02*
X194349809Y-126292190D01*
X194111714Y-126768381D02*
X194111714Y-125768381D01*
X194492667Y-125768381D01*
X194587905Y-125816000D01*
X194635524Y-125863619D01*
X194683143Y-125958857D01*
X194683143Y-126101714D01*
X194635524Y-126196952D01*
X194587905Y-126244571D01*
X194492667Y-126292190D01*
X194111714Y-126292190D01*
X195064095Y-125863619D02*
X195111714Y-125816000D01*
X195206952Y-125768381D01*
X195445048Y-125768381D01*
X195540286Y-125816000D01*
X195587905Y-125863619D01*
X195635524Y-125958857D01*
X195635524Y-126054095D01*
X195587905Y-126196952D01*
X195016476Y-126768381D01*
X195635524Y-126768381D01*
X196016476Y-125863619D02*
X196064095Y-125816000D01*
X196159333Y-125768381D01*
X196397429Y-125768381D01*
X196492667Y-125816000D01*
X196540286Y-125863619D01*
X196587905Y-125958857D01*
X196587905Y-126054095D01*
X196540286Y-126196952D01*
X195968857Y-126768381D01*
X196587905Y-126768381D01*
X83144762Y-68030381D02*
X82811428Y-67554190D01*
X82573333Y-68030381D02*
X82573333Y-67030381D01*
X82954286Y-67030381D01*
X83049524Y-67078000D01*
X83097143Y-67125619D01*
X83144762Y-67220857D01*
X83144762Y-67363714D01*
X83097143Y-67458952D01*
X83049524Y-67506571D01*
X82954286Y-67554190D01*
X82573333Y-67554190D01*
X83430476Y-67030381D02*
X83763809Y-68030381D01*
X84097143Y-67030381D01*
X84954286Y-68030381D02*
X84382857Y-68030381D01*
X84668571Y-68030381D02*
X84668571Y-67030381D01*
X84573333Y-67173238D01*
X84478095Y-67268476D01*
X84382857Y-67316095D01*
X183308667Y-63094762D02*
X183451524Y-63142381D01*
X183689620Y-63142381D01*
X183784858Y-63094762D01*
X183832477Y-63047143D01*
X183880096Y-62951905D01*
X183880096Y-62856667D01*
X183832477Y-62761429D01*
X183784858Y-62713810D01*
X183689620Y-62666190D01*
X183499143Y-62618571D01*
X183403905Y-62570952D01*
X183356286Y-62523333D01*
X183308667Y-62428095D01*
X183308667Y-62332857D01*
X183356286Y-62237619D01*
X183403905Y-62190000D01*
X183499143Y-62142381D01*
X183737239Y-62142381D01*
X183880096Y-62190000D01*
X184213429Y-62142381D02*
X184451524Y-63142381D01*
X184642001Y-62428095D01*
X184832477Y-63142381D01*
X185070572Y-62142381D01*
X185975334Y-63142381D02*
X185403905Y-63142381D01*
X185689619Y-63142381D02*
X185689619Y-62142381D01*
X185594381Y-62285238D01*
X185499143Y-62380476D01*
X185403905Y-62428095D01*
X213361905Y-63134762D02*
X213504762Y-63182381D01*
X213742858Y-63182381D01*
X213838096Y-63134762D01*
X213885715Y-63087143D01*
X213933334Y-62991905D01*
X213933334Y-62896667D01*
X213885715Y-62801429D01*
X213838096Y-62753810D01*
X213742858Y-62706190D01*
X213552381Y-62658571D01*
X213457143Y-62610952D01*
X213409524Y-62563333D01*
X213361905Y-62468095D01*
X213361905Y-62372857D01*
X213409524Y-62277619D01*
X213457143Y-62230000D01*
X213552381Y-62182381D01*
X213790477Y-62182381D01*
X213933334Y-62230000D01*
X214266667Y-62182381D02*
X214504762Y-63182381D01*
X214695239Y-62468095D01*
X214885715Y-63182381D01*
X215123810Y-62182381D01*
X215266667Y-63277619D02*
X216028572Y-63277619D01*
X216266667Y-63182381D02*
X216266667Y-62182381D01*
X216647620Y-62182381D01*
X216742858Y-62230000D01*
X216790477Y-62277619D01*
X216838096Y-62372857D01*
X216838096Y-62515714D01*
X216790477Y-62610952D01*
X216742858Y-62658571D01*
X216647620Y-62706190D01*
X216266667Y-62706190D01*
X217266667Y-62182381D02*
X217266667Y-62991905D01*
X217314286Y-63087143D01*
X217361905Y-63134762D01*
X217457143Y-63182381D01*
X217647620Y-63182381D01*
X217742858Y-63134762D01*
X217790477Y-63087143D01*
X217838096Y-62991905D01*
X217838096Y-62182381D01*
X218266667Y-63134762D02*
X218409524Y-63182381D01*
X218647620Y-63182381D01*
X218742858Y-63134762D01*
X218790477Y-63087143D01*
X218838096Y-62991905D01*
X218838096Y-62896667D01*
X218790477Y-62801429D01*
X218742858Y-62753810D01*
X218647620Y-62706190D01*
X218457143Y-62658571D01*
X218361905Y-62610952D01*
X218314286Y-62563333D01*
X218266667Y-62468095D01*
X218266667Y-62372857D01*
X218314286Y-62277619D01*
X218361905Y-62230000D01*
X218457143Y-62182381D01*
X218695239Y-62182381D01*
X218838096Y-62230000D01*
X219266667Y-63182381D02*
X219266667Y-62182381D01*
X219266667Y-62658571D02*
X219838096Y-62658571D01*
X219838096Y-63182381D02*
X219838096Y-62182381D01*
X220838096Y-63182381D02*
X220266667Y-63182381D01*
X220552381Y-63182381D02*
X220552381Y-62182381D01*
X220457143Y-62325238D01*
X220361905Y-62420476D01*
X220266667Y-62468095D01*
X213615905Y-82612762D02*
X213758762Y-82660381D01*
X213996858Y-82660381D01*
X214092096Y-82612762D01*
X214139715Y-82565143D01*
X214187334Y-82469905D01*
X214187334Y-82374667D01*
X214139715Y-82279429D01*
X214092096Y-82231810D01*
X213996858Y-82184190D01*
X213806381Y-82136571D01*
X213711143Y-82088952D01*
X213663524Y-82041333D01*
X213615905Y-81946095D01*
X213615905Y-81850857D01*
X213663524Y-81755619D01*
X213711143Y-81708000D01*
X213806381Y-81660381D01*
X214044477Y-81660381D01*
X214187334Y-81708000D01*
X214520667Y-81660381D02*
X214758762Y-82660381D01*
X214949239Y-81946095D01*
X215139715Y-82660381D01*
X215377810Y-81660381D01*
X215520667Y-82755619D02*
X216282572Y-82755619D01*
X216520667Y-82660381D02*
X216520667Y-81660381D01*
X216901620Y-81660381D01*
X216996858Y-81708000D01*
X217044477Y-81755619D01*
X217092096Y-81850857D01*
X217092096Y-81993714D01*
X217044477Y-82088952D01*
X216996858Y-82136571D01*
X216901620Y-82184190D01*
X216520667Y-82184190D01*
X217520667Y-81660381D02*
X217520667Y-82469905D01*
X217568286Y-82565143D01*
X217615905Y-82612762D01*
X217711143Y-82660381D01*
X217901620Y-82660381D01*
X217996858Y-82612762D01*
X218044477Y-82565143D01*
X218092096Y-82469905D01*
X218092096Y-81660381D01*
X218520667Y-82612762D02*
X218663524Y-82660381D01*
X218901620Y-82660381D01*
X218996858Y-82612762D01*
X219044477Y-82565143D01*
X219092096Y-82469905D01*
X219092096Y-82374667D01*
X219044477Y-82279429D01*
X218996858Y-82231810D01*
X218901620Y-82184190D01*
X218711143Y-82136571D01*
X218615905Y-82088952D01*
X218568286Y-82041333D01*
X218520667Y-81946095D01*
X218520667Y-81850857D01*
X218568286Y-81755619D01*
X218615905Y-81708000D01*
X218711143Y-81660381D01*
X218949239Y-81660381D01*
X219092096Y-81708000D01*
X219520667Y-82660381D02*
X219520667Y-81660381D01*
X219520667Y-82136571D02*
X220092096Y-82136571D01*
X220092096Y-82660381D02*
X220092096Y-81660381D01*
X220520667Y-81755619D02*
X220568286Y-81708000D01*
X220663524Y-81660381D01*
X220901620Y-81660381D01*
X220996858Y-81708000D01*
X221044477Y-81755619D01*
X221092096Y-81850857D01*
X221092096Y-81946095D01*
X221044477Y-82088952D01*
X220473048Y-82660381D01*
X221092096Y-82660381D01*
X78741761Y-99043523D02*
X78789380Y-98900666D01*
X78789380Y-98662570D01*
X78741761Y-98567332D01*
X78694142Y-98519713D01*
X78598904Y-98472094D01*
X78503666Y-98472094D01*
X78408428Y-98519713D01*
X78360809Y-98567332D01*
X78313189Y-98662570D01*
X78265570Y-98853047D01*
X78217951Y-98948285D01*
X78170332Y-98995904D01*
X78075094Y-99043523D01*
X77979856Y-99043523D01*
X77884618Y-98995904D01*
X77836999Y-98948285D01*
X77789380Y-98853047D01*
X77789380Y-98614951D01*
X77836999Y-98472094D01*
X77789380Y-98138761D02*
X78789380Y-97900666D01*
X78075094Y-97710189D01*
X78789380Y-97519713D01*
X77789380Y-97281618D01*
X78884618Y-97138761D02*
X78884618Y-96376856D01*
X78789380Y-95567332D02*
X78313189Y-95900666D01*
X78789380Y-96138761D02*
X77789380Y-96138761D01*
X77789380Y-95757808D01*
X77836999Y-95662570D01*
X77884618Y-95614951D01*
X77979856Y-95567332D01*
X78122713Y-95567332D01*
X78217951Y-95614951D01*
X78265570Y-95662570D01*
X78313189Y-95757808D01*
X78313189Y-96138761D01*
X78265570Y-95138761D02*
X78265570Y-94805427D01*
X78789380Y-94662570D02*
X78789380Y-95138761D01*
X77789380Y-95138761D01*
X77789380Y-94662570D01*
X78741761Y-94281618D02*
X78789380Y-94138761D01*
X78789380Y-93900665D01*
X78741761Y-93805427D01*
X78694142Y-93757808D01*
X78598904Y-93710189D01*
X78503666Y-93710189D01*
X78408428Y-93757808D01*
X78360809Y-93805427D01*
X78313189Y-93900665D01*
X78265570Y-94091142D01*
X78217951Y-94186380D01*
X78170332Y-94233999D01*
X78075094Y-94281618D01*
X77979856Y-94281618D01*
X77884618Y-94233999D01*
X77836999Y-94186380D01*
X77789380Y-94091142D01*
X77789380Y-93853046D01*
X77836999Y-93710189D01*
X78265570Y-93281618D02*
X78265570Y-92948284D01*
X78789380Y-92805427D02*
X78789380Y-93281618D01*
X77789380Y-93281618D01*
X77789380Y-92805427D01*
X77789380Y-92519713D02*
X77789380Y-91948284D01*
X78789380Y-92233999D02*
X77789380Y-92233999D01*
X78789380Y-91091141D02*
X78789380Y-91662570D01*
X78789380Y-91376856D02*
X77789380Y-91376856D01*
X77932237Y-91472094D01*
X78027475Y-91567332D01*
X78075094Y-91662570D01*
X170068381Y-145981905D02*
X170877905Y-145981905D01*
X170973143Y-145934286D01*
X171020762Y-145886667D01*
X171068381Y-145791429D01*
X171068381Y-145600952D01*
X171020762Y-145505714D01*
X170973143Y-145458095D01*
X170877905Y-145410476D01*
X170068381Y-145410476D01*
X170163619Y-144981905D02*
X170116000Y-144934286D01*
X170068381Y-144839048D01*
X170068381Y-144600952D01*
X170116000Y-144505714D01*
X170163619Y-144458095D01*
X170258857Y-144410476D01*
X170354095Y-144410476D01*
X170496952Y-144458095D01*
X171068381Y-145029524D01*
X171068381Y-144410476D01*
X118412381Y-112267905D02*
X119221905Y-112267905D01*
X119317143Y-112220286D01*
X119364762Y-112172667D01*
X119412381Y-112077429D01*
X119412381Y-111886952D01*
X119364762Y-111791714D01*
X119317143Y-111744095D01*
X119221905Y-111696476D01*
X118412381Y-111696476D01*
X118412381Y-111315524D02*
X118412381Y-110696476D01*
X118793333Y-111029810D01*
X118793333Y-110886952D01*
X118840952Y-110791714D01*
X118888571Y-110744095D01*
X118983810Y-110696476D01*
X119221905Y-110696476D01*
X119317143Y-110744095D01*
X119364762Y-110791714D01*
X119412381Y-110886952D01*
X119412381Y-111172667D01*
X119364762Y-111267905D01*
X119317143Y-111315524D01*
X96860095Y-131156381D02*
X96860095Y-131965905D01*
X96907714Y-132061143D01*
X96955333Y-132108762D01*
X97050571Y-132156381D01*
X97241048Y-132156381D01*
X97336286Y-132108762D01*
X97383905Y-132061143D01*
X97431524Y-131965905D01*
X97431524Y-131156381D01*
X98336286Y-131489714D02*
X98336286Y-132156381D01*
X98098190Y-131108762D02*
X97860095Y-131823048D01*
X98479143Y-131823048D01*
X201309381Y-87664905D02*
X202118905Y-87664905D01*
X202214143Y-87617286D01*
X202261762Y-87569667D01*
X202309381Y-87474429D01*
X202309381Y-87283952D01*
X202261762Y-87188714D01*
X202214143Y-87141095D01*
X202118905Y-87093476D01*
X201309381Y-87093476D01*
X201309381Y-86141095D02*
X201309381Y-86617286D01*
X201785571Y-86664905D01*
X201737952Y-86617286D01*
X201690333Y-86522048D01*
X201690333Y-86283952D01*
X201737952Y-86188714D01*
X201785571Y-86141095D01*
X201880810Y-86093476D01*
X202118905Y-86093476D01*
X202214143Y-86141095D01*
X202261762Y-86188714D01*
X202309381Y-86283952D01*
X202309381Y-86522048D01*
X202261762Y-86617286D01*
X202214143Y-86664905D01*
X211328095Y-124476381D02*
X211328095Y-125285905D01*
X211375714Y-125381143D01*
X211423333Y-125428762D01*
X211518571Y-125476381D01*
X211709048Y-125476381D01*
X211804286Y-125428762D01*
X211851905Y-125381143D01*
X211899524Y-125285905D01*
X211899524Y-124476381D01*
X212804286Y-124476381D02*
X212613809Y-124476381D01*
X212518571Y-124524000D01*
X212470952Y-124571619D01*
X212375714Y-124714476D01*
X212328095Y-124904952D01*
X212328095Y-125285905D01*
X212375714Y-125381143D01*
X212423333Y-125428762D01*
X212518571Y-125476381D01*
X212709048Y-125476381D01*
X212804286Y-125428762D01*
X212851905Y-125381143D01*
X212899524Y-125285905D01*
X212899524Y-125047810D01*
X212851905Y-124952571D01*
X212804286Y-124904952D01*
X212709048Y-124857333D01*
X212518571Y-124857333D01*
X212423333Y-124904952D01*
X212375714Y-124952571D01*
X212328095Y-125047810D01*
X187292095Y-124476381D02*
X187292095Y-125285905D01*
X187339714Y-125381143D01*
X187387333Y-125428762D01*
X187482571Y-125476381D01*
X187673048Y-125476381D01*
X187768286Y-125428762D01*
X187815905Y-125381143D01*
X187863524Y-125285905D01*
X187863524Y-124476381D01*
X188244476Y-124476381D02*
X188911143Y-124476381D01*
X188482571Y-125476381D01*
X111664855Y-93089384D02*
X111664855Y-93565575D01*
X111331522Y-92565575D02*
X111664855Y-93089384D01*
X111998189Y-92565575D01*
X112855332Y-93565575D02*
X112283903Y-93565575D01*
X112569617Y-93565575D02*
X112569617Y-92565575D01*
X112474379Y-92708432D01*
X112379141Y-92803670D01*
X112283903Y-92851289D01*
X122967809Y-91670190D02*
X122967809Y-92146381D01*
X122634476Y-91146381D02*
X122967809Y-91670190D01*
X123301143Y-91146381D01*
X123586857Y-91241619D02*
X123634476Y-91194000D01*
X123729714Y-91146381D01*
X123967810Y-91146381D01*
X124063048Y-91194000D01*
X124110667Y-91241619D01*
X124158286Y-91336857D01*
X124158286Y-91432095D01*
X124110667Y-91574952D01*
X123539238Y-92146381D01*
X124158286Y-92146381D01*
X122955809Y-99212190D02*
X122955809Y-99688381D01*
X122622476Y-98688381D02*
X122955809Y-99212190D01*
X123289143Y-98688381D01*
X123527238Y-98688381D02*
X124146286Y-98688381D01*
X123812952Y-99069333D01*
X123955810Y-99069333D01*
X124051048Y-99116952D01*
X124098667Y-99164571D01*
X124146286Y-99259810D01*
X124146286Y-99497905D01*
X124098667Y-99593143D01*
X124051048Y-99640762D01*
X123955810Y-99688381D01*
X123670095Y-99688381D01*
X123574857Y-99640762D01*
X123527238Y-99593143D01*
X77060381Y-133933523D02*
X77774667Y-133933523D01*
X77917524Y-133981143D01*
X78012762Y-134076381D01*
X78060381Y-134219238D01*
X78060381Y-134314476D01*
X78155619Y-133695428D02*
X78155619Y-132933523D01*
X77060381Y-132695428D02*
X77869905Y-132695428D01*
X77965143Y-132647809D01*
X78012762Y-132600190D01*
X78060381Y-132504952D01*
X78060381Y-132314475D01*
X78012762Y-132219237D01*
X77965143Y-132171618D01*
X77869905Y-132123999D01*
X77060381Y-132123999D01*
X78012762Y-131695428D02*
X78060381Y-131552571D01*
X78060381Y-131314475D01*
X78012762Y-131219237D01*
X77965143Y-131171618D01*
X77869905Y-131123999D01*
X77774667Y-131123999D01*
X77679429Y-131171618D01*
X77631810Y-131219237D01*
X77584190Y-131314475D01*
X77536571Y-131504952D01*
X77488952Y-131600190D01*
X77441333Y-131647809D01*
X77346095Y-131695428D01*
X77250857Y-131695428D01*
X77155619Y-131647809D01*
X77108000Y-131600190D01*
X77060381Y-131504952D01*
X77060381Y-131266856D01*
X77108000Y-131123999D01*
X77536571Y-130362094D02*
X77584190Y-130219237D01*
X77631810Y-130171618D01*
X77727048Y-130123999D01*
X77869905Y-130123999D01*
X77965143Y-130171618D01*
X78012762Y-130219237D01*
X78060381Y-130314475D01*
X78060381Y-130695428D01*
X77060381Y-130695428D01*
X77060381Y-130362094D01*
X77108000Y-130266856D01*
X77155619Y-130219237D01*
X77250857Y-130171618D01*
X77346095Y-130171618D01*
X77441333Y-130219237D01*
X77488952Y-130266856D01*
X77536571Y-130362094D01*
X77536571Y-130695428D01*
X78060381Y-129695428D02*
X77060381Y-129695428D01*
X77774667Y-129362094D01*
X77060381Y-129028761D01*
X78060381Y-129028761D01*
X77965143Y-127981142D02*
X78012762Y-128028761D01*
X78060381Y-128171618D01*
X78060381Y-128266856D01*
X78012762Y-128409714D01*
X77917524Y-128504952D01*
X77822286Y-128552571D01*
X77631810Y-128600190D01*
X77488952Y-128600190D01*
X77298476Y-128552571D01*
X77203238Y-128504952D01*
X77108000Y-128409714D01*
X77060381Y-128266856D01*
X77060381Y-128171618D01*
X77108000Y-128028761D01*
X77155619Y-127981142D01*
X77060381Y-127552571D02*
X77869905Y-127552571D01*
X77965143Y-127504952D01*
X78012762Y-127457333D01*
X78060381Y-127362095D01*
X78060381Y-127171618D01*
X78012762Y-127076380D01*
X77965143Y-127028761D01*
X77869905Y-126981142D01*
X77060381Y-126981142D01*
X78060381Y-125981142D02*
X78060381Y-126552571D01*
X78060381Y-126266857D02*
X77060381Y-126266857D01*
X77203238Y-126362095D01*
X77298476Y-126457333D01*
X77346095Y-126552571D01*
X212477810Y-107569381D02*
X212477810Y-106569381D01*
X213525429Y-107474143D02*
X213477810Y-107521762D01*
X213334953Y-107569381D01*
X213239715Y-107569381D01*
X213096857Y-107521762D01*
X213001619Y-107426524D01*
X212954000Y-107331286D01*
X212906381Y-107140810D01*
X212906381Y-106997952D01*
X212954000Y-106807476D01*
X213001619Y-106712238D01*
X213096857Y-106617000D01*
X213239715Y-106569381D01*
X213334953Y-106569381D01*
X213477810Y-106617000D01*
X213525429Y-106664619D01*
X214477810Y-107569381D02*
X213906381Y-107569381D01*
X214192095Y-107569381D02*
X214192095Y-106569381D01*
X214096857Y-106712238D01*
X214001619Y-106807476D01*
X213906381Y-106855095D01*
X187745810Y-107696381D02*
X187745810Y-106696381D01*
X188793429Y-107601143D02*
X188745810Y-107648762D01*
X188602953Y-107696381D01*
X188507715Y-107696381D01*
X188364857Y-107648762D01*
X188269619Y-107553524D01*
X188222000Y-107458286D01*
X188174381Y-107267810D01*
X188174381Y-107124952D01*
X188222000Y-106934476D01*
X188269619Y-106839238D01*
X188364857Y-106744000D01*
X188507715Y-106696381D01*
X188602953Y-106696381D01*
X188745810Y-106744000D01*
X188793429Y-106791619D01*
X189174381Y-106791619D02*
X189222000Y-106744000D01*
X189317238Y-106696381D01*
X189555334Y-106696381D01*
X189650572Y-106744000D01*
X189698191Y-106791619D01*
X189745810Y-106886857D01*
X189745810Y-106982095D01*
X189698191Y-107124952D01*
X189126762Y-107696381D01*
X189745810Y-107696381D01*
X130491905Y-130976381D02*
X130491905Y-129976381D01*
X130730000Y-129976381D01*
X130872858Y-130024000D01*
X130968096Y-130119238D01*
X131015715Y-130214476D01*
X131063334Y-130404952D01*
X131063334Y-130547810D01*
X131015715Y-130738286D01*
X130968096Y-130833524D01*
X130872858Y-130928762D01*
X130730000Y-130976381D01*
X130491905Y-130976381D01*
X131444286Y-130071619D02*
X131491905Y-130024000D01*
X131587143Y-129976381D01*
X131825239Y-129976381D01*
X131920477Y-130024000D01*
X131968096Y-130071619D01*
X132015715Y-130166857D01*
X132015715Y-130262095D01*
X131968096Y-130404952D01*
X131396667Y-130976381D01*
X132015715Y-130976381D01*
X160433905Y-135802381D02*
X160433905Y-134802381D01*
X160672000Y-134802381D01*
X160814858Y-134850000D01*
X160910096Y-134945238D01*
X160957715Y-135040476D01*
X161005334Y-135230952D01*
X161005334Y-135373810D01*
X160957715Y-135564286D01*
X160910096Y-135659524D01*
X160814858Y-135754762D01*
X160672000Y-135802381D01*
X160433905Y-135802381D01*
X161338667Y-134802381D02*
X161957715Y-134802381D01*
X161624381Y-135183333D01*
X161767239Y-135183333D01*
X161862477Y-135230952D01*
X161910096Y-135278571D01*
X161957715Y-135373810D01*
X161957715Y-135611905D01*
X161910096Y-135707143D01*
X161862477Y-135754762D01*
X161767239Y-135802381D01*
X161481524Y-135802381D01*
X161386286Y-135754762D01*
X161338667Y-135707143D01*
M02*
